M48
; DRILL file {KiCad 8.0.8} date 2025-05-07T18:07:25+0100
; FORMAT={-:-/ absolute / metric / decimal}
; #@! TF.CreationDate,2025-05-07T18:07:25+01:00
; #@! TF.GenerationSoftware,Kicad,Pcbnew,8.0.8
; #@! TF.FileFunction,Plated,1,2,PTH
FMAT,2
METRIC
; #@! TA.AperFunction,Plated,PTH,ComponentDrill
T1C1.200
; #@! TA.AperFunction,Plated,PTH,ComponentDrill
T2C3.200
%
G90
G05
T1
X48.25Y-265.5
X49.75Y-33.0
X49.75Y-49.0
X49.75Y-65.0
X49.75Y-81.0
X49.75Y-97.0
X49.75Y-113.0
X49.75Y-129.0
X49.75Y-145.0
X49.75Y-161.0
X49.75Y-177.0
X49.75Y-193.0
X49.75Y-209.0
X49.75Y-225.0
X49.75Y-241.0
X49.75Y-257.0
X96.25Y-33.0
X96.25Y-49.0
X96.25Y-65.0
X96.25Y-81.0
X96.25Y-97.0
X96.25Y-113.0
X96.25Y-129.0
X96.25Y-145.0
X96.25Y-161.0
X96.25Y-177.0
X96.25Y-193.0
X96.25Y-209.0
X96.25Y-225.0
X96.25Y-241.0
X96.25Y-257.0
X97.5Y-24.5
T2
X34.75Y-26.0
X34.75Y-264.0
X111.25Y-26.0
X111.25Y-264.0
M30
