M48
; DRILL file {KiCad 8.0.8} date 2025-05-01T12:20:30+0100
; FORMAT={-:-/ absolute / metric / decimal}
; #@! TF.CreationDate,2025-05-01T12:20:30+01:00
; #@! TF.GenerationSoftware,Kicad,Pcbnew,8.0.8
; #@! TF.FileFunction,Plated,1,2,PTH
FMAT,2
METRIC
; #@! TA.AperFunction,Plated,PTH,ViaDrill
T1C0.500
; #@! TA.AperFunction,Plated,PTH,ViaDrill
T2C0.600
; #@! TA.AperFunction,Plated,PTH,ComponentDrill
T3C0.700
; #@! TA.AperFunction,Plated,PTH,ComponentDrill
T4C0.750
; #@! TA.AperFunction,Plated,PTH,ComponentDrill
T5C0.762
; #@! TA.AperFunction,Plated,PTH,ViaDrill
T6C0.800
; #@! TA.AperFunction,Plated,PTH,ComponentDrill
T7C0.800
; #@! TA.AperFunction,Plated,PTH,ComponentDrill
T8C1.000
; #@! TA.AperFunction,Plated,PTH,ComponentDrill
T9C1.100
; #@! TA.AperFunction,Plated,PTH,ComponentDrill
T10C1.200
; #@! TA.AperFunction,Plated,PTH,ComponentDrill
T11C1.300
; #@! TA.AperFunction,Plated,PTH,ComponentDrill
T12C1.400
; #@! TA.AperFunction,Plated,PTH,ComponentDrill
T13C1.500
; #@! TA.AperFunction,Plated,PTH,ComponentDrill
T14C2.000
; #@! TA.AperFunction,Plated,PTH,ComponentDrill
T15C2.600
; #@! TA.AperFunction,Plated,PTH,ComponentDrill
T16C3.400
; #@! TA.AperFunction,Plated,PTH,ComponentDrill
T17C4.100
%
G90
G05
T1
X74.7Y-87.8
X80.2Y-87.8
X110.1Y-120.0
T2
X177.75Y-136.25
X179.8Y-134.5
X181.4Y-121.0
X181.75Y-118.5
X182.0Y-134.3
X183.25Y-117.0
X184.0Y-134.3
X184.75Y-115.5
X186.0Y-134.3
X187.75Y-112.7
X188.0Y-134.3
X190.0Y-134.3
X193.12Y-134.2
X216.5Y-113.2
X218.4Y-113.2
X220.3Y-113.2
X222.2Y-113.2
X224.1Y-113.2
X226.0Y-112.0
X227.5Y-110.5
X229.0Y-109.0
X230.5Y-107.5
X232.0Y-106.0
X234.0Y-105.0
T3
X73.0Y-94.8
X75.54Y-94.8
X128.8Y-131.76
X128.8Y-134.3
T4
X103.22Y-120.96
X104.49Y-119.69
X105.76Y-120.96
X166.23Y-109.56
X167.5Y-108.29
X168.77Y-109.56
T5
X95.75Y-87.3
X95.75Y-112.7
X98.29Y-87.3
X98.29Y-112.7
X100.83Y-87.3
X100.83Y-112.7
X103.37Y-87.3
X103.37Y-112.7
X105.91Y-87.3
X105.91Y-112.7
X108.45Y-87.3
X108.45Y-112.7
X110.99Y-87.3
X110.99Y-112.7
X113.53Y-87.3
X113.53Y-112.7
X116.07Y-87.3
X116.07Y-112.7
X116.8Y-120.1
X116.8Y-123.6
X118.61Y-87.3
X118.61Y-112.7
X121.15Y-87.3
X121.15Y-112.7
X123.69Y-87.3
X123.69Y-112.7
X126.23Y-87.3
X126.23Y-112.7
X128.77Y-87.3
X128.77Y-112.7
X131.31Y-87.3
X131.31Y-112.7
X158.0Y-158.6
X158.0Y-178.6
X158.0Y-198.6
X158.0Y-218.6
X178.0Y-158.6
X178.0Y-178.6
X178.0Y-198.6
X178.0Y-218.6
X198.0Y-158.6
X198.0Y-178.6
X198.0Y-198.6
X198.0Y-218.6
X218.0Y-158.6
X218.0Y-178.6
X218.0Y-198.6
X218.0Y-218.6
X238.0Y-158.6
X238.0Y-178.6
X238.0Y-198.6
X238.0Y-218.6
T6
X39.0Y-94.8
X39.4Y-70.8
X39.85Y-86.2
X51.45Y-132.45
X51.45Y-134.95
X53.95Y-132.45
X53.95Y-134.95
X56.45Y-132.45
X56.45Y-134.95
X57.5Y-142.5
X57.5Y-145.0
X57.5Y-147.5
X57.5Y-150.0
X57.5Y-152.5
X57.5Y-167.5
X57.5Y-170.0
X57.5Y-172.5
X57.5Y-175.0
X57.5Y-195.0
X57.5Y-197.5
X57.5Y-200.0
X57.5Y-202.5
X58.95Y-124.95
X58.95Y-127.45
X58.95Y-129.95
X58.95Y-132.45
X58.95Y-134.95
X60.0Y-145.0
X60.0Y-147.5
X60.0Y-150.0
X60.0Y-152.5
X60.0Y-155.0
X60.0Y-157.5
X60.0Y-160.0
X60.0Y-162.5
X60.0Y-165.0
X60.0Y-167.5
X60.0Y-170.0
X60.0Y-172.5
X60.0Y-175.0
X60.0Y-177.5
X60.0Y-180.0
X60.0Y-182.5
X60.0Y-185.0
X60.0Y-187.5
X60.0Y-190.0
X60.0Y-192.5
X60.0Y-195.0
X60.0Y-197.5
X60.0Y-200.0
X60.0Y-202.5
X60.0Y-205.0
X60.0Y-207.5
X61.45Y-129.95
X61.45Y-132.45
X61.45Y-134.95
X62.5Y-150.0
X62.5Y-152.5
X62.5Y-155.0
X62.5Y-157.5
X62.5Y-160.0
X62.5Y-162.5
X62.5Y-165.0
X62.5Y-167.5
X62.5Y-175.0
X62.5Y-177.5
X62.5Y-180.0
X62.5Y-182.5
X62.5Y-185.0
X62.5Y-187.5
X62.5Y-190.0
X62.5Y-192.5
X62.5Y-195.0
X62.5Y-202.5
X62.5Y-205.0
X62.5Y-207.5
X63.95Y-132.45
X63.95Y-134.95
X77.5Y-132.5
X77.5Y-135.0
X77.5Y-137.5
X80.0Y-132.5
X80.0Y-135.0
X80.0Y-137.5
X82.05Y-86.05
X82.5Y-132.5
X82.5Y-135.0
X82.5Y-137.5
X82.5Y-140.0
X82.6Y-93.6
X85.0Y-132.5
X85.0Y-135.0
X85.0Y-137.5
X85.0Y-140.0
X87.5Y-132.5
X87.5Y-135.0
X87.5Y-137.5
X87.5Y-140.0
X90.0Y-135.0
X90.0Y-137.5
X90.0Y-140.0
X91.5Y-145.0
X91.5Y-147.5
X91.5Y-150.0
X91.5Y-152.5
X91.5Y-155.0
X91.5Y-157.5
X91.5Y-160.0
X91.5Y-162.5
X91.5Y-165.0
X91.5Y-167.5
X91.5Y-170.0
X91.5Y-172.5
X91.5Y-175.0
X91.5Y-177.5
X91.5Y-180.0
X91.5Y-182.5
X91.5Y-185.0
X91.5Y-187.5
X91.5Y-190.0
X91.5Y-192.5
X91.5Y-195.0
X91.5Y-197.5
X91.5Y-200.0
X91.5Y-202.5
X91.5Y-205.0
X91.5Y-207.5
X92.5Y-135.0
X92.5Y-137.5
X92.5Y-140.0
X94.0Y-145.0
X94.0Y-147.5
X94.0Y-150.0
X94.0Y-152.5
X94.0Y-155.0
X94.0Y-157.5
X94.0Y-160.0
X94.0Y-162.5
X94.0Y-165.0
X94.0Y-167.5
X94.0Y-170.0
X94.0Y-172.5
X94.0Y-175.0
X94.0Y-177.5
X94.0Y-180.0
X94.0Y-182.5
X94.0Y-185.0
X94.0Y-187.5
X94.0Y-190.0
X94.0Y-192.5
X94.0Y-195.0
X94.0Y-197.5
X94.0Y-200.0
X94.0Y-202.5
X94.0Y-205.0
X94.0Y-207.5
X95.0Y-135.0
X95.0Y-137.5
X95.0Y-140.0
X97.5Y-135.0
X97.5Y-137.5
X97.5Y-140.0
X100.0Y-135.0
X100.0Y-137.5
X100.0Y-140.0
X104.5Y-215.5
X104.5Y-218.0
X104.5Y-220.5
X104.5Y-223.0
X104.5Y-225.5
X105.0Y-193.0
X105.0Y-195.5
X105.0Y-198.0
X107.0Y-215.5
X107.0Y-218.0
X107.0Y-220.5
X107.0Y-223.0
X107.0Y-225.5
X107.5Y-193.0
X107.5Y-195.5
X108.0Y-198.0
X108.5Y-142.5
X108.5Y-145.5
X108.5Y-148.5
X109.0Y-133.5
X109.5Y-220.5
X109.5Y-223.0
X111.0Y-198.0
X111.5Y-133.5
X111.5Y-136.5
X111.5Y-139.5
X111.5Y-142.5
X111.5Y-145.5
X111.5Y-148.5
X111.5Y-172.5
X112.0Y-220.5
X112.0Y-223.0
X113.5Y-198.0
X114.0Y-133.5
X114.0Y-136.5
X114.0Y-139.5
X114.0Y-142.5
X114.0Y-145.5
X114.0Y-148.5
X114.0Y-172.5
X114.5Y-220.5
X114.5Y-223.0
X116.0Y-198.0
X116.5Y-133.5
X116.5Y-136.5
X116.5Y-139.5
X116.5Y-142.5
X116.5Y-145.5
X116.5Y-148.5
X117.0Y-172.5
X117.0Y-220.5
X117.0Y-223.0
X118.4Y-176.0
X118.5Y-179.0
X119.0Y-136.5
X119.0Y-139.5
X119.0Y-142.5
X119.0Y-145.5
X119.0Y-148.5
X119.5Y-191.5
X119.5Y-194.0
X119.5Y-196.5
X119.5Y-199.0
X119.5Y-201.5
X119.5Y-204.0
X119.5Y-206.5
X119.5Y-220.5
X119.5Y-223.0
X120.0Y-163.5
X120.0Y-166.0
X120.0Y-168.5
X120.0Y-172.5
X121.0Y-176.0
X121.0Y-179.0
X121.5Y-136.5
X121.5Y-139.5
X121.5Y-142.5
X121.5Y-145.5
X121.5Y-148.5
X122.0Y-194.0
X122.0Y-196.5
X122.0Y-199.0
X122.0Y-201.5
X122.0Y-204.0
X122.0Y-206.5
X122.0Y-220.5
X122.0Y-223.0
X122.5Y-163.5
X122.5Y-166.0
X122.5Y-168.5
X122.5Y-172.5
X123.5Y-176.0
X123.5Y-179.0
X124.5Y-218.0
X124.5Y-220.5
X124.5Y-223.0
X125.0Y-166.0
X125.0Y-168.5
X127.0Y-218.0
X127.0Y-220.5
X127.0Y-223.0
X128.4Y-91.8
X129.5Y-220.5
X129.5Y-223.0
X130.5Y-210.0
X130.5Y-212.5
X130.5Y-215.0
X132.0Y-218.0
X132.0Y-220.5
X132.0Y-223.0
X133.0Y-210.0
X133.0Y-212.5
X134.5Y-220.5
X135.5Y-210.0
X136.8Y-100.2
X138.0Y-210.0
X140.5Y-210.0
X140.5Y-212.5
X155.5Y-158.6
X155.5Y-178.6
X155.5Y-198.6
X155.5Y-218.6
X158.0Y-156.1
X158.0Y-161.1
X158.0Y-176.1
X158.0Y-181.1
X158.0Y-196.1
X158.0Y-201.1
X158.0Y-216.1
X158.0Y-221.1
X160.5Y-158.6
X160.5Y-178.6
X160.5Y-198.6
X160.5Y-218.6
X175.5Y-158.6
X175.5Y-178.6
X175.5Y-198.6
X175.5Y-218.6
X178.0Y-156.1
X178.0Y-161.1
X178.0Y-176.1
X178.0Y-181.1
X178.0Y-196.1
X178.0Y-201.1
X178.0Y-216.1
X178.0Y-221.1
X180.5Y-158.6
X180.5Y-178.6
X180.5Y-198.6
X180.5Y-218.6
X195.5Y-158.6
X195.5Y-178.6
X195.5Y-198.6
X195.5Y-218.6
X198.0Y-156.1
X198.0Y-161.1
X198.0Y-176.1
X198.0Y-181.1
X198.0Y-196.1
X198.0Y-201.1
X198.0Y-216.1
X198.0Y-221.1
X200.5Y-158.6
X200.5Y-178.6
X200.5Y-198.6
X200.5Y-218.6
X207.0Y-140.0
X208.0Y-137.5
X211.0Y-134.5
X211.0Y-137.0
X214.0Y-135.0
X214.0Y-137.5
X214.0Y-140.0
X215.5Y-158.6
X215.5Y-178.6
X215.5Y-198.6
X215.5Y-218.6
X217.0Y-132.5
X217.0Y-135.0
X217.0Y-137.5
X217.0Y-140.0
X218.0Y-156.1
X218.0Y-161.1
X218.0Y-176.1
X218.0Y-181.1
X218.0Y-196.1
X218.0Y-201.1
X218.0Y-216.1
X218.0Y-221.1
X219.5Y-132.5
X219.5Y-135.0
X219.5Y-137.5
X219.5Y-140.0
X220.5Y-158.6
X220.5Y-178.6
X220.5Y-198.6
X220.5Y-218.6
X222.0Y-133.0
X224.5Y-133.0
X235.5Y-158.6
X235.5Y-178.6
X235.5Y-198.6
X235.5Y-218.6
X238.0Y-156.1
X238.0Y-161.1
X238.0Y-176.1
X238.0Y-181.1
X238.0Y-196.1
X238.0Y-201.1
X238.0Y-216.1
X238.0Y-221.1
X240.5Y-158.6
X240.5Y-178.6
X240.5Y-198.6
X240.5Y-218.6
T7
X59.79Y-91.0
X59.79Y-98.62
X61.6Y-102.42
X61.6Y-112.58
X62.33Y-91.0
X62.33Y-98.62
X64.87Y-91.0
X64.87Y-98.62
X65.6Y-102.59
X65.6Y-110.21
X67.41Y-91.0
X67.41Y-98.62
X69.3Y-104.29
X69.3Y-111.91
X71.79Y-99.8
X78.0Y-66.94
X78.0Y-74.56
X79.41Y-99.8
X79.99Y-93.5
X79.99Y-96.8
X81.5Y-66.88
X81.5Y-74.5
X87.61Y-93.5
X87.61Y-96.8
X89.18Y-119.2
X94.25Y-67.0
X96.71Y-61.25
X96.8Y-119.2
X99.25Y-61.25
X99.25Y-67.0
X99.99Y-119.1
X99.99Y-124.1
X101.79Y-61.25
X106.25Y-67.0
X110.71Y-61.25
X111.25Y-67.0
X113.25Y-61.25
X113.75Y-67.0
X115.79Y-61.25
X118.75Y-67.0
X121.25Y-67.0
X124.71Y-61.25
X126.25Y-67.0
X127.25Y-61.25
X128.16Y-120.28
X128.16Y-127.9
X128.75Y-67.0
X129.79Y-61.25
X130.7Y-120.28
X130.7Y-127.9
X133.215Y-131.1
X133.215Y-136.1
X133.24Y-120.28
X133.24Y-127.9
X133.75Y-67.0
X135.78Y-120.28
X135.78Y-127.9
X136.25Y-67.0
X138.71Y-61.25
X140.6Y-118.09
X140.6Y-125.71
X141.25Y-61.25
X141.25Y-67.0
X143.79Y-61.25
X144.1Y-120.99
X144.1Y-128.61
X144.2Y-131.59
X144.2Y-139.21
X145.0Y-113.5
X147.5Y-121.09
X147.5Y-128.71
X147.5Y-131.58
X147.5Y-139.2
X147.88Y-116.19
X148.75Y-67.0
X150.388Y-108.112
X150.7Y-131.49
X150.7Y-139.11
X152.71Y-61.25
X153.268Y-121.578
X153.75Y-67.0
X155.25Y-61.25
X156.25Y-67.0
X157.79Y-61.25
X161.25Y-67.0
X163.75Y-67.0
X166.71Y-61.25
X168.75Y-67.0
X168.8Y-114.2
X168.8Y-126.9
X169.25Y-61.25
X171.25Y-67.0
X171.79Y-61.25
X174.1Y-107.75
X174.1Y-120.45
X176.25Y-67.0
X177.59Y-120.5
X178.75Y-67.0
X178.98Y-114.6
X180.71Y-61.25
X183.25Y-61.25
X183.75Y-67.0
X185.21Y-120.5
X185.79Y-61.25
X186.6Y-114.6
X191.25Y-67.0
X192.0Y-128.29
X192.0Y-135.91
X194.71Y-61.25
X196.25Y-67.0
X197.25Y-61.25
X198.75Y-67.0
X199.79Y-61.25
X203.75Y-67.0
X206.25Y-67.0
X208.71Y-61.25
X211.25Y-61.25
X211.25Y-67.0
X213.75Y-67.0
X213.79Y-61.25
X218.75Y-67.0
X221.25Y-67.0
X222.71Y-61.25
X225.25Y-61.25
X226.25Y-67.0
X227.79Y-61.25
X232.75Y-67.0
X236.71Y-61.25
X237.75Y-67.0
X239.25Y-61.25
X240.25Y-67.0
X241.79Y-61.25
X245.25Y-67.0
T8
X35.237Y-146.05
X35.237Y-172.15
X35.237Y-198.25
X59.4Y-53.4
X59.48Y-62.65
X61.94Y-53.4
X62.02Y-62.65
X62.737Y-146.05
X62.737Y-172.15
X62.737Y-198.25
X64.48Y-53.4
X64.56Y-62.65
X67.02Y-53.4
X67.1Y-62.65
X69.187Y-146.0
X69.237Y-172.05
X69.237Y-198.15
X69.56Y-53.4
X69.64Y-62.65
X78.38Y-53.25
X80.92Y-53.25
X83.46Y-53.25
X84.025Y-77.95
X86.0Y-53.25
X86.565Y-77.95
X89.105Y-77.95
X91.645Y-77.95
X94.185Y-77.95
X96.687Y-146.0
X96.725Y-77.95
X96.737Y-172.05
X96.737Y-198.15
X99.265Y-77.95
X101.805Y-77.95
X158.0Y-151.1
X158.0Y-171.1
X158.0Y-191.1
X158.0Y-211.1
X178.0Y-151.1
X178.0Y-171.1
X178.0Y-191.1
X178.0Y-211.1
X198.0Y-151.1
X198.0Y-171.1
X198.0Y-191.1
X198.0Y-211.1
X218.0Y-151.1
X218.0Y-171.1
X218.0Y-191.1
X218.0Y-211.1
X238.0Y-151.1
X238.0Y-171.1
X238.0Y-191.1
X238.0Y-211.1
T9
X48.2Y-65.8
X48.2Y-70.8
X48.2Y-90.6
X48.2Y-95.6
X61.5Y-120.1
X64.04Y-122.6
X66.58Y-120.1
X121.4Y-159.3
X121.4Y-211.675
X126.4Y-159.3
X126.4Y-211.675
T10
X175.4Y-126.4
X187.4Y-126.4
X198.3Y-128.25
X198.3Y-140.25
T11
X36.4Y-55.8
X36.4Y-60.8
X36.4Y-65.8
X36.4Y-70.8
X36.4Y-78.05
X36.4Y-83.05
X36.4Y-88.05
X36.4Y-93.05
T12
X191.0Y-113.2
X213.46Y-113.2
T13
X61.0Y-72.9
X61.0Y-79.4
X61.25Y-215.69
X61.25Y-223.31
X63.79Y-215.69
X63.79Y-223.31
X65.5Y-72.9
X65.5Y-79.4
X66.33Y-215.69
X66.33Y-223.31
X68.87Y-215.69
X68.87Y-223.31
X70.0Y-72.9
X70.0Y-79.4
X71.41Y-215.69
X71.41Y-223.31
X84.67Y-215.69
X84.67Y-223.31
X87.21Y-215.69
X87.21Y-223.31
X89.75Y-215.69
X89.75Y-223.31
X92.29Y-215.69
X92.29Y-223.31
X94.83Y-215.69
X94.83Y-223.31
X175.4Y-138.6
X181.4Y-124.4
X187.4Y-138.6
X196.3Y-134.25
X210.5Y-128.25
X210.5Y-140.25
X237.38Y-76.21
X237.38Y-78.75
X237.38Y-81.29
X237.38Y-83.83
X237.38Y-86.37
X237.38Y-94.96
X237.38Y-97.5
X237.38Y-100.04
X237.38Y-102.58
X237.38Y-105.12
X245.0Y-76.21
X245.0Y-78.75
X245.0Y-81.29
X245.0Y-83.83
X245.0Y-86.37
X245.0Y-94.96
X245.0Y-97.5
X245.0Y-100.04
X245.0Y-102.58
X245.0Y-105.12
T14
X148.0Y-91.75
X228.0Y-91.75
T15
X51.34Y-115.75
X76.74Y-115.75
X111.2Y-155.6
X111.2Y-215.0
X136.6Y-155.6
X136.6Y-215.0
T16
X29.5Y-47.5
X29.5Y-231.0
X160.5Y-134.3
X250.0Y-47.5
X250.0Y-231.0
T17
X165.75Y-91.75
X210.25Y-91.75
M30
