%TF.GenerationSoftware,KiCad,Pcbnew,8.0.8*%
%TF.CreationDate,2025-05-01T12:20:28+01:00*%
%TF.ProjectId,HVPSController,48565053-436f-46e7-9472-6f6c6c65722e,rev?*%
%TF.SameCoordinates,Original*%
%TF.FileFunction,Soldermask,Top*%
%TF.FilePolarity,Negative*%
%FSLAX46Y46*%
G04 Gerber Fmt 4.6, Leading zero omitted, Abs format (unit mm)*
G04 Created by KiCad (PCBNEW 8.0.8) date 2025-05-01 12:20:28*
%MOMM*%
%LPD*%
G01*
G04 APERTURE LIST*
G04 Aperture macros list*
%AMRoundRect*
0 Rectangle with rounded corners*
0 $1 Rounding radius*
0 $2 $3 $4 $5 $6 $7 $8 $9 X,Y pos of 4 corners*
0 Add a 4 corners polygon primitive as box body*
4,1,4,$2,$3,$4,$5,$6,$7,$8,$9,$2,$3,0*
0 Add four circle primitives for the rounded corners*
1,1,$1+$1,$2,$3*
1,1,$1+$1,$4,$5*
1,1,$1+$1,$6,$7*
1,1,$1+$1,$8,$9*
0 Add four rect primitives between the rounded corners*
20,1,$1+$1,$2,$3,$4,$5,0*
20,1,$1+$1,$4,$5,$6,$7,0*
20,1,$1+$1,$6,$7,$8,$9,0*
20,1,$1+$1,$8,$9,$2,$3,0*%
%AMHorizOval*
0 Thick line with rounded ends*
0 $1 width*
0 $2 $3 position (X,Y) of the first rounded end (center of the circle)*
0 $4 $5 position (X,Y) of the second rounded end (center of the circle)*
0 Add line between two ends*
20,1,$1,$2,$3,$4,$5,0*
0 Add two circle primitives to create the rounded ends*
1,1,$1,$2,$3*
1,1,$1,$4,$5*%
G04 Aperture macros list end*
%ADD10R,1.524000X1.524000*%
%ADD11C,1.524000*%
%ADD12R,2.400000X2.400000*%
%ADD13C,2.400000*%
%ADD14R,1.700000X1.700000*%
%ADD15O,1.700000X1.700000*%
%ADD16C,3.000000*%
%ADD17C,2.000000*%
%ADD18C,1.600000*%
%ADD19O,1.600000X1.600000*%
%ADD20R,2.200000X2.200000*%
%ADD21C,2.200000*%
%ADD22C,7.500000*%
%ADD23C,5.000000*%
%ADD24C,2.500000*%
%ADD25RoundRect,0.250001X-1.149999X1.149999X-1.149999X-1.149999X1.149999X-1.149999X1.149999X1.149999X0*%
%ADD26C,2.800000*%
%ADD27R,1.600000X1.600000*%
%ADD28C,3.500000*%
%ADD29RoundRect,1.332500X-1.662500X1.332500X-1.662500X-1.332500X1.662500X-1.332500X1.662500X1.332500X0*%
%ADD30RoundRect,1.320000X-1.320000X1.855000X-1.320000X-1.855000X1.320000X-1.855000X1.320000X1.855000X0*%
%ADD31R,1.300000X1.300000*%
%ADD32C,1.300000*%
%ADD33C,4.000000*%
%ADD34C,6.100000*%
%ADD35R,1.600000X2.400000*%
%ADD36O,1.600000X2.400000*%
%ADD37RoundRect,0.762500X0.762500X-1.077500X0.762500X1.077500X-0.762500X1.077500X-0.762500X-1.077500X0*%
%ADD38HorizOval,1.600000X0.000000X0.000000X0.000000X0.000000X0*%
%ADD39HorizOval,1.600000X0.000000X0.000000X0.000000X0.000000X0*%
%ADD40RoundRect,1.332500X-1.332500X-1.662500X1.332500X-1.662500X1.332500X1.662500X-1.332500X1.662500X0*%
%ADD41RoundRect,1.320000X-1.855000X-1.320000X1.855000X-1.320000X1.855000X1.320000X-1.855000X1.320000X0*%
G04 APERTURE END LIST*
D10*
%TO.C,C25*%
X116800000Y-120100000D03*
D11*
X116800000Y-123600000D03*
%TD*%
D12*
%TO.C,C3*%
X48200000Y-95600000D03*
D13*
X48200000Y-90600000D03*
%TD*%
D12*
%TO.C,C2*%
X48200000Y-70800000D03*
D13*
X48200000Y-65800000D03*
%TD*%
D14*
%TO.C,J1*%
X86000000Y-53250000D03*
D15*
X83460000Y-53250000D03*
X80920000Y-53250000D03*
X78380000Y-53250000D03*
%TD*%
D16*
%TO.C,OT1*%
X103060000Y-57500000D03*
X95440000Y-57500000D03*
D17*
X96710000Y-61250000D03*
X99250000Y-61250000D03*
X101790000Y-61250000D03*
%TD*%
D16*
%TO.C,OR2*%
X131060000Y-57500000D03*
X123440000Y-57500000D03*
D17*
X124710000Y-61250000D03*
X127250000Y-61250000D03*
X129790000Y-61250000D03*
%TD*%
D16*
%TO.C,C51*%
X96737436Y-172050000D03*
X69237436Y-172050000D03*
%TD*%
D18*
%TO.C,R17*%
X174100000Y-107750000D03*
D19*
X174100000Y-120450000D03*
%TD*%
D20*
%TO.C,C23*%
X218000000Y-158600000D03*
D21*
X218000000Y-151100000D03*
%TD*%
D16*
%TO.C,OR7*%
X243060000Y-57500000D03*
X235440000Y-57500000D03*
D17*
X236710000Y-61250000D03*
X239250000Y-61250000D03*
X241790000Y-61250000D03*
%TD*%
D20*
%TO.C,C43*%
X218000000Y-218600000D03*
D21*
X218000000Y-211100000D03*
%TD*%
D18*
%TO.C,R11*%
X140600000Y-125710000D03*
D19*
X140600000Y-118090000D03*
%TD*%
D22*
%TO.C,J15*%
X160500000Y-134300000D03*
%TD*%
D16*
%TO.C,S1*%
X61000000Y-72900000D03*
X65500000Y-72900000D03*
X70000000Y-72900000D03*
X61000000Y-79400000D03*
X65500000Y-79400000D03*
X70000000Y-79400000D03*
%TD*%
D17*
%TO.C,U4*%
X61500000Y-120100000D03*
X64040000Y-122600000D03*
X66580000Y-120100000D03*
%TD*%
D18*
%TO.C,R15*%
X89180000Y-119200000D03*
D19*
X96800000Y-119200000D03*
%TD*%
D23*
%TO.C,H2*%
X136600000Y-215000000D03*
X111200000Y-215000000D03*
%TD*%
D16*
%TO.C,OR4*%
X173060000Y-57500000D03*
X165440000Y-57500000D03*
D17*
X166710000Y-61250000D03*
X169250000Y-61250000D03*
X171790000Y-61250000D03*
%TD*%
D18*
%TO.C,C6*%
X106250000Y-67000000D03*
X111250000Y-67000000D03*
%TD*%
D20*
%TO.C,C29*%
X238000000Y-158600000D03*
D21*
X238000000Y-151100000D03*
%TD*%
D24*
%TO.C,J3*%
X84670000Y-215690000D03*
X84670000Y-223310000D03*
X87210000Y-215690000D03*
X87210000Y-223310000D03*
X89750000Y-215690000D03*
X89750000Y-223310000D03*
X92290000Y-215690000D03*
X92290000Y-223310000D03*
X94830000Y-215690000D03*
X94830000Y-223310000D03*
%TD*%
D20*
%TO.C,C44*%
X238000000Y-218600000D03*
D21*
X238000000Y-211100000D03*
%TD*%
D20*
%TO.C,C31*%
X178000000Y-198600000D03*
D21*
X178000000Y-191100000D03*
%TD*%
D18*
%TO.C,R8*%
X144200000Y-131590000D03*
D19*
X144200000Y-139210000D03*
%TD*%
D25*
%TO.C,J7*%
X36400000Y-55800000D03*
D26*
X36400000Y-60800000D03*
X36400000Y-65800000D03*
X36400000Y-70800000D03*
%TD*%
D18*
%TO.C,C1*%
X75540000Y-94800000D03*
X73000000Y-94800000D03*
%TD*%
%TO.C,C8*%
X133750000Y-67000000D03*
X128750000Y-67000000D03*
%TD*%
D16*
%TO.C,F1*%
X213460000Y-113200000D03*
X191000000Y-113200000D03*
%TD*%
D18*
%TO.C,C16*%
X203750000Y-67000000D03*
X198750000Y-67000000D03*
%TD*%
D24*
%TO.C,J5*%
X237380000Y-105120000D03*
X245000000Y-105120000D03*
X237380000Y-102580000D03*
X245000000Y-102580000D03*
X237380000Y-100040000D03*
X245000000Y-100040000D03*
X237380000Y-97500000D03*
X245000000Y-97500000D03*
X237380000Y-94960000D03*
X245000000Y-94960000D03*
%TD*%
D18*
%TO.C,R7*%
X150700000Y-139110000D03*
D19*
X150700000Y-131490000D03*
%TD*%
D20*
%TO.C,C34*%
X238000000Y-198600000D03*
D21*
X238000000Y-191100000D03*
%TD*%
D18*
%TO.C,C19*%
X133215000Y-131100000D03*
X133215000Y-136100000D03*
%TD*%
%TO.C,C45*%
X232750000Y-67000000D03*
X237750000Y-67000000D03*
%TD*%
%TO.C,C17*%
X206250000Y-67000000D03*
X211250000Y-67000000D03*
%TD*%
D20*
%TO.C,C20*%
X158000000Y-158600000D03*
D21*
X158000000Y-151100000D03*
%TD*%
D18*
%TO.C,R1*%
X61600000Y-102420000D03*
D19*
X61600000Y-112580000D03*
%TD*%
D20*
%TO.C,C30*%
X158000000Y-198600000D03*
D21*
X158000000Y-191100000D03*
%TD*%
D27*
%TO.C,D6*%
X178980000Y-114600000D03*
D19*
X186600000Y-114600000D03*
%TD*%
D20*
%TO.C,C37*%
X198000000Y-178600000D03*
D21*
X198000000Y-171100000D03*
%TD*%
%TO.C,U7*%
X187400000Y-126400000D03*
D24*
X181400000Y-124400000D03*
D21*
X175400000Y-126400000D03*
D24*
X175400000Y-138600000D03*
X187400000Y-138600000D03*
%TD*%
D20*
%TO.C,C41*%
X178000000Y-218600000D03*
D21*
X178000000Y-211100000D03*
%TD*%
D22*
%TO.C,J12*%
X29500000Y-231000000D03*
%TD*%
D28*
%TO.C,D8*%
X121400000Y-159300000D03*
X126400000Y-159300000D03*
%TD*%
D29*
%TO.C,L2*%
X113250000Y-177450000D03*
X113250000Y-192950000D03*
D30*
X135250000Y-185250000D03*
%TD*%
D31*
%TO.C,U3*%
X103220000Y-120960000D03*
D32*
X104490000Y-119690000D03*
X105760000Y-120960000D03*
%TD*%
D18*
%TO.C,C11*%
X161250000Y-67000000D03*
X156250000Y-67000000D03*
%TD*%
D24*
%TO.C,J6*%
X237380000Y-86370000D03*
X245000000Y-86370000D03*
X237380000Y-83830000D03*
X245000000Y-83830000D03*
X237380000Y-81290000D03*
X245000000Y-81290000D03*
X237380000Y-78750000D03*
X245000000Y-78750000D03*
X237380000Y-76210000D03*
X245000000Y-76210000D03*
%TD*%
D20*
%TO.C,C36*%
X178000000Y-178600000D03*
D21*
X178000000Y-171100000D03*
%TD*%
D27*
%TO.C,D5*%
X177590000Y-120500000D03*
D19*
X185210000Y-120500000D03*
%TD*%
D14*
%TO.C,J2*%
X84025000Y-77950000D03*
D15*
X86565000Y-77950000D03*
X89105000Y-77950000D03*
X91645000Y-77950000D03*
X94185000Y-77950000D03*
X96725000Y-77950000D03*
X99265000Y-77950000D03*
X101805000Y-77950000D03*
%TD*%
D18*
%TO.C,C27*%
X226250000Y-67000000D03*
X221250000Y-67000000D03*
%TD*%
D22*
%TO.C,J11*%
X29500000Y-47500000D03*
%TD*%
D16*
%TO.C,OR6*%
X215060000Y-57500000D03*
X207440000Y-57500000D03*
D17*
X208710000Y-61250000D03*
X211250000Y-61250000D03*
X213790000Y-61250000D03*
%TD*%
D18*
%TO.C,C5*%
X118750000Y-67000000D03*
X113750000Y-67000000D03*
%TD*%
D16*
%TO.C,C50*%
X96737436Y-198150000D03*
X69237436Y-198150000D03*
%TD*%
D22*
%TO.C,J13*%
X250000000Y-231000000D03*
%TD*%
D20*
%TO.C,C32*%
X198000000Y-198600000D03*
D21*
X198000000Y-191100000D03*
%TD*%
D16*
%TO.C,OT2*%
X145060000Y-57500000D03*
X137440000Y-57500000D03*
D17*
X138710000Y-61250000D03*
X141250000Y-61250000D03*
X143790000Y-61250000D03*
%TD*%
D20*
%TO.C,C35*%
X158000000Y-178600000D03*
D21*
X158000000Y-171100000D03*
%TD*%
D19*
%TO.C,R3*%
X79410000Y-99800000D03*
D18*
X71790000Y-99800000D03*
%TD*%
D20*
%TO.C,C21*%
X178000000Y-158600000D03*
D21*
X178000000Y-151100000D03*
%TD*%
D16*
%TO.C,C49*%
X62737436Y-198250000D03*
X35237436Y-198250000D03*
%TD*%
D33*
%TO.C,R4*%
X148000000Y-91750000D03*
X228000000Y-91750000D03*
D34*
X210250000Y-91750000D03*
X165750000Y-91750000D03*
%TD*%
D18*
%TO.C,C9*%
X141250000Y-67000000D03*
X136250000Y-67000000D03*
%TD*%
D20*
%TO.C,C39*%
X238000000Y-178600000D03*
D21*
X238000000Y-171100000D03*
%TD*%
D28*
%TO.C,D1*%
X126400000Y-211675000D03*
X121400000Y-211675000D03*
%TD*%
D17*
%TO.C,J9*%
X59480000Y-62650000D03*
X62020000Y-62650000D03*
X64560000Y-62650000D03*
X67100000Y-62650000D03*
X69640000Y-62650000D03*
%TD*%
D20*
%TO.C,C38*%
X218000000Y-178600000D03*
D21*
X218000000Y-171100000D03*
%TD*%
D31*
%TO.C,U5*%
X166230000Y-109560000D03*
D32*
X167500000Y-108290000D03*
X168770000Y-109560000D03*
%TD*%
D16*
%TO.C,C47*%
X62737436Y-146050000D03*
X35237436Y-146050000D03*
%TD*%
D18*
%TO.C,R10*%
X144100000Y-120990000D03*
D19*
X144100000Y-128610000D03*
%TD*%
D17*
%TO.C,X1*%
X95750000Y-112700000D03*
X98290000Y-112700000D03*
X100830000Y-112700000D03*
X103370000Y-112700000D03*
X105910000Y-112700000D03*
X108450000Y-112700000D03*
X110990000Y-112700000D03*
X113530000Y-112700000D03*
X116070000Y-112700000D03*
X118610000Y-112700000D03*
X121150000Y-112700000D03*
X123690000Y-112700000D03*
X126230000Y-112700000D03*
X128770000Y-112700000D03*
X131310000Y-112700000D03*
X131310000Y-87300000D03*
X128770000Y-87300000D03*
X126230000Y-87300000D03*
X123690000Y-87300000D03*
X121150000Y-87300000D03*
X118610000Y-87300000D03*
X116070000Y-87300000D03*
X113530000Y-87300000D03*
X110990000Y-87300000D03*
X108450000Y-87300000D03*
X105910000Y-87300000D03*
X103370000Y-87300000D03*
X100830000Y-87300000D03*
X98290000Y-87300000D03*
X95750000Y-87300000D03*
%TD*%
%TO.C,J10*%
X69560000Y-53400000D03*
X67020000Y-53400000D03*
X64480000Y-53400000D03*
X61940000Y-53400000D03*
X59400000Y-53400000D03*
%TD*%
D18*
%TO.C,R5*%
X168800000Y-126900000D03*
D19*
X168800000Y-114200000D03*
%TD*%
D20*
%TO.C,C22*%
X198000000Y-158600000D03*
D21*
X198000000Y-151100000D03*
%TD*%
D20*
%TO.C,C40*%
X158000000Y-218600000D03*
D21*
X158000000Y-211100000D03*
%TD*%
D35*
%TO.C,U2*%
X135780000Y-120280000D03*
D36*
X133240000Y-120280000D03*
X130700000Y-120280000D03*
X128160000Y-120280000D03*
X128160000Y-127900000D03*
X130700000Y-127900000D03*
X133240000Y-127900000D03*
X135780000Y-127900000D03*
%TD*%
D18*
%TO.C,R19*%
X78000000Y-74560000D03*
D19*
X78000000Y-66940000D03*
%TD*%
D37*
%TO.C,R9*%
X103500000Y-137900000D03*
X107820000Y-137900000D03*
%TD*%
D18*
%TO.C,R16*%
X145000000Y-113500000D03*
D38*
X150388154Y-108111846D03*
%TD*%
D18*
%TO.C,R18*%
X81500000Y-74500000D03*
D19*
X81500000Y-66880000D03*
%TD*%
D23*
%TO.C,H1*%
X111200000Y-155600000D03*
X136600000Y-155600000D03*
%TD*%
D18*
%TO.C,C13*%
X176250000Y-67000000D03*
X171250000Y-67000000D03*
%TD*%
D16*
%TO.C,OR1*%
X117060000Y-57500000D03*
X109440000Y-57500000D03*
D17*
X110710000Y-61250000D03*
X113250000Y-61250000D03*
X115790000Y-61250000D03*
%TD*%
D18*
%TO.C,C4*%
X99250000Y-67000000D03*
X94250000Y-67000000D03*
%TD*%
%TO.C,R13*%
X87610000Y-96800000D03*
D19*
X79990000Y-96800000D03*
%TD*%
D24*
%TO.C,J4*%
X61250000Y-215690000D03*
X61250000Y-223310000D03*
X63790000Y-215690000D03*
X63790000Y-223310000D03*
X66330000Y-215690000D03*
X66330000Y-223310000D03*
X68870000Y-215690000D03*
X68870000Y-223310000D03*
X71410000Y-215690000D03*
X71410000Y-223310000D03*
%TD*%
D18*
%TO.C,C7*%
X121250000Y-67000000D03*
X126250000Y-67000000D03*
%TD*%
D16*
%TO.C,C48*%
X62737436Y-172150000D03*
X35237436Y-172150000D03*
%TD*%
D18*
%TO.C,R2*%
X69300000Y-111910000D03*
D19*
X69300000Y-104290000D03*
%TD*%
D35*
%TO.C,U1*%
X67410000Y-91000000D03*
D36*
X64870000Y-91000000D03*
X62330000Y-91000000D03*
X59790000Y-91000000D03*
X59790000Y-98620000D03*
X62330000Y-98620000D03*
X64870000Y-98620000D03*
X67410000Y-98620000D03*
%TD*%
D18*
%TO.C,C24*%
X99990000Y-119100000D03*
X99990000Y-124100000D03*
%TD*%
%TO.C,C15*%
X191250000Y-67000000D03*
X196250000Y-67000000D03*
%TD*%
%TO.C,R6*%
X147880000Y-116190000D03*
D39*
X153268154Y-121578154D03*
%TD*%
D18*
%TO.C,R12*%
X147500000Y-121090000D03*
D19*
X147500000Y-128710000D03*
%TD*%
D18*
%TO.C,C10*%
X148750000Y-67000000D03*
X153750000Y-67000000D03*
%TD*%
D27*
%TO.C,D3*%
X147500000Y-131580000D03*
D19*
X147500000Y-139200000D03*
%TD*%
D16*
%TO.C,OT4*%
X229060000Y-57500000D03*
X221440000Y-57500000D03*
D17*
X222710000Y-61250000D03*
X225250000Y-61250000D03*
X227790000Y-61250000D03*
%TD*%
D16*
%TO.C,C52*%
X96687436Y-146000000D03*
X69187436Y-146000000D03*
%TD*%
D18*
%TO.C,C12*%
X163750000Y-67000000D03*
X168750000Y-67000000D03*
%TD*%
D40*
%TO.C,L1*%
X223950000Y-139000000D03*
X239450000Y-139000000D03*
D41*
X231750000Y-117000000D03*
%TD*%
D21*
%TO.C,U6*%
X198300000Y-128250000D03*
D24*
X196300000Y-134250000D03*
D21*
X198300000Y-140250000D03*
D24*
X210500000Y-140250000D03*
X210500000Y-128250000D03*
%TD*%
D18*
%TO.C,C46*%
X245250000Y-67000000D03*
X240250000Y-67000000D03*
%TD*%
D22*
%TO.C,J14*%
X250000000Y-47500000D03*
%TD*%
D16*
%TO.C,OR3*%
X159060000Y-57500000D03*
X151440000Y-57500000D03*
D17*
X152710000Y-61250000D03*
X155250000Y-61250000D03*
X157790000Y-61250000D03*
%TD*%
D18*
%TO.C,C28*%
X128800000Y-131760000D03*
X128800000Y-134300000D03*
%TD*%
D27*
%TO.C,D4*%
X192000000Y-135910000D03*
D19*
X192000000Y-128290000D03*
%TD*%
D18*
%TO.C,R14*%
X65600000Y-102590000D03*
D19*
X65600000Y-110210000D03*
%TD*%
D18*
%TO.C,C14*%
X183750000Y-67000000D03*
X178750000Y-67000000D03*
%TD*%
D20*
%TO.C,C42*%
X198000000Y-218600000D03*
D21*
X198000000Y-211100000D03*
%TD*%
D16*
%TO.C,OT3*%
X187060000Y-57500000D03*
X179440000Y-57500000D03*
D17*
X180710000Y-61250000D03*
X183250000Y-61250000D03*
X185790000Y-61250000D03*
%TD*%
D25*
%TO.C,J8*%
X36400000Y-78050000D03*
D26*
X36400000Y-83050000D03*
X36400000Y-88050000D03*
X36400000Y-93050000D03*
%TD*%
D16*
%TO.C,OR5*%
X201060000Y-57500000D03*
X193440000Y-57500000D03*
D17*
X194710000Y-61250000D03*
X197250000Y-61250000D03*
X199790000Y-61250000D03*
%TD*%
D27*
%TO.C,D2*%
X79990000Y-93500000D03*
D19*
X87610000Y-93500000D03*
%TD*%
D23*
%TO.C,H5*%
X51340000Y-115750000D03*
X76740000Y-115750000D03*
%TD*%
D18*
%TO.C,C18*%
X218750000Y-67000000D03*
X213750000Y-67000000D03*
%TD*%
D20*
%TO.C,C33*%
X218000000Y-198600000D03*
D21*
X218000000Y-191100000D03*
%TD*%
M02*
