%TF.GenerationSoftware,KiCad,Pcbnew,8.0.8*%
%TF.CreationDate,2025-05-01T12:20:28+01:00*%
%TF.ProjectId,HVPSController,48565053-436f-46e7-9472-6f6c6c65722e,rev?*%
%TF.SameCoordinates,Original*%
%TF.FileFunction,Copper,L1,Top*%
%TF.FilePolarity,Positive*%
%FSLAX46Y46*%
G04 Gerber Fmt 4.6, Leading zero omitted, Abs format (unit mm)*
G04 Created by KiCad (PCBNEW 8.0.8) date 2025-05-01 12:20:28*
%MOMM*%
%LPD*%
G01*
G04 APERTURE LIST*
G04 Aperture macros list*
%AMRoundRect*
0 Rectangle with rounded corners*
0 $1 Rounding radius*
0 $2 $3 $4 $5 $6 $7 $8 $9 X,Y pos of 4 corners*
0 Add a 4 corners polygon primitive as box body*
4,1,4,$2,$3,$4,$5,$6,$7,$8,$9,$2,$3,0*
0 Add four circle primitives for the rounded corners*
1,1,$1+$1,$2,$3*
1,1,$1+$1,$4,$5*
1,1,$1+$1,$6,$7*
1,1,$1+$1,$8,$9*
0 Add four rect primitives between the rounded corners*
20,1,$1+$1,$2,$3,$4,$5,0*
20,1,$1+$1,$4,$5,$6,$7,0*
20,1,$1+$1,$6,$7,$8,$9,0*
20,1,$1+$1,$8,$9,$2,$3,0*%
%AMHorizOval*
0 Thick line with rounded ends*
0 $1 width*
0 $2 $3 position (X,Y) of the first rounded end (center of the circle)*
0 $4 $5 position (X,Y) of the second rounded end (center of the circle)*
0 Add line between two ends*
20,1,$1,$2,$3,$4,$5,0*
0 Add two circle primitives to create the rounded ends*
1,1,$1,$2,$3*
1,1,$1,$4,$5*%
G04 Aperture macros list end*
%TA.AperFunction,ComponentPad*%
%ADD10R,1.524000X1.524000*%
%TD*%
%TA.AperFunction,ComponentPad*%
%ADD11C,1.524000*%
%TD*%
%TA.AperFunction,ComponentPad*%
%ADD12R,2.400000X2.400000*%
%TD*%
%TA.AperFunction,ComponentPad*%
%ADD13C,2.400000*%
%TD*%
%TA.AperFunction,ComponentPad*%
%ADD14R,1.700000X1.700000*%
%TD*%
%TA.AperFunction,ComponentPad*%
%ADD15O,1.700000X1.700000*%
%TD*%
%TA.AperFunction,WasherPad*%
%ADD16C,3.000000*%
%TD*%
%TA.AperFunction,ComponentPad*%
%ADD17C,2.000000*%
%TD*%
%TA.AperFunction,ComponentPad*%
%ADD18C,3.000000*%
%TD*%
%TA.AperFunction,ComponentPad*%
%ADD19C,1.600000*%
%TD*%
%TA.AperFunction,ComponentPad*%
%ADD20O,1.600000X1.600000*%
%TD*%
%TA.AperFunction,ComponentPad*%
%ADD21R,2.200000X2.200000*%
%TD*%
%TA.AperFunction,ComponentPad*%
%ADD22C,2.200000*%
%TD*%
%TA.AperFunction,ComponentPad*%
%ADD23C,7.500000*%
%TD*%
%TA.AperFunction,ComponentPad*%
%ADD24C,5.000000*%
%TD*%
%TA.AperFunction,ComponentPad*%
%ADD25C,2.500000*%
%TD*%
%TA.AperFunction,ComponentPad*%
%ADD26RoundRect,0.250001X-1.149999X1.149999X-1.149999X-1.149999X1.149999X-1.149999X1.149999X1.149999X0*%
%TD*%
%TA.AperFunction,ComponentPad*%
%ADD27C,2.800000*%
%TD*%
%TA.AperFunction,ComponentPad*%
%ADD28R,1.600000X1.600000*%
%TD*%
%TA.AperFunction,ComponentPad*%
%ADD29C,3.500000*%
%TD*%
%TA.AperFunction,SMDPad,CuDef*%
%ADD30RoundRect,1.332500X-1.662500X1.332500X-1.662500X-1.332500X1.662500X-1.332500X1.662500X1.332500X0*%
%TD*%
%TA.AperFunction,SMDPad,CuDef*%
%ADD31RoundRect,1.320000X-1.320000X1.855000X-1.320000X-1.855000X1.320000X-1.855000X1.320000X1.855000X0*%
%TD*%
%TA.AperFunction,ComponentPad*%
%ADD32R,1.300000X1.300000*%
%TD*%
%TA.AperFunction,ComponentPad*%
%ADD33C,1.300000*%
%TD*%
%TA.AperFunction,ComponentPad*%
%ADD34C,4.000000*%
%TD*%
%TA.AperFunction,ComponentPad*%
%ADD35C,6.100000*%
%TD*%
%TA.AperFunction,ComponentPad*%
%ADD36R,1.600000X2.400000*%
%TD*%
%TA.AperFunction,ComponentPad*%
%ADD37O,1.600000X2.400000*%
%TD*%
%TA.AperFunction,SMDPad,CuDef*%
%ADD38RoundRect,0.762500X0.762500X-1.077500X0.762500X1.077500X-0.762500X1.077500X-0.762500X-1.077500X0*%
%TD*%
%TA.AperFunction,ComponentPad*%
%ADD39HorizOval,1.600000X0.000000X0.000000X0.000000X0.000000X0*%
%TD*%
%TA.AperFunction,ComponentPad*%
%ADD40HorizOval,1.600000X0.000000X0.000000X0.000000X0.000000X0*%
%TD*%
%TA.AperFunction,SMDPad,CuDef*%
%ADD41RoundRect,1.332500X-1.332500X-1.662500X1.332500X-1.662500X1.332500X1.662500X-1.332500X1.662500X0*%
%TD*%
%TA.AperFunction,SMDPad,CuDef*%
%ADD42RoundRect,1.320000X-1.855000X-1.320000X1.855000X-1.320000X1.855000X1.320000X-1.855000X1.320000X0*%
%TD*%
%TA.AperFunction,ViaPad*%
%ADD43C,1.500000*%
%TD*%
%TA.AperFunction,ViaPad*%
%ADD44C,1.200000*%
%TD*%
%TA.AperFunction,ViaPad*%
%ADD45C,1.000000*%
%TD*%
%TA.AperFunction,Conductor*%
%ADD46C,0.500000*%
%TD*%
%TA.AperFunction,Conductor*%
%ADD47C,1.000000*%
%TD*%
%TA.AperFunction,Conductor*%
%ADD48C,4.000000*%
%TD*%
%TA.AperFunction,Conductor*%
%ADD49C,0.200000*%
%TD*%
%TA.AperFunction,Conductor*%
%ADD50C,3.000000*%
%TD*%
%TA.AperFunction,Conductor*%
%ADD51C,5.000000*%
%TD*%
%TA.AperFunction,Conductor*%
%ADD52C,2.000000*%
%TD*%
%TA.AperFunction,Conductor*%
%ADD53C,2.500000*%
%TD*%
G04 APERTURE END LIST*
D10*
%TO.P,C25,1*%
%TO.N,+3V3*%
X116800000Y-120100000D03*
D11*
%TO.P,C25,2*%
%TO.N,Earth*%
X116800000Y-123600000D03*
%TD*%
D12*
%TO.P,C3,1*%
%TO.N,+10V*%
X48200000Y-95600000D03*
D13*
%TO.P,C3,2*%
%TO.N,Earth*%
X48200000Y-90600000D03*
%TD*%
D12*
%TO.P,C2,1*%
%TO.N,+3V3*%
X48200000Y-70800000D03*
D13*
%TO.P,C2,2*%
%TO.N,Earth*%
X48200000Y-65800000D03*
%TD*%
D14*
%TO.P,J1,1,Pin_1*%
%TO.N,Earth*%
X86000000Y-53250000D03*
D15*
%TO.P,J1,2,Pin_2*%
%TO.N,+3V3*%
X83460000Y-53250000D03*
%TO.P,J1,3,Pin_3*%
%TO.N,Net-(J1-Pin_3)*%
X80920000Y-53250000D03*
%TO.P,J1,4,Pin_4*%
%TO.N,Net-(J1-Pin_4)*%
X78380000Y-53250000D03*
%TD*%
D16*
%TO.P,OT1,*%
%TO.N,*%
X103060000Y-57500000D03*
X95440000Y-57500000D03*
D17*
%TO.P,OT1,1,GND*%
%TO.N,Earth*%
X96710000Y-61250000D03*
%TO.P,OT1,2,Vcc*%
%TO.N,+3V3*%
X99250000Y-61250000D03*
%TO.P,OT1,3,Vin*%
%TO.N,Net-(OT1-Vin)*%
X101790000Y-61250000D03*
%TD*%
D16*
%TO.P,OR2,*%
%TO.N,*%
X131060000Y-57500000D03*
X123440000Y-57500000D03*
D17*
%TO.P,OR2,1,Vout*%
%TO.N,Net-(OR2-Vout)*%
X124710000Y-61250000D03*
%TO.P,OR2,2,GND*%
%TO.N,Earth*%
X127250000Y-61250000D03*
%TO.P,OR2,3,Vcc*%
%TO.N,+3V3*%
X129790000Y-61250000D03*
%TD*%
D18*
%TO.P,C51,1*%
%TO.N,Net-(D1-A)*%
X96737436Y-172050000D03*
%TO.P,C51,2*%
%TO.N,Net-(J4-Pin_1)*%
X69237436Y-172050000D03*
%TD*%
D19*
%TO.P,R17,1*%
%TO.N,Net-(D6-K)*%
X174100000Y-107750000D03*
D20*
%TO.P,R17,2*%
%TO.N,Net-(D5-K)*%
X174100000Y-120450000D03*
%TD*%
D21*
%TO.P,C23,1*%
%TO.N,Net-(D1-K)*%
X218000000Y-158600000D03*
D22*
%TO.P,C23,2*%
%TO.N,Earth*%
X218000000Y-151100000D03*
%TD*%
D16*
%TO.P,OR7,*%
%TO.N,*%
X243060000Y-57500000D03*
X235440000Y-57500000D03*
D17*
%TO.P,OR7,1,Vout*%
%TO.N,Net-(OR7-Vout)*%
X236710000Y-61250000D03*
%TO.P,OR7,2,GND*%
%TO.N,Earth*%
X239250000Y-61250000D03*
%TO.P,OR7,3,Vcc*%
%TO.N,+3V3*%
X241790000Y-61250000D03*
%TD*%
D21*
%TO.P,C43,1*%
%TO.N,Net-(D1-K)*%
X218000000Y-218600000D03*
D22*
%TO.P,C43,2*%
%TO.N,Earth*%
X218000000Y-211100000D03*
%TD*%
D19*
%TO.P,R11,1*%
%TO.N,Net-(U2-VOUT)*%
X140600000Y-125710000D03*
D20*
%TO.P,R11,2*%
%TO.N,Net-(U2-VIN-)*%
X140600000Y-118090000D03*
%TD*%
D23*
%TO.P,J15,1,Pin_1*%
%TO.N,Earth*%
X160500000Y-134300000D03*
%TD*%
D18*
%TO.P,S1,1*%
%TO.N,Net-(J9-Pin_1)*%
X61000000Y-72900000D03*
%TO.P,S1,2*%
%TO.N,Net-(J10-Pin_1)*%
X65500000Y-72900000D03*
%TO.P,S1,3*%
%TO.N,unconnected-(S1-Pad3)*%
X70000000Y-72900000D03*
%TO.P,S1,4*%
%TO.N,unconnected-(S1-Pad4)*%
X61000000Y-79400000D03*
%TO.P,S1,5*%
%TO.N,+3V3*%
X65500000Y-79400000D03*
%TO.P,S1,6*%
%TO.N,Net-(X1-3V3)*%
X70000000Y-79400000D03*
%TD*%
D17*
%TO.P,U4,1,G*%
%TO.N,Net-(U4-G)*%
X61500000Y-120100000D03*
%TO.P,U4,2,D*%
%TO.N,Net-(J4-Pin_1)*%
X64040000Y-122600000D03*
%TO.P,U4,3,S*%
%TO.N,Net-(U2-VIN+)*%
X66580000Y-120100000D03*
%TD*%
D19*
%TO.P,R15,1*%
%TO.N,+3V3*%
X89180000Y-119200000D03*
D20*
%TO.P,R15,2*%
%TO.N,Net-(U3-Cathode)*%
X96800000Y-119200000D03*
%TD*%
D24*
%TO.P,H2,1,Pin_1*%
%TO.N,Net-(D1-K)*%
X136600000Y-215000000D03*
X111200000Y-215000000D03*
%TD*%
D16*
%TO.P,OR4,*%
%TO.N,*%
X173060000Y-57500000D03*
X165440000Y-57500000D03*
D17*
%TO.P,OR4,1,Vout*%
%TO.N,Net-(OR4-Vout)*%
X166710000Y-61250000D03*
%TO.P,OR4,2,GND*%
%TO.N,Earth*%
X169250000Y-61250000D03*
%TO.P,OR4,3,Vcc*%
%TO.N,+3V3*%
X171790000Y-61250000D03*
%TD*%
D19*
%TO.P,C6,1*%
%TO.N,Net-(OR1-Vout)*%
X106250000Y-67000000D03*
%TO.P,C6,2*%
%TO.N,Earth*%
X111250000Y-67000000D03*
%TD*%
D21*
%TO.P,C29,1*%
%TO.N,Net-(D1-K)*%
X238000000Y-158600000D03*
D22*
%TO.P,C29,2*%
%TO.N,Earth*%
X238000000Y-151100000D03*
%TD*%
D25*
%TO.P,J3,1,Pin_1*%
%TO.N,Net-(D1-K)*%
X84670000Y-215690000D03*
X84670000Y-223310000D03*
X87210000Y-215690000D03*
X87210000Y-223310000D03*
X89750000Y-215690000D03*
X89750000Y-223310000D03*
X92290000Y-215690000D03*
X92290000Y-223310000D03*
X94830000Y-215690000D03*
X94830000Y-223310000D03*
%TD*%
D21*
%TO.P,C44,1*%
%TO.N,Net-(D1-K)*%
X238000000Y-218600000D03*
D22*
%TO.P,C44,2*%
%TO.N,Earth*%
X238000000Y-211100000D03*
%TD*%
D21*
%TO.P,C31,1*%
%TO.N,Net-(D1-K)*%
X178000000Y-198600000D03*
D22*
%TO.P,C31,2*%
%TO.N,Earth*%
X178000000Y-191100000D03*
%TD*%
D19*
%TO.P,R8,1*%
%TO.N,Net-(D3-Pad1)*%
X144200000Y-131590000D03*
D20*
%TO.P,R8,2*%
%TO.N,Earth*%
X144200000Y-139210000D03*
%TD*%
D26*
%TO.P,J7,1,Pin_1*%
%TO.N,Earth*%
X36400000Y-55800000D03*
D27*
%TO.P,J7,2,Pin_2*%
X36400000Y-60800000D03*
%TO.P,J7,3,Pin_3*%
%TO.N,Net-(D4-K)*%
X36400000Y-65800000D03*
%TO.P,J7,4,Pin_4*%
%TO.N,+3V3*%
X36400000Y-70800000D03*
%TD*%
D19*
%TO.P,C1,1*%
%TO.N,Earth*%
X75540000Y-94800000D03*
%TO.P,C1,2*%
%TO.N,+10V*%
X73000000Y-94800000D03*
%TD*%
%TO.P,C8,1*%
%TO.N,+3V3*%
X133750000Y-67000000D03*
%TO.P,C8,2*%
%TO.N,Earth*%
X128750000Y-67000000D03*
%TD*%
D18*
%TO.P,F1,1*%
%TO.N,Net-(J5-Pin_1)*%
X213460000Y-113200000D03*
%TO.P,F1,2*%
%TO.N,Net-(D6-A)*%
X191000000Y-113200000D03*
%TD*%
D19*
%TO.P,C16,1*%
%TO.N,+3V3*%
X203750000Y-67000000D03*
%TO.P,C16,2*%
%TO.N,Earth*%
X198750000Y-67000000D03*
%TD*%
D25*
%TO.P,J5,1,Pin_1*%
%TO.N,Net-(J5-Pin_1)*%
X237380000Y-105120000D03*
X245000000Y-105120000D03*
X237380000Y-102580000D03*
X245000000Y-102580000D03*
X237380000Y-100040000D03*
X245000000Y-100040000D03*
X237380000Y-97500000D03*
X245000000Y-97500000D03*
X237380000Y-94960000D03*
X245000000Y-94960000D03*
%TD*%
D19*
%TO.P,R7,1*%
%TO.N,Net-(D1-K)*%
X150700000Y-139110000D03*
D20*
%TO.P,R7,2*%
%TO.N,Net-(D3-Pad1)*%
X150700000Y-131490000D03*
%TD*%
D21*
%TO.P,C34,1*%
%TO.N,Net-(D1-K)*%
X238000000Y-198600000D03*
D22*
%TO.P,C34,2*%
%TO.N,Earth*%
X238000000Y-191100000D03*
%TD*%
D19*
%TO.P,C19,1*%
%TO.N,+3V3*%
X133215000Y-131100000D03*
%TO.P,C19,2*%
%TO.N,Earth*%
X133215000Y-136100000D03*
%TD*%
%TO.P,C45,1*%
%TO.N,Net-(OR7-Vout)*%
X232750000Y-67000000D03*
%TO.P,C45,2*%
%TO.N,Earth*%
X237750000Y-67000000D03*
%TD*%
%TO.P,C17,1*%
%TO.N,Net-(OR6-Vout)*%
X206250000Y-67000000D03*
%TO.P,C17,2*%
%TO.N,Earth*%
X211250000Y-67000000D03*
%TD*%
D21*
%TO.P,C20,1*%
%TO.N,Net-(D1-K)*%
X158000000Y-158600000D03*
D22*
%TO.P,C20,2*%
%TO.N,Earth*%
X158000000Y-151100000D03*
%TD*%
D19*
%TO.P,R1,1*%
%TO.N,Net-(R1-Pad1)*%
X61600000Y-102420000D03*
D20*
%TO.P,R1,2*%
%TO.N,Net-(U4-G)*%
X61600000Y-112580000D03*
%TD*%
D21*
%TO.P,C30,1*%
%TO.N,Net-(D1-K)*%
X158000000Y-198600000D03*
D22*
%TO.P,C30,2*%
%TO.N,Earth*%
X158000000Y-191100000D03*
%TD*%
D28*
%TO.P,D6,1,K*%
%TO.N,Net-(D6-K)*%
X178980000Y-114600000D03*
D20*
%TO.P,D6,2,A*%
%TO.N,Net-(D6-A)*%
X186600000Y-114600000D03*
%TD*%
D21*
%TO.P,C37,1*%
%TO.N,Net-(D1-K)*%
X198000000Y-178600000D03*
D22*
%TO.P,C37,2*%
%TO.N,Earth*%
X198000000Y-171100000D03*
%TD*%
%TO.P,U7,1*%
%TO.N,Earth*%
X187400000Y-126400000D03*
D25*
%TO.P,U7,2*%
%TO.N,Net-(D6-A)*%
X181400000Y-124400000D03*
D22*
%TO.P,U7,3*%
%TO.N,Net-(D5-K)*%
X175400000Y-126400000D03*
D25*
%TO.P,U7,4*%
%TO.N,Net-(D4-K)*%
X175400000Y-138600000D03*
%TO.P,U7,5*%
%TO.N,unconnected-(U7-Pad5)*%
X187400000Y-138600000D03*
%TD*%
D21*
%TO.P,C41,1*%
%TO.N,Net-(D1-K)*%
X178000000Y-218600000D03*
D22*
%TO.P,C41,2*%
%TO.N,Earth*%
X178000000Y-211100000D03*
%TD*%
D23*
%TO.P,J12,1,Pin_1*%
%TO.N,Earth*%
X29500000Y-231000000D03*
%TD*%
D29*
%TO.P,D8,1,K*%
%TO.N,Net-(D8-K)*%
X121400000Y-159300000D03*
%TO.P,D8,2,A*%
%TO.N,Earth*%
X126400000Y-159300000D03*
%TD*%
D30*
%TO.P,L2,1,1*%
%TO.N,Net-(D8-K)*%
X113250000Y-177450000D03*
%TO.P,L2,2,2*%
%TO.N,Net-(D1-A)*%
X113250000Y-192950000D03*
D31*
%TO.P,L2,3*%
%TO.N,N/C*%
X135250000Y-185250000D03*
%TD*%
D32*
%TO.P,U3,1,NC*%
%TO.N,unconnected-(U3-NC-Pad1)*%
X103220000Y-120960000D03*
D33*
%TO.P,U3,2,Cathode*%
%TO.N,Net-(U3-Cathode)*%
X104490000Y-119690000D03*
%TO.P,U3,3,Anode*%
%TO.N,Earth*%
X105760000Y-120960000D03*
%TD*%
D19*
%TO.P,C11,1*%
%TO.N,+3V3*%
X161250000Y-67000000D03*
%TO.P,C11,2*%
%TO.N,Earth*%
X156250000Y-67000000D03*
%TD*%
D25*
%TO.P,J6,1,Pin_1*%
%TO.N,Earth*%
X237380000Y-86370000D03*
X245000000Y-86370000D03*
X237380000Y-83830000D03*
X245000000Y-83830000D03*
X237380000Y-81290000D03*
X245000000Y-81290000D03*
X237380000Y-78750000D03*
X245000000Y-78750000D03*
X237380000Y-76210000D03*
X245000000Y-76210000D03*
%TD*%
D21*
%TO.P,C36,1*%
%TO.N,Net-(D1-K)*%
X178000000Y-178600000D03*
D22*
%TO.P,C36,2*%
%TO.N,Earth*%
X178000000Y-171100000D03*
%TD*%
D28*
%TO.P,D5,1,K*%
%TO.N,Net-(D5-K)*%
X177590000Y-120500000D03*
D20*
%TO.P,D5,2,A*%
%TO.N,Earth*%
X185210000Y-120500000D03*
%TD*%
D14*
%TO.P,J2,1,Pin_1*%
%TO.N,+3V3*%
X84025000Y-77950000D03*
D15*
%TO.P,J2,2,Pin_2*%
%TO.N,Earth*%
X86565000Y-77950000D03*
%TO.P,J2,3,Pin_3*%
%TO.N,Net-(J1-Pin_4)*%
X89105000Y-77950000D03*
%TO.P,J2,4,Pin_4*%
%TO.N,Net-(J1-Pin_3)*%
X91645000Y-77950000D03*
%TO.P,J2,5,Pin_5*%
%TO.N,unconnected-(J2-Pin_5-Pad5)*%
X94185000Y-77950000D03*
%TO.P,J2,6,Pin_6*%
%TO.N,unconnected-(J2-Pin_6-Pad6)*%
X96725000Y-77950000D03*
%TO.P,J2,7,Pin_7*%
%TO.N,unconnected-(J2-Pin_7-Pad7)*%
X99265000Y-77950000D03*
%TO.P,J2,8,Pin_8*%
%TO.N,unconnected-(J2-Pin_8-Pad8)*%
X101805000Y-77950000D03*
%TD*%
D19*
%TO.P,C27,1*%
%TO.N,+3V3*%
X226250000Y-67000000D03*
%TO.P,C27,2*%
%TO.N,Earth*%
X221250000Y-67000000D03*
%TD*%
D23*
%TO.P,J11,1,Pin_1*%
%TO.N,Earth*%
X29500000Y-47500000D03*
%TD*%
D16*
%TO.P,OR6,*%
%TO.N,*%
X215060000Y-57500000D03*
X207440000Y-57500000D03*
D17*
%TO.P,OR6,1,Vout*%
%TO.N,Net-(OR6-Vout)*%
X208710000Y-61250000D03*
%TO.P,OR6,2,GND*%
%TO.N,Earth*%
X211250000Y-61250000D03*
%TO.P,OR6,3,Vcc*%
%TO.N,+3V3*%
X213790000Y-61250000D03*
%TD*%
D19*
%TO.P,C5,1*%
%TO.N,+3V3*%
X118750000Y-67000000D03*
%TO.P,C5,2*%
%TO.N,Earth*%
X113750000Y-67000000D03*
%TD*%
D18*
%TO.P,C50,1*%
%TO.N,Net-(D1-A)*%
X96737436Y-198150000D03*
%TO.P,C50,2*%
%TO.N,Net-(J4-Pin_1)*%
X69237436Y-198150000D03*
%TD*%
D23*
%TO.P,J13,1,Pin_1*%
%TO.N,Earth*%
X250000000Y-231000000D03*
%TD*%
D21*
%TO.P,C32,1*%
%TO.N,Net-(D1-K)*%
X198000000Y-198600000D03*
D22*
%TO.P,C32,2*%
%TO.N,Earth*%
X198000000Y-191100000D03*
%TD*%
D16*
%TO.P,OT2,*%
%TO.N,*%
X145060000Y-57500000D03*
X137440000Y-57500000D03*
D17*
%TO.P,OT2,1,GND*%
%TO.N,Earth*%
X138710000Y-61250000D03*
%TO.P,OT2,2,Vcc*%
%TO.N,+3V3*%
X141250000Y-61250000D03*
%TO.P,OT2,3,Vin*%
%TO.N,Net-(OT2-Vin)*%
X143790000Y-61250000D03*
%TD*%
D21*
%TO.P,C35,1*%
%TO.N,Net-(D1-K)*%
X158000000Y-178600000D03*
D22*
%TO.P,C35,2*%
%TO.N,Earth*%
X158000000Y-171100000D03*
%TD*%
D20*
%TO.P,R3,2*%
%TO.N,Earth*%
X79410000Y-99800000D03*
D19*
%TO.P,R3,1*%
%TO.N,Net-(D2-Pad1)*%
X71790000Y-99800000D03*
%TD*%
D21*
%TO.P,C21,1*%
%TO.N,Net-(D1-K)*%
X178000000Y-158600000D03*
D22*
%TO.P,C21,2*%
%TO.N,Earth*%
X178000000Y-151100000D03*
%TD*%
D18*
%TO.P,C49,1*%
%TO.N,Net-(D1-A)*%
X62737436Y-198250000D03*
%TO.P,C49,2*%
%TO.N,Net-(J4-Pin_1)*%
X35237436Y-198250000D03*
%TD*%
D34*
%TO.P,R4,1*%
%TO.N,Net-(D4-K)*%
X148000000Y-91750000D03*
%TO.P,R4,2*%
%TO.N,Net-(L1-Pad1)*%
X228000000Y-91750000D03*
D35*
%TO.P,R4,3,C1*%
%TO.N,Earth*%
X210250000Y-91750000D03*
%TO.P,R4,4,C2*%
X165750000Y-91750000D03*
%TD*%
D19*
%TO.P,C9,1*%
%TO.N,+3V3*%
X141250000Y-67000000D03*
%TO.P,C9,2*%
%TO.N,Earth*%
X136250000Y-67000000D03*
%TD*%
D21*
%TO.P,C39,1*%
%TO.N,Net-(D1-K)*%
X238000000Y-178600000D03*
D22*
%TO.P,C39,2*%
%TO.N,Earth*%
X238000000Y-171100000D03*
%TD*%
D29*
%TO.P,D1,1,K*%
%TO.N,Net-(D1-K)*%
X126400000Y-211675000D03*
%TO.P,D1,2,A*%
%TO.N,Net-(D1-A)*%
X121400000Y-211675000D03*
%TD*%
D17*
%TO.P,J9,5,Pin_5*%
%TO.N,Net-(J10-Pin_5)*%
X59480000Y-62650000D03*
%TO.P,J9,4,Pin_4*%
%TO.N,Net-(J10-Pin_4)*%
X62020000Y-62650000D03*
%TO.P,J9,3,Pin_3*%
%TO.N,Net-(J10-Pin_3)*%
X64560000Y-62650000D03*
%TO.P,J9,2,Pin_2*%
%TO.N,Net-(J10-Pin_2)*%
X67100000Y-62650000D03*
%TO.P,J9,1,Pin_1*%
%TO.N,Net-(J9-Pin_1)*%
X69640000Y-62650000D03*
%TD*%
D21*
%TO.P,C38,1*%
%TO.N,Net-(D1-K)*%
X218000000Y-178600000D03*
D22*
%TO.P,C38,2*%
%TO.N,Earth*%
X218000000Y-171100000D03*
%TD*%
D32*
%TO.P,U5,1,S*%
%TO.N,Earth*%
X166230000Y-109560000D03*
D33*
%TO.P,U5,2,G*%
%TO.N,Net-(U5-G)*%
X167500000Y-108290000D03*
%TO.P,U5,3,D*%
%TO.N,Net-(U5-D)*%
X168770000Y-109560000D03*
%TD*%
D18*
%TO.P,C47,1*%
%TO.N,Net-(D1-A)*%
X62737436Y-146050000D03*
%TO.P,C47,2*%
%TO.N,Net-(J4-Pin_1)*%
X35237436Y-146050000D03*
%TD*%
D19*
%TO.P,R10,1*%
%TO.N,Net-(U2-VIN-)*%
X144100000Y-120990000D03*
D20*
%TO.P,R10,2*%
%TO.N,Earth*%
X144100000Y-128610000D03*
%TD*%
D17*
%TO.P,X1,1,EN*%
%TO.N,unconnected-(X1-EN-Pad1)*%
X95750000Y-112700000D03*
%TO.P,X1,2,VP_a1i*%
%TO.N,Net-(X1-VP_a1i)*%
X98290000Y-112700000D03*
%TO.P,X1,3,VN_a1i*%
%TO.N,Net-(U3-Cathode)*%
X100830000Y-112700000D03*
%TO.P,X1,4,D34_a1i*%
%TO.N,Net-(U2-VOUT)*%
X103370000Y-112700000D03*
%TO.P,X1,5,D35_a1i*%
%TO.N,Net-(X1-D35_a1i)*%
X105910000Y-112700000D03*
%TO.P,X1,6,D32_a1io*%
%TO.N,Net-(OR4-Vout)*%
X108450000Y-112700000D03*
%TO.P,X1,7,D33_a1io*%
%TO.N,Net-(OT3-Vin)*%
X110990000Y-112700000D03*
%TO.P,X1,8,D25_a2io*%
%TO.N,Net-(OR5-Vout)*%
X113530000Y-112700000D03*
%TO.P,X1,9,D26_a2io*%
%TO.N,Net-(OR6-Vout)*%
X116070000Y-112700000D03*
%TO.P,X1,10,D27_a2io*%
%TO.N,Net-(OT4-Vin)*%
X118610000Y-112700000D03*
%TO.P,X1,11,D14_a2io*%
%TO.N,Net-(OR7-Vout)*%
X121150000Y-112700000D03*
%TO.P,X1,12,D12_x*%
%TO.N,unconnected-(X1-D12_x-Pad12)*%
X123690000Y-112700000D03*
%TO.P,X1,13,D13_a2io*%
%TO.N,Net-(X1-D13_a2io)*%
X126230000Y-112700000D03*
%TO.P,X1,14,GND*%
%TO.N,Earth*%
X128770000Y-112700000D03*
%TO.P,X1,15,VIN*%
%TO.N,unconnected-(X1-VIN-Pad15)*%
X131310000Y-112700000D03*
%TO.P,X1,16,3V3*%
%TO.N,Net-(X1-3V3)*%
X131310000Y-87300000D03*
%TO.P,X1,17,GND*%
%TO.N,Earth*%
X128770000Y-87300000D03*
%TO.P,X1,18,D15_x*%
%TO.N,unconnected-(X1-D15_x-Pad18)*%
X126230000Y-87300000D03*
%TO.P,X1,19,D2_x*%
%TO.N,unconnected-(X1-D2_x-Pad19)*%
X123690000Y-87300000D03*
%TO.P,X1,20,D4_a2io*%
%TO.N,Net-(OR3-Vout)*%
X121150000Y-87300000D03*
%TO.P,X1,21,RX2_io!*%
%TO.N,unconnected-(X1-RX2_io!-Pad21)*%
X118610000Y-87300000D03*
%TO.P,X1,22,TX2_io*%
%TO.N,Net-(OT2-Vin)*%
X116070000Y-87300000D03*
%TO.P,X1,23,D5_a2io*%
%TO.N,Net-(OR2-Vout)*%
X113530000Y-87300000D03*
%TO.P,X1,24,D18_io*%
%TO.N,Net-(OR1-Vout)*%
X110990000Y-87300000D03*
%TO.P,X1,25,D19_io*%
%TO.N,Net-(OT1-Vin)*%
X108450000Y-87300000D03*
%TO.P,X1,26,D21_io*%
%TO.N,Net-(J1-Pin_3)*%
X105910000Y-87300000D03*
%TO.P,X1,27,RX0_x*%
%TO.N,unconnected-(X1-RX0_x-Pad27)*%
X103370000Y-87300000D03*
%TO.P,X1,28,TX0_x*%
%TO.N,unconnected-(X1-TX0_x-Pad28)*%
X100830000Y-87300000D03*
%TO.P,X1,29,D22_io*%
%TO.N,Net-(J1-Pin_4)*%
X98290000Y-87300000D03*
%TO.P,X1,30,D23_io*%
%TO.N,Net-(U1-IN)*%
X95750000Y-87300000D03*
%TD*%
%TO.P,J10,1,Pin_1*%
%TO.N,Net-(J10-Pin_1)*%
X69560000Y-53400000D03*
%TO.P,J10,2,Pin_2*%
%TO.N,Net-(J10-Pin_2)*%
X67020000Y-53400000D03*
%TO.P,J10,3,Pin_3*%
%TO.N,Net-(J10-Pin_3)*%
X64480000Y-53400000D03*
%TO.P,J10,4,Pin_4*%
%TO.N,Net-(J10-Pin_4)*%
X61940000Y-53400000D03*
%TO.P,J10,5,Pin_5*%
%TO.N,Net-(J10-Pin_5)*%
X59400000Y-53400000D03*
%TD*%
D19*
%TO.P,R5,1*%
%TO.N,Net-(D4-A)*%
X168800000Y-126900000D03*
D20*
%TO.P,R5,2*%
%TO.N,Net-(U5-D)*%
X168800000Y-114200000D03*
%TD*%
D21*
%TO.P,C22,1*%
%TO.N,Net-(D1-K)*%
X198000000Y-158600000D03*
D22*
%TO.P,C22,2*%
%TO.N,Earth*%
X198000000Y-151100000D03*
%TD*%
D21*
%TO.P,C40,1*%
%TO.N,Net-(D1-K)*%
X158000000Y-218600000D03*
D22*
%TO.P,C40,2*%
%TO.N,Earth*%
X158000000Y-211100000D03*
%TD*%
D36*
%TO.P,U2,1,NC*%
%TO.N,unconnected-(U2-NC-Pad1)*%
X135780000Y-120280000D03*
D37*
%TO.P,U2,2,VIN-*%
%TO.N,Net-(U2-VIN-)*%
X133240000Y-120280000D03*
%TO.P,U2,3,VIN+*%
%TO.N,Net-(U2-VIN+)*%
X130700000Y-120280000D03*
%TO.P,U2,4,VSS*%
%TO.N,Earth*%
X128160000Y-120280000D03*
%TO.P,U2,5,NC*%
%TO.N,unconnected-(U2-NC-Pad5)*%
X128160000Y-127900000D03*
%TO.P,U2,6,VOUT*%
%TO.N,Net-(U2-VOUT)*%
X130700000Y-127900000D03*
%TO.P,U2,7,VDD*%
%TO.N,+3V3*%
X133240000Y-127900000D03*
%TO.P,U2,8,NC*%
%TO.N,unconnected-(U2-NC-Pad8)*%
X135780000Y-127900000D03*
%TD*%
D19*
%TO.P,R19,1*%
%TO.N,+3V3*%
X78000000Y-74560000D03*
D20*
%TO.P,R19,2*%
%TO.N,Net-(J1-Pin_4)*%
X78000000Y-66940000D03*
%TD*%
D38*
%TO.P,R9,1*%
%TO.N,Net-(U2-VIN+)*%
X103500000Y-137900000D03*
%TO.P,R9,2*%
%TO.N,Earth*%
X107820000Y-137900000D03*
%TD*%
D19*
%TO.P,R16,1*%
%TO.N,Net-(X1-D13_a2io)*%
X145000000Y-113500000D03*
D39*
%TO.P,R16,2*%
%TO.N,Net-(U5-G)*%
X150388154Y-108111846D03*
%TD*%
D19*
%TO.P,R18,1*%
%TO.N,+3V3*%
X81500000Y-74500000D03*
D20*
%TO.P,R18,2*%
%TO.N,Net-(J1-Pin_3)*%
X81500000Y-66880000D03*
%TD*%
D24*
%TO.P,H1,1,Pin_1*%
%TO.N,Earth*%
X111200000Y-155600000D03*
X136600000Y-155600000D03*
%TD*%
D19*
%TO.P,C13,1*%
%TO.N,+3V3*%
X176250000Y-67000000D03*
%TO.P,C13,2*%
%TO.N,Earth*%
X171250000Y-67000000D03*
%TD*%
D16*
%TO.P,OR1,*%
%TO.N,*%
X117060000Y-57500000D03*
X109440000Y-57500000D03*
D17*
%TO.P,OR1,1,Vout*%
%TO.N,Net-(OR1-Vout)*%
X110710000Y-61250000D03*
%TO.P,OR1,2,GND*%
%TO.N,Earth*%
X113250000Y-61250000D03*
%TO.P,OR1,3,Vcc*%
%TO.N,+3V3*%
X115790000Y-61250000D03*
%TD*%
D19*
%TO.P,C4,1*%
%TO.N,+3V3*%
X99250000Y-67000000D03*
%TO.P,C4,2*%
%TO.N,Earth*%
X94250000Y-67000000D03*
%TD*%
%TO.P,R13,1*%
%TO.N,Net-(X1-VP_a1i)*%
X87610000Y-96800000D03*
D20*
%TO.P,R13,2*%
%TO.N,Net-(D2-Pad1)*%
X79990000Y-96800000D03*
%TD*%
D25*
%TO.P,J4,1,Pin_1*%
%TO.N,Net-(J4-Pin_1)*%
X61250000Y-215690000D03*
X61250000Y-223310000D03*
X63790000Y-215690000D03*
X63790000Y-223310000D03*
X66330000Y-215690000D03*
X66330000Y-223310000D03*
X68870000Y-215690000D03*
X68870000Y-223310000D03*
X71410000Y-215690000D03*
X71410000Y-223310000D03*
%TD*%
D19*
%TO.P,C7,1*%
%TO.N,Net-(OR2-Vout)*%
X121250000Y-67000000D03*
%TO.P,C7,2*%
%TO.N,Earth*%
X126250000Y-67000000D03*
%TD*%
D18*
%TO.P,C48,1*%
%TO.N,Net-(D1-A)*%
X62737436Y-172150000D03*
%TO.P,C48,2*%
%TO.N,Net-(J4-Pin_1)*%
X35237436Y-172150000D03*
%TD*%
D19*
%TO.P,R2,1*%
%TO.N,Net-(J4-Pin_1)*%
X69300000Y-111910000D03*
D20*
%TO.P,R2,2*%
%TO.N,Net-(D2-Pad1)*%
X69300000Y-104290000D03*
%TD*%
D36*
%TO.P,U1,1,VDD*%
%TO.N,+10V*%
X67410000Y-91000000D03*
D37*
%TO.P,U1,2,IN*%
%TO.N,Net-(U1-IN)*%
X64870000Y-91000000D03*
%TO.P,U1,3,NC*%
%TO.N,unconnected-(U1-NC-Pad3)*%
X62330000Y-91000000D03*
%TO.P,U1,4,GND*%
%TO.N,Earth*%
X59790000Y-91000000D03*
%TO.P,U1,5,GND*%
X59790000Y-98620000D03*
%TO.P,U1,6,OUT*%
%TO.N,Net-(R1-Pad1)*%
X62330000Y-98620000D03*
%TO.P,U1,7,OUT*%
X64870000Y-98620000D03*
%TO.P,U1,8,VDD*%
%TO.N,+10V*%
X67410000Y-98620000D03*
%TD*%
D19*
%TO.P,C24,1*%
%TO.N,Net-(U3-Cathode)*%
X99990000Y-119100000D03*
%TO.P,C24,2*%
%TO.N,Earth*%
X99990000Y-124100000D03*
%TD*%
%TO.P,C15,1*%
%TO.N,Net-(OR5-Vout)*%
X191250000Y-67000000D03*
%TO.P,C15,2*%
%TO.N,Earth*%
X196250000Y-67000000D03*
%TD*%
%TO.P,R6,1*%
%TO.N,Net-(X1-D13_a2io)*%
X147880000Y-116190000D03*
D40*
%TO.P,R6,2*%
%TO.N,Earth*%
X153268154Y-121578154D03*
%TD*%
D19*
%TO.P,R12,1*%
%TO.N,Net-(X1-D35_a1i)*%
X147500000Y-121090000D03*
D20*
%TO.P,R12,2*%
%TO.N,Net-(D3-Pad1)*%
X147500000Y-128710000D03*
%TD*%
D19*
%TO.P,C10,1*%
%TO.N,Net-(OR3-Vout)*%
X148750000Y-67000000D03*
%TO.P,C10,2*%
%TO.N,Earth*%
X153750000Y-67000000D03*
%TD*%
D28*
%TO.P,D3,1*%
%TO.N,Net-(D3-Pad1)*%
X147500000Y-131580000D03*
D20*
%TO.P,D3,2*%
%TO.N,Earth*%
X147500000Y-139200000D03*
%TD*%
D16*
%TO.P,OT4,*%
%TO.N,*%
X229060000Y-57500000D03*
X221440000Y-57500000D03*
D17*
%TO.P,OT4,1,GND*%
%TO.N,Earth*%
X222710000Y-61250000D03*
%TO.P,OT4,2,Vcc*%
%TO.N,+3V3*%
X225250000Y-61250000D03*
%TO.P,OT4,3,Vin*%
%TO.N,Net-(OT4-Vin)*%
X227790000Y-61250000D03*
%TD*%
D18*
%TO.P,C52,1*%
%TO.N,Net-(D1-A)*%
X96687436Y-146000000D03*
%TO.P,C52,2*%
%TO.N,Net-(J4-Pin_1)*%
X69187436Y-146000000D03*
%TD*%
D19*
%TO.P,C12,1*%
%TO.N,Net-(OR4-Vout)*%
X163750000Y-67000000D03*
%TO.P,C12,2*%
%TO.N,Earth*%
X168750000Y-67000000D03*
%TD*%
D41*
%TO.P,L1,1,1*%
%TO.N,Net-(L1-Pad1)*%
X223950000Y-139000000D03*
%TO.P,L1,2,2*%
%TO.N,Net-(D1-K)*%
X239450000Y-139000000D03*
D42*
%TO.P,L1,3*%
%TO.N,N/C*%
X231750000Y-117000000D03*
%TD*%
D22*
%TO.P,U6,1*%
%TO.N,Net-(D4-A)*%
X198300000Y-128250000D03*
D25*
%TO.P,U6,2*%
%TO.N,Net-(D4-K)*%
X196300000Y-134250000D03*
D22*
%TO.P,U6,3*%
X198300000Y-140250000D03*
D25*
%TO.P,U6,4*%
%TO.N,Net-(L1-Pad1)*%
X210500000Y-140250000D03*
%TO.P,U6,5*%
%TO.N,unconnected-(U6-Pad5)*%
X210500000Y-128250000D03*
%TD*%
D19*
%TO.P,C46,1*%
%TO.N,+3V3*%
X245250000Y-67000000D03*
%TO.P,C46,2*%
%TO.N,Earth*%
X240250000Y-67000000D03*
%TD*%
D23*
%TO.P,J14,1,Pin_1*%
%TO.N,Earth*%
X250000000Y-47500000D03*
%TD*%
D16*
%TO.P,OR3,*%
%TO.N,*%
X159060000Y-57500000D03*
X151440000Y-57500000D03*
D17*
%TO.P,OR3,1,Vout*%
%TO.N,Net-(OR3-Vout)*%
X152710000Y-61250000D03*
%TO.P,OR3,2,GND*%
%TO.N,Earth*%
X155250000Y-61250000D03*
%TO.P,OR3,3,Vcc*%
%TO.N,+3V3*%
X157790000Y-61250000D03*
%TD*%
D19*
%TO.P,C28,1*%
%TO.N,+3V3*%
X128800000Y-131760000D03*
%TO.P,C28,2*%
%TO.N,Earth*%
X128800000Y-134300000D03*
%TD*%
D28*
%TO.P,D4,1,K*%
%TO.N,Net-(D4-K)*%
X192000000Y-135910000D03*
D20*
%TO.P,D4,2,A*%
%TO.N,Net-(D4-A)*%
X192000000Y-128290000D03*
%TD*%
D19*
%TO.P,R14,1*%
%TO.N,Net-(R1-Pad1)*%
X65600000Y-102590000D03*
D20*
%TO.P,R14,2*%
%TO.N,Earth*%
X65600000Y-110210000D03*
%TD*%
D19*
%TO.P,C14,1*%
%TO.N,+3V3*%
X183750000Y-67000000D03*
%TO.P,C14,2*%
%TO.N,Earth*%
X178750000Y-67000000D03*
%TD*%
D21*
%TO.P,C42,1*%
%TO.N,Net-(D1-K)*%
X198000000Y-218600000D03*
D22*
%TO.P,C42,2*%
%TO.N,Earth*%
X198000000Y-211100000D03*
%TD*%
D16*
%TO.P,OT3,*%
%TO.N,*%
X187060000Y-57500000D03*
X179440000Y-57500000D03*
D17*
%TO.P,OT3,1,GND*%
%TO.N,Earth*%
X180710000Y-61250000D03*
%TO.P,OT3,2,Vcc*%
%TO.N,+3V3*%
X183250000Y-61250000D03*
%TO.P,OT3,3,Vin*%
%TO.N,Net-(OT3-Vin)*%
X185790000Y-61250000D03*
%TD*%
D26*
%TO.P,J8,1,Pin_1*%
%TO.N,Earth*%
X36400000Y-78050000D03*
D27*
%TO.P,J8,2,Pin_2*%
X36400000Y-83050000D03*
%TO.P,J8,3,Pin_3*%
%TO.N,Net-(D4-K)*%
X36400000Y-88050000D03*
%TO.P,J8,4,Pin_4*%
%TO.N,+10V*%
X36400000Y-93050000D03*
%TD*%
D16*
%TO.P,OR5,*%
%TO.N,*%
X201060000Y-57500000D03*
X193440000Y-57500000D03*
D17*
%TO.P,OR5,1,Vout*%
%TO.N,Net-(OR5-Vout)*%
X194710000Y-61250000D03*
%TO.P,OR5,2,GND*%
%TO.N,Earth*%
X197250000Y-61250000D03*
%TO.P,OR5,3,Vcc*%
%TO.N,+3V3*%
X199790000Y-61250000D03*
%TD*%
D28*
%TO.P,D2,1*%
%TO.N,Net-(D2-Pad1)*%
X79990000Y-93500000D03*
D20*
%TO.P,D2,2*%
%TO.N,Earth*%
X87610000Y-93500000D03*
%TD*%
D24*
%TO.P,H5,1,Pin_1*%
%TO.N,Earth*%
X51340000Y-115750000D03*
X76740000Y-115750000D03*
%TD*%
D19*
%TO.P,C18,1*%
%TO.N,+3V3*%
X218750000Y-67000000D03*
%TO.P,C18,2*%
%TO.N,Earth*%
X213750000Y-67000000D03*
%TD*%
D21*
%TO.P,C33,1*%
%TO.N,Net-(D1-K)*%
X218000000Y-198600000D03*
D22*
%TO.P,C33,2*%
%TO.N,Earth*%
X218000000Y-191100000D03*
%TD*%
D43*
%TO.N,+3V3*%
X82600000Y-93600000D03*
X39400000Y-70800000D03*
X82050000Y-86050000D03*
%TO.N,Earth*%
X119000000Y-136500000D03*
X114000000Y-145500000D03*
X111500000Y-148500000D03*
X116500000Y-133500000D03*
X114000000Y-139500000D03*
X116500000Y-139500000D03*
X121500000Y-136500000D03*
X109000000Y-133500000D03*
X111500000Y-136500000D03*
X116500000Y-136500000D03*
X119000000Y-145500000D03*
X116500000Y-148500000D03*
X114000000Y-148500000D03*
X111500000Y-139500000D03*
X119000000Y-142500000D03*
X114000000Y-136500000D03*
X121500000Y-139500000D03*
X121500000Y-145500000D03*
X108500000Y-142500000D03*
X116500000Y-145500000D03*
X116500000Y-142500000D03*
X108500000Y-148500000D03*
X111500000Y-145500000D03*
X108500000Y-145500000D03*
X114000000Y-142500000D03*
X114000000Y-133500000D03*
X111500000Y-133500000D03*
X119000000Y-148500000D03*
X119000000Y-139500000D03*
X111500000Y-142500000D03*
X121500000Y-142500000D03*
X121500000Y-148500000D03*
D44*
%TO.N,Net-(D4-K)*%
X188000000Y-134300000D03*
X184000000Y-134300000D03*
X182000000Y-134300000D03*
X177750000Y-136250000D03*
D43*
X136800000Y-100200000D03*
D44*
X186000000Y-134300000D03*
D43*
X128400000Y-91800000D03*
D44*
X193120000Y-134200000D03*
X190000000Y-134300000D03*
X179800000Y-134500000D03*
%TO.N,Net-(D6-A)*%
X184750000Y-115500000D03*
X181750000Y-118500000D03*
X183250000Y-117000000D03*
X187750000Y-112700000D03*
X181400000Y-121000000D03*
D43*
%TO.N,Net-(D1-K)*%
X220500000Y-218600000D03*
X117000000Y-223000000D03*
X127000000Y-223000000D03*
X133000000Y-212500000D03*
X155500000Y-218600000D03*
X180500000Y-158600000D03*
X218000000Y-181100000D03*
X107000000Y-225500000D03*
X218000000Y-196100000D03*
X178000000Y-181100000D03*
X109500000Y-223000000D03*
X195500000Y-218600000D03*
X238000000Y-156100000D03*
X119500000Y-223000000D03*
X158000000Y-181100000D03*
X220500000Y-158600000D03*
X178000000Y-201100000D03*
X160500000Y-158600000D03*
X158000000Y-156100000D03*
X175500000Y-158600000D03*
X132000000Y-223000000D03*
X178000000Y-216100000D03*
X198000000Y-161100000D03*
X178000000Y-156100000D03*
X135500000Y-210000000D03*
X175500000Y-198600000D03*
X235500000Y-158600000D03*
X218000000Y-216100000D03*
X109500000Y-220500000D03*
X107000000Y-215500000D03*
X218000000Y-201100000D03*
X238000000Y-196100000D03*
X117000000Y-220500000D03*
X158000000Y-221100000D03*
X198000000Y-196100000D03*
X238000000Y-221100000D03*
X178000000Y-161100000D03*
X127000000Y-220500000D03*
X132000000Y-218000000D03*
X130500000Y-210000000D03*
X158000000Y-216100000D03*
X130500000Y-215000000D03*
X178000000Y-196100000D03*
X155500000Y-178600000D03*
X200500000Y-198600000D03*
X160500000Y-178600000D03*
X134500000Y-220500000D03*
X180500000Y-178600000D03*
X220500000Y-178600000D03*
X119500000Y-220500000D03*
X218000000Y-176100000D03*
X215500000Y-178600000D03*
X218000000Y-221100000D03*
X107000000Y-220500000D03*
X198000000Y-176100000D03*
X104500000Y-225500000D03*
X215500000Y-198600000D03*
X124500000Y-220500000D03*
X175500000Y-178600000D03*
X200500000Y-158600000D03*
X158000000Y-196100000D03*
X235500000Y-218600000D03*
X195500000Y-158600000D03*
X180500000Y-198600000D03*
X198000000Y-221100000D03*
X200500000Y-218600000D03*
X180500000Y-218600000D03*
X200500000Y-178600000D03*
X129500000Y-220500000D03*
X140500000Y-212500000D03*
X175500000Y-218600000D03*
X215500000Y-158600000D03*
X195500000Y-198600000D03*
X104500000Y-215500000D03*
X178000000Y-221100000D03*
X240500000Y-178600000D03*
X160500000Y-218600000D03*
X158000000Y-201100000D03*
X160500000Y-198600000D03*
X198000000Y-156100000D03*
X112000000Y-223000000D03*
X240500000Y-198600000D03*
X240500000Y-218600000D03*
X235500000Y-178600000D03*
X104500000Y-223000000D03*
X114500000Y-220500000D03*
X235500000Y-198600000D03*
X198000000Y-216100000D03*
X155500000Y-198600000D03*
X133000000Y-210000000D03*
X238000000Y-216100000D03*
X238000000Y-176100000D03*
X238000000Y-201100000D03*
X124500000Y-223000000D03*
X107000000Y-223000000D03*
X138000000Y-210000000D03*
X130500000Y-212500000D03*
X195500000Y-178600000D03*
X112000000Y-220500000D03*
X158000000Y-176100000D03*
X122000000Y-223000000D03*
X220500000Y-198600000D03*
X198000000Y-201100000D03*
X107000000Y-218000000D03*
X104500000Y-218000000D03*
X218000000Y-156100000D03*
X129500000Y-223000000D03*
X238000000Y-161100000D03*
X240500000Y-158600000D03*
X238000000Y-181100000D03*
X122000000Y-220500000D03*
X198000000Y-181100000D03*
X178000000Y-176100000D03*
X215500000Y-218600000D03*
X124500000Y-218000000D03*
X114500000Y-223000000D03*
X158000000Y-161100000D03*
X218000000Y-161100000D03*
X104500000Y-220500000D03*
X127000000Y-218000000D03*
X155500000Y-158600000D03*
X140500000Y-210000000D03*
X132000000Y-220500000D03*
%TO.N,Net-(D1-A)*%
X94000000Y-155000000D03*
X94000000Y-190000000D03*
X62500000Y-165000000D03*
X119500000Y-201500000D03*
X108000000Y-198000000D03*
X60000000Y-207500000D03*
X91500000Y-182500000D03*
X57500000Y-145000000D03*
X91500000Y-175000000D03*
X122000000Y-194000000D03*
X60000000Y-155000000D03*
X91500000Y-200000000D03*
X60000000Y-152500000D03*
X60000000Y-165000000D03*
X105000000Y-193000000D03*
X94000000Y-165000000D03*
X91500000Y-165000000D03*
X91500000Y-177500000D03*
X62500000Y-182500000D03*
X60000000Y-162500000D03*
X57500000Y-195000000D03*
X62500000Y-192500000D03*
X91500000Y-150000000D03*
X105000000Y-195500000D03*
X94000000Y-205000000D03*
X91500000Y-167500000D03*
X62500000Y-207500000D03*
X91500000Y-180000000D03*
X62500000Y-152500000D03*
X122000000Y-204000000D03*
X91500000Y-190000000D03*
X91500000Y-187500000D03*
X94000000Y-182500000D03*
X94000000Y-202500000D03*
X60000000Y-177500000D03*
X60000000Y-147500000D03*
X57500000Y-147500000D03*
X60000000Y-170000000D03*
X57500000Y-150000000D03*
X62500000Y-150000000D03*
X62500000Y-157500000D03*
X91500000Y-185000000D03*
X57500000Y-170000000D03*
X60000000Y-200000000D03*
X62500000Y-190000000D03*
X111000000Y-198000000D03*
X119500000Y-191500000D03*
X107500000Y-195500000D03*
X60000000Y-167500000D03*
X122000000Y-206500000D03*
X91500000Y-147500000D03*
X113500000Y-198000000D03*
X62500000Y-167500000D03*
X94000000Y-207500000D03*
X62500000Y-195000000D03*
X57500000Y-172500000D03*
X116000000Y-198000000D03*
X94000000Y-195000000D03*
X91500000Y-192500000D03*
X91500000Y-195000000D03*
X91500000Y-152500000D03*
X94000000Y-170000000D03*
X94000000Y-162500000D03*
X94000000Y-177500000D03*
X60000000Y-202500000D03*
X91500000Y-155000000D03*
X119500000Y-204000000D03*
X57500000Y-202500000D03*
X94000000Y-172500000D03*
X94000000Y-180000000D03*
X119500000Y-199000000D03*
X91500000Y-170000000D03*
X62500000Y-177500000D03*
X60000000Y-187500000D03*
X62500000Y-155000000D03*
X60000000Y-205000000D03*
X94000000Y-147500000D03*
X122000000Y-199000000D03*
X57500000Y-175000000D03*
X60000000Y-172500000D03*
X107500000Y-193000000D03*
X119500000Y-194000000D03*
X60000000Y-175000000D03*
X94000000Y-197500000D03*
X57500000Y-200000000D03*
X60000000Y-145000000D03*
X60000000Y-195000000D03*
X60000000Y-150000000D03*
X57500000Y-197500000D03*
X62500000Y-175000000D03*
X94000000Y-192500000D03*
X94000000Y-152500000D03*
X94000000Y-157500000D03*
X122000000Y-196500000D03*
X60000000Y-160000000D03*
X91500000Y-202500000D03*
X60000000Y-180000000D03*
X91500000Y-145000000D03*
X60000000Y-182500000D03*
X62500000Y-162500000D03*
X91500000Y-160000000D03*
X57500000Y-152500000D03*
X60000000Y-157500000D03*
X60000000Y-190000000D03*
X94000000Y-185000000D03*
X62500000Y-187500000D03*
X91500000Y-205000000D03*
X60000000Y-192500000D03*
X91500000Y-162500000D03*
X94000000Y-187500000D03*
X94000000Y-175000000D03*
X62500000Y-180000000D03*
X119500000Y-196500000D03*
X94000000Y-160000000D03*
X60000000Y-185000000D03*
X91500000Y-207500000D03*
X62500000Y-205000000D03*
X105000000Y-198000000D03*
X62500000Y-185000000D03*
X57500000Y-142500000D03*
X91500000Y-172500000D03*
X94000000Y-150000000D03*
X62500000Y-202500000D03*
X62500000Y-160000000D03*
X94000000Y-145000000D03*
X94000000Y-167500000D03*
X122000000Y-201500000D03*
X119500000Y-206500000D03*
X60000000Y-197500000D03*
X91500000Y-157500000D03*
X57500000Y-167500000D03*
X91500000Y-197500000D03*
X94000000Y-200000000D03*
%TO.N,Net-(D8-K)*%
X122500000Y-168500000D03*
X125000000Y-166000000D03*
X120000000Y-172500000D03*
X121000000Y-176000000D03*
X122500000Y-163500000D03*
X122500000Y-172500000D03*
X120000000Y-168500000D03*
X125000000Y-168500000D03*
X120000000Y-163500000D03*
X118400000Y-176000000D03*
X111500000Y-172500000D03*
X120000000Y-166000000D03*
X117000000Y-172500000D03*
X118500000Y-179000000D03*
X122500000Y-166000000D03*
X123500000Y-179000000D03*
X121000000Y-179000000D03*
X123500000Y-176000000D03*
X114000000Y-172500000D03*
%TO.N,Net-(J4-Pin_1)*%
X61450000Y-129950000D03*
X53950000Y-134950000D03*
X61450000Y-132450000D03*
X51450000Y-132450000D03*
X56450000Y-134950000D03*
X51450000Y-134950000D03*
X61450000Y-134950000D03*
X58950000Y-132450000D03*
X63950000Y-134950000D03*
X63950000Y-132450000D03*
X53950000Y-132450000D03*
X58950000Y-129950000D03*
X58950000Y-134950000D03*
X58950000Y-127450000D03*
X56450000Y-132450000D03*
X58950000Y-124950000D03*
D44*
%TO.N,Net-(J5-Pin_1)*%
X234000000Y-105000000D03*
X230500000Y-107500000D03*
X222200000Y-113200000D03*
X224100000Y-113200000D03*
X229000000Y-109000000D03*
X220300000Y-113200000D03*
X218400000Y-113200000D03*
X232000000Y-106000000D03*
X216500000Y-113200000D03*
X227500000Y-110500000D03*
X226000000Y-112000000D03*
D43*
%TO.N,Net-(U2-VIN+)*%
X80000000Y-137500000D03*
X80000000Y-132500000D03*
X87500000Y-132500000D03*
X90000000Y-137500000D03*
X85000000Y-135000000D03*
X85000000Y-137500000D03*
X100000000Y-137500000D03*
X100000000Y-140000000D03*
X97500000Y-137500000D03*
X92500000Y-135000000D03*
X90000000Y-135000000D03*
X95000000Y-135000000D03*
X82500000Y-140000000D03*
X100000000Y-135000000D03*
X82500000Y-132500000D03*
D45*
X110100000Y-120000000D03*
D43*
X92500000Y-140000000D03*
X87500000Y-140000000D03*
X95000000Y-137500000D03*
X80000000Y-135000000D03*
X77500000Y-132500000D03*
X85000000Y-132500000D03*
X82500000Y-137500000D03*
X95000000Y-140000000D03*
X77500000Y-137500000D03*
X97500000Y-140000000D03*
X92500000Y-137500000D03*
X87500000Y-135000000D03*
X82500000Y-135000000D03*
X87500000Y-137500000D03*
X90000000Y-140000000D03*
X77500000Y-135000000D03*
X85000000Y-140000000D03*
X97500000Y-135000000D03*
%TO.N,Net-(L1-Pad1)*%
X219500000Y-137500000D03*
X224500000Y-133000000D03*
X217000000Y-140000000D03*
X219500000Y-135000000D03*
X211000000Y-137000000D03*
X211000000Y-134500000D03*
X217000000Y-135000000D03*
X208000000Y-137500000D03*
X222000000Y-133000000D03*
X217000000Y-132500000D03*
X214000000Y-135000000D03*
X219500000Y-132500000D03*
X214000000Y-140000000D03*
X219500000Y-140000000D03*
X214000000Y-137500000D03*
X207000000Y-140000000D03*
X217000000Y-137500000D03*
D45*
%TO.N,Net-(U1-IN)*%
X80200000Y-87800000D03*
X74700000Y-87800000D03*
D43*
%TO.N,+10V*%
X39000000Y-94800000D03*
%TO.N,Net-(D4-K)*%
X39850000Y-86200000D03*
%TD*%
D46*
%TO.N,Net-(D2-Pad1)*%
X79990000Y-96800000D02*
X79990000Y-93500000D01*
X74790000Y-96800000D02*
X79990000Y-96800000D01*
X71790000Y-99800000D02*
X74790000Y-96800000D01*
%TO.N,Net-(X1-VP_a1i)*%
X98290000Y-107690000D02*
X98290000Y-112700000D01*
X87610000Y-97010000D02*
X98290000Y-107690000D01*
X87610000Y-97000000D02*
X87610000Y-97010000D01*
D47*
%TO.N,+3V3*%
X127700000Y-131100000D02*
X133215000Y-131100000D01*
X106600000Y-118200000D02*
X114800000Y-118200000D01*
X104500000Y-116100000D02*
X106600000Y-118200000D01*
X94800000Y-116100000D02*
X104500000Y-116100000D01*
X88100000Y-109400000D02*
X94800000Y-116100000D01*
X88100000Y-103100000D02*
X88100000Y-109400000D01*
X82600000Y-97600000D02*
X88100000Y-103100000D01*
X114800000Y-118200000D02*
X127700000Y-131100000D01*
X82600000Y-93600000D02*
X82600000Y-97600000D01*
%TO.N,Net-(D4-K)*%
X128200000Y-91600000D02*
X128400000Y-91800000D01*
X78800000Y-91600000D02*
X128200000Y-91600000D01*
X76400000Y-86900000D02*
X76400000Y-89200000D01*
X75700000Y-86200000D02*
X76400000Y-86900000D01*
X39850000Y-86200000D02*
X75700000Y-86200000D01*
X76400000Y-89200000D02*
X78800000Y-91600000D01*
%TO.N,Net-(X1-3V3)*%
X131310000Y-88440000D02*
X131310000Y-87300000D01*
X79800000Y-89800000D02*
X129950000Y-89800000D01*
X78400000Y-88400000D02*
X79800000Y-89800000D01*
X129950000Y-89800000D02*
X131310000Y-88440000D01*
X78400000Y-86200000D02*
X78400000Y-88400000D01*
X69500000Y-79450000D02*
X71650000Y-79450000D01*
X71650000Y-79450000D02*
X78400000Y-86200000D01*
%TO.N,Net-(D4-K)*%
X39850000Y-86200000D02*
X38250000Y-86200000D01*
X38250000Y-86200000D02*
X36400000Y-88050000D01*
D46*
%TO.N,Net-(U1-IN)*%
X74700000Y-87800000D02*
X67400000Y-87800000D01*
X67400000Y-87800000D02*
X64870000Y-90330000D01*
X64870000Y-90330000D02*
X64870000Y-91000000D01*
%TO.N,Net-(D2-Pad1)*%
X71790000Y-101510000D02*
X71790000Y-99800000D01*
X69300000Y-104000000D02*
X71790000Y-101510000D01*
X69300000Y-104290000D02*
X69300000Y-104000000D01*
D47*
%TO.N,+3V3*%
X73900000Y-77900000D02*
X82050000Y-86050000D01*
X65500000Y-76200000D02*
X65500000Y-79400000D01*
D46*
%TO.N,Net-(J9-Pin_1)*%
X69560000Y-63900000D02*
X69560000Y-62650000D01*
X61000000Y-72460000D02*
X69560000Y-63900000D01*
X61000000Y-72900000D02*
X61000000Y-72460000D01*
X60950000Y-72950000D02*
X61000000Y-72900000D01*
X60500000Y-72950000D02*
X60950000Y-72950000D01*
%TO.N,Net-(J10-Pin_1)*%
X65500000Y-70750000D02*
X65500000Y-72900000D01*
X69000000Y-67250000D02*
X65500000Y-70750000D01*
D47*
%TO.N,+10V*%
X67020000Y-94800000D02*
X48200000Y-94800000D01*
X67210000Y-94610000D02*
X67020000Y-94800000D01*
%TO.N,+3V3*%
X72200000Y-76200000D02*
X73900000Y-77900000D01*
X53800000Y-76200000D02*
X72200000Y-76200000D01*
X48400000Y-70800000D02*
X53800000Y-76200000D01*
X36400000Y-70800000D02*
X48400000Y-70800000D01*
X58150000Y-51250000D02*
X83500000Y-51250000D01*
X50600000Y-58800000D02*
X58150000Y-51250000D01*
X50600000Y-68400000D02*
X50600000Y-58800000D01*
X48200000Y-70800000D02*
X50600000Y-68400000D01*
%TO.N,+10V*%
X67410000Y-94800000D02*
X73000000Y-94800000D01*
X67410000Y-92610000D02*
X67410000Y-94800000D01*
%TO.N,Net-(R1-Pad1)*%
X63670000Y-102420000D02*
X61600000Y-102420000D01*
X63670000Y-102420000D02*
X65430000Y-102420000D01*
X63670000Y-98810000D02*
X63670000Y-102420000D01*
X65430000Y-102420000D02*
X65600000Y-102590000D01*
X62430000Y-98620000D02*
X62240000Y-98810000D01*
X64870000Y-98620000D02*
X62430000Y-98620000D01*
%TO.N,+10V*%
X48200000Y-94800000D02*
X48200000Y-95600000D01*
X46200000Y-94800000D02*
X48200000Y-94800000D01*
X46200000Y-94800000D02*
X48600000Y-94800000D01*
X38150000Y-94800000D02*
X46200000Y-94800000D01*
X36400000Y-93050000D02*
X38150000Y-94800000D01*
D46*
%TO.N,Net-(J10-Pin_1)*%
X71560000Y-64690000D02*
X68325000Y-67925000D01*
X71560000Y-55400000D02*
X71560000Y-64690000D01*
X69560000Y-53400000D02*
X71560000Y-55400000D01*
%TO.N,Net-(J1-Pin_3)*%
X105910000Y-86910000D02*
X105910000Y-87300000D01*
X101000000Y-82000000D02*
X105910000Y-86910000D01*
X80900000Y-66900000D02*
X96000000Y-82000000D01*
X80900000Y-53270000D02*
X80900000Y-66900000D01*
X80920000Y-53250000D02*
X80900000Y-53270000D01*
X96000000Y-82000000D02*
X101000000Y-82000000D01*
D47*
%TO.N,+3V3*%
X83500000Y-51250000D02*
X83500000Y-53250000D01*
X83500000Y-51250000D02*
X86100000Y-51250000D01*
D48*
%TO.N,Earth*%
X241290000Y-76210000D02*
X237380000Y-76210000D01*
X241300000Y-76200000D02*
X241290000Y-76210000D01*
X245000000Y-76210000D02*
X241310000Y-76210000D01*
X241300000Y-76200000D02*
X241310000Y-76210000D01*
X245000000Y-76210000D02*
X245000000Y-81290000D01*
X245000000Y-86370000D02*
X245000000Y-81290000D01*
X241470000Y-86370000D02*
X241500000Y-86400000D01*
X237380000Y-86370000D02*
X241470000Y-86370000D01*
X241530000Y-86370000D02*
X241500000Y-86400000D01*
X245000000Y-86370000D02*
X241530000Y-86370000D01*
X237380000Y-86370000D02*
X237380000Y-81290000D01*
X237380000Y-76210000D02*
X237380000Y-81290000D01*
D46*
%TO.N,+3V3*%
X199790000Y-63040000D02*
X199790000Y-61250000D01*
X81500000Y-74500000D02*
X81500000Y-77900000D01*
X241790000Y-61250000D02*
X241790000Y-63540000D01*
D47*
X155060000Y-54000000D02*
X169060000Y-54000000D01*
X183560000Y-54000000D02*
X196560000Y-54000000D01*
X113060000Y-54000000D02*
X127060000Y-54000000D01*
D46*
X115790000Y-64040000D02*
X118750000Y-67000000D01*
D47*
X77000000Y-77900000D02*
X73900000Y-77900000D01*
X197060000Y-58360000D02*
X197060000Y-54500000D01*
X171790000Y-60990000D02*
X169060000Y-58260000D01*
X239060000Y-56302894D02*
X239060000Y-58000000D01*
X83800000Y-78000000D02*
X83750000Y-77950000D01*
X83975000Y-77900000D02*
X84025000Y-77950000D01*
X141560000Y-54000000D02*
X155060000Y-54000000D01*
X99250000Y-61250000D02*
X99250000Y-54310000D01*
X211060000Y-54000000D02*
X225060000Y-54000000D01*
X196560000Y-54000000D02*
X211060000Y-54000000D01*
D46*
X218750000Y-67000000D02*
X213790000Y-62040000D01*
X241790000Y-60730000D02*
X241790000Y-61250000D01*
D47*
X213790000Y-61250000D02*
X213790000Y-60890000D01*
X127060000Y-54000000D02*
X141560000Y-54000000D01*
D46*
X171790000Y-62540000D02*
X176250000Y-67000000D01*
D47*
X169060000Y-58260000D02*
X169060000Y-54000000D01*
D46*
X197060000Y-54500000D02*
X196560000Y-54000000D01*
X89180000Y-119200000D02*
X89180000Y-110480000D01*
D47*
X129790000Y-61250000D02*
X129790000Y-60990000D01*
X199790000Y-61090000D02*
X197060000Y-58360000D01*
X127060000Y-58260000D02*
X127060000Y-54000000D01*
X199790000Y-61250000D02*
X199790000Y-61090000D01*
X157790000Y-60890000D02*
X155060000Y-58160000D01*
X171790000Y-61250000D02*
X171790000Y-60990000D01*
D46*
X157790000Y-61250000D02*
X157790000Y-63540000D01*
D47*
X169060000Y-54000000D02*
X183560000Y-54000000D01*
X155060000Y-58160000D02*
X155060000Y-54000000D01*
X128800000Y-131200000D02*
X128900000Y-131100000D01*
X225250000Y-61250000D02*
X225250000Y-54190000D01*
D46*
X241790000Y-63540000D02*
X245250000Y-67000000D01*
D47*
X83750000Y-77950000D02*
X83700000Y-77950000D01*
D46*
X141250000Y-61250000D02*
X141250000Y-67000000D01*
X226250000Y-67000000D02*
X225250000Y-66000000D01*
D47*
X113060000Y-58160000D02*
X113060000Y-54000000D01*
D46*
X225250000Y-54190000D02*
X225060000Y-54000000D01*
X99250000Y-61250000D02*
X99250000Y-67000000D01*
X78000000Y-77900000D02*
X78000000Y-74560000D01*
X129790000Y-63040000D02*
X133750000Y-67000000D01*
X171790000Y-61250000D02*
X171790000Y-62540000D01*
X183250000Y-54310000D02*
X183560000Y-54000000D01*
X141250000Y-54310000D02*
X141560000Y-54000000D01*
X157790000Y-63540000D02*
X161250000Y-67000000D01*
D49*
X213790000Y-62040000D02*
X213790000Y-61250000D01*
D47*
X239060000Y-58000000D02*
X241790000Y-60730000D01*
X236757106Y-54000000D02*
X239060000Y-56302894D01*
D49*
X183250000Y-66500000D02*
X183750000Y-67000000D01*
D46*
X78000000Y-74560000D02*
X78000000Y-74310000D01*
D47*
X133240000Y-131075000D02*
X133215000Y-131100000D01*
X81500000Y-77900000D02*
X83975000Y-77900000D01*
X183250000Y-61250000D02*
X183250000Y-54310000D01*
X115790000Y-60890000D02*
X113060000Y-58160000D01*
X213790000Y-60890000D02*
X211060000Y-58160000D01*
D46*
X89180000Y-110480000D02*
X89150000Y-110450000D01*
X99250000Y-54310000D02*
X98670000Y-53730000D01*
D47*
X98940000Y-54000000D02*
X113060000Y-54000000D01*
X225060000Y-54000000D02*
X236757106Y-54000000D01*
X96190000Y-51250000D02*
X99250000Y-54310000D01*
D46*
X203750000Y-67000000D02*
X199790000Y-63040000D01*
D47*
X77000000Y-77900000D02*
X81500000Y-77900000D01*
D46*
X225250000Y-66000000D02*
X225250000Y-61250000D01*
D47*
X115790000Y-61250000D02*
X115790000Y-60890000D01*
D46*
X115790000Y-61250000D02*
X115790000Y-64040000D01*
D47*
X157790000Y-61250000D02*
X157790000Y-60890000D01*
X211060000Y-58160000D02*
X211060000Y-54000000D01*
X98670000Y-53730000D02*
X98940000Y-54000000D01*
X128800000Y-131760000D02*
X128800000Y-131200000D01*
X141250000Y-61250000D02*
X141250000Y-54310000D01*
D46*
X129790000Y-61250000D02*
X129790000Y-63040000D01*
D47*
X83700000Y-77950000D02*
X83600000Y-78050000D01*
X129790000Y-60990000D02*
X127060000Y-58260000D01*
X86100000Y-51250000D02*
X96190000Y-51250000D01*
D46*
X183250000Y-61250000D02*
X183250000Y-66500000D01*
X84025000Y-78335000D02*
X84025000Y-77950000D01*
D47*
X133240000Y-127900000D02*
X133240000Y-131075000D01*
D46*
%TO.N,Net-(OR1-Vout)*%
X106250000Y-67000000D02*
X106250000Y-81950000D01*
X110710000Y-62540000D02*
X106250000Y-67000000D01*
X110710000Y-61250000D02*
X110710000Y-62540000D01*
X106250000Y-81950000D02*
X110990000Y-86690000D01*
X110990000Y-86690000D02*
X110990000Y-87300000D01*
%TO.N,Net-(OR2-Vout)*%
X124710000Y-61250000D02*
X121250000Y-64710000D01*
X121250000Y-64710000D02*
X121250000Y-67000000D01*
X121250000Y-67000000D02*
X113530000Y-74720000D01*
X113530000Y-74720000D02*
X113530000Y-87300000D01*
%TO.N,Net-(OR3-Vout)*%
X121150000Y-86050000D02*
X121150000Y-87300000D01*
X143500000Y-72250000D02*
X134950000Y-72250000D01*
X152710000Y-63040000D02*
X148750000Y-67000000D01*
X152710000Y-61250000D02*
X152710000Y-63040000D01*
X134950000Y-72250000D02*
X121150000Y-86050000D01*
X148750000Y-67000000D02*
X143500000Y-72250000D01*
%TO.N,Net-(OR4-Vout)*%
X108450000Y-112450000D02*
X108450000Y-112700000D01*
X166710000Y-61250000D02*
X166710000Y-64040000D01*
X121100000Y-102100000D02*
X118800000Y-102100000D01*
X149700000Y-73500000D02*
X121100000Y-102100000D01*
X118800000Y-102100000D02*
X108450000Y-112450000D01*
X166710000Y-64040000D02*
X163750000Y-67000000D01*
X163750000Y-67000000D02*
X157250000Y-73500000D01*
X157250000Y-73500000D02*
X149700000Y-73500000D01*
%TO.N,Net-(OR5-Vout)*%
X120500000Y-105400000D02*
X113530000Y-112370000D01*
X191250000Y-67000000D02*
X194750000Y-63500000D01*
X151150000Y-76250000D02*
X122000000Y-105400000D01*
X113530000Y-112370000D02*
X113530000Y-112700000D01*
D49*
X194750000Y-61290000D02*
X194710000Y-61250000D01*
D46*
X191250000Y-67000000D02*
X182000000Y-76250000D01*
X194750000Y-63500000D02*
X194750000Y-61290000D01*
X122000000Y-105400000D02*
X120500000Y-105400000D01*
X182000000Y-76250000D02*
X151150000Y-76250000D01*
%TO.N,Net-(OR6-Vout)*%
X121400000Y-107100000D02*
X122450000Y-107100000D01*
X195750000Y-77500000D02*
X206250000Y-67000000D01*
X208710000Y-61250000D02*
X208710000Y-64540000D01*
X116070000Y-112430000D02*
X121400000Y-107100000D01*
X122450000Y-107100000D02*
X152050000Y-77500000D01*
X116070000Y-112700000D02*
X116070000Y-112430000D01*
X152050000Y-77500000D02*
X195750000Y-77500000D01*
X208710000Y-64540000D02*
X206250000Y-67000000D01*
D49*
%TO.N,Earth*%
X113750000Y-61250000D02*
X113750000Y-61500000D01*
D46*
X127250000Y-61250000D02*
X127750000Y-61750000D01*
%TO.N,Net-(U3-Cathode)*%
X104290000Y-119600000D02*
X104420000Y-119470000D01*
X100340000Y-119100000D02*
X99990000Y-119100000D01*
X96900000Y-119100000D02*
X96800000Y-119200000D01*
X99990000Y-119100000D02*
X96900000Y-119100000D01*
X99990000Y-119100000D02*
X103900000Y-119100000D01*
X103900000Y-119100000D02*
X104490000Y-119690000D01*
D49*
%TO.N,Net-(OR7-Vout)*%
X121150000Y-112700000D02*
X121150000Y-112275000D01*
D46*
X236710000Y-63040000D02*
X236710000Y-61250000D01*
X121150000Y-112450000D02*
X121150000Y-112700000D01*
X232750000Y-67000000D02*
X219750000Y-80000000D01*
X153600000Y-80000000D02*
X121150000Y-112450000D01*
X232750000Y-67000000D02*
X236710000Y-63040000D01*
X219750000Y-80000000D02*
X153600000Y-80000000D01*
D47*
%TO.N,Net-(D4-A)*%
X192000000Y-128290000D02*
X192040000Y-128250000D01*
D46*
X191590000Y-128700000D02*
X170600000Y-128700000D01*
X170600000Y-128700000D02*
X168800000Y-126900000D01*
D47*
X192040000Y-128250000D02*
X198300000Y-128250000D01*
D46*
X192000000Y-128290000D02*
X191590000Y-128700000D01*
D48*
%TO.N,Net-(D4-K)*%
X196250000Y-134200000D02*
X196300000Y-134250000D01*
X175400000Y-138600000D02*
X177750000Y-136250000D01*
D50*
X192000000Y-135910000D02*
X192000000Y-134200000D01*
D51*
X175400000Y-138600000D02*
X179800000Y-134200000D01*
D50*
X148000000Y-101800000D02*
X148000000Y-91750000D01*
X143200000Y-106600000D02*
X148000000Y-101800000D01*
D47*
X196300000Y-138250000D02*
X196300000Y-134250000D01*
D52*
X175400000Y-138600000D02*
X175200000Y-138600000D01*
D51*
X179800000Y-134200000D02*
X196250000Y-134200000D01*
D47*
X198300000Y-140250000D02*
X196300000Y-138250000D01*
D46*
%TO.N,Net-(D5-K)*%
X177590000Y-120500000D02*
X177540000Y-120450000D01*
D47*
X177590000Y-120500000D02*
X177590000Y-124210000D01*
D46*
X177540000Y-120450000D02*
X174100000Y-120450000D01*
D47*
X177590000Y-124210000D02*
X175400000Y-126400000D01*
D48*
%TO.N,Net-(D6-A)*%
X188000000Y-113200000D02*
X187050000Y-113200000D01*
D51*
X181400000Y-118600000D02*
X181400000Y-124400000D01*
X186800000Y-113200000D02*
X181400000Y-118600000D01*
X191000000Y-113200000D02*
X188000000Y-113200000D01*
X187050000Y-113200000D02*
X186800000Y-113200000D01*
D46*
%TO.N,Net-(D6-K)*%
X178980000Y-112680000D02*
X174100000Y-107800000D01*
X174100000Y-107800000D02*
X174100000Y-107750000D01*
X178980000Y-114600000D02*
X178980000Y-112680000D01*
%TO.N,Net-(OT1-Vin)*%
X104000000Y-82250000D02*
X108450000Y-86700000D01*
X101790000Y-61250000D02*
X104000000Y-63460000D01*
X108450000Y-86700000D02*
X108450000Y-87300000D01*
X104000000Y-63460000D02*
X104000000Y-82250000D01*
%TO.N,Net-(OT2-Vin)*%
X143790000Y-61250000D02*
X143790000Y-68460000D01*
X131750000Y-71000000D02*
X116070000Y-86680000D01*
X143790000Y-68460000D02*
X143750000Y-68500000D01*
X116070000Y-86680000D02*
X116070000Y-87300000D01*
X143750000Y-68500000D02*
X141250000Y-71000000D01*
X141250000Y-71000000D02*
X131750000Y-71000000D01*
D50*
%TO.N,Net-(D1-K)*%
X126400000Y-217900000D02*
X126400000Y-211300000D01*
D48*
X84670000Y-223310000D02*
X94830000Y-223310000D01*
X84670000Y-215690000D02*
X84670000Y-223310000D01*
X111200000Y-215000000D02*
X110510000Y-215690000D01*
D49*
X177500000Y-164750000D02*
X177400000Y-164850000D01*
D48*
X94830000Y-215690000D02*
X94830000Y-223310000D01*
X114100000Y-217900000D02*
X126400000Y-217900000D01*
X110510000Y-215690000D02*
X84670000Y-215690000D01*
D46*
X150700000Y-139110000D02*
X150700000Y-144200000D01*
X150700000Y-144200000D02*
X152200000Y-145700000D01*
D48*
X111200000Y-215000000D02*
X114100000Y-217900000D01*
X126400000Y-217900000D02*
X133700000Y-217900000D01*
X133700000Y-217900000D02*
X136600000Y-215000000D01*
D49*
X150200000Y-192350000D02*
X150250000Y-192300000D01*
D46*
%TO.N,Net-(J1-Pin_4)*%
X78500000Y-53250000D02*
X78500000Y-67300000D01*
X98290000Y-87135000D02*
X98290000Y-87300000D01*
X89105000Y-77950000D02*
X98290000Y-87135000D01*
X89105000Y-77905000D02*
X89105000Y-77950000D01*
X78500000Y-67300000D02*
X89105000Y-77905000D01*
%TO.N,Net-(U2-VOUT)*%
X103370000Y-112970000D02*
X107000000Y-116600000D01*
X120200000Y-116600000D02*
X130700000Y-127100000D01*
X103370000Y-112700000D02*
X103370000Y-112970000D01*
X130700000Y-127100000D02*
X130700000Y-127900000D01*
X130700000Y-127900000D02*
X130700000Y-127000000D01*
X140590000Y-125700000D02*
X140600000Y-125710000D01*
X130700000Y-127000000D02*
X132000000Y-125700000D01*
X107000000Y-116600000D02*
X120200000Y-116600000D01*
X132000000Y-125700000D02*
X140590000Y-125700000D01*
X103370000Y-112700000D02*
X103370000Y-113270000D01*
%TO.N,Net-(J1-Pin_3)*%
X105910000Y-86660000D02*
X105910000Y-87300000D01*
D49*
%TO.N,Net-(D1-A)*%
X96687436Y-172000000D02*
X96737436Y-172050000D01*
X62837436Y-198150000D02*
X62737436Y-198250000D01*
X96737436Y-169737436D02*
X96687436Y-169687436D01*
X96737436Y-172050000D02*
X96737436Y-169737436D01*
%TO.N,Net-(U1-IN)*%
X65440000Y-90230000D02*
X65440000Y-90940000D01*
D47*
%TO.N,+10V*%
X67410000Y-98620000D02*
X67410000Y-91000000D01*
D46*
%TO.N,Net-(U2-VIN-)*%
X133240000Y-121140000D02*
X133110000Y-121010000D01*
X134100000Y-118000000D02*
X141110000Y-118000000D01*
X132835000Y-119875000D02*
X133240000Y-120280000D01*
X133240000Y-118860000D02*
X134100000Y-118000000D01*
D49*
X133240000Y-120280000D02*
X133240000Y-121140000D01*
X133110000Y-120150000D02*
X133240000Y-120280000D01*
D46*
X141110000Y-118000000D02*
X144100000Y-120990000D01*
X133240000Y-120280000D02*
X133240000Y-118860000D01*
D48*
%TO.N,Net-(J4-Pin_1)*%
X66330000Y-223310000D02*
X61250000Y-223310000D01*
D49*
X69237436Y-172300000D02*
X69137436Y-172200000D01*
X69137436Y-172150000D02*
X69237436Y-172050000D01*
D53*
X64040000Y-126860000D02*
X64040000Y-122600000D01*
D48*
X61250000Y-216290000D02*
X61250000Y-223310000D01*
D46*
X64040000Y-125460000D02*
X64100000Y-125400000D01*
D48*
X71410000Y-223310000D02*
X71410000Y-220390000D01*
X66330000Y-215690000D02*
X61250000Y-215690000D01*
X71410000Y-220390000D02*
X71400000Y-220400000D01*
D49*
X69137436Y-146050000D02*
X69187436Y-146000000D01*
D48*
X71410000Y-215690000D02*
X71410000Y-220390000D01*
X71410000Y-223310000D02*
X66330000Y-223310000D01*
X66330000Y-215690000D02*
X71410000Y-215690000D01*
D47*
%TO.N,Net-(U4-G)*%
X61500000Y-119920000D02*
X61540000Y-119960000D01*
D49*
X61540000Y-119960000D02*
X61500000Y-120000000D01*
D47*
X61540000Y-112580000D02*
X61500000Y-112620000D01*
D51*
%TO.N,Net-(J5-Pin_1)*%
X213460000Y-113200000D02*
X216500000Y-113200000D01*
D48*
X237380000Y-100040000D02*
X237380000Y-102580000D01*
X237380000Y-105120000D02*
X245000000Y-105120000D01*
X237380000Y-94960000D02*
X237420000Y-95000000D01*
X237380000Y-103630000D02*
X237250000Y-103500000D01*
D51*
X233000000Y-105000000D02*
X224800000Y-113200000D01*
D48*
X237380000Y-94960000D02*
X237380000Y-97500000D01*
X245000000Y-102580000D02*
X245000000Y-100040000D01*
D51*
X237260000Y-105000000D02*
X233000000Y-105000000D01*
D48*
X237380000Y-97500000D02*
X237380000Y-100040000D01*
X245000000Y-100040000D02*
X245000000Y-97500000D01*
X245000000Y-105120000D02*
X245000000Y-102580000D01*
D51*
X224800000Y-113200000D02*
X216500000Y-113200000D01*
D48*
X237420000Y-95000000D02*
X244810000Y-95000000D01*
X237380000Y-105120000D02*
X237380000Y-103630000D01*
X245000000Y-97500000D02*
X245000000Y-94960000D01*
D52*
%TO.N,Net-(U2-VIN+)*%
X67615000Y-121035000D02*
X66680000Y-120100000D01*
D46*
X103380000Y-136700000D02*
X103215000Y-136535000D01*
D53*
X67615000Y-121035000D02*
X67440000Y-120860000D01*
D46*
X103500000Y-126600000D02*
X103500000Y-137900000D01*
X110100000Y-120000000D02*
X103500000Y-126600000D01*
D52*
X66580000Y-119820000D02*
X67300000Y-119100000D01*
X66580000Y-120100000D02*
X66580000Y-119820000D01*
X66680000Y-120100000D02*
X66580000Y-120100000D01*
D46*
%TO.N,Net-(U5-G)*%
X150500000Y-108000000D02*
X150388154Y-108111846D01*
X167500000Y-108290000D02*
X167210000Y-108000000D01*
X167210000Y-108000000D02*
X150500000Y-108000000D01*
%TO.N,Net-(U5-D)*%
X168800000Y-114200000D02*
X168800000Y-109590000D01*
X168770000Y-109560000D02*
X168770000Y-109260000D01*
X168800000Y-109590000D02*
X168770000Y-109560000D01*
D49*
%TO.N,Net-(J9-Pin_1)*%
X69560000Y-62650000D02*
X69640000Y-62650000D01*
D46*
%TO.N,Net-(J10-Pin_5)*%
X59460000Y-53080000D02*
X59380000Y-53000000D01*
%TO.N,Net-(J10-Pin_4)*%
X62020000Y-62650000D02*
X62020000Y-52980000D01*
%TO.N,Net-(J10-Pin_2)*%
X67100000Y-62650000D02*
X67020000Y-62570000D01*
X67020000Y-62570000D02*
X67020000Y-52940000D01*
%TO.N,Net-(J10-Pin_4)*%
X62000000Y-53080000D02*
X61920000Y-53000000D01*
%TO.N,Net-(J10-Pin_3)*%
X64560000Y-62650000D02*
X64560000Y-52980000D01*
%TO.N,Net-(J10-Pin_5)*%
X59480000Y-62650000D02*
X59480000Y-52980000D01*
%TO.N,Net-(OT3-Vin)*%
X185790000Y-67710000D02*
X185790000Y-61250000D01*
X110990000Y-112700000D02*
X110990000Y-112510000D01*
X150400000Y-75000000D02*
X178500000Y-75000000D01*
X178500000Y-75000000D02*
X185790000Y-67710000D01*
X119800000Y-103700000D02*
X121700000Y-103700000D01*
X121700000Y-103700000D02*
X150400000Y-75000000D01*
X110990000Y-112510000D02*
X119800000Y-103700000D01*
%TO.N,Net-(OT4-Vin)*%
X217000000Y-78750000D02*
X227790000Y-67960000D01*
X122200000Y-108900000D02*
X122700000Y-108900000D01*
X122700000Y-108900000D02*
X152850000Y-78750000D01*
X118610000Y-112490000D02*
X122200000Y-108900000D01*
X152850000Y-78750000D02*
X217000000Y-78750000D01*
X118610000Y-112700000D02*
X118610000Y-112490000D01*
X227790000Y-67960000D02*
X227790000Y-61250000D01*
D50*
%TO.N,Net-(L1-Pad1)*%
X228000000Y-91750000D02*
X207000000Y-112750000D01*
X207000000Y-112750000D02*
X207000000Y-135000000D01*
D46*
%TO.N,Net-(X1-D35_a1i)*%
X105910000Y-113310000D02*
X105910000Y-112700000D01*
X107550000Y-114900000D02*
X105910000Y-113260000D01*
D49*
X105910000Y-112700000D02*
X106115635Y-112700000D01*
D46*
X147500000Y-121090000D02*
X147490000Y-121090000D01*
X105910000Y-113260000D02*
X105910000Y-112700000D01*
X147490000Y-121090000D02*
X141300000Y-114900000D01*
X141300000Y-114900000D02*
X107550000Y-114900000D01*
%TO.N,Net-(X1-D13_a2io)*%
X143500000Y-112000000D02*
X141600000Y-110100000D01*
X128830000Y-110100000D02*
X126230000Y-112700000D01*
X143500000Y-112000000D02*
X147690000Y-116190000D01*
X147690000Y-116190000D02*
X147880000Y-116190000D01*
X141600000Y-110100000D02*
X128830000Y-110100000D01*
%TO.N,Net-(U1-IN)*%
X95250000Y-87800000D02*
X95750000Y-87300000D01*
X80200000Y-87800000D02*
X95250000Y-87800000D01*
D50*
%TO.N,Net-(D4-K)*%
X175200000Y-138600000D02*
X136800000Y-100200000D01*
%TD*%
%TA.AperFunction,Conductor*%
%TO.N,Net-(D1-A)*%
G36*
X121199790Y-190200013D02*
G01*
X121200194Y-190200015D01*
X121205997Y-190200058D01*
X121206002Y-190200058D01*
X121206002Y-190200118D01*
X121206273Y-190200060D01*
X123200325Y-190219192D01*
X125573353Y-190241962D01*
X126256618Y-190248518D01*
X126267342Y-190249086D01*
X126466822Y-190268362D01*
X126487944Y-190272273D01*
X126675886Y-190324246D01*
X126696019Y-190331744D01*
X126872171Y-190415376D01*
X126890705Y-190426235D01*
X127049779Y-190539016D01*
X127066162Y-190552912D01*
X127203388Y-190691461D01*
X127217126Y-190707977D01*
X127328373Y-190868122D01*
X127339055Y-190886761D01*
X127420993Y-191063706D01*
X127428298Y-191083910D01*
X127478465Y-191272346D01*
X127482173Y-191293505D01*
X127499534Y-191493153D01*
X127500000Y-191503895D01*
X127500000Y-204674040D01*
X127499414Y-204686078D01*
X127477613Y-204909585D01*
X127472961Y-204933207D01*
X127410120Y-205142490D01*
X127400990Y-205164768D01*
X127298894Y-205357959D01*
X127285631Y-205378053D01*
X127148126Y-205547872D01*
X127131231Y-205565024D01*
X126958840Y-205708962D01*
X126949224Y-205716227D01*
X124145787Y-207627837D01*
X124145778Y-207627844D01*
X124145775Y-207627846D01*
X123600000Y-208000000D01*
X123600000Y-208660590D01*
X123600000Y-210404534D01*
X123599645Y-210413915D01*
X123586404Y-210588438D01*
X123583573Y-210606984D01*
X123570611Y-210663058D01*
X123568588Y-210670694D01*
X123475431Y-210981862D01*
X123475428Y-210981877D01*
X123470033Y-211012470D01*
X123466274Y-211027919D01*
X123130260Y-212103166D01*
X123128706Y-212107814D01*
X123098011Y-212193927D01*
X123094359Y-212203020D01*
X123056962Y-212286437D01*
X123054869Y-212290867D01*
X122884712Y-212633471D01*
X122878585Y-212644387D01*
X122754318Y-212841734D01*
X122738930Y-212861441D01*
X122581950Y-213025304D01*
X122562921Y-213041524D01*
X122371080Y-213174145D01*
X122360438Y-213180733D01*
X121886302Y-213442146D01*
X121877040Y-213446757D01*
X121702647Y-213524616D01*
X121699816Y-213525880D01*
X121680177Y-213532736D01*
X121497313Y-213579807D01*
X121476803Y-213583285D01*
X121283431Y-213599563D01*
X121273030Y-213600000D01*
X119255412Y-213600000D01*
X119244605Y-213599528D01*
X119222209Y-213597568D01*
X119043749Y-213581955D01*
X119022464Y-213578202D01*
X118832952Y-213527423D01*
X118812640Y-213520030D01*
X118650985Y-213444649D01*
X118634828Y-213437114D01*
X118616115Y-213426310D01*
X118455401Y-213313778D01*
X118438843Y-213299884D01*
X118300115Y-213161156D01*
X118286221Y-213144598D01*
X118214048Y-213041524D01*
X118173686Y-212983881D01*
X118162886Y-212965175D01*
X118079966Y-212787352D01*
X118072576Y-212767047D01*
X118021797Y-212577535D01*
X118018044Y-212556249D01*
X118000472Y-212355395D01*
X118000000Y-212344588D01*
X118000000Y-201249999D01*
X118000000Y-200000000D01*
X116750003Y-200000000D01*
X101249996Y-200000000D01*
X100000000Y-200000000D01*
X100000000Y-190200000D01*
X114756696Y-190200000D01*
X121193998Y-190200000D01*
X121194242Y-190200000D01*
X121199790Y-190200013D01*
G37*
%TD.AperFunction*%
%TD*%
%TA.AperFunction,Conductor*%
%TO.N,Net-(D1-K)*%
G36*
X202879699Y-144019685D02*
G01*
X202911035Y-144048513D01*
X202935168Y-144079964D01*
X202943511Y-144090836D01*
X202957405Y-144107394D01*
X203099170Y-144262101D01*
X203237898Y-144400829D01*
X203392605Y-144542594D01*
X203409163Y-144556488D01*
X203575672Y-144684255D01*
X203736386Y-144796787D01*
X203793140Y-144832944D01*
X203913293Y-144909493D01*
X203926187Y-144916937D01*
X203932006Y-144920297D01*
X204118223Y-145017240D01*
X204296033Y-145100154D01*
X204489907Y-145180459D01*
X204510219Y-145187852D01*
X204710370Y-145250959D01*
X204899882Y-145301738D01*
X205104766Y-145347159D01*
X205126051Y-145350912D01*
X205334099Y-145378302D01*
X205512559Y-145393915D01*
X205512559Y-145393914D01*
X205522629Y-145394795D01*
X205534888Y-145395869D01*
X205534913Y-145395870D01*
X205536174Y-145395981D01*
X205536291Y-145395990D01*
X205560228Y-145398084D01*
X205564900Y-145397837D01*
X205639623Y-145402736D01*
X205639640Y-145402736D01*
X205639644Y-145402737D01*
X205650451Y-145403209D01*
X205650453Y-145403209D01*
X205650475Y-145403210D01*
X205755391Y-145405500D01*
X205755412Y-145405500D01*
X225744610Y-145405500D01*
X225849534Y-145403210D01*
X225849554Y-145403209D01*
X225849559Y-145403209D01*
X225860365Y-145402737D01*
X225873251Y-145401891D01*
X225960046Y-145396201D01*
X225960522Y-145396268D01*
X225963728Y-145395988D01*
X225963850Y-145395979D01*
X225965124Y-145395867D01*
X225965131Y-145395867D01*
X225975298Y-145394976D01*
X225985048Y-145394123D01*
X225985049Y-145394124D01*
X226165899Y-145378302D01*
X226373948Y-145350912D01*
X226395233Y-145347159D01*
X226600117Y-145301738D01*
X226789629Y-145250959D01*
X226989780Y-145187852D01*
X227010092Y-145180459D01*
X227203966Y-145100154D01*
X227381776Y-145017240D01*
X227567932Y-144920333D01*
X227586650Y-144909526D01*
X227763625Y-144796780D01*
X227924336Y-144684249D01*
X228090836Y-144556488D01*
X228107394Y-144542594D01*
X228262101Y-144400829D01*
X228400829Y-144262101D01*
X228542594Y-144107394D01*
X228556488Y-144090836D01*
X228626189Y-144000000D01*
X247500000Y-144000000D01*
X247500000Y-222690383D01*
X247499587Y-222700494D01*
X247484205Y-222888510D01*
X247480918Y-222908464D01*
X247436413Y-223086546D01*
X247429927Y-223105699D01*
X247357067Y-223274183D01*
X247347553Y-223292028D01*
X247248274Y-223446433D01*
X247235987Y-223462494D01*
X247109534Y-223602471D01*
X247102456Y-223609690D01*
X244941043Y-225641418D01*
X242797042Y-227656780D01*
X242788156Y-227664376D01*
X242616086Y-227797967D01*
X242596372Y-227810488D01*
X242407540Y-227906776D01*
X242385828Y-227915379D01*
X242182286Y-227974555D01*
X242159346Y-227978934D01*
X241942470Y-227999449D01*
X241930793Y-228000000D01*
X147700000Y-228000000D01*
X147700000Y-211099999D01*
X154494696Y-211099999D01*
X154494696Y-211100000D01*
X154513898Y-211466405D01*
X154571294Y-211828788D01*
X154571294Y-211828790D01*
X154666260Y-212183206D01*
X154797746Y-212525739D01*
X154964320Y-212852656D01*
X155164147Y-213160364D01*
X155164149Y-213160366D01*
X155395051Y-213445506D01*
X155654494Y-213704949D01*
X155654498Y-213704952D01*
X155939635Y-213935852D01*
X156247343Y-214135679D01*
X156247348Y-214135682D01*
X156574264Y-214302255D01*
X156916801Y-214433742D01*
X157271206Y-214528705D01*
X157633596Y-214586102D01*
X157979734Y-214604241D01*
X157999999Y-214605304D01*
X158000000Y-214605304D01*
X158000001Y-214605304D01*
X158019203Y-214604297D01*
X158366404Y-214586102D01*
X158728794Y-214528705D01*
X159083199Y-214433742D01*
X159425736Y-214302255D01*
X159752652Y-214135682D01*
X160060366Y-213935851D01*
X160345506Y-213704949D01*
X160604949Y-213445506D01*
X160835851Y-213160366D01*
X161035682Y-212852652D01*
X161202255Y-212525736D01*
X161333742Y-212183199D01*
X161428705Y-211828794D01*
X161486102Y-211466404D01*
X161505304Y-211100000D01*
X161505304Y-211099999D01*
X174494696Y-211099999D01*
X174494696Y-211100000D01*
X174513898Y-211466405D01*
X174571294Y-211828788D01*
X174571294Y-211828790D01*
X174666260Y-212183206D01*
X174797746Y-212525739D01*
X174964320Y-212852656D01*
X175164147Y-213160364D01*
X175164149Y-213160366D01*
X175395051Y-213445506D01*
X175654494Y-213704949D01*
X175654498Y-213704952D01*
X175939635Y-213935852D01*
X176247343Y-214135679D01*
X176247348Y-214135682D01*
X176574264Y-214302255D01*
X176916801Y-214433742D01*
X177271206Y-214528705D01*
X177633596Y-214586102D01*
X177979734Y-214604241D01*
X177999999Y-214605304D01*
X178000000Y-214605304D01*
X178000001Y-214605304D01*
X178019203Y-214604297D01*
X178366404Y-214586102D01*
X178728794Y-214528705D01*
X179083199Y-214433742D01*
X179425736Y-214302255D01*
X179752652Y-214135682D01*
X180060366Y-213935851D01*
X180345506Y-213704949D01*
X180604949Y-213445506D01*
X180835851Y-213160366D01*
X181035682Y-212852652D01*
X181202255Y-212525736D01*
X181333742Y-212183199D01*
X181428705Y-211828794D01*
X181486102Y-211466404D01*
X181505304Y-211100000D01*
X181505304Y-211099999D01*
X194494696Y-211099999D01*
X194494696Y-211100000D01*
X194513898Y-211466405D01*
X194571294Y-211828788D01*
X194571294Y-211828790D01*
X194666260Y-212183206D01*
X194797746Y-212525739D01*
X194964320Y-212852656D01*
X195164147Y-213160364D01*
X195164149Y-213160366D01*
X195395051Y-213445506D01*
X195654494Y-213704949D01*
X195654498Y-213704952D01*
X195939635Y-213935852D01*
X196247343Y-214135679D01*
X196247348Y-214135682D01*
X196574264Y-214302255D01*
X196916801Y-214433742D01*
X197271206Y-214528705D01*
X197633596Y-214586102D01*
X197979734Y-214604241D01*
X197999999Y-214605304D01*
X198000000Y-214605304D01*
X198000001Y-214605304D01*
X198019203Y-214604297D01*
X198366404Y-214586102D01*
X198728794Y-214528705D01*
X199083199Y-214433742D01*
X199425736Y-214302255D01*
X199752652Y-214135682D01*
X200060366Y-213935851D01*
X200345506Y-213704949D01*
X200604949Y-213445506D01*
X200835851Y-213160366D01*
X201035682Y-212852652D01*
X201202255Y-212525736D01*
X201333742Y-212183199D01*
X201428705Y-211828794D01*
X201486102Y-211466404D01*
X201505304Y-211100000D01*
X201505304Y-211099999D01*
X214494696Y-211099999D01*
X214494696Y-211100000D01*
X214513898Y-211466405D01*
X214571294Y-211828788D01*
X214571294Y-211828790D01*
X214666260Y-212183206D01*
X214797746Y-212525739D01*
X214964320Y-212852656D01*
X215164147Y-213160364D01*
X215164149Y-213160366D01*
X215395051Y-213445506D01*
X215654494Y-213704949D01*
X215654498Y-213704952D01*
X215939635Y-213935852D01*
X216247343Y-214135679D01*
X216247348Y-214135682D01*
X216574264Y-214302255D01*
X216916801Y-214433742D01*
X217271206Y-214528705D01*
X217633596Y-214586102D01*
X217979734Y-214604241D01*
X217999999Y-214605304D01*
X218000000Y-214605304D01*
X218000001Y-214605304D01*
X218019203Y-214604297D01*
X218366404Y-214586102D01*
X218728794Y-214528705D01*
X219083199Y-214433742D01*
X219425736Y-214302255D01*
X219752652Y-214135682D01*
X220060366Y-213935851D01*
X220345506Y-213704949D01*
X220604949Y-213445506D01*
X220835851Y-213160366D01*
X221035682Y-212852652D01*
X221202255Y-212525736D01*
X221333742Y-212183199D01*
X221428705Y-211828794D01*
X221486102Y-211466404D01*
X221505304Y-211100000D01*
X221505304Y-211099999D01*
X234494696Y-211099999D01*
X234494696Y-211100000D01*
X234513898Y-211466405D01*
X234571294Y-211828788D01*
X234571294Y-211828790D01*
X234666260Y-212183206D01*
X234797746Y-212525739D01*
X234964320Y-212852656D01*
X235164147Y-213160364D01*
X235164149Y-213160366D01*
X235395051Y-213445506D01*
X235654494Y-213704949D01*
X235654498Y-213704952D01*
X235939635Y-213935852D01*
X236247343Y-214135679D01*
X236247348Y-214135682D01*
X236574264Y-214302255D01*
X236916801Y-214433742D01*
X237271206Y-214528705D01*
X237633596Y-214586102D01*
X237979734Y-214604241D01*
X237999999Y-214605304D01*
X238000000Y-214605304D01*
X238000001Y-214605304D01*
X238019203Y-214604297D01*
X238366404Y-214586102D01*
X238728794Y-214528705D01*
X239083199Y-214433742D01*
X239425736Y-214302255D01*
X239752652Y-214135682D01*
X240060366Y-213935851D01*
X240345506Y-213704949D01*
X240604949Y-213445506D01*
X240835851Y-213160366D01*
X241035682Y-212852652D01*
X241202255Y-212525736D01*
X241333742Y-212183199D01*
X241428705Y-211828794D01*
X241486102Y-211466404D01*
X241505304Y-211100000D01*
X241486102Y-210733596D01*
X241428705Y-210371206D01*
X241333742Y-210016801D01*
X241202255Y-209674264D01*
X241035682Y-209347348D01*
X240835851Y-209039634D01*
X240604949Y-208754494D01*
X240345506Y-208495051D01*
X240060366Y-208264149D01*
X240060364Y-208264147D01*
X239752656Y-208064320D01*
X239425739Y-207897746D01*
X239083206Y-207766260D01*
X239083199Y-207766258D01*
X238728794Y-207671295D01*
X238728790Y-207671294D01*
X238728789Y-207671294D01*
X238366405Y-207613898D01*
X238000001Y-207594696D01*
X237999999Y-207594696D01*
X237633594Y-207613898D01*
X237271211Y-207671294D01*
X237271209Y-207671294D01*
X236916793Y-207766260D01*
X236574260Y-207897746D01*
X236247343Y-208064320D01*
X235939635Y-208264147D01*
X235654498Y-208495047D01*
X235654490Y-208495054D01*
X235395054Y-208754490D01*
X235395047Y-208754498D01*
X235164147Y-209039635D01*
X234964320Y-209347343D01*
X234797746Y-209674260D01*
X234666260Y-210016793D01*
X234571294Y-210371209D01*
X234571294Y-210371211D01*
X234513898Y-210733594D01*
X234494696Y-211099999D01*
X221505304Y-211099999D01*
X221486102Y-210733596D01*
X221428705Y-210371206D01*
X221333742Y-210016801D01*
X221202255Y-209674264D01*
X221035682Y-209347348D01*
X220835851Y-209039634D01*
X220604949Y-208754494D01*
X220345506Y-208495051D01*
X220060366Y-208264149D01*
X220060364Y-208264147D01*
X219752656Y-208064320D01*
X219425739Y-207897746D01*
X219083206Y-207766260D01*
X219083199Y-207766258D01*
X218728794Y-207671295D01*
X218728790Y-207671294D01*
X218728789Y-207671294D01*
X218366405Y-207613898D01*
X218000001Y-207594696D01*
X217999999Y-207594696D01*
X217633594Y-207613898D01*
X217271211Y-207671294D01*
X217271209Y-207671294D01*
X216916793Y-207766260D01*
X216574260Y-207897746D01*
X216247343Y-208064320D01*
X215939635Y-208264147D01*
X215654498Y-208495047D01*
X215654490Y-208495054D01*
X215395054Y-208754490D01*
X215395047Y-208754498D01*
X215164147Y-209039635D01*
X214964320Y-209347343D01*
X214797746Y-209674260D01*
X214666260Y-210016793D01*
X214571294Y-210371209D01*
X214571294Y-210371211D01*
X214513898Y-210733594D01*
X214494696Y-211099999D01*
X201505304Y-211099999D01*
X201486102Y-210733596D01*
X201428705Y-210371206D01*
X201333742Y-210016801D01*
X201202255Y-209674264D01*
X201035682Y-209347348D01*
X200835851Y-209039634D01*
X200604949Y-208754494D01*
X200345506Y-208495051D01*
X200060366Y-208264149D01*
X200060364Y-208264147D01*
X199752656Y-208064320D01*
X199425739Y-207897746D01*
X199083206Y-207766260D01*
X199083199Y-207766258D01*
X198728794Y-207671295D01*
X198728790Y-207671294D01*
X198728789Y-207671294D01*
X198366405Y-207613898D01*
X198000001Y-207594696D01*
X197999999Y-207594696D01*
X197633594Y-207613898D01*
X197271211Y-207671294D01*
X197271209Y-207671294D01*
X196916793Y-207766260D01*
X196574260Y-207897746D01*
X196247343Y-208064320D01*
X195939635Y-208264147D01*
X195654498Y-208495047D01*
X195654490Y-208495054D01*
X195395054Y-208754490D01*
X195395047Y-208754498D01*
X195164147Y-209039635D01*
X194964320Y-209347343D01*
X194797746Y-209674260D01*
X194666260Y-210016793D01*
X194571294Y-210371209D01*
X194571294Y-210371211D01*
X194513898Y-210733594D01*
X194494696Y-211099999D01*
X181505304Y-211099999D01*
X181486102Y-210733596D01*
X181428705Y-210371206D01*
X181333742Y-210016801D01*
X181202255Y-209674264D01*
X181035682Y-209347348D01*
X180835851Y-209039634D01*
X180604949Y-208754494D01*
X180345506Y-208495051D01*
X180060366Y-208264149D01*
X180060364Y-208264147D01*
X179752656Y-208064320D01*
X179425739Y-207897746D01*
X179083206Y-207766260D01*
X179083199Y-207766258D01*
X178728794Y-207671295D01*
X178728790Y-207671294D01*
X178728789Y-207671294D01*
X178366405Y-207613898D01*
X178000001Y-207594696D01*
X177999999Y-207594696D01*
X177633594Y-207613898D01*
X177271211Y-207671294D01*
X177271209Y-207671294D01*
X176916793Y-207766260D01*
X176574260Y-207897746D01*
X176247343Y-208064320D01*
X175939635Y-208264147D01*
X175654498Y-208495047D01*
X175654490Y-208495054D01*
X175395054Y-208754490D01*
X175395047Y-208754498D01*
X175164147Y-209039635D01*
X174964320Y-209347343D01*
X174797746Y-209674260D01*
X174666260Y-210016793D01*
X174571294Y-210371209D01*
X174571294Y-210371211D01*
X174513898Y-210733594D01*
X174494696Y-211099999D01*
X161505304Y-211099999D01*
X161486102Y-210733596D01*
X161428705Y-210371206D01*
X161333742Y-210016801D01*
X161202255Y-209674264D01*
X161035682Y-209347348D01*
X160835851Y-209039634D01*
X160604949Y-208754494D01*
X160345506Y-208495051D01*
X160060366Y-208264149D01*
X160060364Y-208264147D01*
X159752656Y-208064320D01*
X159425739Y-207897746D01*
X159083206Y-207766260D01*
X159083199Y-207766258D01*
X158728794Y-207671295D01*
X158728790Y-207671294D01*
X158728789Y-207671294D01*
X158366405Y-207613898D01*
X158000001Y-207594696D01*
X157999999Y-207594696D01*
X157633594Y-207613898D01*
X157271211Y-207671294D01*
X157271209Y-207671294D01*
X156916793Y-207766260D01*
X156574260Y-207897746D01*
X156247343Y-208064320D01*
X155939635Y-208264147D01*
X155654498Y-208495047D01*
X155654490Y-208495054D01*
X155395054Y-208754490D01*
X155395047Y-208754498D01*
X155164147Y-209039635D01*
X154964320Y-209347343D01*
X154797746Y-209674260D01*
X154666260Y-210016793D01*
X154571294Y-210371209D01*
X154571294Y-210371211D01*
X154513898Y-210733594D01*
X154494696Y-211099999D01*
X147700000Y-211099999D01*
X147700000Y-191099999D01*
X154494696Y-191099999D01*
X154494696Y-191100000D01*
X154513898Y-191466405D01*
X154571294Y-191828788D01*
X154571294Y-191828790D01*
X154666260Y-192183206D01*
X154797746Y-192525739D01*
X154964320Y-192852656D01*
X155164147Y-193160364D01*
X155164149Y-193160366D01*
X155395051Y-193445506D01*
X155654494Y-193704949D01*
X155654498Y-193704952D01*
X155939635Y-193935852D01*
X156247343Y-194135679D01*
X156247348Y-194135682D01*
X156574264Y-194302255D01*
X156916801Y-194433742D01*
X157271206Y-194528705D01*
X157633596Y-194586102D01*
X157979734Y-194604241D01*
X157999999Y-194605304D01*
X158000000Y-194605304D01*
X158000001Y-194605304D01*
X158019203Y-194604297D01*
X158366404Y-194586102D01*
X158728794Y-194528705D01*
X159083199Y-194433742D01*
X159425736Y-194302255D01*
X159752652Y-194135682D01*
X160060366Y-193935851D01*
X160345506Y-193704949D01*
X160604949Y-193445506D01*
X160835851Y-193160366D01*
X161035682Y-192852652D01*
X161202255Y-192525736D01*
X161333742Y-192183199D01*
X161428705Y-191828794D01*
X161486102Y-191466404D01*
X161505304Y-191100000D01*
X161505304Y-191099999D01*
X174494696Y-191099999D01*
X174494696Y-191100000D01*
X174513898Y-191466405D01*
X174571294Y-191828788D01*
X174571294Y-191828790D01*
X174666260Y-192183206D01*
X174797746Y-192525739D01*
X174964320Y-192852656D01*
X175164147Y-193160364D01*
X175164149Y-193160366D01*
X175395051Y-193445506D01*
X175654494Y-193704949D01*
X175654498Y-193704952D01*
X175939635Y-193935852D01*
X176247343Y-194135679D01*
X176247348Y-194135682D01*
X176574264Y-194302255D01*
X176916801Y-194433742D01*
X177271206Y-194528705D01*
X177633596Y-194586102D01*
X177979734Y-194604241D01*
X177999999Y-194605304D01*
X178000000Y-194605304D01*
X178000001Y-194605304D01*
X178019203Y-194604297D01*
X178366404Y-194586102D01*
X178728794Y-194528705D01*
X179083199Y-194433742D01*
X179425736Y-194302255D01*
X179752652Y-194135682D01*
X180060366Y-193935851D01*
X180345506Y-193704949D01*
X180604949Y-193445506D01*
X180835851Y-193160366D01*
X181035682Y-192852652D01*
X181202255Y-192525736D01*
X181333742Y-192183199D01*
X181428705Y-191828794D01*
X181486102Y-191466404D01*
X181505304Y-191100000D01*
X181505304Y-191099999D01*
X194494696Y-191099999D01*
X194494696Y-191100000D01*
X194513898Y-191466405D01*
X194571294Y-191828788D01*
X194571294Y-191828790D01*
X194666260Y-192183206D01*
X194797746Y-192525739D01*
X194964320Y-192852656D01*
X195164147Y-193160364D01*
X195164149Y-193160366D01*
X195395051Y-193445506D01*
X195654494Y-193704949D01*
X195654498Y-193704952D01*
X195939635Y-193935852D01*
X196247343Y-194135679D01*
X196247348Y-194135682D01*
X196574264Y-194302255D01*
X196916801Y-194433742D01*
X197271206Y-194528705D01*
X197633596Y-194586102D01*
X197979734Y-194604241D01*
X197999999Y-194605304D01*
X198000000Y-194605304D01*
X198000001Y-194605304D01*
X198019203Y-194604297D01*
X198366404Y-194586102D01*
X198728794Y-194528705D01*
X199083199Y-194433742D01*
X199425736Y-194302255D01*
X199752652Y-194135682D01*
X200060366Y-193935851D01*
X200345506Y-193704949D01*
X200604949Y-193445506D01*
X200835851Y-193160366D01*
X201035682Y-192852652D01*
X201202255Y-192525736D01*
X201333742Y-192183199D01*
X201428705Y-191828794D01*
X201486102Y-191466404D01*
X201505304Y-191100000D01*
X201505304Y-191099999D01*
X214494696Y-191099999D01*
X214494696Y-191100000D01*
X214513898Y-191466405D01*
X214571294Y-191828788D01*
X214571294Y-191828790D01*
X214666260Y-192183206D01*
X214797746Y-192525739D01*
X214964320Y-192852656D01*
X215164147Y-193160364D01*
X215164149Y-193160366D01*
X215395051Y-193445506D01*
X215654494Y-193704949D01*
X215654498Y-193704952D01*
X215939635Y-193935852D01*
X216247343Y-194135679D01*
X216247348Y-194135682D01*
X216574264Y-194302255D01*
X216916801Y-194433742D01*
X217271206Y-194528705D01*
X217633596Y-194586102D01*
X217979734Y-194604241D01*
X217999999Y-194605304D01*
X218000000Y-194605304D01*
X218000001Y-194605304D01*
X218019203Y-194604297D01*
X218366404Y-194586102D01*
X218728794Y-194528705D01*
X219083199Y-194433742D01*
X219425736Y-194302255D01*
X219752652Y-194135682D01*
X220060366Y-193935851D01*
X220345506Y-193704949D01*
X220604949Y-193445506D01*
X220835851Y-193160366D01*
X221035682Y-192852652D01*
X221202255Y-192525736D01*
X221333742Y-192183199D01*
X221428705Y-191828794D01*
X221486102Y-191466404D01*
X221505304Y-191100000D01*
X221505304Y-191099999D01*
X234494696Y-191099999D01*
X234494696Y-191100000D01*
X234513898Y-191466405D01*
X234571294Y-191828788D01*
X234571294Y-191828790D01*
X234666260Y-192183206D01*
X234797746Y-192525739D01*
X234964320Y-192852656D01*
X235164147Y-193160364D01*
X235164149Y-193160366D01*
X235395051Y-193445506D01*
X235654494Y-193704949D01*
X235654498Y-193704952D01*
X235939635Y-193935852D01*
X236247343Y-194135679D01*
X236247348Y-194135682D01*
X236574264Y-194302255D01*
X236916801Y-194433742D01*
X237271206Y-194528705D01*
X237633596Y-194586102D01*
X237979734Y-194604241D01*
X237999999Y-194605304D01*
X238000000Y-194605304D01*
X238000001Y-194605304D01*
X238019203Y-194604297D01*
X238366404Y-194586102D01*
X238728794Y-194528705D01*
X239083199Y-194433742D01*
X239425736Y-194302255D01*
X239752652Y-194135682D01*
X240060366Y-193935851D01*
X240345506Y-193704949D01*
X240604949Y-193445506D01*
X240835851Y-193160366D01*
X241035682Y-192852652D01*
X241202255Y-192525736D01*
X241333742Y-192183199D01*
X241428705Y-191828794D01*
X241486102Y-191466404D01*
X241505304Y-191100000D01*
X241486102Y-190733596D01*
X241428705Y-190371206D01*
X241333742Y-190016801D01*
X241202255Y-189674264D01*
X241035682Y-189347348D01*
X240835851Y-189039634D01*
X240604949Y-188754494D01*
X240345506Y-188495051D01*
X240060366Y-188264149D01*
X240060364Y-188264147D01*
X239752656Y-188064320D01*
X239425739Y-187897746D01*
X239083206Y-187766260D01*
X239083199Y-187766258D01*
X238728794Y-187671295D01*
X238728790Y-187671294D01*
X238728789Y-187671294D01*
X238366405Y-187613898D01*
X238000001Y-187594696D01*
X237999999Y-187594696D01*
X237633594Y-187613898D01*
X237271211Y-187671294D01*
X237271209Y-187671294D01*
X236916793Y-187766260D01*
X236574260Y-187897746D01*
X236247343Y-188064320D01*
X235939635Y-188264147D01*
X235654498Y-188495047D01*
X235654490Y-188495054D01*
X235395054Y-188754490D01*
X235395047Y-188754498D01*
X235164147Y-189039635D01*
X234964320Y-189347343D01*
X234797746Y-189674260D01*
X234666260Y-190016793D01*
X234571294Y-190371209D01*
X234571294Y-190371211D01*
X234513898Y-190733594D01*
X234494696Y-191099999D01*
X221505304Y-191099999D01*
X221486102Y-190733596D01*
X221428705Y-190371206D01*
X221333742Y-190016801D01*
X221202255Y-189674264D01*
X221035682Y-189347348D01*
X220835851Y-189039634D01*
X220604949Y-188754494D01*
X220345506Y-188495051D01*
X220060366Y-188264149D01*
X220060364Y-188264147D01*
X219752656Y-188064320D01*
X219425739Y-187897746D01*
X219083206Y-187766260D01*
X219083199Y-187766258D01*
X218728794Y-187671295D01*
X218728790Y-187671294D01*
X218728789Y-187671294D01*
X218366405Y-187613898D01*
X218000001Y-187594696D01*
X217999999Y-187594696D01*
X217633594Y-187613898D01*
X217271211Y-187671294D01*
X217271209Y-187671294D01*
X216916793Y-187766260D01*
X216574260Y-187897746D01*
X216247343Y-188064320D01*
X215939635Y-188264147D01*
X215654498Y-188495047D01*
X215654490Y-188495054D01*
X215395054Y-188754490D01*
X215395047Y-188754498D01*
X215164147Y-189039635D01*
X214964320Y-189347343D01*
X214797746Y-189674260D01*
X214666260Y-190016793D01*
X214571294Y-190371209D01*
X214571294Y-190371211D01*
X214513898Y-190733594D01*
X214494696Y-191099999D01*
X201505304Y-191099999D01*
X201486102Y-190733596D01*
X201428705Y-190371206D01*
X201333742Y-190016801D01*
X201202255Y-189674264D01*
X201035682Y-189347348D01*
X200835851Y-189039634D01*
X200604949Y-188754494D01*
X200345506Y-188495051D01*
X200060366Y-188264149D01*
X200060364Y-188264147D01*
X199752656Y-188064320D01*
X199425739Y-187897746D01*
X199083206Y-187766260D01*
X199083199Y-187766258D01*
X198728794Y-187671295D01*
X198728790Y-187671294D01*
X198728789Y-187671294D01*
X198366405Y-187613898D01*
X198000001Y-187594696D01*
X197999999Y-187594696D01*
X197633594Y-187613898D01*
X197271211Y-187671294D01*
X197271209Y-187671294D01*
X196916793Y-187766260D01*
X196574260Y-187897746D01*
X196247343Y-188064320D01*
X195939635Y-188264147D01*
X195654498Y-188495047D01*
X195654490Y-188495054D01*
X195395054Y-188754490D01*
X195395047Y-188754498D01*
X195164147Y-189039635D01*
X194964320Y-189347343D01*
X194797746Y-189674260D01*
X194666260Y-190016793D01*
X194571294Y-190371209D01*
X194571294Y-190371211D01*
X194513898Y-190733594D01*
X194494696Y-191099999D01*
X181505304Y-191099999D01*
X181486102Y-190733596D01*
X181428705Y-190371206D01*
X181333742Y-190016801D01*
X181202255Y-189674264D01*
X181035682Y-189347348D01*
X180835851Y-189039634D01*
X180604949Y-188754494D01*
X180345506Y-188495051D01*
X180060366Y-188264149D01*
X180060364Y-188264147D01*
X179752656Y-188064320D01*
X179425739Y-187897746D01*
X179083206Y-187766260D01*
X179083199Y-187766258D01*
X178728794Y-187671295D01*
X178728790Y-187671294D01*
X178728789Y-187671294D01*
X178366405Y-187613898D01*
X178000001Y-187594696D01*
X177999999Y-187594696D01*
X177633594Y-187613898D01*
X177271211Y-187671294D01*
X177271209Y-187671294D01*
X176916793Y-187766260D01*
X176574260Y-187897746D01*
X176247343Y-188064320D01*
X175939635Y-188264147D01*
X175654498Y-188495047D01*
X175654490Y-188495054D01*
X175395054Y-188754490D01*
X175395047Y-188754498D01*
X175164147Y-189039635D01*
X174964320Y-189347343D01*
X174797746Y-189674260D01*
X174666260Y-190016793D01*
X174571294Y-190371209D01*
X174571294Y-190371211D01*
X174513898Y-190733594D01*
X174494696Y-191099999D01*
X161505304Y-191099999D01*
X161486102Y-190733596D01*
X161428705Y-190371206D01*
X161333742Y-190016801D01*
X161202255Y-189674264D01*
X161035682Y-189347348D01*
X160835851Y-189039634D01*
X160604949Y-188754494D01*
X160345506Y-188495051D01*
X160060366Y-188264149D01*
X160060364Y-188264147D01*
X159752656Y-188064320D01*
X159425739Y-187897746D01*
X159083206Y-187766260D01*
X159083199Y-187766258D01*
X158728794Y-187671295D01*
X158728790Y-187671294D01*
X158728789Y-187671294D01*
X158366405Y-187613898D01*
X158000001Y-187594696D01*
X157999999Y-187594696D01*
X157633594Y-187613898D01*
X157271211Y-187671294D01*
X157271209Y-187671294D01*
X156916793Y-187766260D01*
X156574260Y-187897746D01*
X156247343Y-188064320D01*
X155939635Y-188264147D01*
X155654498Y-188495047D01*
X155654490Y-188495054D01*
X155395054Y-188754490D01*
X155395047Y-188754498D01*
X155164147Y-189039635D01*
X154964320Y-189347343D01*
X154797746Y-189674260D01*
X154666260Y-190016793D01*
X154571294Y-190371209D01*
X154571294Y-190371211D01*
X154513898Y-190733594D01*
X154494696Y-191099999D01*
X147700000Y-191099999D01*
X147700000Y-171099999D01*
X154494696Y-171099999D01*
X154494696Y-171100000D01*
X154513898Y-171466405D01*
X154571294Y-171828788D01*
X154571294Y-171828790D01*
X154666260Y-172183206D01*
X154797746Y-172525739D01*
X154964320Y-172852656D01*
X155164147Y-173160364D01*
X155164149Y-173160366D01*
X155395051Y-173445506D01*
X155654494Y-173704949D01*
X155654498Y-173704952D01*
X155939635Y-173935852D01*
X156247343Y-174135679D01*
X156247348Y-174135682D01*
X156574264Y-174302255D01*
X156916801Y-174433742D01*
X157271206Y-174528705D01*
X157633596Y-174586102D01*
X157979734Y-174604241D01*
X157999999Y-174605304D01*
X158000000Y-174605304D01*
X158000001Y-174605304D01*
X158019203Y-174604297D01*
X158366404Y-174586102D01*
X158728794Y-174528705D01*
X159083199Y-174433742D01*
X159425736Y-174302255D01*
X159752652Y-174135682D01*
X160060366Y-173935851D01*
X160345506Y-173704949D01*
X160604949Y-173445506D01*
X160835851Y-173160366D01*
X161035682Y-172852652D01*
X161202255Y-172525736D01*
X161333742Y-172183199D01*
X161428705Y-171828794D01*
X161486102Y-171466404D01*
X161505304Y-171100000D01*
X161505304Y-171099999D01*
X174494696Y-171099999D01*
X174494696Y-171100000D01*
X174513898Y-171466405D01*
X174571294Y-171828788D01*
X174571294Y-171828790D01*
X174666260Y-172183206D01*
X174797746Y-172525739D01*
X174964320Y-172852656D01*
X175164147Y-173160364D01*
X175164149Y-173160366D01*
X175395051Y-173445506D01*
X175654494Y-173704949D01*
X175654498Y-173704952D01*
X175939635Y-173935852D01*
X176247343Y-174135679D01*
X176247348Y-174135682D01*
X176574264Y-174302255D01*
X176916801Y-174433742D01*
X177271206Y-174528705D01*
X177633596Y-174586102D01*
X177979734Y-174604241D01*
X177999999Y-174605304D01*
X178000000Y-174605304D01*
X178000001Y-174605304D01*
X178019203Y-174604297D01*
X178366404Y-174586102D01*
X178728794Y-174528705D01*
X179083199Y-174433742D01*
X179425736Y-174302255D01*
X179752652Y-174135682D01*
X180060366Y-173935851D01*
X180345506Y-173704949D01*
X180604949Y-173445506D01*
X180835851Y-173160366D01*
X181035682Y-172852652D01*
X181202255Y-172525736D01*
X181333742Y-172183199D01*
X181428705Y-171828794D01*
X181486102Y-171466404D01*
X181505304Y-171100000D01*
X181505304Y-171099999D01*
X194494696Y-171099999D01*
X194494696Y-171100000D01*
X194513898Y-171466405D01*
X194571294Y-171828788D01*
X194571294Y-171828790D01*
X194666260Y-172183206D01*
X194797746Y-172525739D01*
X194964320Y-172852656D01*
X195164147Y-173160364D01*
X195164149Y-173160366D01*
X195395051Y-173445506D01*
X195654494Y-173704949D01*
X195654498Y-173704952D01*
X195939635Y-173935852D01*
X196247343Y-174135679D01*
X196247348Y-174135682D01*
X196574264Y-174302255D01*
X196916801Y-174433742D01*
X197271206Y-174528705D01*
X197633596Y-174586102D01*
X197979734Y-174604241D01*
X197999999Y-174605304D01*
X198000000Y-174605304D01*
X198000001Y-174605304D01*
X198019203Y-174604297D01*
X198366404Y-174586102D01*
X198728794Y-174528705D01*
X199083199Y-174433742D01*
X199425736Y-174302255D01*
X199752652Y-174135682D01*
X200060366Y-173935851D01*
X200345506Y-173704949D01*
X200604949Y-173445506D01*
X200835851Y-173160366D01*
X201035682Y-172852652D01*
X201202255Y-172525736D01*
X201333742Y-172183199D01*
X201428705Y-171828794D01*
X201486102Y-171466404D01*
X201505304Y-171100000D01*
X201505304Y-171099999D01*
X214494696Y-171099999D01*
X214494696Y-171100000D01*
X214513898Y-171466405D01*
X214571294Y-171828788D01*
X214571294Y-171828790D01*
X214666260Y-172183206D01*
X214797746Y-172525739D01*
X214964320Y-172852656D01*
X215164147Y-173160364D01*
X215164149Y-173160366D01*
X215395051Y-173445506D01*
X215654494Y-173704949D01*
X215654498Y-173704952D01*
X215939635Y-173935852D01*
X216247343Y-174135679D01*
X216247348Y-174135682D01*
X216574264Y-174302255D01*
X216916801Y-174433742D01*
X217271206Y-174528705D01*
X217633596Y-174586102D01*
X217979734Y-174604241D01*
X217999999Y-174605304D01*
X218000000Y-174605304D01*
X218000001Y-174605304D01*
X218019203Y-174604297D01*
X218366404Y-174586102D01*
X218728794Y-174528705D01*
X219083199Y-174433742D01*
X219425736Y-174302255D01*
X219752652Y-174135682D01*
X220060366Y-173935851D01*
X220345506Y-173704949D01*
X220604949Y-173445506D01*
X220835851Y-173160366D01*
X221035682Y-172852652D01*
X221202255Y-172525736D01*
X221333742Y-172183199D01*
X221428705Y-171828794D01*
X221486102Y-171466404D01*
X221505304Y-171100000D01*
X221505304Y-171099999D01*
X234494696Y-171099999D01*
X234494696Y-171100000D01*
X234513898Y-171466405D01*
X234571294Y-171828788D01*
X234571294Y-171828790D01*
X234666260Y-172183206D01*
X234797746Y-172525739D01*
X234964320Y-172852656D01*
X235164147Y-173160364D01*
X235164149Y-173160366D01*
X235395051Y-173445506D01*
X235654494Y-173704949D01*
X235654498Y-173704952D01*
X235939635Y-173935852D01*
X236247343Y-174135679D01*
X236247348Y-174135682D01*
X236574264Y-174302255D01*
X236916801Y-174433742D01*
X237271206Y-174528705D01*
X237633596Y-174586102D01*
X237979734Y-174604241D01*
X237999999Y-174605304D01*
X238000000Y-174605304D01*
X238000001Y-174605304D01*
X238019203Y-174604297D01*
X238366404Y-174586102D01*
X238728794Y-174528705D01*
X239083199Y-174433742D01*
X239425736Y-174302255D01*
X239752652Y-174135682D01*
X240060366Y-173935851D01*
X240345506Y-173704949D01*
X240604949Y-173445506D01*
X240835851Y-173160366D01*
X241035682Y-172852652D01*
X241202255Y-172525736D01*
X241333742Y-172183199D01*
X241428705Y-171828794D01*
X241486102Y-171466404D01*
X241505304Y-171100000D01*
X241486102Y-170733596D01*
X241428705Y-170371206D01*
X241333742Y-170016801D01*
X241202255Y-169674264D01*
X241035682Y-169347348D01*
X240835851Y-169039634D01*
X240604949Y-168754494D01*
X240345506Y-168495051D01*
X240060366Y-168264149D01*
X240060364Y-168264147D01*
X239752656Y-168064320D01*
X239425739Y-167897746D01*
X239083206Y-167766260D01*
X239083199Y-167766258D01*
X238728794Y-167671295D01*
X238728790Y-167671294D01*
X238728789Y-167671294D01*
X238366405Y-167613898D01*
X238000001Y-167594696D01*
X237999999Y-167594696D01*
X237633594Y-167613898D01*
X237271211Y-167671294D01*
X237271209Y-167671294D01*
X236916793Y-167766260D01*
X236574260Y-167897746D01*
X236247343Y-168064320D01*
X235939635Y-168264147D01*
X235654498Y-168495047D01*
X235654490Y-168495054D01*
X235395054Y-168754490D01*
X235395047Y-168754498D01*
X235164147Y-169039635D01*
X234964320Y-169347343D01*
X234797746Y-169674260D01*
X234666260Y-170016793D01*
X234571294Y-170371209D01*
X234571294Y-170371211D01*
X234513898Y-170733594D01*
X234494696Y-171099999D01*
X221505304Y-171099999D01*
X221486102Y-170733596D01*
X221428705Y-170371206D01*
X221333742Y-170016801D01*
X221202255Y-169674264D01*
X221035682Y-169347348D01*
X220835851Y-169039634D01*
X220604949Y-168754494D01*
X220345506Y-168495051D01*
X220060366Y-168264149D01*
X220060364Y-168264147D01*
X219752656Y-168064320D01*
X219425739Y-167897746D01*
X219083206Y-167766260D01*
X219083199Y-167766258D01*
X218728794Y-167671295D01*
X218728790Y-167671294D01*
X218728789Y-167671294D01*
X218366405Y-167613898D01*
X218000001Y-167594696D01*
X217999999Y-167594696D01*
X217633594Y-167613898D01*
X217271211Y-167671294D01*
X217271209Y-167671294D01*
X216916793Y-167766260D01*
X216574260Y-167897746D01*
X216247343Y-168064320D01*
X215939635Y-168264147D01*
X215654498Y-168495047D01*
X215654490Y-168495054D01*
X215395054Y-168754490D01*
X215395047Y-168754498D01*
X215164147Y-169039635D01*
X214964320Y-169347343D01*
X214797746Y-169674260D01*
X214666260Y-170016793D01*
X214571294Y-170371209D01*
X214571294Y-170371211D01*
X214513898Y-170733594D01*
X214494696Y-171099999D01*
X201505304Y-171099999D01*
X201486102Y-170733596D01*
X201428705Y-170371206D01*
X201333742Y-170016801D01*
X201202255Y-169674264D01*
X201035682Y-169347348D01*
X200835851Y-169039634D01*
X200604949Y-168754494D01*
X200345506Y-168495051D01*
X200060366Y-168264149D01*
X200060364Y-168264147D01*
X199752656Y-168064320D01*
X199425739Y-167897746D01*
X199083206Y-167766260D01*
X199083199Y-167766258D01*
X198728794Y-167671295D01*
X198728790Y-167671294D01*
X198728789Y-167671294D01*
X198366405Y-167613898D01*
X198000001Y-167594696D01*
X197999999Y-167594696D01*
X197633594Y-167613898D01*
X197271211Y-167671294D01*
X197271209Y-167671294D01*
X196916793Y-167766260D01*
X196574260Y-167897746D01*
X196247343Y-168064320D01*
X195939635Y-168264147D01*
X195654498Y-168495047D01*
X195654490Y-168495054D01*
X195395054Y-168754490D01*
X195395047Y-168754498D01*
X195164147Y-169039635D01*
X194964320Y-169347343D01*
X194797746Y-169674260D01*
X194666260Y-170016793D01*
X194571294Y-170371209D01*
X194571294Y-170371211D01*
X194513898Y-170733594D01*
X194494696Y-171099999D01*
X181505304Y-171099999D01*
X181486102Y-170733596D01*
X181428705Y-170371206D01*
X181333742Y-170016801D01*
X181202255Y-169674264D01*
X181035682Y-169347348D01*
X180835851Y-169039634D01*
X180604949Y-168754494D01*
X180345506Y-168495051D01*
X180060366Y-168264149D01*
X180060364Y-168264147D01*
X179752656Y-168064320D01*
X179425739Y-167897746D01*
X179083206Y-167766260D01*
X179083199Y-167766258D01*
X178728794Y-167671295D01*
X178728790Y-167671294D01*
X178728789Y-167671294D01*
X178366405Y-167613898D01*
X178000001Y-167594696D01*
X177999999Y-167594696D01*
X177633594Y-167613898D01*
X177271211Y-167671294D01*
X177271209Y-167671294D01*
X176916793Y-167766260D01*
X176574260Y-167897746D01*
X176247343Y-168064320D01*
X175939635Y-168264147D01*
X175654498Y-168495047D01*
X175654490Y-168495054D01*
X175395054Y-168754490D01*
X175395047Y-168754498D01*
X175164147Y-169039635D01*
X174964320Y-169347343D01*
X174797746Y-169674260D01*
X174666260Y-170016793D01*
X174571294Y-170371209D01*
X174571294Y-170371211D01*
X174513898Y-170733594D01*
X174494696Y-171099999D01*
X161505304Y-171099999D01*
X161486102Y-170733596D01*
X161428705Y-170371206D01*
X161333742Y-170016801D01*
X161202255Y-169674264D01*
X161035682Y-169347348D01*
X160835851Y-169039634D01*
X160604949Y-168754494D01*
X160345506Y-168495051D01*
X160060366Y-168264149D01*
X160060364Y-168264147D01*
X159752656Y-168064320D01*
X159425739Y-167897746D01*
X159083206Y-167766260D01*
X159083199Y-167766258D01*
X158728794Y-167671295D01*
X158728790Y-167671294D01*
X158728789Y-167671294D01*
X158366405Y-167613898D01*
X158000001Y-167594696D01*
X157999999Y-167594696D01*
X157633594Y-167613898D01*
X157271211Y-167671294D01*
X157271209Y-167671294D01*
X156916793Y-167766260D01*
X156574260Y-167897746D01*
X156247343Y-168064320D01*
X155939635Y-168264147D01*
X155654498Y-168495047D01*
X155654490Y-168495054D01*
X155395054Y-168754490D01*
X155395047Y-168754498D01*
X155164147Y-169039635D01*
X154964320Y-169347343D01*
X154797746Y-169674260D01*
X154666260Y-170016793D01*
X154571294Y-170371209D01*
X154571294Y-170371211D01*
X154513898Y-170733594D01*
X154494696Y-171099999D01*
X147700000Y-171099999D01*
X147700000Y-151099999D01*
X154494696Y-151099999D01*
X154494696Y-151100000D01*
X154513898Y-151466405D01*
X154571294Y-151828788D01*
X154571294Y-151828790D01*
X154666260Y-152183206D01*
X154797746Y-152525739D01*
X154964320Y-152852656D01*
X155164147Y-153160364D01*
X155164149Y-153160366D01*
X155395051Y-153445506D01*
X155654494Y-153704949D01*
X155654498Y-153704952D01*
X155939635Y-153935852D01*
X156247343Y-154135679D01*
X156247348Y-154135682D01*
X156574264Y-154302255D01*
X156916801Y-154433742D01*
X157271206Y-154528705D01*
X157633596Y-154586102D01*
X157979734Y-154604241D01*
X157999999Y-154605304D01*
X158000000Y-154605304D01*
X158000001Y-154605304D01*
X158019203Y-154604297D01*
X158366404Y-154586102D01*
X158728794Y-154528705D01*
X159083199Y-154433742D01*
X159425736Y-154302255D01*
X159752652Y-154135682D01*
X160060366Y-153935851D01*
X160345506Y-153704949D01*
X160604949Y-153445506D01*
X160835851Y-153160366D01*
X161035682Y-152852652D01*
X161202255Y-152525736D01*
X161333742Y-152183199D01*
X161428705Y-151828794D01*
X161486102Y-151466404D01*
X161505304Y-151100000D01*
X161505304Y-151099999D01*
X174494696Y-151099999D01*
X174494696Y-151100000D01*
X174513898Y-151466405D01*
X174571294Y-151828788D01*
X174571294Y-151828790D01*
X174666260Y-152183206D01*
X174797746Y-152525739D01*
X174964320Y-152852656D01*
X175164147Y-153160364D01*
X175164149Y-153160366D01*
X175395051Y-153445506D01*
X175654494Y-153704949D01*
X175654498Y-153704952D01*
X175939635Y-153935852D01*
X176247343Y-154135679D01*
X176247348Y-154135682D01*
X176574264Y-154302255D01*
X176916801Y-154433742D01*
X177271206Y-154528705D01*
X177633596Y-154586102D01*
X177979734Y-154604241D01*
X177999999Y-154605304D01*
X178000000Y-154605304D01*
X178000001Y-154605304D01*
X178019203Y-154604297D01*
X178366404Y-154586102D01*
X178728794Y-154528705D01*
X179083199Y-154433742D01*
X179425736Y-154302255D01*
X179752652Y-154135682D01*
X180060366Y-153935851D01*
X180345506Y-153704949D01*
X180604949Y-153445506D01*
X180835851Y-153160366D01*
X181035682Y-152852652D01*
X181202255Y-152525736D01*
X181333742Y-152183199D01*
X181428705Y-151828794D01*
X181486102Y-151466404D01*
X181505304Y-151100000D01*
X181505304Y-151099999D01*
X194494696Y-151099999D01*
X194494696Y-151100000D01*
X194513898Y-151466405D01*
X194571294Y-151828788D01*
X194571294Y-151828790D01*
X194666260Y-152183206D01*
X194797746Y-152525739D01*
X194964320Y-152852656D01*
X195164147Y-153160364D01*
X195164149Y-153160366D01*
X195395051Y-153445506D01*
X195654494Y-153704949D01*
X195654498Y-153704952D01*
X195939635Y-153935852D01*
X196247343Y-154135679D01*
X196247348Y-154135682D01*
X196574264Y-154302255D01*
X196916801Y-154433742D01*
X197271206Y-154528705D01*
X197633596Y-154586102D01*
X197979734Y-154604241D01*
X197999999Y-154605304D01*
X198000000Y-154605304D01*
X198000001Y-154605304D01*
X198019203Y-154604297D01*
X198366404Y-154586102D01*
X198728794Y-154528705D01*
X199083199Y-154433742D01*
X199425736Y-154302255D01*
X199752652Y-154135682D01*
X200060366Y-153935851D01*
X200345506Y-153704949D01*
X200604949Y-153445506D01*
X200835851Y-153160366D01*
X201035682Y-152852652D01*
X201202255Y-152525736D01*
X201333742Y-152183199D01*
X201428705Y-151828794D01*
X201486102Y-151466404D01*
X201505304Y-151100000D01*
X201505304Y-151099999D01*
X214494696Y-151099999D01*
X214494696Y-151100000D01*
X214513898Y-151466405D01*
X214571294Y-151828788D01*
X214571294Y-151828790D01*
X214666260Y-152183206D01*
X214797746Y-152525739D01*
X214964320Y-152852656D01*
X215164147Y-153160364D01*
X215164149Y-153160366D01*
X215395051Y-153445506D01*
X215654494Y-153704949D01*
X215654498Y-153704952D01*
X215939635Y-153935852D01*
X216247343Y-154135679D01*
X216247348Y-154135682D01*
X216574264Y-154302255D01*
X216916801Y-154433742D01*
X217271206Y-154528705D01*
X217633596Y-154586102D01*
X217979734Y-154604241D01*
X217999999Y-154605304D01*
X218000000Y-154605304D01*
X218000001Y-154605304D01*
X218019203Y-154604297D01*
X218366404Y-154586102D01*
X218728794Y-154528705D01*
X219083199Y-154433742D01*
X219425736Y-154302255D01*
X219752652Y-154135682D01*
X220060366Y-153935851D01*
X220345506Y-153704949D01*
X220604949Y-153445506D01*
X220835851Y-153160366D01*
X221035682Y-152852652D01*
X221202255Y-152525736D01*
X221333742Y-152183199D01*
X221428705Y-151828794D01*
X221486102Y-151466404D01*
X221505304Y-151100000D01*
X221505304Y-151099999D01*
X234494696Y-151099999D01*
X234494696Y-151100000D01*
X234513898Y-151466405D01*
X234571294Y-151828788D01*
X234571294Y-151828790D01*
X234666260Y-152183206D01*
X234797746Y-152525739D01*
X234964320Y-152852656D01*
X235164147Y-153160364D01*
X235164149Y-153160366D01*
X235395051Y-153445506D01*
X235654494Y-153704949D01*
X235654498Y-153704952D01*
X235939635Y-153935852D01*
X236247343Y-154135679D01*
X236247348Y-154135682D01*
X236574264Y-154302255D01*
X236916801Y-154433742D01*
X237271206Y-154528705D01*
X237633596Y-154586102D01*
X237979734Y-154604241D01*
X237999999Y-154605304D01*
X238000000Y-154605304D01*
X238000001Y-154605304D01*
X238019203Y-154604297D01*
X238366404Y-154586102D01*
X238728794Y-154528705D01*
X239083199Y-154433742D01*
X239425736Y-154302255D01*
X239752652Y-154135682D01*
X240060366Y-153935851D01*
X240345506Y-153704949D01*
X240604949Y-153445506D01*
X240835851Y-153160366D01*
X241035682Y-152852652D01*
X241202255Y-152525736D01*
X241333742Y-152183199D01*
X241428705Y-151828794D01*
X241486102Y-151466404D01*
X241505304Y-151100000D01*
X241486102Y-150733596D01*
X241428705Y-150371206D01*
X241333742Y-150016801D01*
X241202255Y-149674264D01*
X241035682Y-149347348D01*
X240835851Y-149039634D01*
X240604949Y-148754494D01*
X240345506Y-148495051D01*
X240060366Y-148264149D01*
X240060364Y-148264147D01*
X239752656Y-148064320D01*
X239425739Y-147897746D01*
X239083206Y-147766260D01*
X239083199Y-147766258D01*
X238728794Y-147671295D01*
X238728790Y-147671294D01*
X238728789Y-147671294D01*
X238366405Y-147613898D01*
X238000001Y-147594696D01*
X237999999Y-147594696D01*
X237633594Y-147613898D01*
X237271211Y-147671294D01*
X237271209Y-147671294D01*
X236916793Y-147766260D01*
X236574260Y-147897746D01*
X236247343Y-148064320D01*
X235939635Y-148264147D01*
X235654498Y-148495047D01*
X235654490Y-148495054D01*
X235395054Y-148754490D01*
X235395047Y-148754498D01*
X235164147Y-149039635D01*
X234964320Y-149347343D01*
X234797746Y-149674260D01*
X234666260Y-150016793D01*
X234571294Y-150371209D01*
X234571294Y-150371211D01*
X234513898Y-150733594D01*
X234494696Y-151099999D01*
X221505304Y-151099999D01*
X221486102Y-150733596D01*
X221428705Y-150371206D01*
X221333742Y-150016801D01*
X221202255Y-149674264D01*
X221035682Y-149347348D01*
X220835851Y-149039634D01*
X220604949Y-148754494D01*
X220345506Y-148495051D01*
X220060366Y-148264149D01*
X220060364Y-148264147D01*
X219752656Y-148064320D01*
X219425739Y-147897746D01*
X219083206Y-147766260D01*
X219083199Y-147766258D01*
X218728794Y-147671295D01*
X218728790Y-147671294D01*
X218728789Y-147671294D01*
X218366405Y-147613898D01*
X218000001Y-147594696D01*
X217999999Y-147594696D01*
X217633594Y-147613898D01*
X217271211Y-147671294D01*
X217271209Y-147671294D01*
X216916793Y-147766260D01*
X216574260Y-147897746D01*
X216247343Y-148064320D01*
X215939635Y-148264147D01*
X215654498Y-148495047D01*
X215654490Y-148495054D01*
X215395054Y-148754490D01*
X215395047Y-148754498D01*
X215164147Y-149039635D01*
X214964320Y-149347343D01*
X214797746Y-149674260D01*
X214666260Y-150016793D01*
X214571294Y-150371209D01*
X214571294Y-150371211D01*
X214513898Y-150733594D01*
X214494696Y-151099999D01*
X201505304Y-151099999D01*
X201486102Y-150733596D01*
X201428705Y-150371206D01*
X201333742Y-150016801D01*
X201202255Y-149674264D01*
X201035682Y-149347348D01*
X200835851Y-149039634D01*
X200604949Y-148754494D01*
X200345506Y-148495051D01*
X200060366Y-148264149D01*
X200060364Y-148264147D01*
X199752656Y-148064320D01*
X199425739Y-147897746D01*
X199083206Y-147766260D01*
X199083199Y-147766258D01*
X198728794Y-147671295D01*
X198728790Y-147671294D01*
X198728789Y-147671294D01*
X198366405Y-147613898D01*
X198000001Y-147594696D01*
X197999999Y-147594696D01*
X197633594Y-147613898D01*
X197271211Y-147671294D01*
X197271209Y-147671294D01*
X196916793Y-147766260D01*
X196574260Y-147897746D01*
X196247343Y-148064320D01*
X195939635Y-148264147D01*
X195654498Y-148495047D01*
X195654490Y-148495054D01*
X195395054Y-148754490D01*
X195395047Y-148754498D01*
X195164147Y-149039635D01*
X194964320Y-149347343D01*
X194797746Y-149674260D01*
X194666260Y-150016793D01*
X194571294Y-150371209D01*
X194571294Y-150371211D01*
X194513898Y-150733594D01*
X194494696Y-151099999D01*
X181505304Y-151099999D01*
X181486102Y-150733596D01*
X181428705Y-150371206D01*
X181333742Y-150016801D01*
X181202255Y-149674264D01*
X181035682Y-149347348D01*
X180835851Y-149039634D01*
X180604949Y-148754494D01*
X180345506Y-148495051D01*
X180060366Y-148264149D01*
X180060364Y-148264147D01*
X179752656Y-148064320D01*
X179425739Y-147897746D01*
X179083206Y-147766260D01*
X179083199Y-147766258D01*
X178728794Y-147671295D01*
X178728790Y-147671294D01*
X178728789Y-147671294D01*
X178366405Y-147613898D01*
X178000001Y-147594696D01*
X177999999Y-147594696D01*
X177633594Y-147613898D01*
X177271211Y-147671294D01*
X177271209Y-147671294D01*
X176916793Y-147766260D01*
X176574260Y-147897746D01*
X176247343Y-148064320D01*
X175939635Y-148264147D01*
X175654498Y-148495047D01*
X175654490Y-148495054D01*
X175395054Y-148754490D01*
X175395047Y-148754498D01*
X175164147Y-149039635D01*
X174964320Y-149347343D01*
X174797746Y-149674260D01*
X174666260Y-150016793D01*
X174571294Y-150371209D01*
X174571294Y-150371211D01*
X174513898Y-150733594D01*
X174494696Y-151099999D01*
X161505304Y-151099999D01*
X161486102Y-150733596D01*
X161428705Y-150371206D01*
X161333742Y-150016801D01*
X161202255Y-149674264D01*
X161035682Y-149347348D01*
X160835851Y-149039634D01*
X160604949Y-148754494D01*
X160345506Y-148495051D01*
X160060366Y-148264149D01*
X160060364Y-148264147D01*
X159752656Y-148064320D01*
X159425739Y-147897746D01*
X159083206Y-147766260D01*
X159083199Y-147766258D01*
X158728794Y-147671295D01*
X158728790Y-147671294D01*
X158728789Y-147671294D01*
X158366405Y-147613898D01*
X158000001Y-147594696D01*
X157999999Y-147594696D01*
X157633594Y-147613898D01*
X157271211Y-147671294D01*
X157271209Y-147671294D01*
X156916793Y-147766260D01*
X156574260Y-147897746D01*
X156247343Y-148064320D01*
X155939635Y-148264147D01*
X155654498Y-148495047D01*
X155654490Y-148495054D01*
X155395054Y-148754490D01*
X155395047Y-148754498D01*
X155164147Y-149039635D01*
X154964320Y-149347343D01*
X154797746Y-149674260D01*
X154666260Y-150016793D01*
X154571294Y-150371209D01*
X154571294Y-150371211D01*
X154513898Y-150733594D01*
X154494696Y-151099999D01*
X147700000Y-151099999D01*
X147700000Y-145255411D01*
X147700472Y-145244604D01*
X147718044Y-145043750D01*
X147721797Y-145022464D01*
X147723197Y-145017238D01*
X147772578Y-144832944D01*
X147779964Y-144812651D01*
X147862889Y-144634819D01*
X147873683Y-144616123D01*
X147986226Y-144455393D01*
X148000109Y-144438849D01*
X148138849Y-144300109D01*
X148155393Y-144286226D01*
X148316123Y-144173683D01*
X148334819Y-144162889D01*
X148512651Y-144079964D01*
X148532944Y-144072578D01*
X148722464Y-144021796D01*
X148743747Y-144018044D01*
X148944605Y-144000472D01*
X148955412Y-144000000D01*
X202812660Y-144000000D01*
X202879699Y-144019685D01*
G37*
%TD.AperFunction*%
%TD*%
%TA.AperFunction,Conductor*%
%TO.N,Net-(J4-Pin_1)*%
G36*
X63907809Y-121360812D02*
G01*
X64054956Y-121371385D01*
X64062820Y-121372203D01*
X64475750Y-121428511D01*
X64489636Y-121431221D01*
X64648342Y-121471730D01*
X64674786Y-121481813D01*
X64701458Y-121495653D01*
X64723415Y-121507047D01*
X64761489Y-121537641D01*
X64878536Y-121677841D01*
X64878540Y-121677845D01*
X64964863Y-121764168D01*
X64974129Y-121774536D01*
X65052631Y-121872974D01*
X65060678Y-121884315D01*
X65127664Y-121990923D01*
X65134390Y-122003094D01*
X65174010Y-122085366D01*
X65181060Y-122103536D01*
X65245221Y-122317404D01*
X65247528Y-122326268D01*
X65275702Y-122453710D01*
X65277845Y-122466591D01*
X65284220Y-122523159D01*
X65285000Y-122537045D01*
X65285000Y-126214361D01*
X65284999Y-126214861D01*
X65284494Y-126340016D01*
X65284493Y-126340200D01*
X65284490Y-126340744D01*
X65284489Y-126341060D01*
X65282414Y-126946318D01*
X65281635Y-126959777D01*
X65264829Y-127108927D01*
X65263857Y-127115811D01*
X65255506Y-127164965D01*
X65255501Y-127164999D01*
X65252394Y-127192581D01*
X65244500Y-127333152D01*
X65244500Y-131510203D01*
X65245817Y-131567678D01*
X65245819Y-131567695D01*
X65264892Y-131707524D01*
X65266029Y-131724708D01*
X65254289Y-135148875D01*
X65253783Y-135159657D01*
X65235599Y-135360030D01*
X65231789Y-135381259D01*
X65180580Y-135570210D01*
X65173149Y-135590456D01*
X65089978Y-135767671D01*
X65079152Y-135786325D01*
X64966528Y-135946454D01*
X64952633Y-135962950D01*
X64813972Y-136101136D01*
X64797429Y-136114974D01*
X64636915Y-136227048D01*
X64618225Y-136237810D01*
X64440722Y-136320376D01*
X64420449Y-136327737D01*
X64231327Y-136378296D01*
X64210086Y-136382033D01*
X64009663Y-136399530D01*
X63998879Y-136400000D01*
X51205412Y-136400000D01*
X51194605Y-136399528D01*
X51172209Y-136397568D01*
X50993749Y-136381955D01*
X50972464Y-136378202D01*
X50782952Y-136327423D01*
X50762640Y-136320030D01*
X50584828Y-136237114D01*
X50566115Y-136226310D01*
X50405401Y-136113778D01*
X50388843Y-136099884D01*
X50250115Y-135961156D01*
X50236221Y-135944598D01*
X50123686Y-135783881D01*
X50112886Y-135765175D01*
X50029966Y-135587352D01*
X50022576Y-135567047D01*
X49971797Y-135377535D01*
X49968044Y-135356249D01*
X49950472Y-135155395D01*
X49950000Y-135144588D01*
X49950000Y-132255411D01*
X49950472Y-132244604D01*
X49968044Y-132043750D01*
X49971797Y-132022464D01*
X50022578Y-131832944D01*
X50029964Y-131812651D01*
X50112889Y-131634819D01*
X50123683Y-131616123D01*
X50236226Y-131455393D01*
X50250109Y-131438849D01*
X50388849Y-131300109D01*
X50405393Y-131286226D01*
X50566123Y-131173683D01*
X50584819Y-131162889D01*
X50762651Y-131079964D01*
X50782944Y-131072578D01*
X50972464Y-131021796D01*
X50993747Y-131018044D01*
X51194605Y-131000472D01*
X51205412Y-131000000D01*
X56250001Y-131000000D01*
X57500000Y-131000000D01*
X57500000Y-124380262D01*
X57500461Y-124369585D01*
X57517614Y-124171112D01*
X57521274Y-124150094D01*
X57570859Y-123962685D01*
X57578077Y-123942593D01*
X57659080Y-123766472D01*
X57669630Y-123747932D01*
X57779659Y-123588311D01*
X57793230Y-123571860D01*
X57932778Y-123429652D01*
X57940548Y-123422387D01*
X58544755Y-122904494D01*
X58553385Y-122897737D01*
X58719942Y-122778819D01*
X58738846Y-122767705D01*
X58918777Y-122682360D01*
X58939337Y-122674754D01*
X59131499Y-122622453D01*
X59153079Y-122618590D01*
X59356933Y-122600486D01*
X59367902Y-122600000D01*
X60839639Y-122600000D01*
X60839640Y-122600000D01*
X61000000Y-122600000D01*
X61155161Y-122559523D01*
X61155167Y-122559522D01*
X61600108Y-122443450D01*
X62150000Y-122300000D01*
X62329400Y-122197485D01*
X62351055Y-122187732D01*
X62363077Y-122183652D01*
X62627665Y-122053172D01*
X62872957Y-121889273D01*
X63094758Y-121694758D01*
X63261191Y-121504977D01*
X63292102Y-121479534D01*
X63345260Y-121448635D01*
X63376255Y-121435861D01*
X63530697Y-121395554D01*
X63547175Y-121392428D01*
X63736869Y-121369617D01*
X63744711Y-121368927D01*
X63892015Y-121360688D01*
X63907809Y-121360812D01*
G37*
%TD.AperFunction*%
%TD*%
%TA.AperFunction,Conductor*%
%TO.N,Net-(D1-A)*%
G36*
X68320297Y-137707279D02*
G01*
X82799999Y-142900000D01*
X82800000Y-142900000D01*
X89300000Y-142900000D01*
X89200147Y-210600000D01*
X89190225Y-210609907D01*
X89180397Y-210643195D01*
X89127525Y-210688871D01*
X89076182Y-210700000D01*
X57600000Y-210700000D01*
X57651575Y-198150000D01*
X66481909Y-198150000D01*
X66501999Y-198482136D01*
X66501999Y-198482141D01*
X66502000Y-198482142D01*
X66561980Y-198809441D01*
X66561981Y-198809445D01*
X66561982Y-198809449D01*
X66660966Y-199127104D01*
X66660970Y-199127116D01*
X66660973Y-199127123D01*
X66797538Y-199430557D01*
X66969682Y-199715318D01*
X66969687Y-199715326D01*
X67174896Y-199977255D01*
X67410180Y-200212539D01*
X67672109Y-200417748D01*
X67672114Y-200417751D01*
X67672118Y-200417754D01*
X67956879Y-200589898D01*
X68260313Y-200726463D01*
X68260326Y-200726467D01*
X68260331Y-200726469D01*
X68472101Y-200792458D01*
X68577995Y-200825456D01*
X68905294Y-200885436D01*
X69237436Y-200905527D01*
X69569578Y-200885436D01*
X69896877Y-200825456D01*
X70214559Y-200726463D01*
X70517993Y-200589898D01*
X70802754Y-200417754D01*
X71064688Y-200212542D01*
X71299978Y-199977252D01*
X71505190Y-199715318D01*
X71677334Y-199430557D01*
X71813899Y-199127123D01*
X71912892Y-198809441D01*
X71972872Y-198482142D01*
X71992963Y-198150000D01*
X71972872Y-197817858D01*
X71912892Y-197490559D01*
X71813899Y-197172877D01*
X71677334Y-196869443D01*
X71505190Y-196584682D01*
X71505187Y-196584678D01*
X71505184Y-196584673D01*
X71299975Y-196322744D01*
X71064691Y-196087460D01*
X70802762Y-195882251D01*
X70802754Y-195882246D01*
X70517993Y-195710102D01*
X70214559Y-195573537D01*
X70214552Y-195573534D01*
X70214540Y-195573530D01*
X69896885Y-195474546D01*
X69896881Y-195474545D01*
X69896877Y-195474544D01*
X69569578Y-195414564D01*
X69569577Y-195414563D01*
X69569572Y-195414563D01*
X69237436Y-195394473D01*
X68905299Y-195414563D01*
X68905294Y-195414564D01*
X68577995Y-195474544D01*
X68577992Y-195474544D01*
X68577986Y-195474546D01*
X68260331Y-195573530D01*
X68260315Y-195573536D01*
X68260313Y-195573537D01*
X68067092Y-195660498D01*
X67956883Y-195710100D01*
X67956881Y-195710101D01*
X67672109Y-195882251D01*
X67410180Y-196087460D01*
X67174896Y-196322744D01*
X66969687Y-196584673D01*
X66797537Y-196869445D01*
X66797536Y-196869447D01*
X66660972Y-197172880D01*
X66660966Y-197172895D01*
X66561982Y-197490550D01*
X66501999Y-197817863D01*
X66481909Y-198150000D01*
X57651575Y-198150000D01*
X57758835Y-172050000D01*
X66481909Y-172050000D01*
X66501999Y-172382136D01*
X66501999Y-172382141D01*
X66502000Y-172382142D01*
X66561980Y-172709441D01*
X66561981Y-172709445D01*
X66561982Y-172709449D01*
X66660966Y-173027104D01*
X66660970Y-173027116D01*
X66660973Y-173027123D01*
X66797538Y-173330557D01*
X66969682Y-173615318D01*
X66969687Y-173615326D01*
X67174896Y-173877255D01*
X67410180Y-174112539D01*
X67672109Y-174317748D01*
X67672114Y-174317751D01*
X67672118Y-174317754D01*
X67956879Y-174489898D01*
X68260313Y-174626463D01*
X68260326Y-174626467D01*
X68260331Y-174626469D01*
X68472101Y-174692458D01*
X68577995Y-174725456D01*
X68905294Y-174785436D01*
X69237436Y-174805527D01*
X69569578Y-174785436D01*
X69896877Y-174725456D01*
X70214559Y-174626463D01*
X70517993Y-174489898D01*
X70802754Y-174317754D01*
X71064688Y-174112542D01*
X71299978Y-173877252D01*
X71505190Y-173615318D01*
X71677334Y-173330557D01*
X71813899Y-173027123D01*
X71912892Y-172709441D01*
X71972872Y-172382142D01*
X71992963Y-172050000D01*
X71972872Y-171717858D01*
X71912892Y-171390559D01*
X71813899Y-171072877D01*
X71677334Y-170769443D01*
X71505190Y-170484682D01*
X71505187Y-170484678D01*
X71505184Y-170484673D01*
X71299975Y-170222744D01*
X71064691Y-169987460D01*
X70802762Y-169782251D01*
X70802754Y-169782246D01*
X70517993Y-169610102D01*
X70214559Y-169473537D01*
X70214552Y-169473534D01*
X70214540Y-169473530D01*
X69896885Y-169374546D01*
X69896881Y-169374545D01*
X69896877Y-169374544D01*
X69569578Y-169314564D01*
X69569577Y-169314563D01*
X69569572Y-169314563D01*
X69237436Y-169294473D01*
X68905299Y-169314563D01*
X68905294Y-169314564D01*
X68577995Y-169374544D01*
X68577992Y-169374544D01*
X68577986Y-169374546D01*
X68260331Y-169473530D01*
X68260315Y-169473536D01*
X68260313Y-169473537D01*
X68067092Y-169560498D01*
X67956883Y-169610100D01*
X67956881Y-169610101D01*
X67672109Y-169782251D01*
X67410180Y-169987460D01*
X67174896Y-170222744D01*
X66969687Y-170484673D01*
X66797537Y-170769445D01*
X66797536Y-170769447D01*
X66660972Y-171072880D01*
X66660966Y-171072895D01*
X66561982Y-171390550D01*
X66501999Y-171717863D01*
X66481909Y-172050000D01*
X57758835Y-172050000D01*
X57865890Y-146000000D01*
X66431909Y-146000000D01*
X66451999Y-146332136D01*
X66451999Y-146332141D01*
X66452000Y-146332142D01*
X66511980Y-146659441D01*
X66511981Y-146659445D01*
X66511982Y-146659449D01*
X66610966Y-146977104D01*
X66610970Y-146977116D01*
X66610973Y-146977123D01*
X66747538Y-147280557D01*
X66919682Y-147565318D01*
X66919687Y-147565326D01*
X67124896Y-147827255D01*
X67360180Y-148062539D01*
X67622109Y-148267748D01*
X67622114Y-148267751D01*
X67622118Y-148267754D01*
X67906879Y-148439898D01*
X68210313Y-148576463D01*
X68210326Y-148576467D01*
X68210331Y-148576469D01*
X68422101Y-148642458D01*
X68527995Y-148675456D01*
X68855294Y-148735436D01*
X69187436Y-148755527D01*
X69519578Y-148735436D01*
X69846877Y-148675456D01*
X70164559Y-148576463D01*
X70467993Y-148439898D01*
X70752754Y-148267754D01*
X71014688Y-148062542D01*
X71249978Y-147827252D01*
X71455190Y-147565318D01*
X71627334Y-147280557D01*
X71763899Y-146977123D01*
X71862892Y-146659441D01*
X71922872Y-146332142D01*
X71942963Y-146000000D01*
X71922872Y-145667858D01*
X71862892Y-145340559D01*
X71763899Y-145022877D01*
X71627334Y-144719443D01*
X71455190Y-144434682D01*
X71455187Y-144434678D01*
X71455184Y-144434673D01*
X71249975Y-144172744D01*
X71014691Y-143937460D01*
X70752762Y-143732251D01*
X70752754Y-143732246D01*
X70467993Y-143560102D01*
X70164559Y-143423537D01*
X70164552Y-143423534D01*
X70164540Y-143423530D01*
X69846885Y-143324546D01*
X69846881Y-143324545D01*
X69846877Y-143324544D01*
X69519578Y-143264564D01*
X69519577Y-143264563D01*
X69519572Y-143264563D01*
X69187436Y-143244473D01*
X68855299Y-143264563D01*
X68855294Y-143264564D01*
X68527995Y-143324544D01*
X68527992Y-143324544D01*
X68527986Y-143324546D01*
X68210331Y-143423530D01*
X68210315Y-143423536D01*
X68210313Y-143423537D01*
X68017092Y-143510498D01*
X67906883Y-143560100D01*
X67906881Y-143560101D01*
X67622109Y-143732251D01*
X67360180Y-143937460D01*
X67124896Y-144172744D01*
X66919687Y-144434673D01*
X66747537Y-144719445D01*
X66747536Y-144719447D01*
X66610972Y-145022880D01*
X66610966Y-145022895D01*
X66511982Y-145340550D01*
X66451999Y-145667863D01*
X66431909Y-146000000D01*
X57865890Y-146000000D01*
X57899890Y-137726664D01*
X57907434Y-137726736D01*
X57952257Y-137702657D01*
X57977788Y-137700000D01*
X68278438Y-137700000D01*
X68320297Y-137707279D01*
G37*
%TD.AperFunction*%
%TD*%
%TA.AperFunction,Conductor*%
%TO.N,Net-(U2-VIN+)*%
G36*
X87063874Y-131000528D02*
G01*
X87276266Y-131020194D01*
X87298738Y-131024392D01*
X87425512Y-131060435D01*
X87503910Y-131082725D01*
X87514762Y-131086360D01*
X91905398Y-132785960D01*
X93750000Y-133500000D01*
X99573185Y-133901598D01*
X100898866Y-133993025D01*
X100903743Y-133993458D01*
X100973069Y-134000998D01*
X100994553Y-134003335D01*
X101004236Y-134004777D01*
X101093969Y-134021785D01*
X101098760Y-134022791D01*
X102719969Y-134396916D01*
X103689738Y-134620709D01*
X103895065Y-134668092D01*
X103906175Y-134671207D01*
X104110317Y-134738835D01*
X104131432Y-134748087D01*
X104314460Y-134849530D01*
X104333499Y-134862533D01*
X104499050Y-134999809D01*
X104507581Y-135007581D01*
X104817474Y-135317474D01*
X104828169Y-135329669D01*
X104909201Y-135435272D01*
X104925386Y-135463305D01*
X104973186Y-135578705D01*
X104981564Y-135609972D01*
X104998939Y-135741941D01*
X105000000Y-135758127D01*
X105000000Y-139244588D01*
X104999528Y-139255396D01*
X104981955Y-139456250D01*
X104978202Y-139477535D01*
X104927423Y-139667047D01*
X104920030Y-139687359D01*
X104837116Y-139865169D01*
X104826309Y-139883887D01*
X104713778Y-140044598D01*
X104699884Y-140061156D01*
X104561156Y-140199884D01*
X104544598Y-140213778D01*
X104383887Y-140326309D01*
X104365169Y-140337116D01*
X104187359Y-140420030D01*
X104167047Y-140427423D01*
X103977535Y-140478202D01*
X103956250Y-140481955D01*
X103775400Y-140497777D01*
X103755394Y-140499528D01*
X103744588Y-140500000D01*
X101999999Y-140500000D01*
X101625191Y-140949769D01*
X101625182Y-140949779D01*
X101625181Y-140949780D01*
X100879593Y-141844487D01*
X100872259Y-141852541D01*
X100729106Y-141996494D01*
X100712465Y-142010520D01*
X100550822Y-142124084D01*
X100531984Y-142134984D01*
X100352973Y-142218539D01*
X100332519Y-142225978D01*
X100141659Y-142276946D01*
X100120221Y-142280694D01*
X99917942Y-142297973D01*
X99907069Y-142298422D01*
X98655216Y-142295093D01*
X98637868Y-142295047D01*
X98570881Y-142275184D01*
X98552486Y-142260655D01*
X98490626Y-142201484D01*
X98203785Y-141927115D01*
X98179176Y-141905741D01*
X98112802Y-141848091D01*
X98112784Y-141848077D01*
X98094114Y-141833372D01*
X98071736Y-141816151D01*
X98071724Y-141816143D01*
X97880417Y-141697561D01*
X97671012Y-141615045D01*
X97603967Y-141595358D01*
X97474422Y-141564676D01*
X97429585Y-141560640D01*
X97250243Y-141544500D01*
X84849756Y-141544500D01*
X84849726Y-141544500D01*
X84729444Y-141550278D01*
X84729427Y-141550279D01*
X84705732Y-141552560D01*
X84677612Y-141555588D01*
X84677606Y-141555589D01*
X84457390Y-141602137D01*
X84376235Y-141635291D01*
X84329341Y-141644500D01*
X83039879Y-141644500D01*
X82998020Y-141637221D01*
X76326255Y-139244588D01*
X69074064Y-136643802D01*
X69056100Y-136635695D01*
X67011022Y-135509066D01*
X67001515Y-135503256D01*
X66829323Y-135387103D01*
X66812054Y-135373043D01*
X66767615Y-135329669D01*
X66667405Y-135231859D01*
X66652931Y-135214937D01*
X66535874Y-135050171D01*
X66524662Y-135030940D01*
X66522102Y-135025473D01*
X66510401Y-134972465D01*
X66521522Y-131729013D01*
X66518790Y-131641818D01*
X66517653Y-131624634D01*
X66508873Y-131537842D01*
X66505163Y-131510644D01*
X72000000Y-132000000D01*
X72000000Y-131095238D01*
X71904762Y-131000000D01*
X87052441Y-131000000D01*
X87063874Y-131000528D01*
G37*
%TD.AperFunction*%
%TD*%
%TA.AperFunction,Conductor*%
%TO.N,Net-(D1-K)*%
G36*
X246255395Y-134000472D02*
G01*
X246456250Y-134018044D01*
X246477535Y-134021797D01*
X246543840Y-134039563D01*
X246667051Y-134072577D01*
X246687352Y-134079966D01*
X246865175Y-134162886D01*
X246883881Y-134173686D01*
X247044598Y-134286221D01*
X247061156Y-134300115D01*
X247199884Y-134438843D01*
X247213778Y-134455401D01*
X247326309Y-134616112D01*
X247337116Y-134634830D01*
X247420030Y-134812640D01*
X247427423Y-134832952D01*
X247478202Y-135022464D01*
X247481955Y-135043749D01*
X247499528Y-135244603D01*
X247500000Y-135255411D01*
X247500000Y-144000000D01*
X228750000Y-144000000D01*
X236496355Y-134466023D01*
X236503641Y-134457827D01*
X236646735Y-134310601D01*
X236663400Y-134296255D01*
X236825746Y-134179879D01*
X236844687Y-134168703D01*
X237025045Y-134082857D01*
X237045670Y-134075202D01*
X237238354Y-134022592D01*
X237260006Y-134018703D01*
X237464474Y-134000489D01*
X237475477Y-134000000D01*
X246244588Y-134000000D01*
X246255395Y-134000472D01*
G37*
%TD.AperFunction*%
%TD*%
%TA.AperFunction,Conductor*%
%TO.N,Net-(D1-A)*%
G36*
X55100630Y-137700006D02*
G01*
X57899890Y-137726665D01*
X57600000Y-210700000D01*
X56246952Y-210700000D01*
X56179913Y-210680315D01*
X56164822Y-210668901D01*
X49341619Y-204636794D01*
X49304431Y-204577644D01*
X49299750Y-204544455D01*
X49000559Y-137824556D01*
X49019943Y-137757429D01*
X49072541Y-137711438D01*
X49124558Y-137700000D01*
X55099449Y-137700000D01*
X55100630Y-137700006D01*
G37*
%TD.AperFunction*%
%TD*%
%TA.AperFunction,Conductor*%
%TO.N,Earth*%
G36*
X121753818Y-131610389D02*
G01*
X121954886Y-131627741D01*
X121976179Y-131631471D01*
X122165896Y-131682094D01*
X122186229Y-131689473D01*
X122364252Y-131772291D01*
X122382995Y-131783091D01*
X122543922Y-131895591D01*
X122560502Y-131909484D01*
X122629893Y-131978787D01*
X122699430Y-132048237D01*
X122713341Y-132064797D01*
X122826040Y-132225582D01*
X122836864Y-132244312D01*
X122919904Y-132422232D01*
X122927308Y-132442556D01*
X122978168Y-132632207D01*
X122981927Y-132653510D01*
X122999527Y-132854521D01*
X123000000Y-132865337D01*
X123000000Y-148744588D01*
X122999528Y-148755396D01*
X122981955Y-148956250D01*
X122978202Y-148977535D01*
X122927423Y-149167047D01*
X122920030Y-149187359D01*
X122837116Y-149365169D01*
X122826309Y-149383887D01*
X122713778Y-149544598D01*
X122699884Y-149561156D01*
X122561156Y-149699884D01*
X122544598Y-149713778D01*
X122383887Y-149826309D01*
X122365169Y-149837116D01*
X122187359Y-149920030D01*
X122167047Y-149927423D01*
X121977535Y-149978202D01*
X121956250Y-149981955D01*
X121775400Y-149997777D01*
X121755394Y-149999528D01*
X121744588Y-150000000D01*
X107555412Y-150000000D01*
X107544605Y-149999528D01*
X107522209Y-149997568D01*
X107343749Y-149981955D01*
X107322464Y-149978202D01*
X107132952Y-149927423D01*
X107112640Y-149920030D01*
X106934830Y-149837116D01*
X106916115Y-149826310D01*
X106755401Y-149713778D01*
X106738843Y-149699884D01*
X106600115Y-149561156D01*
X106586221Y-149544598D01*
X106473686Y-149383881D01*
X106462886Y-149365175D01*
X106379966Y-149187352D01*
X106372576Y-149167047D01*
X106321797Y-148977535D01*
X106318044Y-148956249D01*
X106300472Y-148755395D01*
X106300000Y-148744588D01*
X106300000Y-133377688D01*
X106300457Y-133367052D01*
X106317477Y-133169352D01*
X106321111Y-133148399D01*
X106370311Y-132961677D01*
X106377470Y-132941664D01*
X106457862Y-132766093D01*
X106468334Y-132747600D01*
X106577554Y-132588348D01*
X106591031Y-132571920D01*
X106729608Y-132429837D01*
X106737324Y-132422579D01*
X107303208Y-131934207D01*
X107311815Y-131927421D01*
X107478528Y-131807605D01*
X107497457Y-131796405D01*
X107677700Y-131710342D01*
X107698303Y-131702665D01*
X107890939Y-131649811D01*
X107912571Y-131645899D01*
X108117008Y-131627431D01*
X108128004Y-131626929D01*
X121743036Y-131609931D01*
X121753818Y-131610389D01*
G37*
%TD.AperFunction*%
%TD*%
%TA.AperFunction,Conductor*%
%TO.N,Net-(D1-A)*%
G36*
X97317282Y-142819685D02*
G01*
X97335955Y-142834392D01*
X99561712Y-144963377D01*
X99596551Y-145023940D01*
X99600000Y-145052984D01*
X99600000Y-182500000D01*
X102637498Y-185312498D01*
X104999997Y-187499998D01*
X104999998Y-187499998D01*
X105000000Y-187500000D01*
X112500000Y-190000000D01*
X114700000Y-190200000D01*
X100000000Y-190200000D01*
X100000000Y-200000000D01*
X100000000Y-210476000D01*
X99980315Y-210543039D01*
X99927511Y-210588794D01*
X99876000Y-210600000D01*
X89200147Y-210600000D01*
X89300000Y-142900000D01*
X84695455Y-142900000D01*
X84764044Y-142834393D01*
X84826096Y-142802278D01*
X84849756Y-142800000D01*
X97250243Y-142800000D01*
X97317282Y-142819685D01*
G37*
%TD.AperFunction*%
%TD*%
%TA.AperFunction,Conductor*%
%TO.N,Net-(D8-K)*%
G36*
X127117319Y-170699675D02*
G01*
X127126243Y-170747494D01*
X127016040Y-179260814D01*
X127015437Y-179271526D01*
X126995575Y-179470502D01*
X126991610Y-179491569D01*
X126939223Y-179678971D01*
X126931688Y-179699040D01*
X126847811Y-179874611D01*
X126836933Y-179893083D01*
X126724071Y-180051583D01*
X126710174Y-180067905D01*
X126571695Y-180204603D01*
X126555194Y-180218288D01*
X126395244Y-180329090D01*
X126376634Y-180339728D01*
X126199987Y-180421329D01*
X126179821Y-180428603D01*
X125991763Y-180478559D01*
X125970646Y-180482251D01*
X125771424Y-180499536D01*
X125760706Y-180500000D01*
X116000000Y-180500000D01*
X115991011Y-180500133D01*
X115990720Y-180500137D01*
X112929240Y-180545831D01*
X112827829Y-180547345D01*
X110574106Y-180580982D01*
X110563213Y-180580665D01*
X110498354Y-180575911D01*
X110360215Y-180565785D01*
X110338678Y-180562282D01*
X110146750Y-180513405D01*
X110126162Y-180506181D01*
X109945773Y-180424420D01*
X109926769Y-180413698D01*
X109763513Y-180301590D01*
X109746682Y-180287704D01*
X109670004Y-180212162D01*
X109605591Y-180148703D01*
X109591462Y-180132089D01*
X109476925Y-179970517D01*
X109465921Y-179951675D01*
X109438303Y-179893083D01*
X109381478Y-179772528D01*
X109373948Y-179752052D01*
X109322212Y-179560874D01*
X109318388Y-179539393D01*
X109300481Y-179336649D01*
X109300000Y-179325739D01*
X109300000Y-171968370D01*
X109300471Y-171957576D01*
X109318002Y-171756954D01*
X109321744Y-171735698D01*
X109372411Y-171546376D01*
X109379780Y-171526103D01*
X109462517Y-171348440D01*
X109473289Y-171329754D01*
X109585585Y-171169135D01*
X109599438Y-171152597D01*
X109737894Y-171013888D01*
X109754406Y-171000005D01*
X109914809Y-170887422D01*
X109933483Y-170876609D01*
X110110995Y-170793548D01*
X110131256Y-170786141D01*
X110320484Y-170735128D01*
X110341722Y-170731348D01*
X110472066Y-170719716D01*
X110542317Y-170713448D01*
X110553108Y-170712957D01*
X118200000Y-170698943D01*
X118200000Y-171791257D01*
X127089978Y-171763011D01*
X127106100Y-170682622D01*
X127110466Y-170682614D01*
X127117319Y-170699675D01*
G37*
%TD.AperFunction*%
%TD*%
%TA.AperFunction,Conductor*%
%TO.N,Net-(D1-K)*%
G36*
X147700000Y-228000000D02*
G01*
X132000000Y-228000000D01*
X116000000Y-228000000D01*
X83255412Y-228000000D01*
X83244605Y-227999528D01*
X83222209Y-227997568D01*
X83043749Y-227981955D01*
X83022464Y-227978202D01*
X82832952Y-227927423D01*
X82812640Y-227920030D01*
X82634828Y-227837114D01*
X82616115Y-227826310D01*
X82455401Y-227713778D01*
X82438843Y-227699884D01*
X82300115Y-227561156D01*
X82286221Y-227544598D01*
X82173686Y-227383881D01*
X82162886Y-227365175D01*
X82079966Y-227187352D01*
X82072576Y-227167047D01*
X82021797Y-226977535D01*
X82018044Y-226956249D01*
X82000472Y-226755395D01*
X82000000Y-226744588D01*
X82000000Y-213255411D01*
X82000472Y-213244604D01*
X82018044Y-213043747D01*
X82021797Y-213022464D01*
X82072578Y-212832944D01*
X82079964Y-212812651D01*
X82162889Y-212634819D01*
X82173683Y-212616123D01*
X82286226Y-212455393D01*
X82300109Y-212438849D01*
X82438849Y-212300109D01*
X82455393Y-212286226D01*
X82616123Y-212173683D01*
X82634819Y-212162889D01*
X82812651Y-212079964D01*
X82832944Y-212072578D01*
X83022464Y-212021796D01*
X83043747Y-212018044D01*
X83244605Y-212000472D01*
X83255412Y-212000000D01*
X114744588Y-212000000D01*
X114755395Y-212000472D01*
X114956250Y-212018044D01*
X114977535Y-212021797D01*
X115043840Y-212039563D01*
X115167051Y-212072577D01*
X115187352Y-212079966D01*
X115365175Y-212162886D01*
X115383881Y-212173686D01*
X115544598Y-212286221D01*
X115561156Y-212300115D01*
X115699884Y-212438843D01*
X115713778Y-212455401D01*
X115825835Y-212615436D01*
X115826309Y-212616112D01*
X115837114Y-212634828D01*
X115875253Y-212716615D01*
X115920030Y-212812640D01*
X115927423Y-212832952D01*
X115978202Y-213022464D01*
X115981955Y-213043749D01*
X115994255Y-213184332D01*
X116000000Y-213250000D01*
X116000000Y-214500000D01*
X117249999Y-214500000D01*
X117931575Y-214500000D01*
X117993574Y-214516612D01*
X118007076Y-214524408D01*
X118104181Y-214574960D01*
X118114567Y-214579804D01*
X118120387Y-214582518D01*
X118120388Y-214582518D01*
X118282049Y-214657902D01*
X118345843Y-214684326D01*
X118383232Y-214699813D01*
X118403544Y-214707206D01*
X118508008Y-214740144D01*
X118697520Y-214790923D01*
X118804455Y-214814629D01*
X118825740Y-214818382D01*
X118825745Y-214818382D01*
X118825747Y-214818383D01*
X118832783Y-214819309D01*
X118934327Y-214832678D01*
X119110140Y-214848058D01*
X119112751Y-214848287D01*
X119112751Y-214848288D01*
X119135147Y-214850248D01*
X119189823Y-214853832D01*
X119200630Y-214854304D01*
X119200632Y-214854304D01*
X119200654Y-214854305D01*
X119255391Y-214855500D01*
X119255412Y-214855500D01*
X121273012Y-214855500D01*
X121273030Y-214855500D01*
X121325734Y-214854393D01*
X121336135Y-214853956D01*
X121388746Y-214850638D01*
X121582118Y-214834360D01*
X121631550Y-214828099D01*
X121686710Y-214821114D01*
X121696001Y-214819538D01*
X121707219Y-214817636D01*
X121810289Y-214795672D01*
X121993153Y-214748601D01*
X122093983Y-214718082D01*
X122113622Y-214711226D01*
X122211676Y-214672300D01*
X122214507Y-214671036D01*
X122255182Y-214652875D01*
X122388873Y-214593189D01*
X122436574Y-214570679D01*
X122445836Y-214566068D01*
X122492487Y-214541610D01*
X122523687Y-214524408D01*
X122540006Y-214515411D01*
X122599876Y-214500000D01*
X122750001Y-214500000D01*
X124000000Y-214500000D01*
X124000000Y-213239489D01*
X124012943Y-213184332D01*
X124058805Y-213091991D01*
X124179322Y-212849335D01*
X124190049Y-212827195D01*
X124192142Y-212822765D01*
X124202601Y-212800043D01*
X124239998Y-212716626D01*
X124259406Y-212670935D01*
X124263058Y-212661842D01*
X124280627Y-212615471D01*
X124311322Y-212529358D01*
X124319419Y-212505914D01*
X124320973Y-212501266D01*
X124328610Y-212477650D01*
X124664624Y-211402403D01*
X124686182Y-211324743D01*
X124689941Y-211309294D01*
X124693493Y-211292342D01*
X124696057Y-211282243D01*
X124771344Y-211030773D01*
X124782219Y-210992220D01*
X124784242Y-210984584D01*
X124793855Y-210945822D01*
X124806817Y-210889748D01*
X124824696Y-210796438D01*
X124827527Y-210777892D01*
X124838306Y-210683419D01*
X124851547Y-210508896D01*
X124854247Y-210461392D01*
X124854602Y-210452011D01*
X124855500Y-210404534D01*
X124855500Y-209129354D01*
X124875185Y-209062315D01*
X124922188Y-209019394D01*
X138404499Y-201992988D01*
X138416605Y-201987483D01*
X138475186Y-201964550D01*
X138647279Y-201897181D01*
X138672900Y-201890205D01*
X138917531Y-201851095D01*
X138930720Y-201849706D01*
X146514018Y-201460820D01*
X146514021Y-201460819D01*
X147700000Y-201400000D01*
X147700000Y-228000000D01*
G37*
%TD.AperFunction*%
%TD*%
%TA.AperFunction,Conductor*%
%TO.N,Net-(L1-Pad1)*%
G36*
X225755395Y-131000472D02*
G01*
X225956250Y-131018044D01*
X225977535Y-131021797D01*
X226043840Y-131039563D01*
X226167051Y-131072577D01*
X226187352Y-131079966D01*
X226365175Y-131162886D01*
X226383881Y-131173686D01*
X226544598Y-131286221D01*
X226561156Y-131300115D01*
X226699884Y-131438843D01*
X226713778Y-131455401D01*
X226826309Y-131616112D01*
X226837116Y-131634830D01*
X226920030Y-131812640D01*
X226927423Y-131832952D01*
X226978202Y-132022464D01*
X226981955Y-132043749D01*
X226999528Y-132244603D01*
X227000000Y-132255411D01*
X227000000Y-141744588D01*
X226999528Y-141755396D01*
X226981955Y-141956250D01*
X226978202Y-141977535D01*
X226927423Y-142167047D01*
X226920030Y-142187359D01*
X226837116Y-142365169D01*
X226826309Y-142383887D01*
X226713778Y-142544598D01*
X226699884Y-142561156D01*
X226561156Y-142699884D01*
X226544598Y-142713778D01*
X226383887Y-142826309D01*
X226365169Y-142837116D01*
X226187359Y-142920030D01*
X226167047Y-142927423D01*
X225977535Y-142978202D01*
X225956250Y-142981955D01*
X225775400Y-142997777D01*
X225755394Y-142999528D01*
X225744588Y-143000000D01*
X205755412Y-143000000D01*
X205744605Y-142999528D01*
X205722209Y-142997568D01*
X205543749Y-142981955D01*
X205522464Y-142978202D01*
X205332952Y-142927423D01*
X205312640Y-142920030D01*
X205134830Y-142837116D01*
X205116115Y-142826310D01*
X204955401Y-142713778D01*
X204938843Y-142699884D01*
X204800115Y-142561156D01*
X204786221Y-142544598D01*
X204673686Y-142383881D01*
X204662886Y-142365175D01*
X204579966Y-142187352D01*
X204572576Y-142167047D01*
X204521797Y-141977535D01*
X204518044Y-141956249D01*
X204500472Y-141755395D01*
X204500000Y-141744588D01*
X204500000Y-135406485D01*
X204500493Y-135395437D01*
X204518859Y-135190127D01*
X204522778Y-135168396D01*
X204575824Y-134974961D01*
X204583539Y-134954269D01*
X204670076Y-134773318D01*
X204681341Y-134754325D01*
X204798623Y-134591604D01*
X204813074Y-134574919D01*
X204957377Y-134435597D01*
X204974559Y-134421741D01*
X205141301Y-134310242D01*
X205160673Y-134299654D01*
X205349658Y-134217298D01*
X205359945Y-134213351D01*
X214802847Y-131065717D01*
X214812396Y-131062956D01*
X214992923Y-131018527D01*
X215012571Y-131015338D01*
X215176500Y-131002123D01*
X215197874Y-131000401D01*
X215207837Y-131000000D01*
X225744588Y-131000000D01*
X225755395Y-131000472D01*
G37*
%TD.AperFunction*%
%TD*%
%TA.AperFunction,Conductor*%
%TO.N,Net-(U2-VIN+)*%
G36*
X67988294Y-118000596D02*
G01*
X68213943Y-118022821D01*
X68237778Y-118027561D01*
X68448911Y-118091609D01*
X68471351Y-118100904D01*
X68665926Y-118204906D01*
X68686136Y-118218410D01*
X68861410Y-118362254D01*
X68870426Y-118370426D01*
X70129573Y-119629573D01*
X70137745Y-119638589D01*
X70281589Y-119813863D01*
X70295094Y-119834075D01*
X70383782Y-120000000D01*
X70399092Y-120028642D01*
X70408392Y-120051093D01*
X70439858Y-120154820D01*
X70472436Y-120262215D01*
X70477178Y-120286056D01*
X70499403Y-120511705D01*
X70500000Y-120523859D01*
X70500000Y-129595238D01*
X70866116Y-129961354D01*
X70866121Y-129961360D01*
X71538639Y-130633878D01*
X71538644Y-130633882D01*
X72000000Y-131095238D01*
X72000000Y-132000000D01*
X66500000Y-131510185D01*
X66500000Y-127333152D01*
X66503109Y-127305559D01*
X66509055Y-127279509D01*
X66540500Y-127000425D01*
X66540500Y-122459575D01*
X66509055Y-122180491D01*
X66446560Y-121906682D01*
X66353801Y-121641592D01*
X66231945Y-121388555D01*
X66082523Y-121150752D01*
X65907416Y-120931175D01*
X65766309Y-120790068D01*
X65735720Y-120739642D01*
X65589494Y-120275392D01*
X65587748Y-120269309D01*
X65558023Y-120154806D01*
X65555474Y-120142417D01*
X65537589Y-120025437D01*
X65536801Y-120019212D01*
X65534862Y-120000000D01*
X65517043Y-119823428D01*
X65516430Y-119809197D01*
X65518372Y-119675348D01*
X65522052Y-119647112D01*
X65552732Y-119524227D01*
X65562754Y-119497576D01*
X65620671Y-119384913D01*
X65636502Y-119361265D01*
X65723255Y-119259305D01*
X65733085Y-119249015D01*
X65984151Y-119014787D01*
X65984199Y-119014740D01*
X66000000Y-119000000D01*
X66629583Y-118370416D01*
X66638578Y-118362263D01*
X66813869Y-118218405D01*
X66834068Y-118204909D01*
X67028651Y-118100902D01*
X67051084Y-118091610D01*
X67262223Y-118027561D01*
X67286054Y-118022821D01*
X67511705Y-118000596D01*
X67523859Y-118000000D01*
X67976141Y-118000000D01*
X67988294Y-118000596D01*
G37*
%TD.AperFunction*%
%TD*%
%TA.AperFunction,Conductor*%
%TO.N,Net-(D8-K)*%
G36*
X121734300Y-157400497D02*
G01*
X121940672Y-157419056D01*
X121962528Y-157423019D01*
X122156890Y-157476614D01*
X122177687Y-157484413D01*
X122359369Y-157571824D01*
X122378439Y-157583206D01*
X122541611Y-157701631D01*
X122558341Y-157716230D01*
X122697774Y-157861873D01*
X122711634Y-157879227D01*
X122822836Y-158047397D01*
X122833379Y-158066948D01*
X122914992Y-158257392D01*
X122918909Y-158267796D01*
X123436909Y-159856500D01*
X123439569Y-159865900D01*
X123482217Y-160042947D01*
X123485280Y-160062225D01*
X123499615Y-160243760D01*
X123500000Y-160253521D01*
X123500000Y-161400000D01*
X123757291Y-161736237D01*
X126906221Y-165851372D01*
X126912163Y-165859849D01*
X127016240Y-166022347D01*
X127025905Y-166040637D01*
X127099482Y-166213395D01*
X127105972Y-166233037D01*
X127149806Y-166415627D01*
X127152940Y-166436075D01*
X127166165Y-166628589D01*
X127166443Y-166638937D01*
X127115159Y-170075571D01*
X127089978Y-171763011D01*
X118200000Y-171791257D01*
X118200000Y-158655411D01*
X118200472Y-158644604D01*
X118218044Y-158443750D01*
X118221797Y-158422464D01*
X118263240Y-158267796D01*
X118272578Y-158232944D01*
X118279964Y-158212651D01*
X118362889Y-158034819D01*
X118373683Y-158016123D01*
X118486226Y-157855393D01*
X118500109Y-157838849D01*
X118638849Y-157700109D01*
X118655393Y-157686226D01*
X118816123Y-157573683D01*
X118834819Y-157562889D01*
X119012651Y-157479964D01*
X119032944Y-157472578D01*
X119222464Y-157421796D01*
X119243747Y-157418044D01*
X119444605Y-157400472D01*
X119455412Y-157400000D01*
X121723195Y-157400000D01*
X121734300Y-157400497D01*
G37*
%TD.AperFunction*%
%TD*%
M02*
