%TF.GenerationSoftware,KiCad,Pcbnew,8.0.8*%
%TF.CreationDate,2025-05-01T12:37:25+01:00*%
%TF.ProjectId,FlybackJoiner,466c7962-6163-46b4-9a6f-696e65722e6b,rev?*%
%TF.SameCoordinates,Original*%
%TF.FileFunction,Legend,Top*%
%TF.FilePolarity,Positive*%
%FSLAX46Y46*%
G04 Gerber Fmt 4.6, Leading zero omitted, Abs format (unit mm)*
G04 Created by KiCad (PCBNEW 8.0.8) date 2025-05-01 12:37:25*
%MOMM*%
%LPD*%
G01*
G04 APERTURE LIST*
%ADD10C,0.100000*%
G04 APERTURE END LIST*
D10*
X32666666Y-17457419D02*
X32666666Y-18171704D01*
X32666666Y-18171704D02*
X32619047Y-18314561D01*
X32619047Y-18314561D02*
X32523809Y-18409800D01*
X32523809Y-18409800D02*
X32380952Y-18457419D01*
X32380952Y-18457419D02*
X32285714Y-18457419D01*
X33571428Y-17790752D02*
X33571428Y-18457419D01*
X33333333Y-17409800D02*
X33095238Y-18124085D01*
X33095238Y-18124085D02*
X33714285Y-18124085D01*
X18666666Y-17457419D02*
X18666666Y-18171704D01*
X18666666Y-18171704D02*
X18619047Y-18314561D01*
X18619047Y-18314561D02*
X18523809Y-18409800D01*
X18523809Y-18409800D02*
X18380952Y-18457419D01*
X18380952Y-18457419D02*
X18285714Y-18457419D01*
X19047619Y-17457419D02*
X19666666Y-17457419D01*
X19666666Y-17457419D02*
X19333333Y-17838371D01*
X19333333Y-17838371D02*
X19476190Y-17838371D01*
X19476190Y-17838371D02*
X19571428Y-17885990D01*
X19571428Y-17885990D02*
X19619047Y-17933609D01*
X19619047Y-17933609D02*
X19666666Y-18028847D01*
X19666666Y-18028847D02*
X19666666Y-18266942D01*
X19666666Y-18266942D02*
X19619047Y-18362180D01*
X19619047Y-18362180D02*
X19571428Y-18409800D01*
X19571428Y-18409800D02*
X19476190Y-18457419D01*
X19476190Y-18457419D02*
X19190476Y-18457419D01*
X19190476Y-18457419D02*
X19095238Y-18409800D01*
X19095238Y-18409800D02*
X19047619Y-18362180D01*
X28066666Y-15957419D02*
X28066666Y-16671704D01*
X28066666Y-16671704D02*
X28019047Y-16814561D01*
X28019047Y-16814561D02*
X27923809Y-16909800D01*
X27923809Y-16909800D02*
X27780952Y-16957419D01*
X27780952Y-16957419D02*
X27685714Y-16957419D01*
X28495238Y-16052657D02*
X28542857Y-16005038D01*
X28542857Y-16005038D02*
X28638095Y-15957419D01*
X28638095Y-15957419D02*
X28876190Y-15957419D01*
X28876190Y-15957419D02*
X28971428Y-16005038D01*
X28971428Y-16005038D02*
X29019047Y-16052657D01*
X29019047Y-16052657D02*
X29066666Y-16147895D01*
X29066666Y-16147895D02*
X29066666Y-16243133D01*
X29066666Y-16243133D02*
X29019047Y-16385990D01*
X29019047Y-16385990D02*
X28447619Y-16957419D01*
X28447619Y-16957419D02*
X29066666Y-16957419D01*
X23166666Y-15957419D02*
X23166666Y-16671704D01*
X23166666Y-16671704D02*
X23119047Y-16814561D01*
X23119047Y-16814561D02*
X23023809Y-16909800D01*
X23023809Y-16909800D02*
X22880952Y-16957419D01*
X22880952Y-16957419D02*
X22785714Y-16957419D01*
X24166666Y-16957419D02*
X23595238Y-16957419D01*
X23880952Y-16957419D02*
X23880952Y-15957419D01*
X23880952Y-15957419D02*
X23785714Y-16100276D01*
X23785714Y-16100276D02*
X23690476Y-16195514D01*
X23690476Y-16195514D02*
X23595238Y-16243133D01*
M02*
