# Alias OBJ Model File
# Exported from SketchUp, (c) 2000-2012 Trimble Navigation Limited
# File units = millimeters

mtllib TestPart1.mtl

g Mesh1 Model

usemtl Panel2
v 5 12.5 -5
vt -0.19685 -0.19685
vn -2.37072e-30 1 1.80478e-14
v 90 12.5 -10
vt -3.54331 -0.393701
v 5 12.5 -10
vt -0.19685 -0.393701
f 1/1/1 2/2/1 3/3/1

v 90 12.5 -5
vt -3.54331 -0.19685
f 2/2/1 1/1/1 4/4/1

usemtl BackColor
vn 2.37072e-30 -1 -1.80478e-14
f 3/3/2 2/2/2 1/1/2

usemtl Panel2
vt -3.54331 0.492126
vn 1.32704e-16 -7.9999e-16 -1
v 5 -1.6 -10
vt -0.19685 -0.0629921
vt -0.19685 0.492126
f 2/5/3 5/6/3 3/7/3

v 90 -1.6 -10
vt -3.54331 -0.0629921
f 5/6/3 2/5/3 6/8/3

usemtl BackColor
vn -1.32704e-16 7.9999e-16 1
f 3/7/4 5/6/4 2/5/4

usemtl Panel2
vt 0.0629921 -0.393701
vn -1 0 0
v 5 0 -5
vt 0 -0.19685
vt -0.492126 -0.393701
f 5/9/5 7/10/5 3/11/5

v 5 0 0
vt 0 0
f 5/9/5 8/12/5 7/10/5

v 5 -1.6 0
vt 0.0629921 0
f 8/12/5 5/9/5 9/13/5

usemtl BackColor
vn 1 -0 -0
f 9/13/6 5/9/6 8/12/6

usemtl Panel2
vt 0.19685 -0.393701
vn 0 -1 0
v 90 -1.6 0
vt 3.54331 0
vt 0.19685 0
f 5/14/7 10/15/7 9/16/7

vt 3.54331 -0.393701
f 10/15/7 5/14/7 6/17/7

usemtl BackColor
vn -0 1 -0
f 6/17/8 5/14/8 10/15/8

f 6/8/4 2/5/4 5/6/4

usemtl Panel2
vt 0.492126 -0.393701
vn 1 7.31772e-15 9.67455e-15
vt -0.0629921 -3.42799e-14
vt -0.0629921 -0.393701
f 2/18/9 10/19/9 6/20/9

vt 0.492126 -0.19685
f 10/19/9 2/18/9 4/21/9

usemtl BackColor
vn -1 -7.31772e-15 -9.67455e-15
f 6/20/10 10/19/10 2/18/10

f 4/21/10 2/18/10 10/19/10

f 4/4/2 1/1/2 2/2/2

usemtl Panel2
vn 0 0 -1
v 25 17.5 -5
vt -0.984252 0.688976
f 1/7/11 11/22/11 4/5/11

v 5 17.5 -5
vt -0.19685 0.688976
f 11/22/11 1/7/11 12/23/11

usemtl BackColor
vn -0 -0 1
f 12/23/12 1/7/12 11/22/12

usemtl Panel2
vt -0.492126 -0.19685
v 5 17.5 0
vt -0.688976 0
vt -0.688976 -0.19685
f 1/24/5 13/25/5 12/26/5

v 5 10 -5
vt -0.393701 -0.19685
f 14/27/5 13/25/5 1/24/5

v 5 10 0
vt -0.393701 0
f 13/25/5 14/27/5 15/28/5

usemtl BackColor
f 15/28/6 14/27/6 13/25/6

usemtl Panel2
vn 0 1 0
v 0 10 0
vt -0.19685 0
f 14/1/13 16/12/13 15/29/13

v 0 10 -5
f 16/12/13 14/1/13 17/10/13

usemtl BackColor
vn -0 -1 -0
f 17/10/14 14/1/14 16/12/14

usemtl Panel2
vt -0.19685 0.393701
v 0 0 -5
vt 0 0.393701
f 14/30/11 18/12/11 17/31/11

f 18/12/11 14/30/11 7/29/11

usemtl BackColor
f 17/31/12 18/12/12 14/30/12

usemtl Panel2
f 18/10/5 16/28/5 17/27/5

v 0 0 0
f 16/28/5 18/10/5 19/12/5

usemtl BackColor
f 19/12/6 18/10/6 16/28/6

usemtl Panel2
f 18/10/7 8/16/7 19/12/7

vt 0.19685 -0.19685
f 8/16/7 18/10/7 7/32/7

usemtl BackColor
f 7/32/8 18/10/8 8/16/8

f 7/29/12 14/30/12 18/12/12

usemtl Panel2
f 3/11/5 7/10/5 14/27/5

usemtl BackColor
f 3/11/6 7/10/6 5/9/6

f 14/27/6 7/10/6 3/11/6

usemtl Panel2
f 3/11/5 14/27/5 1/24/5

usemtl BackColor
f 1/24/6 14/27/6 3/11/6

f 1/24/6 13/25/6 14/27/6

f 12/26/6 13/25/6 1/24/6

usemtl Panel2
vt -0.984252 -0.19685
f 13/29/13 11/33/13 12/1/13

v 25 17.5 0
vt -0.984252 0
f 11/33/13 13/29/13 20/34/13

usemtl BackColor
f 12/1/14 11/33/14 13/29/14

f 20/34/14 13/29/14 11/33/14

usemtl Panel2
vt 0.19685 0.688976
vn 0 0 1
vt 3.54331 -0.0629921
vt 0.984252 0.688976
f 13/35/15 10/36/15 20/37/15

vt 0.19685 0.393701
f 15/38/15 10/36/15 13/35/15

f 8/16/15 10/36/15 15/38/15

vt 0.19685 -0.0629921
f 10/36/15 8/16/15 9/39/15

usemtl BackColor
vn -0 -0 -1
f 9/39/16 8/16/16 10/36/16

f 15/38/16 10/36/16 8/16/16

f 13/35/16 10/36/16 15/38/16

f 20/37/16 10/36/16 13/35/16

usemtl Panel2
v 35 17.5 0
vt 1.37795 0.688976
f 20/37/15 10/36/15 21/40/15

usemtl BackColor
f 21/40/16 10/36/16 20/37/16

usemtl Panel2
v 45 17.5 0
vt 1.77165 0.688976
f 21/40/15 10/36/15 22/41/15

usemtl BackColor
f 22/41/16 10/36/16 21/40/16

usemtl Panel2
v 55 17.5 0
vt 2.16535 0.688976
f 22/41/15 10/36/15 23/42/15

usemtl BackColor
f 23/42/16 10/36/16 22/41/16

usemtl Panel2
v 65 17.5 0
vt 2.55906 0.688976
f 23/42/15 10/36/15 24/43/15

usemtl BackColor
f 24/43/16 10/36/16 23/42/16

usemtl Panel2
v 75 17.5 0
vt 2.95276 0.688976
f 24/43/15 10/36/15 25/44/15

usemtl BackColor
f 25/44/16 10/36/16 24/43/16

usemtl Panel2
v 85 17.5 0
vt 3.34646 0.688976
f 25/44/15 10/36/15 26/45/15

usemtl BackColor
f 26/45/16 10/36/16 25/44/16

usemtl Panel2
v 90 17.5 0
vt 3.54331 0.688976
f 26/45/15 10/36/15 27/46/15

usemtl BackColor
f 27/46/16 10/36/16 26/45/16

usemtl Panel2
vt 0.688976 -3.42799e-14
f 4/21/9 27/47/9 10/19/9

v 90 22.5 -5
vt 0.885827 -0.19685
f 27/47/9 4/21/9 28/48/9

usemtl BackColor
f 10/19/10 27/47/10 4/21/10

f 28/48/10 4/21/10 27/47/10

usemtl Panel2
v 85 17.5 -5
vt -3.34646 0.688976
vt -3.54331 0.885827
f 4/5/11 29/49/11 28/50/11

v 75 17.5 -5
vt -2.95276 0.688976
f 4/5/11 30/51/11 29/49/11

v 65 17.5 -5
vt -2.55906 0.688976
f 4/5/11 31/52/11 30/51/11

v 55 17.5 -5
vt -2.16535 0.688976
f 4/5/11 32/53/11 31/52/11

v 45 17.5 -5
vt -1.77165 0.688976
f 4/5/11 33/54/11 32/53/11

v 35 17.5 -5
vt -1.37795 0.688976
f 4/5/11 34/55/11 33/54/11

f 4/5/11 11/22/11 34/55/11

usemtl BackColor
f 4/5/12 11/22/12 1/7/12

f 34/55/12 11/22/12 4/5/12

usemtl Panel2
v 35 22.5 -5
vt -1.37795 0.885827
f 34/55/11 11/22/11 35/56/11

usemtl BackColor
f 35/56/12 11/22/12 34/55/12

usemtl Panel2
v 25 22.5 -5
vt -0.984252 0.885827
f 35/56/11 11/22/11 36/57/11

usemtl BackColor
f 36/57/12 11/22/12 35/56/12

usemtl Panel2
v 25 22.5 0
vt -0.885827 0
vt -0.885827 -0.19685
f 11/26/5 37/58/5 36/59/5

f 37/58/5 11/26/5 20/25/5

usemtl BackColor
f 20/25/6 11/26/6 37/58/6

f 36/59/6 37/58/6 11/26/6

usemtl Panel2
vt -1.37795 -0.19685
f 37/34/13 35/60/13 36/33/13

v 35 22.5 0
vt -1.37795 0
f 35/60/13 37/34/13 38/61/13

usemtl BackColor
f 36/33/14 35/60/14 37/34/14

f 38/61/14 37/34/14 35/60/14

usemtl Panel2
vt 0.984252 0.885827
vt 1.37795 0.885827
f 37/62/15 21/40/15 38/63/15

f 21/40/15 37/62/15 20/37/15

usemtl BackColor
f 20/37/16 37/62/16 21/40/16

f 38/63/16 21/40/16 37/62/16

usemtl Panel2
vt 0.688976 0
vn 1 0 0
vt 0.885827 0
f 21/64/17 35/48/17 38/65/17

vt 0.688976 -0.19685
f 35/48/17 21/64/17 34/66/17

usemtl BackColor
vn -1 -0 -0
f 34/66/18 21/64/18 35/48/18

usemtl Panel2
vt -1.77165 -0.19685
f 21/61/13 33/67/13 34/60/13

vt -1.77165 0
f 33/67/13 21/61/13 22/68/13

usemtl BackColor
f 34/60/14 33/67/14 21/61/14

f 33/54/12 34/55/12 4/5/12

f 32/53/12 33/54/12 4/5/12

usemtl Panel2
v 55 22.5 -5
vt -2.16535 0.885827
f 32/53/11 33/54/11 39/69/11

usemtl BackColor
f 39/69/12 33/54/12 32/53/12

usemtl Panel2
v 45 22.5 -5
vt -1.77165 0.885827
f 39/69/11 33/54/11 40/70/11

usemtl BackColor
f 40/70/12 33/54/12 39/69/12

usemtl Panel2
v 45 22.5 0
f 33/26/5 41/58/5 40/59/5

f 41/58/5 33/26/5 22/25/5

usemtl BackColor
f 22/25/6 33/26/6 41/58/6

f 22/68/14 21/61/14 33/67/14

f 40/59/6 41/58/6 33/26/6

usemtl Panel2
vt -2.16535 -0.19685
f 41/68/13 39/71/13 40/67/13

v 55 22.5 0
vt -2.16535 0
f 39/71/13 41/68/13 42/72/13

usemtl BackColor
f 40/67/14 39/71/14 41/68/14

f 42/72/14 41/68/14 39/71/14

usemtl Panel2
vt 1.77165 0.885827
vt 2.16535 0.885827
f 41/73/15 23/42/15 42/74/15

f 23/42/15 41/73/15 22/41/15

usemtl BackColor
f 22/41/16 41/73/16 23/42/16

f 42/74/16 23/42/16 41/73/16

usemtl Panel2
f 23/64/17 39/48/17 42/65/17

f 39/48/17 23/64/17 32/66/17

usemtl BackColor
f 32/66/18 23/64/18 39/48/18

usemtl Panel2
vt -2.55906 -0.19685
f 23/72/13 31/75/13 32/71/13

vt -2.55906 0
f 31/75/13 23/72/13 24/76/13

usemtl BackColor
f 32/71/14 31/75/14 23/72/14

f 31/52/12 32/53/12 4/5/12

f 30/51/12 31/52/12 4/5/12

usemtl Panel2
v 75 22.5 -5
vt -2.95276 0.885827
f 30/51/11 31/52/11 43/77/11

usemtl BackColor
f 43/77/12 31/52/12 30/51/12

usemtl Panel2
v 65 22.5 -5
vt -2.55906 0.885827
f 43/77/11 31/52/11 44/78/11

usemtl BackColor
f 44/78/12 31/52/12 43/77/12

usemtl Panel2
v 65 22.5 0
f 31/26/5 45/58/5 44/59/5

f 45/58/5 31/26/5 24/25/5

usemtl BackColor
f 24/25/6 31/26/6 45/58/6

f 24/76/14 23/72/14 31/75/14

f 44/59/6 45/58/6 31/26/6

usemtl Panel2
vt -2.95276 -0.19685
f 45/76/13 43/79/13 44/75/13

v 75 22.5 0
vt -2.95276 0
f 43/79/13 45/76/13 46/80/13

usemtl BackColor
f 44/75/14 43/79/14 45/76/14

f 46/80/14 45/76/14 43/79/14

usemtl Panel2
vt 2.55906 0.885827
vt 2.95276 0.885827
f 45/81/15 25/44/15 46/82/15

f 25/44/15 45/81/15 24/43/15

usemtl BackColor
f 24/43/16 45/81/16 25/44/16

f 46/82/16 25/44/16 45/81/16

usemtl Panel2
f 25/64/17 43/48/17 46/65/17

f 43/48/17 25/64/17 30/66/17

usemtl BackColor
f 30/66/18 25/64/18 43/48/18

usemtl Panel2
vt -3.34646 -0.19685
f 25/80/13 29/83/13 30/79/13

vt -3.34646 0
f 29/83/13 25/80/13 26/84/13

usemtl BackColor
f 30/79/14 29/83/14 25/80/14

f 29/49/12 30/51/12 4/5/12

f 28/50/12 29/49/12 4/5/12

usemtl Panel2
v 85 22.5 -5
vt -3.34646 0.885827
f 28/50/11 29/49/11 47/85/11

usemtl BackColor
f 47/85/12 29/49/12 28/50/12

usemtl Panel2
v 85 22.5 0
f 29/26/5 48/58/5 47/59/5

f 48/58/5 29/26/5 26/25/5

usemtl BackColor
f 26/25/6 29/26/6 48/58/6

f 26/84/14 25/80/14 29/83/14

f 47/59/6 48/58/6 29/26/6

usemtl Panel2
vt -3.34646 -2.39808e-14
vn 2.70717e-14 1 2.70717e-14
f 48/86/19 28/4/19 47/83/19

v 90 22.5 -2.25597e-14
vt -3.54331 -2.4869e-14
f 28/4/19 48/86/19 49/87/19

usemtl BackColor
vn -2.70717e-14 -1 -2.70717e-14
f 47/83/20 28/4/20 48/86/20

f 49/87/20 48/86/20 28/4/20

usemtl Panel2
vt 3.34646 0.885827
vn 2.25597e-15 2.25597e-15 1
vt 3.54331 0.885827
f 48/88/21 27/46/21 49/89/21

f 27/46/21 48/88/21 26/45/21

usemtl Panel3
vn -2.25597e-15 -2.25597e-15 -1
f 26/45/22 48/88/22 27/46/22

f 49/89/22 27/46/22 48/88/22

usemtl Panel2
vt 0.885827 -3.51681e-14
f 27/47/9 28/48/9 49/90/9

usemtl BackColor
f 49/90/10 28/48/10 27/47/10

f 46/65/18 43/48/18 25/64/18

f 42/65/18 39/48/18 23/64/18

f 38/65/18 35/48/18 21/64/18

usemtl Panel2
f 16/31/15 8/16/15 15/38/15

f 8/16/15 16/31/15 19/12/15

usemtl BackColor
f 19/12/16 16/31/16 8/16/16

f 15/38/16 8/16/16 16/31/16

f 15/29/14 16/12/14 14/1/14

f 19/12/8 8/16/8 18/10/8

f 9/16/8 10/15/8 5/14/8

f 7/10/6 8/12/6 5/9/6

f 17/27/6 16/28/6 18/10/6

