%TF.GenerationSoftware,KiCad,Pcbnew,8.0.8*%
%TF.CreationDate,2026-02-28T15:48:25+00:00*%
%TF.ProjectId,HVPSController2,48565053-436f-46e7-9472-6f6c6c657232,rev?*%
%TF.SameCoordinates,Original*%
%TF.FileFunction,Drillmap*%
%TF.FilePolarity,Positive*%
%FSLAX45Y45*%
G04 Gerber Fmt 4.5, Leading zero omitted, Abs format (unit mm)*
G04 Created by KiCad (PCBNEW 8.0.8) date 2026-02-28 15:48:25*
%MOMM*%
%LPD*%
G01*
G04 APERTURE LIST*
%ADD10C,0.200000*%
%ADD11C,0.260000*%
G04 APERTURE END LIST*
D10*
X4550000Y-6580000D02*
X35960000Y-6580000D01*
X35960000Y-24979000D01*
X4550000Y-24979000D01*
X4550000Y-6580000D01*
D11*
X5789000Y-8070000D02*
X6049000Y-8330000D01*
X6049000Y-8070000D02*
X5789000Y-8330000D01*
X6290000Y-15708000D02*
X6550000Y-15968000D01*
X6550000Y-15708000D02*
X6290000Y-15968000D01*
X6290000Y-16470000D02*
X6550000Y-16730000D01*
X6550000Y-16470000D02*
X6290000Y-16730000D01*
X6290000Y-16933000D02*
X6550000Y-17193000D01*
X6550000Y-16933000D02*
X6290000Y-17193000D01*
X6290000Y-17695000D02*
X6550000Y-17955000D01*
X6550000Y-17695000D02*
X6290000Y-17955000D01*
X6290000Y-18383000D02*
X6550000Y-18643000D01*
X6550000Y-18383000D02*
X6290000Y-18643000D01*
X6290000Y-19145000D02*
X6550000Y-19405000D01*
X6550000Y-19145000D02*
X6290000Y-19405000D01*
X6290000Y-19608000D02*
X6550000Y-19868000D01*
X6550000Y-19608000D02*
X6290000Y-19868000D01*
X6290000Y-20370000D02*
X6550000Y-20630000D01*
X6550000Y-20370000D02*
X6290000Y-20630000D01*
X6290000Y-21043000D02*
X6550000Y-21303000D01*
X6550000Y-21043000D02*
X6290000Y-21303000D01*
X6290000Y-21805000D02*
X6550000Y-22065000D01*
X6550000Y-21805000D02*
X6290000Y-22065000D01*
X6290000Y-22268000D02*
X6550000Y-22528000D01*
X6550000Y-22268000D02*
X6290000Y-22528000D01*
X6290000Y-23030000D02*
X6550000Y-23290000D01*
X6550000Y-23030000D02*
X6290000Y-23290000D01*
X6551000Y-8070000D02*
X6811000Y-8330000D01*
X6811000Y-8070000D02*
X6551000Y-8330000D01*
X7014000Y-8070000D02*
X7274000Y-8330000D01*
X7274000Y-8070000D02*
X7014000Y-8330000D01*
X7776000Y-8070000D02*
X8036000Y-8330000D01*
X8036000Y-8070000D02*
X7776000Y-8330000D01*
X8239000Y-8070000D02*
X8499000Y-8330000D01*
X8499000Y-8070000D02*
X8239000Y-8330000D01*
X9001000Y-8070000D02*
X9261000Y-8330000D01*
X9261000Y-8070000D02*
X9001000Y-8330000D01*
X10245000Y-8070000D02*
X10505000Y-8330000D01*
X10505000Y-8070000D02*
X10245000Y-8330000D01*
X11007000Y-8070000D02*
X11267000Y-8330000D01*
X11267000Y-8070000D02*
X11007000Y-8330000D01*
X11470000Y-8070000D02*
X11730000Y-8330000D01*
X11730000Y-8070000D02*
X11470000Y-8330000D01*
X12232000Y-8070000D02*
X12492000Y-8330000D01*
X12492000Y-8070000D02*
X12232000Y-8330000D01*
D10*
X4800777Y-25300484D02*
X4800777Y-25100484D01*
X4800777Y-25100484D02*
X4848396Y-25100484D01*
X4848396Y-25100484D02*
X4876967Y-25110008D01*
X4876967Y-25110008D02*
X4896015Y-25129055D01*
X4896015Y-25129055D02*
X4905539Y-25148103D01*
X4905539Y-25148103D02*
X4915063Y-25186198D01*
X4915063Y-25186198D02*
X4915063Y-25214769D01*
X4915063Y-25214769D02*
X4905539Y-25252865D01*
X4905539Y-25252865D02*
X4896015Y-25271912D01*
X4896015Y-25271912D02*
X4876967Y-25290960D01*
X4876967Y-25290960D02*
X4848396Y-25300484D01*
X4848396Y-25300484D02*
X4800777Y-25300484D01*
X5000777Y-25300484D02*
X5000777Y-25167150D01*
X5000777Y-25205246D02*
X5010301Y-25186198D01*
X5010301Y-25186198D02*
X5019824Y-25176674D01*
X5019824Y-25176674D02*
X5038872Y-25167150D01*
X5038872Y-25167150D02*
X5057920Y-25167150D01*
X5124586Y-25300484D02*
X5124586Y-25167150D01*
X5124586Y-25100484D02*
X5115063Y-25110008D01*
X5115063Y-25110008D02*
X5124586Y-25119531D01*
X5124586Y-25119531D02*
X5134110Y-25110008D01*
X5134110Y-25110008D02*
X5124586Y-25100484D01*
X5124586Y-25100484D02*
X5124586Y-25119531D01*
X5248396Y-25300484D02*
X5229348Y-25290960D01*
X5229348Y-25290960D02*
X5219824Y-25271912D01*
X5219824Y-25271912D02*
X5219824Y-25100484D01*
X5353158Y-25300484D02*
X5334110Y-25290960D01*
X5334110Y-25290960D02*
X5324586Y-25271912D01*
X5324586Y-25271912D02*
X5324586Y-25100484D01*
X5581729Y-25300484D02*
X5581729Y-25100484D01*
X5581729Y-25100484D02*
X5648396Y-25243341D01*
X5648396Y-25243341D02*
X5715062Y-25100484D01*
X5715062Y-25100484D02*
X5715062Y-25300484D01*
X5896015Y-25300484D02*
X5896015Y-25195722D01*
X5896015Y-25195722D02*
X5886491Y-25176674D01*
X5886491Y-25176674D02*
X5867443Y-25167150D01*
X5867443Y-25167150D02*
X5829348Y-25167150D01*
X5829348Y-25167150D02*
X5810301Y-25176674D01*
X5896015Y-25290960D02*
X5876967Y-25300484D01*
X5876967Y-25300484D02*
X5829348Y-25300484D01*
X5829348Y-25300484D02*
X5810301Y-25290960D01*
X5810301Y-25290960D02*
X5800777Y-25271912D01*
X5800777Y-25271912D02*
X5800777Y-25252865D01*
X5800777Y-25252865D02*
X5810301Y-25233817D01*
X5810301Y-25233817D02*
X5829348Y-25224293D01*
X5829348Y-25224293D02*
X5876967Y-25224293D01*
X5876967Y-25224293D02*
X5896015Y-25214769D01*
X5991253Y-25167150D02*
X5991253Y-25367150D01*
X5991253Y-25176674D02*
X6010301Y-25167150D01*
X6010301Y-25167150D02*
X6048396Y-25167150D01*
X6048396Y-25167150D02*
X6067443Y-25176674D01*
X6067443Y-25176674D02*
X6076967Y-25186198D01*
X6076967Y-25186198D02*
X6086491Y-25205246D01*
X6086491Y-25205246D02*
X6086491Y-25262388D01*
X6086491Y-25262388D02*
X6076967Y-25281436D01*
X6076967Y-25281436D02*
X6067443Y-25290960D01*
X6067443Y-25290960D02*
X6048396Y-25300484D01*
X6048396Y-25300484D02*
X6010301Y-25300484D01*
X6010301Y-25300484D02*
X5991253Y-25290960D01*
X6172205Y-25281436D02*
X6181729Y-25290960D01*
X6181729Y-25290960D02*
X6172205Y-25300484D01*
X6172205Y-25300484D02*
X6162682Y-25290960D01*
X6162682Y-25290960D02*
X6172205Y-25281436D01*
X6172205Y-25281436D02*
X6172205Y-25300484D01*
X6172205Y-25176674D02*
X6181729Y-25186198D01*
X6181729Y-25186198D02*
X6172205Y-25195722D01*
X6172205Y-25195722D02*
X6162682Y-25186198D01*
X6162682Y-25186198D02*
X6172205Y-25176674D01*
X6172205Y-25176674D02*
X6172205Y-25195722D01*
X4340000Y-25529000D02*
X4540000Y-25729000D01*
X4540000Y-25529000D02*
X4340000Y-25729000D01*
X4791253Y-25539531D02*
X4800777Y-25530008D01*
X4800777Y-25530008D02*
X4819824Y-25520484D01*
X4819824Y-25520484D02*
X4867444Y-25520484D01*
X4867444Y-25520484D02*
X4886491Y-25530008D01*
X4886491Y-25530008D02*
X4896015Y-25539531D01*
X4896015Y-25539531D02*
X4905539Y-25558579D01*
X4905539Y-25558579D02*
X4905539Y-25577627D01*
X4905539Y-25577627D02*
X4896015Y-25606198D01*
X4896015Y-25606198D02*
X4781729Y-25720484D01*
X4781729Y-25720484D02*
X4905539Y-25720484D01*
X4991253Y-25701436D02*
X5000777Y-25710960D01*
X5000777Y-25710960D02*
X4991253Y-25720484D01*
X4991253Y-25720484D02*
X4981729Y-25710960D01*
X4981729Y-25710960D02*
X4991253Y-25701436D01*
X4991253Y-25701436D02*
X4991253Y-25720484D01*
X5172205Y-25520484D02*
X5134110Y-25520484D01*
X5134110Y-25520484D02*
X5115063Y-25530008D01*
X5115063Y-25530008D02*
X5105539Y-25539531D01*
X5105539Y-25539531D02*
X5086491Y-25568103D01*
X5086491Y-25568103D02*
X5076967Y-25606198D01*
X5076967Y-25606198D02*
X5076967Y-25682388D01*
X5076967Y-25682388D02*
X5086491Y-25701436D01*
X5086491Y-25701436D02*
X5096015Y-25710960D01*
X5096015Y-25710960D02*
X5115063Y-25720484D01*
X5115063Y-25720484D02*
X5153158Y-25720484D01*
X5153158Y-25720484D02*
X5172205Y-25710960D01*
X5172205Y-25710960D02*
X5181729Y-25701436D01*
X5181729Y-25701436D02*
X5191253Y-25682388D01*
X5191253Y-25682388D02*
X5191253Y-25634769D01*
X5191253Y-25634769D02*
X5181729Y-25615722D01*
X5181729Y-25615722D02*
X5172205Y-25606198D01*
X5172205Y-25606198D02*
X5153158Y-25596674D01*
X5153158Y-25596674D02*
X5115063Y-25596674D01*
X5115063Y-25596674D02*
X5096015Y-25606198D01*
X5096015Y-25606198D02*
X5086491Y-25615722D01*
X5086491Y-25615722D02*
X5076967Y-25634769D01*
X5315063Y-25520484D02*
X5334110Y-25520484D01*
X5334110Y-25520484D02*
X5353158Y-25530008D01*
X5353158Y-25530008D02*
X5362682Y-25539531D01*
X5362682Y-25539531D02*
X5372205Y-25558579D01*
X5372205Y-25558579D02*
X5381729Y-25596674D01*
X5381729Y-25596674D02*
X5381729Y-25644293D01*
X5381729Y-25644293D02*
X5372205Y-25682388D01*
X5372205Y-25682388D02*
X5362682Y-25701436D01*
X5362682Y-25701436D02*
X5353158Y-25710960D01*
X5353158Y-25710960D02*
X5334110Y-25720484D01*
X5334110Y-25720484D02*
X5315063Y-25720484D01*
X5315063Y-25720484D02*
X5296015Y-25710960D01*
X5296015Y-25710960D02*
X5286491Y-25701436D01*
X5286491Y-25701436D02*
X5276967Y-25682388D01*
X5276967Y-25682388D02*
X5267444Y-25644293D01*
X5267444Y-25644293D02*
X5267444Y-25596674D01*
X5267444Y-25596674D02*
X5276967Y-25558579D01*
X5276967Y-25558579D02*
X5286491Y-25539531D01*
X5286491Y-25539531D02*
X5296015Y-25530008D01*
X5296015Y-25530008D02*
X5315063Y-25520484D01*
X5505539Y-25520484D02*
X5524586Y-25520484D01*
X5524586Y-25520484D02*
X5543634Y-25530008D01*
X5543634Y-25530008D02*
X5553158Y-25539531D01*
X5553158Y-25539531D02*
X5562682Y-25558579D01*
X5562682Y-25558579D02*
X5572205Y-25596674D01*
X5572205Y-25596674D02*
X5572205Y-25644293D01*
X5572205Y-25644293D02*
X5562682Y-25682388D01*
X5562682Y-25682388D02*
X5553158Y-25701436D01*
X5553158Y-25701436D02*
X5543634Y-25710960D01*
X5543634Y-25710960D02*
X5524586Y-25720484D01*
X5524586Y-25720484D02*
X5505539Y-25720484D01*
X5505539Y-25720484D02*
X5486491Y-25710960D01*
X5486491Y-25710960D02*
X5476967Y-25701436D01*
X5476967Y-25701436D02*
X5467444Y-25682388D01*
X5467444Y-25682388D02*
X5457920Y-25644293D01*
X5457920Y-25644293D02*
X5457920Y-25596674D01*
X5457920Y-25596674D02*
X5467444Y-25558579D01*
X5467444Y-25558579D02*
X5476967Y-25539531D01*
X5476967Y-25539531D02*
X5486491Y-25530008D01*
X5486491Y-25530008D02*
X5505539Y-25520484D01*
X5657920Y-25720484D02*
X5657920Y-25587150D01*
X5657920Y-25606198D02*
X5667443Y-25596674D01*
X5667443Y-25596674D02*
X5686491Y-25587150D01*
X5686491Y-25587150D02*
X5715063Y-25587150D01*
X5715063Y-25587150D02*
X5734110Y-25596674D01*
X5734110Y-25596674D02*
X5743634Y-25615722D01*
X5743634Y-25615722D02*
X5743634Y-25720484D01*
X5743634Y-25615722D02*
X5753158Y-25596674D01*
X5753158Y-25596674D02*
X5772205Y-25587150D01*
X5772205Y-25587150D02*
X5800777Y-25587150D01*
X5800777Y-25587150D02*
X5819824Y-25596674D01*
X5819824Y-25596674D02*
X5829348Y-25615722D01*
X5829348Y-25615722D02*
X5829348Y-25720484D01*
X5924586Y-25720484D02*
X5924586Y-25587150D01*
X5924586Y-25606198D02*
X5934110Y-25596674D01*
X5934110Y-25596674D02*
X5953158Y-25587150D01*
X5953158Y-25587150D02*
X5981729Y-25587150D01*
X5981729Y-25587150D02*
X6000777Y-25596674D01*
X6000777Y-25596674D02*
X6010301Y-25615722D01*
X6010301Y-25615722D02*
X6010301Y-25720484D01*
X6010301Y-25615722D02*
X6019824Y-25596674D01*
X6019824Y-25596674D02*
X6038872Y-25587150D01*
X6038872Y-25587150D02*
X6067443Y-25587150D01*
X6067443Y-25587150D02*
X6086491Y-25596674D01*
X6086491Y-25596674D02*
X6096015Y-25615722D01*
X6096015Y-25615722D02*
X6096015Y-25720484D01*
X6486491Y-25510960D02*
X6315063Y-25768103D01*
X6743634Y-25520484D02*
X6762682Y-25520484D01*
X6762682Y-25520484D02*
X6781729Y-25530008D01*
X6781729Y-25530008D02*
X6791253Y-25539531D01*
X6791253Y-25539531D02*
X6800777Y-25558579D01*
X6800777Y-25558579D02*
X6810301Y-25596674D01*
X6810301Y-25596674D02*
X6810301Y-25644293D01*
X6810301Y-25644293D02*
X6800777Y-25682388D01*
X6800777Y-25682388D02*
X6791253Y-25701436D01*
X6791253Y-25701436D02*
X6781729Y-25710960D01*
X6781729Y-25710960D02*
X6762682Y-25720484D01*
X6762682Y-25720484D02*
X6743634Y-25720484D01*
X6743634Y-25720484D02*
X6724586Y-25710960D01*
X6724586Y-25710960D02*
X6715063Y-25701436D01*
X6715063Y-25701436D02*
X6705539Y-25682388D01*
X6705539Y-25682388D02*
X6696015Y-25644293D01*
X6696015Y-25644293D02*
X6696015Y-25596674D01*
X6696015Y-25596674D02*
X6705539Y-25558579D01*
X6705539Y-25558579D02*
X6715063Y-25539531D01*
X6715063Y-25539531D02*
X6724586Y-25530008D01*
X6724586Y-25530008D02*
X6743634Y-25520484D01*
X6896015Y-25701436D02*
X6905539Y-25710960D01*
X6905539Y-25710960D02*
X6896015Y-25720484D01*
X6896015Y-25720484D02*
X6886491Y-25710960D01*
X6886491Y-25710960D02*
X6896015Y-25701436D01*
X6896015Y-25701436D02*
X6896015Y-25720484D01*
X7096015Y-25720484D02*
X6981729Y-25720484D01*
X7038872Y-25720484D02*
X7038872Y-25520484D01*
X7038872Y-25520484D02*
X7019825Y-25549055D01*
X7019825Y-25549055D02*
X7000777Y-25568103D01*
X7000777Y-25568103D02*
X6981729Y-25577627D01*
X7219825Y-25520484D02*
X7238872Y-25520484D01*
X7238872Y-25520484D02*
X7257920Y-25530008D01*
X7257920Y-25530008D02*
X7267444Y-25539531D01*
X7267444Y-25539531D02*
X7276967Y-25558579D01*
X7276967Y-25558579D02*
X7286491Y-25596674D01*
X7286491Y-25596674D02*
X7286491Y-25644293D01*
X7286491Y-25644293D02*
X7276967Y-25682388D01*
X7276967Y-25682388D02*
X7267444Y-25701436D01*
X7267444Y-25701436D02*
X7257920Y-25710960D01*
X7257920Y-25710960D02*
X7238872Y-25720484D01*
X7238872Y-25720484D02*
X7219825Y-25720484D01*
X7219825Y-25720484D02*
X7200777Y-25710960D01*
X7200777Y-25710960D02*
X7191253Y-25701436D01*
X7191253Y-25701436D02*
X7181729Y-25682388D01*
X7181729Y-25682388D02*
X7172206Y-25644293D01*
X7172206Y-25644293D02*
X7172206Y-25596674D01*
X7172206Y-25596674D02*
X7181729Y-25558579D01*
X7181729Y-25558579D02*
X7191253Y-25539531D01*
X7191253Y-25539531D02*
X7200777Y-25530008D01*
X7200777Y-25530008D02*
X7219825Y-25520484D01*
X7362682Y-25539531D02*
X7372206Y-25530008D01*
X7372206Y-25530008D02*
X7391253Y-25520484D01*
X7391253Y-25520484D02*
X7438872Y-25520484D01*
X7438872Y-25520484D02*
X7457920Y-25530008D01*
X7457920Y-25530008D02*
X7467444Y-25539531D01*
X7467444Y-25539531D02*
X7476967Y-25558579D01*
X7476967Y-25558579D02*
X7476967Y-25577627D01*
X7476967Y-25577627D02*
X7467444Y-25606198D01*
X7467444Y-25606198D02*
X7353158Y-25720484D01*
X7353158Y-25720484D02*
X7476967Y-25720484D01*
X7648396Y-25587150D02*
X7648396Y-25720484D01*
X7600777Y-25510960D02*
X7553158Y-25653817D01*
X7553158Y-25653817D02*
X7676967Y-25653817D01*
X7743634Y-25520484D02*
X7743634Y-25558579D01*
X7819825Y-25520484D02*
X7819825Y-25558579D01*
X8115063Y-25796674D02*
X8105539Y-25787150D01*
X8105539Y-25787150D02*
X8086491Y-25758579D01*
X8086491Y-25758579D02*
X8076968Y-25739531D01*
X8076968Y-25739531D02*
X8067444Y-25710960D01*
X8067444Y-25710960D02*
X8057920Y-25663341D01*
X8057920Y-25663341D02*
X8057920Y-25625246D01*
X8057920Y-25625246D02*
X8067444Y-25577627D01*
X8067444Y-25577627D02*
X8076968Y-25549055D01*
X8076968Y-25549055D02*
X8086491Y-25530008D01*
X8086491Y-25530008D02*
X8105539Y-25501436D01*
X8105539Y-25501436D02*
X8115063Y-25491912D01*
X8181729Y-25539531D02*
X8191253Y-25530008D01*
X8191253Y-25530008D02*
X8210301Y-25520484D01*
X8210301Y-25520484D02*
X8257920Y-25520484D01*
X8257920Y-25520484D02*
X8276968Y-25530008D01*
X8276968Y-25530008D02*
X8286491Y-25539531D01*
X8286491Y-25539531D02*
X8296015Y-25558579D01*
X8296015Y-25558579D02*
X8296015Y-25577627D01*
X8296015Y-25577627D02*
X8286491Y-25606198D01*
X8286491Y-25606198D02*
X8172206Y-25720484D01*
X8172206Y-25720484D02*
X8296015Y-25720484D01*
X8372206Y-25539531D02*
X8381729Y-25530008D01*
X8381729Y-25530008D02*
X8400777Y-25520484D01*
X8400777Y-25520484D02*
X8448396Y-25520484D01*
X8448396Y-25520484D02*
X8467444Y-25530008D01*
X8467444Y-25530008D02*
X8476968Y-25539531D01*
X8476968Y-25539531D02*
X8486491Y-25558579D01*
X8486491Y-25558579D02*
X8486491Y-25577627D01*
X8486491Y-25577627D02*
X8476968Y-25606198D01*
X8476968Y-25606198D02*
X8362682Y-25720484D01*
X8362682Y-25720484D02*
X8486491Y-25720484D01*
X8724587Y-25720484D02*
X8724587Y-25520484D01*
X8810301Y-25720484D02*
X8810301Y-25615722D01*
X8810301Y-25615722D02*
X8800777Y-25596674D01*
X8800777Y-25596674D02*
X8781730Y-25587150D01*
X8781730Y-25587150D02*
X8753158Y-25587150D01*
X8753158Y-25587150D02*
X8734111Y-25596674D01*
X8734111Y-25596674D02*
X8724587Y-25606198D01*
X8934111Y-25720484D02*
X8915063Y-25710960D01*
X8915063Y-25710960D02*
X8905539Y-25701436D01*
X8905539Y-25701436D02*
X8896015Y-25682388D01*
X8896015Y-25682388D02*
X8896015Y-25625246D01*
X8896015Y-25625246D02*
X8905539Y-25606198D01*
X8905539Y-25606198D02*
X8915063Y-25596674D01*
X8915063Y-25596674D02*
X8934111Y-25587150D01*
X8934111Y-25587150D02*
X8962682Y-25587150D01*
X8962682Y-25587150D02*
X8981730Y-25596674D01*
X8981730Y-25596674D02*
X8991253Y-25606198D01*
X8991253Y-25606198D02*
X9000777Y-25625246D01*
X9000777Y-25625246D02*
X9000777Y-25682388D01*
X9000777Y-25682388D02*
X8991253Y-25701436D01*
X8991253Y-25701436D02*
X8981730Y-25710960D01*
X8981730Y-25710960D02*
X8962682Y-25720484D01*
X8962682Y-25720484D02*
X8934111Y-25720484D01*
X9115063Y-25720484D02*
X9096015Y-25710960D01*
X9096015Y-25710960D02*
X9086492Y-25691912D01*
X9086492Y-25691912D02*
X9086492Y-25520484D01*
X9267444Y-25710960D02*
X9248396Y-25720484D01*
X9248396Y-25720484D02*
X9210301Y-25720484D01*
X9210301Y-25720484D02*
X9191253Y-25710960D01*
X9191253Y-25710960D02*
X9181730Y-25691912D01*
X9181730Y-25691912D02*
X9181730Y-25615722D01*
X9181730Y-25615722D02*
X9191253Y-25596674D01*
X9191253Y-25596674D02*
X9210301Y-25587150D01*
X9210301Y-25587150D02*
X9248396Y-25587150D01*
X9248396Y-25587150D02*
X9267444Y-25596674D01*
X9267444Y-25596674D02*
X9276968Y-25615722D01*
X9276968Y-25615722D02*
X9276968Y-25634769D01*
X9276968Y-25634769D02*
X9181730Y-25653817D01*
X9353158Y-25710960D02*
X9372206Y-25720484D01*
X9372206Y-25720484D02*
X9410301Y-25720484D01*
X9410301Y-25720484D02*
X9429349Y-25710960D01*
X9429349Y-25710960D02*
X9438873Y-25691912D01*
X9438873Y-25691912D02*
X9438873Y-25682388D01*
X9438873Y-25682388D02*
X9429349Y-25663341D01*
X9429349Y-25663341D02*
X9410301Y-25653817D01*
X9410301Y-25653817D02*
X9381730Y-25653817D01*
X9381730Y-25653817D02*
X9362682Y-25644293D01*
X9362682Y-25644293D02*
X9353158Y-25625246D01*
X9353158Y-25625246D02*
X9353158Y-25615722D01*
X9353158Y-25615722D02*
X9362682Y-25596674D01*
X9362682Y-25596674D02*
X9381730Y-25587150D01*
X9381730Y-25587150D02*
X9410301Y-25587150D01*
X9410301Y-25587150D02*
X9429349Y-25596674D01*
X9505539Y-25796674D02*
X9515063Y-25787150D01*
X9515063Y-25787150D02*
X9534111Y-25758579D01*
X9534111Y-25758579D02*
X9543634Y-25739531D01*
X9543634Y-25739531D02*
X9553158Y-25710960D01*
X9553158Y-25710960D02*
X9562682Y-25663341D01*
X9562682Y-25663341D02*
X9562682Y-25625246D01*
X9562682Y-25625246D02*
X9553158Y-25577627D01*
X9553158Y-25577627D02*
X9543634Y-25549055D01*
X9543634Y-25549055D02*
X9534111Y-25530008D01*
X9534111Y-25530008D02*
X9515063Y-25501436D01*
X9515063Y-25501436D02*
X9505539Y-25491912D01*
X9867444Y-25796674D02*
X9857920Y-25787150D01*
X9857920Y-25787150D02*
X9838873Y-25758579D01*
X9838873Y-25758579D02*
X9829349Y-25739531D01*
X9829349Y-25739531D02*
X9819825Y-25710960D01*
X9819825Y-25710960D02*
X9810301Y-25663341D01*
X9810301Y-25663341D02*
X9810301Y-25625246D01*
X9810301Y-25625246D02*
X9819825Y-25577627D01*
X9819825Y-25577627D02*
X9829349Y-25549055D01*
X9829349Y-25549055D02*
X9838873Y-25530008D01*
X9838873Y-25530008D02*
X9857920Y-25501436D01*
X9857920Y-25501436D02*
X9867444Y-25491912D01*
X9943634Y-25587150D02*
X9943634Y-25720484D01*
X9943634Y-25606198D02*
X9953158Y-25596674D01*
X9953158Y-25596674D02*
X9972206Y-25587150D01*
X9972206Y-25587150D02*
X10000777Y-25587150D01*
X10000777Y-25587150D02*
X10019825Y-25596674D01*
X10019825Y-25596674D02*
X10029349Y-25615722D01*
X10029349Y-25615722D02*
X10029349Y-25720484D01*
X10153158Y-25720484D02*
X10134111Y-25710960D01*
X10134111Y-25710960D02*
X10124587Y-25701436D01*
X10124587Y-25701436D02*
X10115063Y-25682388D01*
X10115063Y-25682388D02*
X10115063Y-25625246D01*
X10115063Y-25625246D02*
X10124587Y-25606198D01*
X10124587Y-25606198D02*
X10134111Y-25596674D01*
X10134111Y-25596674D02*
X10153158Y-25587150D01*
X10153158Y-25587150D02*
X10181730Y-25587150D01*
X10181730Y-25587150D02*
X10200777Y-25596674D01*
X10200777Y-25596674D02*
X10210301Y-25606198D01*
X10210301Y-25606198D02*
X10219825Y-25625246D01*
X10219825Y-25625246D02*
X10219825Y-25682388D01*
X10219825Y-25682388D02*
X10210301Y-25701436D01*
X10210301Y-25701436D02*
X10200777Y-25710960D01*
X10200777Y-25710960D02*
X10181730Y-25720484D01*
X10181730Y-25720484D02*
X10153158Y-25720484D01*
X10276968Y-25587150D02*
X10353158Y-25587150D01*
X10305539Y-25520484D02*
X10305539Y-25691912D01*
X10305539Y-25691912D02*
X10315063Y-25710960D01*
X10315063Y-25710960D02*
X10334111Y-25720484D01*
X10334111Y-25720484D02*
X10353158Y-25720484D01*
X10572206Y-25587150D02*
X10572206Y-25787150D01*
X10572206Y-25596674D02*
X10591254Y-25587150D01*
X10591254Y-25587150D02*
X10629349Y-25587150D01*
X10629349Y-25587150D02*
X10648396Y-25596674D01*
X10648396Y-25596674D02*
X10657920Y-25606198D01*
X10657920Y-25606198D02*
X10667444Y-25625246D01*
X10667444Y-25625246D02*
X10667444Y-25682388D01*
X10667444Y-25682388D02*
X10657920Y-25701436D01*
X10657920Y-25701436D02*
X10648396Y-25710960D01*
X10648396Y-25710960D02*
X10629349Y-25720484D01*
X10629349Y-25720484D02*
X10591254Y-25720484D01*
X10591254Y-25720484D02*
X10572206Y-25710960D01*
X10781730Y-25720484D02*
X10762682Y-25710960D01*
X10762682Y-25710960D02*
X10753158Y-25691912D01*
X10753158Y-25691912D02*
X10753158Y-25520484D01*
X10943635Y-25720484D02*
X10943635Y-25615722D01*
X10943635Y-25615722D02*
X10934111Y-25596674D01*
X10934111Y-25596674D02*
X10915063Y-25587150D01*
X10915063Y-25587150D02*
X10876968Y-25587150D01*
X10876968Y-25587150D02*
X10857920Y-25596674D01*
X10943635Y-25710960D02*
X10924587Y-25720484D01*
X10924587Y-25720484D02*
X10876968Y-25720484D01*
X10876968Y-25720484D02*
X10857920Y-25710960D01*
X10857920Y-25710960D02*
X10848396Y-25691912D01*
X10848396Y-25691912D02*
X10848396Y-25672865D01*
X10848396Y-25672865D02*
X10857920Y-25653817D01*
X10857920Y-25653817D02*
X10876968Y-25644293D01*
X10876968Y-25644293D02*
X10924587Y-25644293D01*
X10924587Y-25644293D02*
X10943635Y-25634769D01*
X11010301Y-25587150D02*
X11086492Y-25587150D01*
X11038873Y-25520484D02*
X11038873Y-25691912D01*
X11038873Y-25691912D02*
X11048396Y-25710960D01*
X11048396Y-25710960D02*
X11067444Y-25720484D01*
X11067444Y-25720484D02*
X11086492Y-25720484D01*
X11229349Y-25710960D02*
X11210301Y-25720484D01*
X11210301Y-25720484D02*
X11172206Y-25720484D01*
X11172206Y-25720484D02*
X11153158Y-25710960D01*
X11153158Y-25710960D02*
X11143635Y-25691912D01*
X11143635Y-25691912D02*
X11143635Y-25615722D01*
X11143635Y-25615722D02*
X11153158Y-25596674D01*
X11153158Y-25596674D02*
X11172206Y-25587150D01*
X11172206Y-25587150D02*
X11210301Y-25587150D01*
X11210301Y-25587150D02*
X11229349Y-25596674D01*
X11229349Y-25596674D02*
X11238873Y-25615722D01*
X11238873Y-25615722D02*
X11238873Y-25634769D01*
X11238873Y-25634769D02*
X11143635Y-25653817D01*
X11410301Y-25720484D02*
X11410301Y-25520484D01*
X11410301Y-25710960D02*
X11391254Y-25720484D01*
X11391254Y-25720484D02*
X11353158Y-25720484D01*
X11353158Y-25720484D02*
X11334111Y-25710960D01*
X11334111Y-25710960D02*
X11324587Y-25701436D01*
X11324587Y-25701436D02*
X11315063Y-25682388D01*
X11315063Y-25682388D02*
X11315063Y-25625246D01*
X11315063Y-25625246D02*
X11324587Y-25606198D01*
X11324587Y-25606198D02*
X11334111Y-25596674D01*
X11334111Y-25596674D02*
X11353158Y-25587150D01*
X11353158Y-25587150D02*
X11391254Y-25587150D01*
X11391254Y-25587150D02*
X11410301Y-25596674D01*
X11486492Y-25796674D02*
X11496015Y-25787150D01*
X11496015Y-25787150D02*
X11515063Y-25758579D01*
X11515063Y-25758579D02*
X11524587Y-25739531D01*
X11524587Y-25739531D02*
X11534111Y-25710960D01*
X11534111Y-25710960D02*
X11543634Y-25663341D01*
X11543634Y-25663341D02*
X11543634Y-25625246D01*
X11543634Y-25625246D02*
X11534111Y-25577627D01*
X11534111Y-25577627D02*
X11524587Y-25549055D01*
X11524587Y-25549055D02*
X11515063Y-25530008D01*
X11515063Y-25530008D02*
X11496015Y-25501436D01*
X11496015Y-25501436D02*
X11486492Y-25491912D01*
M02*
