M48
; DRILL file {KiCad 8.0.8} date 2026-02-26T04:51:43+0000
; FORMAT={-:-/ absolute / inch / decimal}
; #@! TF.CreationDate,2026-02-26T04:51:43+00:00
; #@! TF.GenerationSoftware,Kicad,Pcbnew,8.0.8
; #@! TF.FileFunction,Plated,1,4,PTH
FMAT,2
INCH
; #@! TA.AperFunction,Plated,PTH,ViaDrill
T1C0.0236
; #@! TA.AperFunction,Plated,PTH,ComponentDrill
T2C0.0295
; #@! TA.AperFunction,Plated,PTH,ComponentDrill
T3C0.0300
; #@! TA.AperFunction,Plated,PTH,ComponentDrill
T4C0.0315
; #@! TA.AperFunction,Plated,PTH,ComponentDrill
T5C0.0354
; #@! TA.AperFunction,Plated,PTH,ComponentDrill
T6C0.0394
; #@! TA.AperFunction,Plated,PTH,ComponentDrill
T7C0.0433
; #@! TA.AperFunction,Plated,PTH,ComponentDrill
T8C0.0472
; #@! TA.AperFunction,Plated,PTH,ComponentDrill
T9C0.0512
; #@! TA.AperFunction,Plated,PTH,ComponentDrill
T10C0.0551
; #@! TA.AperFunction,Plated,PTH,ComponentDrill
T11C0.0591
; #@! TA.AperFunction,Plated,PTH,ComponentDrill
T12C0.0709
; #@! TA.AperFunction,Plated,PTH,ComponentDrill
T13C0.0787
; #@! TA.AperFunction,Plated,PTH,ComponentDrill
T14C0.1024
; #@! TA.AperFunction,Plated,PTH,ComponentDrill
T15C0.1339
; #@! TA.AperFunction,Plated,PTH,ComponentDrill
T16C0.1614
%
G90
G05
T1
X2.9764Y-8.7677
X3.0866Y-7.7205
X7.526Y-6.3992
X7.5591Y-6.2854
X7.563Y-6.3504
T2
X5.0996Y-8.4382
X5.1496Y-8.3882
X5.1496Y-8.4882
X6.0524Y-8.4382
X6.1024Y-8.3882
X6.1024Y-8.4882
X6.7795Y-6.8921
X6.7795Y-6.9921
X6.8295Y-6.9421
X8.5024Y-3.6575
X8.5524Y-3.7075
X8.6024Y-3.6575
X12.1654Y-3.8583
X12.1654Y-3.9583
X12.2154Y-3.9083
T3
X3.2362Y-5.0488
X3.2362Y-5.1488
X3.2362Y-5.2488
X3.2362Y-5.3488
X3.2362Y-5.4488
X3.2362Y-5.5488
X3.2362Y-5.6488
X3.2362Y-5.7488
X3.2362Y-5.8488
X3.2362Y-5.9488
X3.2362Y-6.0488
X3.2362Y-6.1488
X3.2362Y-6.2488
X3.2362Y-6.3488
X3.2362Y-6.4488
X4.2362Y-5.0488
X4.2362Y-5.1488
X4.2362Y-5.2488
X4.2362Y-5.3488
X4.2362Y-5.4488
X4.2362Y-5.5488
X4.2362Y-5.6488
X4.2362Y-5.7488
X4.2362Y-5.8488
X4.2362Y-5.9488
X4.2362Y-6.0488
X4.2362Y-6.1488
X4.2362Y-6.2488
X4.2362Y-6.3488
X4.2362Y-6.4488
T4
X2.2874Y-3.563
X2.3803Y-3.376
X2.4803Y-3.376
X2.4843Y-3.563
X2.5Y-5.6772
X2.5Y-5.8031
X2.5803Y-3.376
X2.5827Y-3.563
X2.6575Y-5.6772
X2.6575Y-5.8031
X2.6752Y-6.2854
X2.6752Y-6.3854
X2.6752Y-6.4854
X2.6752Y-6.7677
X2.6752Y-6.8677
X2.6752Y-6.9677
X2.6752Y-7.3386
X2.6752Y-7.4386
X2.6752Y-7.5386
X2.6752Y-7.8209
X2.6752Y-7.9209
X2.6752Y-8.0209
X2.6752Y-8.3858
X2.6752Y-8.4858
X2.6752Y-8.5858
X2.6752Y-8.8681
X2.6752Y-8.9681
X2.6752Y-9.0681
X2.7795Y-3.563
X2.815Y-5.6772
X2.815Y-5.8031
X2.8622Y-6.2067
X2.8622Y-6.4035
X2.8622Y-6.502
X2.8622Y-6.6988
X2.8622Y-6.8087
X2.8622Y-7.0055
X2.8622Y-7.2024
X2.8622Y-7.3992
X2.8622Y-7.4976
X2.8622Y-7.6945
X2.8622Y-7.8618
X2.8622Y-8.0587
X2.8622Y-8.2398
X2.8622Y-8.4366
X2.8622Y-8.535
X2.8622Y-8.7319
X2.8622Y-8.9386
X2.8622Y-9.1354
X2.8626Y-3.376
X2.878Y-3.563
X2.9626Y-3.376
X3.0626Y-3.376
X3.0748Y-3.563
X3.0783Y-4.0453
X3.1732Y-3.563
X3.2579Y-4.4094
X3.3449Y-3.376
X3.3701Y-3.563
X3.3783Y-4.0453
X3.4449Y-3.376
X3.4685Y-3.563
X3.5449Y-3.376
X3.5579Y-4.4094
X3.6654Y-3.563
X3.7756Y-3.374
X3.7756Y-3.5709
X3.7756Y-7.1551
X3.7756Y-7.4551
X3.7803Y-7.0335
X3.8579Y-6.7697
X3.8583Y-6.9114
X3.8815Y-7.1516
X4.0551Y-6.9114
X4.1346Y-3.376
X4.1579Y-6.7697
X4.1803Y-7.0335
X4.1815Y-7.1516
X4.1929Y-3.563
X4.2346Y-3.376
X4.3346Y-3.376
X4.3898Y-3.563
X4.489Y-9.0157
X4.4898Y-8.8287
X4.4925Y-7.5531
X4.4925Y-7.6531
X4.4925Y-7.7531
X4.4925Y-7.8531
X4.4925Y-7.9531
X4.4925Y-8.0531
X4.4925Y-8.1531
X4.4925Y-8.2531
X4.4925Y-8.3531
X4.4925Y-8.4531
X4.5594Y-3.563
X4.5669Y-4.6508
X4.5669Y-4.7508
X4.5669Y-4.8508
X4.5669Y-4.9508
X4.5669Y-5.0508
X4.5669Y-5.1508
X4.5669Y-5.2508
X4.5669Y-5.3508
X4.5669Y-5.4508
X4.5669Y-5.5508
X4.5669Y-5.6508
X4.5669Y-5.7508
X4.5669Y-5.8508
X4.5669Y-5.9508
X4.5669Y-6.0508
X4.5669Y-6.1508
X4.5669Y-6.2508
X4.5669Y-6.3508
X4.5669Y-6.4508
X4.5669Y-6.5508
X4.5669Y-6.6508
X4.5669Y-6.7508
X4.5669Y-6.8508
X4.5669Y-6.9508
X4.589Y-9.0157
X4.5906Y-8.622
X4.6169Y-3.376
X4.6656Y-4.0982
X4.6669Y-4.6508
X4.6669Y-4.7508
X4.6669Y-4.8508
X4.6669Y-4.9508
X4.6669Y-5.0508
X4.6669Y-5.1508
X4.6669Y-5.2508
X4.6669Y-5.3508
X4.6669Y-5.4508
X4.6669Y-5.5508
X4.6669Y-5.6508
X4.6669Y-5.7508
X4.6669Y-5.8508
X4.6669Y-5.9508
X4.6669Y-6.0508
X4.6669Y-6.1508
X4.6669Y-6.2508
X4.6669Y-6.3508
X4.6669Y-6.4508
X4.6669Y-6.5508
X4.6669Y-6.6508
X4.6669Y-6.7508
X4.6669Y-6.8508
X4.6669Y-6.9508
X4.689Y-9.0157
X4.7169Y-3.376
X4.7561Y-9.1772
X4.7563Y-3.563
X4.7874Y-8.622
X4.7898Y-8.8287
X4.7925Y-7.5531
X4.7925Y-7.6531
X4.7925Y-7.7531
X4.7925Y-7.8531
X4.7925Y-7.9531
X4.7925Y-8.0531
X4.7925Y-8.1531
X4.7925Y-8.2531
X4.7925Y-8.3531
X4.7925Y-8.4531
X4.8169Y-3.376
X4.8777Y-3.8861
X4.9252Y-8.2677
X4.9331Y-8.4051
X4.9331Y-8.7051
X4.935Y-7.9528
X4.935Y-8.1496
X4.9561Y-9.1772
X4.998Y-8.8508
X4.998Y-9.0476
X5.063Y-8.061
X5.063Y-8.1594
X5.122Y-8.2677
X5.1398Y-8.8264
X5.1398Y-9.1264
X5.227Y-9.2244
X5.2697Y-8.8024
X5.2697Y-9.1024
X5.427Y-9.2244
X5.4421Y-7.5531
X5.4421Y-7.6531
X5.4421Y-7.7531
X5.4421Y-7.8531
X5.4421Y-7.9531
X5.4421Y-8.0531
X5.4421Y-8.1531
X5.4421Y-8.2531
X5.4421Y-8.3531
X5.4421Y-8.4531
X5.4445Y-8.8287
X5.4469Y-9.0157
X5.5453Y-8.622
X5.5469Y-9.0157
X5.6469Y-9.0157
X5.7421Y-7.5531
X5.7421Y-7.6531
X5.7421Y-7.7531
X5.7421Y-7.8531
X5.7421Y-7.9531
X5.7421Y-8.0531
X5.7421Y-8.1531
X5.7421Y-8.2531
X5.7421Y-8.3531
X5.7421Y-8.4531
X5.7421Y-8.622
X5.7445Y-8.8287
X5.876Y-8.2638
X5.878Y-8.4051
X5.878Y-8.7051
X5.8839Y-7.9409
X5.8839Y-8.1378
X6.0138Y-8.0492
X6.0138Y-8.1476
X6.0728Y-8.2638
X6.4354Y-4.6508
X6.4354Y-4.7508
X6.4354Y-4.8508
X6.4354Y-4.9508
X6.4354Y-5.0508
X6.4354Y-5.1508
X6.4354Y-5.2508
X6.4354Y-5.3508
X6.4354Y-5.4508
X6.4354Y-5.5508
X6.4354Y-5.6508
X6.4354Y-5.7508
X6.4354Y-5.8508
X6.4354Y-5.9508
X6.4354Y-6.0508
X6.4354Y-6.1508
X6.4354Y-6.2508
X6.4354Y-6.3508
X6.4354Y-6.4508
X6.4354Y-6.5508
X6.4354Y-6.6508
X6.4354Y-6.7508
X6.4354Y-6.8508
X6.4354Y-6.9508
X6.5354Y-4.6508
X6.5354Y-4.7508
X6.5354Y-4.8508
X6.5354Y-4.9508
X6.5354Y-5.0508
X6.5354Y-5.1508
X6.5354Y-5.2508
X6.5354Y-5.3508
X6.5354Y-5.4508
X6.5354Y-5.5508
X6.5354Y-5.6508
X6.5354Y-5.7508
X6.5354Y-5.8508
X6.5354Y-5.9508
X6.5354Y-6.0508
X6.5354Y-6.1508
X6.5354Y-6.2508
X6.5354Y-6.3508
X6.5354Y-6.4508
X6.5354Y-6.5508
X6.5354Y-6.6508
X6.5354Y-6.7508
X6.5354Y-6.8508
X6.5354Y-6.9508
X6.7874Y-5.7559
X6.7874Y-5.8559
X6.7874Y-5.9559
X6.7874Y-6.0559
X6.7874Y-6.1559
X6.7874Y-6.2559
X6.7874Y-6.3559
X6.7874Y-6.4559
X6.7874Y-6.5559
X6.7874Y-6.6559
X6.8736Y-6.7795
X6.9409Y-6.2559
X6.9409Y-6.4528
X7.0874Y-5.7559
X7.0874Y-5.8559
X7.0874Y-5.9559
X7.0874Y-6.0559
X7.0874Y-6.1559
X7.0874Y-6.2559
X7.0874Y-6.3559
X7.0874Y-6.4559
X7.0874Y-6.5559
X7.0874Y-6.6559
X7.1736Y-6.7795
X7.2087Y-5.9626
X7.2087Y-6.061
X7.2087Y-6.1575
X7.2087Y-6.3543
X7.7449Y-6.248
X7.7457Y-6.4094
X7.7461Y-6.5531
X7.7461Y-6.7106
X7.8984Y-3.6811
X8.1449Y-6.248
X8.1457Y-6.4094
X8.1461Y-6.5531
X8.1461Y-6.7106
X8.2776Y-7.9165
X8.2865Y-5.0005
X8.2984Y-3.6811
X8.4156Y-7.8647
X8.4704Y-8.1463
X8.4744Y-5.0689
X8.5354Y-3.8181
X8.5354Y-4.1181
X8.6085Y-8.0945
X8.6143Y-4.8187
X8.6143Y-5.1187
X8.6883Y-4.4118
X8.6883Y-4.7118
X8.7096Y-8.189
X8.7096Y-8.489
X8.7284Y-4.8299
X8.7323Y-4.563
X8.7559Y-8.3346
X8.7638Y-8.0787
X8.7883Y-4.4118
X8.7883Y-4.7118
X8.8096Y-8.189
X8.8096Y-8.489
X8.8883Y-4.4118
X8.8883Y-4.7118
X8.9096Y-8.189
X8.9096Y-8.489
X8.9253Y-4.8299
X8.9323Y-4.563
X8.9559Y-8.3346
X8.9606Y-8.0787
X8.9883Y-4.4118
X8.9883Y-4.7118
X9.0096Y-8.189
X9.0096Y-8.489
X9.0434Y-4.8299
X9.0591Y-8.0787
X9.0709Y-4.1831
X9.0709Y-4.2815
X9.0883Y-4.4118
X9.0883Y-4.7118
X9.1096Y-8.189
X9.1096Y-8.489
X9.1673Y-8.748
X9.1772Y-8.626
X9.1883Y-4.4118
X9.1883Y-4.7118
X9.1929Y-4.0984
X9.1929Y-4.2953
X9.2096Y-8.189
X9.2096Y-8.489
X9.2403Y-4.8299
X9.2559Y-8.0787
X9.2657Y-8.748
X9.2883Y-4.4118
X9.2883Y-4.7118
X9.3096Y-8.189
X9.3096Y-8.489
X9.3629Y-4.8261
X9.374Y-8.626
X9.3835Y-5.0905
X9.4059Y-8.1023
X9.4381Y-7.7554
X9.5751Y-5.0382
X9.5913Y-7.6269
X9.5957Y-4.8783
X9.6059Y-7.7559
X10.9213Y-3.039
X10.9213Y-3.339
X10.9213Y-3.4366
X10.9213Y-3.7366
X10.9248Y-3.8425
X11.2248Y-3.8425
X11.4941Y-4.2106
X11.4941Y-4.5106
X11.7319Y-3.9429
X11.8185Y-3.6122
X11.8185Y-3.7382
X12.0319Y-3.9429
X12.1185Y-3.6122
X12.1185Y-3.7382
T5
X2.4528Y-4.0725
X2.4528Y-4.1575
X2.4528Y-4.2425
X2.4528Y-4.3275
X2.4528Y-4.4386
X2.4528Y-4.5236
X2.4528Y-4.6086
X2.4528Y-4.6936
X2.7598Y-4.0709
X2.7598Y-4.1559
X2.7598Y-4.2409
X2.7598Y-4.3259
X2.7598Y-4.437
X2.7598Y-4.522
X2.7598Y-4.607
X2.7598Y-4.692
T6
X2.3622Y-4.9543
X2.3622Y-5.0543
X2.3622Y-5.1543
X2.3622Y-5.2543
X2.3622Y-5.3543
X2.7189Y-3.8937
X2.7953Y-4.9543
X2.7953Y-5.0543
X2.7953Y-5.1543
X2.7953Y-5.2543
X2.7953Y-5.3543
X2.8189Y-3.8937
X2.9094Y-9.5079
X2.9189Y-3.8937
X3.0189Y-3.8937
X3.1189Y-3.8937
X3.1457Y-9.5079
X3.1496Y-4.2126
X3.2189Y-3.8937
X3.2496Y-4.2126
X3.3189Y-3.8937
X3.3496Y-4.2126
X3.4189Y-3.8937
X3.4496Y-4.2126
X3.6516Y-7.7264
X3.7516Y-7.7264
X4.3425Y-9.4734
X4.3425Y-9.5734
X4.4079Y-3.9764
X4.5079Y-3.9764
X6.0079Y-9.4734
X6.0079Y-9.5734
X7.0866Y-9.3898
X7.0866Y-9.626
X7.2031Y-4.8819
X7.3031Y-4.8819
X7.628Y-6.1516
X7.628Y-6.5748
X7.8937Y-4.7465
X7.9921Y-4.7465
X8.0197Y-3.1142
X8.0197Y-3.3504
X8.1185Y-8.2579
X8.2185Y-8.2579
X8.2713Y-5.1217
X8.3087Y-4.7465
X8.3756Y-7.315
X8.3819Y-3.2717
X8.4047Y-5.7453
X8.4071Y-4.7465
X8.4463Y-5.6026
X8.5529Y-7.3405
X8.6181Y-3.2717
X8.6417Y-7.8445
X8.7785Y-4.1339
X8.8785Y-4.1339
X9.608Y-8.0627
X9.6161Y-5.3445
X10.112Y-7.9739
X10.126Y-5.2999
X10.5315Y-3.5394
X10.7677Y-3.5394
X11.0492Y-5.0709
X11.0492Y-5.3661
X11.0492Y-5.8622
X11.0492Y-6.1575
X11.0492Y-6.6535
X11.0492Y-6.9488
X11.0492Y-7.4449
X11.0492Y-7.7402
X11.0492Y-8.2362
X11.0492Y-8.5315
X11.8425Y-5.0709
X11.8425Y-5.3661
X11.8425Y-5.8622
X11.8425Y-6.1575
X11.8425Y-6.6535
X11.8425Y-6.9488
X11.8425Y-7.4449
X11.8425Y-7.7402
X11.8425Y-8.2362
X11.8425Y-8.5315
X12.6339Y-5.0709
X12.6339Y-5.3661
X12.6339Y-5.8622
X12.6339Y-6.1575
X12.6339Y-6.6535
X12.6339Y-6.9488
X12.6339Y-7.4449
X12.6339Y-7.7402
X12.6339Y-8.2362
X12.6339Y-8.5315
X13.4252Y-5.0709
X13.4252Y-5.3661
X13.4252Y-5.8622
X13.4252Y-6.1575
X13.4252Y-6.6535
X13.4252Y-6.9488
X13.4252Y-7.4449
X13.4252Y-7.7402
X13.4252Y-8.2362
X13.4252Y-8.5315
X13.8681Y-3.7087
X13.8681Y-3.8917
X13.8681Y-4.0748
T7
X8.3651Y-5.2252
X8.3665Y-7.7362
X8.4651Y-5.3788
X8.4665Y-7.5827
X8.5651Y-5.2252
X8.5665Y-7.7362
X9.0315Y-4.563
X9.0514Y-8.3346
X9.3315Y-4.563
X9.3514Y-8.3346
X9.7249Y-5.0134
X9.7249Y-5.2134
X9.7264Y-7.7465
X9.7264Y-7.9465
X9.8784Y-5.1134
X9.8799Y-7.8465
T8
X3.3247Y-8.002
X3.3247Y-9.565
X4.0137Y-8.002
X4.0137Y-9.565
X5.1043Y-3.2894
X5.1043Y-3.9783
X6.6673Y-3.2894
X6.6673Y-3.9783
X6.8957Y-8.4744
X6.8957Y-9.1634
X6.9114Y-3.0846
X6.9114Y-4.6476
X7.6004Y-3.0846
X7.6004Y-4.6476
X7.8661Y-3.9311
X8.3386Y-3.9311
X8.4587Y-8.4744
X8.4587Y-9.1634
X8.7854Y-3.2267
X8.7854Y-3.9156
X10.3484Y-3.2267
X10.3484Y-3.9156
X10.8386Y-4.0689
X11.311Y-4.0689
X11.7362Y-4.1417
X11.7362Y-4.6142
T9
X8.5925Y-6.2835
X8.5925Y-6.4803
X8.5925Y-6.6772
T10
X11.0657Y-3.3071
X11.95Y-3.3071
T11
X7.8661Y-4.4114
X8.1024Y-3.8524
X8.3386Y-4.4114
X10.8386Y-4.5492
X11.0748Y-3.9902
X11.311Y-4.5492
X11.6575Y-4.378
X12.2165Y-4.1417
X12.2165Y-4.6142
T12
X8.9469Y-6.2835
X8.9469Y-6.6772
T13
X10.3642Y-9.6063
X13.5138Y-9.6063
T14
X7.9631Y-5.4812
X7.965Y-7.4794
X8.9631Y-5.4812
X8.965Y-7.4794
X9.9808Y-4.615
X9.9808Y-5.615
X9.9827Y-7.3465
X9.9827Y-8.3465
T15
X2.0669Y-2.8661
X2.0669Y-9.5512
X7.9724Y-2.8661
X7.9724Y-9.5512
X13.878Y-2.8661
X13.878Y-9.5512
T16
X11.063Y-9.6063
X12.815Y-9.6063
T8
G00X4.5768Y-9.3386
M15
G01X4.6083Y-9.3386
M16
G05
G00X4.5768Y-9.6142
M15
G01X4.6083Y-9.6142
M16
G05
G00X4.7736Y-9.3386
M15
G01X4.8051Y-9.3386
M16
G05
G00X4.7736Y-9.6142
M15
G01X4.8051Y-9.6142
M16
G05
G00X5.5295Y-9.3386
M15
G01X5.561Y-9.3386
M16
G05
G00X5.5295Y-9.6142
M15
G01X5.561Y-9.6142
M16
G05
G00X5.7264Y-9.3386
M15
G01X5.7579Y-9.3386
M16
G05
G00X5.7264Y-9.6142
M15
G01X5.7579Y-9.6142
M16
G05
T10
G00X9.4606Y-6.1358
M15
G01X9.4606Y-6.1083
M16
G05
G00X9.4606Y-6.3327
M15
G01X9.4606Y-6.3051
M16
G05
G00X9.4626Y-6.6516
M15
G01X9.4626Y-6.624
M16
G05
G00X9.4626Y-6.8484
M15
G01X9.4626Y-6.8209
M16
G05
G00X9.8543Y-6.1358
M15
G01X9.8543Y-6.1083
M16
G05
G00X9.8543Y-6.3327
M15
G01X9.8543Y-6.3051
M16
G05
G00X9.8563Y-6.6516
M15
G01X9.8563Y-6.624
M16
G05
G00X9.8563Y-6.8484
M15
G01X9.8563Y-6.8209
M16
G05
G00X12.3858Y-3.1555
M15
G01X12.3858Y-3.128
M16
G05
G00X12.3858Y-3.3524
M15
G01X12.3858Y-3.3248
M16
G05
G00X12.7795Y-3.1555
M15
G01X12.7795Y-3.128
M16
G05
G00X12.7795Y-3.3524
M15
G01X12.7795Y-3.3248
M16
G05
G00X13.2598Y-3.1516
M15
G01X13.2598Y-3.124
M16
G05
G00X13.2598Y-3.3484
M15
G01X13.2598Y-3.3209
M16
G05
G00X13.6535Y-3.1516
M15
G01X13.6535Y-3.124
M16
G05
G00X13.6535Y-3.3484
M15
G01X13.6535Y-3.3209
M16
G05
M30
