M48
; DRILL file {KiCad 8.0.8} date 2026-02-26T04:51:43+0000
; FORMAT={-:-/ absolute / inch / decimal}
; #@! TF.CreationDate,2026-02-26T04:51:43+00:00
; #@! TF.GenerationSoftware,Kicad,Pcbnew,8.0.8
; #@! TF.FileFunction,NonPlated,1,4,NPTH
FMAT,2
INCH
; #@! TA.AperFunction,NonPlated,NPTH,ComponentDrill
T1C0.1024
%
G90
G05
T1
X2.3303Y-3.2283
X2.5276Y-6.2354
X2.5276Y-6.5354
X2.5276Y-6.7177
X2.5276Y-7.0177
X2.5276Y-7.2886
X2.5276Y-7.5886
X2.5276Y-7.7709
X2.5276Y-8.0709
X2.5276Y-8.3358
X2.5276Y-8.6358
X2.5276Y-8.8181
X2.5276Y-9.1181
X2.6303Y-3.2283
X2.8126Y-3.2283
X3.1126Y-3.2283
X3.2949Y-3.2283
X3.5949Y-3.2283
X4.0846Y-3.2283
X4.3846Y-3.2283
X4.5669Y-3.2283
X4.8669Y-3.2283
M30
