%TF.GenerationSoftware,KiCad,Pcbnew,8.0.8*%
%TF.CreationDate,2026-02-28T15:48:15+00:00*%
%TF.ProjectId,HVPSController2,48565053-436f-46e7-9472-6f6c6c657232,rev?*%
%TF.SameCoordinates,Original*%
%TF.FileFunction,Legend,Bot*%
%TF.FilePolarity,Positive*%
%FSLAX46Y46*%
G04 Gerber Fmt 4.6, Leading zero omitted, Abs format (unit mm)*
G04 Created by KiCad (PCBNEW 8.0.8) date 2026-02-28 15:48:15*
%MOMM*%
%LPD*%
G01*
G04 APERTURE LIST*
%ADD10C,0.150000*%
%ADD11C,0.100000*%
%ADD12C,0.120000*%
G04 APERTURE END LIST*
D10*
X183459580Y-158257142D02*
X183507200Y-158209523D01*
X183507200Y-158209523D02*
X183554819Y-158066666D01*
X183554819Y-158066666D02*
X183554819Y-157971428D01*
X183554819Y-157971428D02*
X183507200Y-157828571D01*
X183507200Y-157828571D02*
X183411961Y-157733333D01*
X183411961Y-157733333D02*
X183316723Y-157685714D01*
X183316723Y-157685714D02*
X183126247Y-157638095D01*
X183126247Y-157638095D02*
X182983390Y-157638095D01*
X182983390Y-157638095D02*
X182792914Y-157685714D01*
X182792914Y-157685714D02*
X182697676Y-157733333D01*
X182697676Y-157733333D02*
X182602438Y-157828571D01*
X182602438Y-157828571D02*
X182554819Y-157971428D01*
X182554819Y-157971428D02*
X182554819Y-158066666D01*
X182554819Y-158066666D02*
X182602438Y-158209523D01*
X182602438Y-158209523D02*
X182650057Y-158257142D01*
X182554819Y-159161904D02*
X182554819Y-158685714D01*
X182554819Y-158685714D02*
X183031009Y-158638095D01*
X183031009Y-158638095D02*
X182983390Y-158685714D01*
X182983390Y-158685714D02*
X182935771Y-158780952D01*
X182935771Y-158780952D02*
X182935771Y-159019047D01*
X182935771Y-159019047D02*
X182983390Y-159114285D01*
X182983390Y-159114285D02*
X183031009Y-159161904D01*
X183031009Y-159161904D02*
X183126247Y-159209523D01*
X183126247Y-159209523D02*
X183364342Y-159209523D01*
X183364342Y-159209523D02*
X183459580Y-159161904D01*
X183459580Y-159161904D02*
X183507200Y-159114285D01*
X183507200Y-159114285D02*
X183554819Y-159019047D01*
X183554819Y-159019047D02*
X183554819Y-158780952D01*
X183554819Y-158780952D02*
X183507200Y-158685714D01*
X183507200Y-158685714D02*
X183459580Y-158638095D01*
X182554819Y-160114285D02*
X182554819Y-159638095D01*
X182554819Y-159638095D02*
X183031009Y-159590476D01*
X183031009Y-159590476D02*
X182983390Y-159638095D01*
X182983390Y-159638095D02*
X182935771Y-159733333D01*
X182935771Y-159733333D02*
X182935771Y-159971428D01*
X182935771Y-159971428D02*
X182983390Y-160066666D01*
X182983390Y-160066666D02*
X183031009Y-160114285D01*
X183031009Y-160114285D02*
X183126247Y-160161904D01*
X183126247Y-160161904D02*
X183364342Y-160161904D01*
X183364342Y-160161904D02*
X183459580Y-160114285D01*
X183459580Y-160114285D02*
X183507200Y-160066666D01*
X183507200Y-160066666D02*
X183554819Y-159971428D01*
X183554819Y-159971428D02*
X183554819Y-159733333D01*
X183554819Y-159733333D02*
X183507200Y-159638095D01*
X183507200Y-159638095D02*
X183459580Y-159590476D01*
D11*
X242827178Y-136209087D02*
X242115610Y-136271342D01*
X242115610Y-136271342D02*
X241977447Y-136331230D01*
X241977447Y-136331230D02*
X241890872Y-136434406D01*
X241890872Y-136434406D02*
X241855885Y-136580870D01*
X241855885Y-136580870D02*
X241864185Y-136675746D01*
X242793975Y-135829585D02*
X242740022Y-135212893D01*
X242740022Y-135212893D02*
X242389571Y-135578160D01*
X242389571Y-135578160D02*
X242377120Y-135435846D01*
X242377120Y-135435846D02*
X242321382Y-135345121D01*
X242321382Y-135345121D02*
X242269794Y-135301833D01*
X242269794Y-135301833D02*
X242170768Y-135262696D01*
X242170768Y-135262696D02*
X241933579Y-135283447D01*
X241933579Y-135283447D02*
X241842853Y-135339186D01*
X241842853Y-135339186D02*
X241799566Y-135390774D01*
X241799566Y-135390774D02*
X241760428Y-135489800D01*
X241760428Y-135489800D02*
X241785330Y-135774427D01*
X241785330Y-135774427D02*
X241841068Y-135865152D01*
X241841068Y-135865152D02*
X241892656Y-135908440D01*
D10*
X183459580Y-148157142D02*
X183507200Y-148109523D01*
X183507200Y-148109523D02*
X183554819Y-147966666D01*
X183554819Y-147966666D02*
X183554819Y-147871428D01*
X183554819Y-147871428D02*
X183507200Y-147728571D01*
X183507200Y-147728571D02*
X183411961Y-147633333D01*
X183411961Y-147633333D02*
X183316723Y-147585714D01*
X183316723Y-147585714D02*
X183126247Y-147538095D01*
X183126247Y-147538095D02*
X182983390Y-147538095D01*
X182983390Y-147538095D02*
X182792914Y-147585714D01*
X182792914Y-147585714D02*
X182697676Y-147633333D01*
X182697676Y-147633333D02*
X182602438Y-147728571D01*
X182602438Y-147728571D02*
X182554819Y-147871428D01*
X182554819Y-147871428D02*
X182554819Y-147966666D01*
X182554819Y-147966666D02*
X182602438Y-148109523D01*
X182602438Y-148109523D02*
X182650057Y-148157142D01*
X182554819Y-149061904D02*
X182554819Y-148585714D01*
X182554819Y-148585714D02*
X183031009Y-148538095D01*
X183031009Y-148538095D02*
X182983390Y-148585714D01*
X182983390Y-148585714D02*
X182935771Y-148680952D01*
X182935771Y-148680952D02*
X182935771Y-148919047D01*
X182935771Y-148919047D02*
X182983390Y-149014285D01*
X182983390Y-149014285D02*
X183031009Y-149061904D01*
X183031009Y-149061904D02*
X183126247Y-149109523D01*
X183126247Y-149109523D02*
X183364342Y-149109523D01*
X183364342Y-149109523D02*
X183459580Y-149061904D01*
X183459580Y-149061904D02*
X183507200Y-149014285D01*
X183507200Y-149014285D02*
X183554819Y-148919047D01*
X183554819Y-148919047D02*
X183554819Y-148680952D01*
X183554819Y-148680952D02*
X183507200Y-148585714D01*
X183507200Y-148585714D02*
X183459580Y-148538095D01*
X182554819Y-149966666D02*
X182554819Y-149776190D01*
X182554819Y-149776190D02*
X182602438Y-149680952D01*
X182602438Y-149680952D02*
X182650057Y-149633333D01*
X182650057Y-149633333D02*
X182792914Y-149538095D01*
X182792914Y-149538095D02*
X182983390Y-149490476D01*
X182983390Y-149490476D02*
X183364342Y-149490476D01*
X183364342Y-149490476D02*
X183459580Y-149538095D01*
X183459580Y-149538095D02*
X183507200Y-149585714D01*
X183507200Y-149585714D02*
X183554819Y-149680952D01*
X183554819Y-149680952D02*
X183554819Y-149871428D01*
X183554819Y-149871428D02*
X183507200Y-149966666D01*
X183507200Y-149966666D02*
X183459580Y-150014285D01*
X183459580Y-150014285D02*
X183364342Y-150061904D01*
X183364342Y-150061904D02*
X183126247Y-150061904D01*
X183126247Y-150061904D02*
X183031009Y-150014285D01*
X183031009Y-150014285D02*
X182983390Y-149966666D01*
X182983390Y-149966666D02*
X182935771Y-149871428D01*
X182935771Y-149871428D02*
X182935771Y-149680952D01*
X182935771Y-149680952D02*
X182983390Y-149585714D01*
X182983390Y-149585714D02*
X183031009Y-149538095D01*
X183031009Y-149538095D02*
X183126247Y-149490476D01*
D11*
X243007603Y-204336346D02*
X242304169Y-204460380D01*
X242304169Y-204460380D02*
X242171751Y-204532083D01*
X242171751Y-204532083D02*
X242094498Y-204642412D01*
X242094498Y-204642412D02*
X242072409Y-204791368D01*
X242072409Y-204791368D02*
X242088947Y-204885159D01*
X242842224Y-203398433D02*
X242924914Y-203867389D01*
X242924914Y-203867389D02*
X242464226Y-203996975D01*
X242464226Y-203996975D02*
X242502853Y-203941810D01*
X242502853Y-203941810D02*
X242533211Y-203839750D01*
X242533211Y-203839750D02*
X242491866Y-203605272D01*
X242491866Y-203605272D02*
X242428432Y-203519750D01*
X242428432Y-203519750D02*
X242373268Y-203481123D01*
X242373268Y-203481123D02*
X242271208Y-203450765D01*
X242271208Y-203450765D02*
X242036730Y-203492110D01*
X242036730Y-203492110D02*
X241951207Y-203555544D01*
X241951207Y-203555544D02*
X241912581Y-203610708D01*
X241912581Y-203610708D02*
X241882223Y-203712768D01*
X241882223Y-203712768D02*
X241923568Y-203947246D01*
X241923568Y-203947246D02*
X241987001Y-204032769D01*
X241987001Y-204032769D02*
X242042166Y-204071395D01*
X221444051Y-200467779D02*
X221568085Y-201171213D01*
X221568085Y-201171213D02*
X221639788Y-201303631D01*
X221639788Y-201303631D02*
X221750117Y-201380884D01*
X221750117Y-201380884D02*
X221899073Y-201402973D01*
X221899073Y-201402973D02*
X221992864Y-201386435D01*
X221068886Y-200533931D02*
X220412347Y-200649696D01*
X220412347Y-200649696D02*
X221008056Y-201560083D01*
D10*
X234224285Y-116343569D02*
X234224285Y-115343569D01*
X234224285Y-115343569D02*
X233986190Y-115343569D01*
X233986190Y-115343569D02*
X233843333Y-115391188D01*
X233843333Y-115391188D02*
X233748095Y-115486426D01*
X233748095Y-115486426D02*
X233700476Y-115581664D01*
X233700476Y-115581664D02*
X233652857Y-115772140D01*
X233652857Y-115772140D02*
X233652857Y-115914997D01*
X233652857Y-115914997D02*
X233700476Y-116105473D01*
X233700476Y-116105473D02*
X233748095Y-116200711D01*
X233748095Y-116200711D02*
X233843333Y-116295950D01*
X233843333Y-116295950D02*
X233986190Y-116343569D01*
X233986190Y-116343569D02*
X234224285Y-116343569D01*
X232700476Y-116343569D02*
X233271904Y-116343569D01*
X232986190Y-116343569D02*
X232986190Y-115343569D01*
X232986190Y-115343569D02*
X233081428Y-115486426D01*
X233081428Y-115486426D02*
X233176666Y-115581664D01*
X233176666Y-115581664D02*
X233271904Y-115629283D01*
X231843333Y-115676902D02*
X231843333Y-116343569D01*
X232081428Y-115295950D02*
X232319523Y-116010235D01*
X232319523Y-116010235D02*
X231700476Y-116010235D01*
X239271904Y-116343569D02*
X239271904Y-115343569D01*
X238700476Y-116343569D02*
X239129047Y-115772140D01*
X238700476Y-115343569D02*
X239271904Y-115914997D01*
X218349819Y-210571905D02*
X219159342Y-210571905D01*
X219159342Y-210571905D02*
X219254580Y-210619524D01*
X219254580Y-210619524D02*
X219302200Y-210667143D01*
X219302200Y-210667143D02*
X219349819Y-210762381D01*
X219349819Y-210762381D02*
X219349819Y-210952857D01*
X219349819Y-210952857D02*
X219302200Y-211048095D01*
X219302200Y-211048095D02*
X219254580Y-211095714D01*
X219254580Y-211095714D02*
X219159342Y-211143333D01*
X219159342Y-211143333D02*
X218349819Y-211143333D01*
X218445057Y-211571905D02*
X218397438Y-211619524D01*
X218397438Y-211619524D02*
X218349819Y-211714762D01*
X218349819Y-211714762D02*
X218349819Y-211952857D01*
X218349819Y-211952857D02*
X218397438Y-212048095D01*
X218397438Y-212048095D02*
X218445057Y-212095714D01*
X218445057Y-212095714D02*
X218540295Y-212143333D01*
X218540295Y-212143333D02*
X218635533Y-212143333D01*
X218635533Y-212143333D02*
X218778390Y-212095714D01*
X218778390Y-212095714D02*
X219349819Y-211524286D01*
X219349819Y-211524286D02*
X219349819Y-212143333D01*
X218683152Y-213000476D02*
X219349819Y-213000476D01*
X218302200Y-212762381D02*
X219016485Y-212524286D01*
X219016485Y-212524286D02*
X219016485Y-213143333D01*
X179042857Y-172654819D02*
X179376190Y-172178628D01*
X179614285Y-172654819D02*
X179614285Y-171654819D01*
X179614285Y-171654819D02*
X179233333Y-171654819D01*
X179233333Y-171654819D02*
X179138095Y-171702438D01*
X179138095Y-171702438D02*
X179090476Y-171750057D01*
X179090476Y-171750057D02*
X179042857Y-171845295D01*
X179042857Y-171845295D02*
X179042857Y-171988152D01*
X179042857Y-171988152D02*
X179090476Y-172083390D01*
X179090476Y-172083390D02*
X179138095Y-172131009D01*
X179138095Y-172131009D02*
X179233333Y-172178628D01*
X179233333Y-172178628D02*
X179614285Y-172178628D01*
X178090476Y-172654819D02*
X178661904Y-172654819D01*
X178376190Y-172654819D02*
X178376190Y-171654819D01*
X178376190Y-171654819D02*
X178471428Y-171797676D01*
X178471428Y-171797676D02*
X178566666Y-171892914D01*
X178566666Y-171892914D02*
X178661904Y-171940533D01*
X177233333Y-171988152D02*
X177233333Y-172654819D01*
X177471428Y-171607200D02*
X177709523Y-172321485D01*
X177709523Y-172321485D02*
X177090476Y-172321485D01*
X225015357Y-117643569D02*
X225348690Y-117167378D01*
X225586785Y-117643569D02*
X225586785Y-116643569D01*
X225586785Y-116643569D02*
X225205833Y-116643569D01*
X225205833Y-116643569D02*
X225110595Y-116691188D01*
X225110595Y-116691188D02*
X225062976Y-116738807D01*
X225062976Y-116738807D02*
X225015357Y-116834045D01*
X225015357Y-116834045D02*
X225015357Y-116976902D01*
X225015357Y-116976902D02*
X225062976Y-117072140D01*
X225062976Y-117072140D02*
X225110595Y-117119759D01*
X225110595Y-117119759D02*
X225205833Y-117167378D01*
X225205833Y-117167378D02*
X225586785Y-117167378D01*
X224682023Y-116643569D02*
X224062976Y-116643569D01*
X224062976Y-116643569D02*
X224396309Y-117024521D01*
X224396309Y-117024521D02*
X224253452Y-117024521D01*
X224253452Y-117024521D02*
X224158214Y-117072140D01*
X224158214Y-117072140D02*
X224110595Y-117119759D01*
X224110595Y-117119759D02*
X224062976Y-117214997D01*
X224062976Y-117214997D02*
X224062976Y-117453092D01*
X224062976Y-117453092D02*
X224110595Y-117548330D01*
X224110595Y-117548330D02*
X224158214Y-117595950D01*
X224158214Y-117595950D02*
X224253452Y-117643569D01*
X224253452Y-117643569D02*
X224539166Y-117643569D01*
X224539166Y-117643569D02*
X224634404Y-117595950D01*
X224634404Y-117595950D02*
X224682023Y-117548330D01*
X223205833Y-116643569D02*
X223396309Y-116643569D01*
X223396309Y-116643569D02*
X223491547Y-116691188D01*
X223491547Y-116691188D02*
X223539166Y-116738807D01*
X223539166Y-116738807D02*
X223634404Y-116881664D01*
X223634404Y-116881664D02*
X223682023Y-117072140D01*
X223682023Y-117072140D02*
X223682023Y-117453092D01*
X223682023Y-117453092D02*
X223634404Y-117548330D01*
X223634404Y-117548330D02*
X223586785Y-117595950D01*
X223586785Y-117595950D02*
X223491547Y-117643569D01*
X223491547Y-117643569D02*
X223301071Y-117643569D01*
X223301071Y-117643569D02*
X223205833Y-117595950D01*
X223205833Y-117595950D02*
X223158214Y-117548330D01*
X223158214Y-117548330D02*
X223110595Y-117453092D01*
X223110595Y-117453092D02*
X223110595Y-117214997D01*
X223110595Y-117214997D02*
X223158214Y-117119759D01*
X223158214Y-117119759D02*
X223205833Y-117072140D01*
X223205833Y-117072140D02*
X223301071Y-117024521D01*
X223301071Y-117024521D02*
X223491547Y-117024521D01*
X223491547Y-117024521D02*
X223586785Y-117072140D01*
X223586785Y-117072140D02*
X223634404Y-117119759D01*
X223634404Y-117119759D02*
X223682023Y-117214997D01*
X241986174Y-126297036D02*
X241885159Y-125724617D01*
X242390235Y-125892975D02*
X241683128Y-125185869D01*
X241683128Y-125185869D02*
X241413754Y-125455243D01*
X241413754Y-125455243D02*
X241380082Y-125556258D01*
X241380082Y-125556258D02*
X241380082Y-125623601D01*
X241380082Y-125623601D02*
X241413754Y-125724617D01*
X241413754Y-125724617D02*
X241514769Y-125825632D01*
X241514769Y-125825632D02*
X241615785Y-125859304D01*
X241615785Y-125859304D02*
X241683128Y-125859304D01*
X241683128Y-125859304D02*
X241784143Y-125825632D01*
X241784143Y-125825632D02*
X242053517Y-125556258D01*
X241077037Y-125926647D02*
X241009693Y-125926647D01*
X241009693Y-125926647D02*
X240908678Y-125960319D01*
X240908678Y-125960319D02*
X240740319Y-126128678D01*
X240740319Y-126128678D02*
X240706647Y-126229693D01*
X240706647Y-126229693D02*
X240706647Y-126297036D01*
X240706647Y-126297036D02*
X240740319Y-126398052D01*
X240740319Y-126398052D02*
X240807663Y-126465395D01*
X240807663Y-126465395D02*
X240942350Y-126532739D01*
X240942350Y-126532739D02*
X241750472Y-126532739D01*
X241750472Y-126532739D02*
X241312739Y-126970471D01*
X240369930Y-126499067D02*
X239932197Y-126936800D01*
X239932197Y-126936800D02*
X240437273Y-126970472D01*
X240437273Y-126970472D02*
X240336258Y-127071487D01*
X240336258Y-127071487D02*
X240302586Y-127172502D01*
X240302586Y-127172502D02*
X240302586Y-127239846D01*
X240302586Y-127239846D02*
X240336258Y-127340861D01*
X240336258Y-127340861D02*
X240504617Y-127509220D01*
X240504617Y-127509220D02*
X240605632Y-127542891D01*
X240605632Y-127542891D02*
X240672975Y-127542891D01*
X240672975Y-127542891D02*
X240773991Y-127509220D01*
X240773991Y-127509220D02*
X240976021Y-127307189D01*
X240976021Y-127307189D02*
X241009693Y-127206174D01*
X241009693Y-127206174D02*
X241009693Y-127138830D01*
D11*
X212002342Y-129723866D02*
X211758042Y-129052657D01*
X211758042Y-129052657D02*
X211664435Y-128934701D01*
X211664435Y-128934701D02*
X211542367Y-128877780D01*
X211542367Y-128877780D02*
X211391838Y-128881893D01*
X211391838Y-128881893D02*
X211302344Y-128914466D01*
X212852540Y-129414419D02*
X212673551Y-129479565D01*
X212673551Y-129479565D02*
X212567770Y-129467391D01*
X212567770Y-129467391D02*
X212506736Y-129438931D01*
X212506736Y-129438931D02*
X212368382Y-129337262D01*
X212368382Y-129337262D02*
X212258488Y-129174560D01*
X212258488Y-129174560D02*
X212128194Y-128816582D01*
X212128194Y-128816582D02*
X212140368Y-128710801D01*
X212140368Y-128710801D02*
X212168829Y-128649767D01*
X212168829Y-128649767D02*
X212242037Y-128572446D01*
X212242037Y-128572446D02*
X212421026Y-128507299D01*
X212421026Y-128507299D02*
X212526807Y-128519473D01*
X212526807Y-128519473D02*
X212587841Y-128547934D01*
X212587841Y-128547934D02*
X212665162Y-128621142D01*
X212665162Y-128621142D02*
X212746595Y-128844878D01*
X212746595Y-128844878D02*
X212734421Y-128950659D01*
X212734421Y-128950659D02*
X212705960Y-129011693D01*
X212705960Y-129011693D02*
X212632752Y-129089014D01*
X212632752Y-129089014D02*
X212453763Y-129154161D01*
X212453763Y-129154161D02*
X212347982Y-129141987D01*
X212347982Y-129141987D02*
X212286948Y-129113526D01*
X212286948Y-129113526D02*
X212209628Y-129040318D01*
D10*
X176659580Y-160757142D02*
X176707200Y-160709523D01*
X176707200Y-160709523D02*
X176754819Y-160566666D01*
X176754819Y-160566666D02*
X176754819Y-160471428D01*
X176754819Y-160471428D02*
X176707200Y-160328571D01*
X176707200Y-160328571D02*
X176611961Y-160233333D01*
X176611961Y-160233333D02*
X176516723Y-160185714D01*
X176516723Y-160185714D02*
X176326247Y-160138095D01*
X176326247Y-160138095D02*
X176183390Y-160138095D01*
X176183390Y-160138095D02*
X175992914Y-160185714D01*
X175992914Y-160185714D02*
X175897676Y-160233333D01*
X175897676Y-160233333D02*
X175802438Y-160328571D01*
X175802438Y-160328571D02*
X175754819Y-160471428D01*
X175754819Y-160471428D02*
X175754819Y-160566666D01*
X175754819Y-160566666D02*
X175802438Y-160709523D01*
X175802438Y-160709523D02*
X175850057Y-160757142D01*
X175754819Y-161661904D02*
X175754819Y-161185714D01*
X175754819Y-161185714D02*
X176231009Y-161138095D01*
X176231009Y-161138095D02*
X176183390Y-161185714D01*
X176183390Y-161185714D02*
X176135771Y-161280952D01*
X176135771Y-161280952D02*
X176135771Y-161519047D01*
X176135771Y-161519047D02*
X176183390Y-161614285D01*
X176183390Y-161614285D02*
X176231009Y-161661904D01*
X176231009Y-161661904D02*
X176326247Y-161709523D01*
X176326247Y-161709523D02*
X176564342Y-161709523D01*
X176564342Y-161709523D02*
X176659580Y-161661904D01*
X176659580Y-161661904D02*
X176707200Y-161614285D01*
X176707200Y-161614285D02*
X176754819Y-161519047D01*
X176754819Y-161519047D02*
X176754819Y-161280952D01*
X176754819Y-161280952D02*
X176707200Y-161185714D01*
X176707200Y-161185714D02*
X176659580Y-161138095D01*
X176088152Y-162566666D02*
X176754819Y-162566666D01*
X175707200Y-162328571D02*
X176421485Y-162090476D01*
X176421485Y-162090476D02*
X176421485Y-162709523D01*
D12*
%TO.C,C55*%
X181730000Y-155280000D02*
X181730000Y-162520000D01*
X181730000Y-155280000D02*
X184470000Y-155280000D01*
X181730000Y-162520000D02*
X184470000Y-162520000D01*
X184470000Y-155280000D02*
X184470000Y-162520000D01*
%TO.C,C56*%
X181730000Y-150580000D02*
X181730000Y-154820000D01*
X181730000Y-150580000D02*
X182435000Y-150580000D01*
X181730000Y-154820000D02*
X182435000Y-154820000D01*
X183765000Y-150580000D02*
X184470000Y-150580000D01*
X183765000Y-154820000D02*
X184470000Y-154820000D01*
X184470000Y-150580000D02*
X184470000Y-154820000D01*
%TO.C,D14*%
X230490000Y-114430000D02*
X235930000Y-114430000D01*
X230490000Y-114560000D02*
X230490000Y-114430000D01*
X230490000Y-117240000D02*
X230490000Y-117370000D01*
X230490000Y-117370000D02*
X235930000Y-117370000D01*
X234910000Y-117370000D02*
X234910000Y-114430000D01*
X235030000Y-117370000D02*
X235030000Y-114430000D01*
X235150000Y-117370000D02*
X235150000Y-114430000D01*
X235930000Y-114430000D02*
X235930000Y-114560000D01*
X235930000Y-117370000D02*
X235930000Y-117240000D01*
%TO.C,U24*%
X219835000Y-206560000D02*
X219835000Y-217060000D01*
X219835000Y-217060000D02*
X237855000Y-217060000D01*
X219895000Y-209560000D02*
X219895000Y-210810000D01*
X219895000Y-212810000D02*
X219895000Y-214060000D01*
X219895000Y-214060000D02*
X237795000Y-214060000D01*
X237795000Y-209560000D02*
X219895000Y-209560000D01*
X237855000Y-206560000D02*
X219835000Y-206560000D01*
X237855000Y-209560000D02*
X237855000Y-206560000D01*
X237855000Y-217060000D02*
X237855000Y-214060000D01*
X219895000Y-210810000D02*
G75*
G02*
X219895000Y-212810000I0J-1000000D01*
G01*
%TO.C,R14*%
X175130000Y-170830000D02*
X181670000Y-170830000D01*
X175130000Y-171160000D02*
X175130000Y-170830000D01*
X175130000Y-173240000D02*
X175130000Y-173570000D01*
X175130000Y-173570000D02*
X181670000Y-173570000D01*
X181670000Y-170830000D02*
X181670000Y-171160000D01*
X181670000Y-173570000D02*
X181670000Y-173240000D01*
%TO.C,R36*%
X225780000Y-115900000D02*
X223170000Y-115900000D01*
X223170000Y-115900000D02*
G75*
G02*
X220430000Y-115900000I-1370000J0D01*
G01*
X220430000Y-115900000D02*
G75*
G02*
X223170000Y-115900000I1370000J0D01*
G01*
%TO.C,R23*%
X237754948Y-127947580D02*
X242379426Y-123323101D01*
X237988293Y-128180925D02*
X237754948Y-127947580D01*
X239459075Y-129651707D02*
X239692420Y-129885052D01*
X239692420Y-129885052D02*
X244316899Y-125260574D01*
X242379426Y-123323101D02*
X242612771Y-123556447D01*
X244316899Y-125260574D02*
X244083553Y-125027229D01*
%TO.C,C54*%
X174930000Y-157780000D02*
X174930000Y-165020000D01*
X174930000Y-157780000D02*
X177670000Y-157780000D01*
X174930000Y-165020000D02*
X177670000Y-165020000D01*
X177670000Y-157780000D02*
X177670000Y-165020000D01*
%TD*%
M02*
