M48
; DRILL file {KiCad 8.0.8} date 2025-05-01T13:08:31+0100
; FORMAT={-:-/ absolute / metric / decimal}
; #@! TF.CreationDate,2025-05-01T13:08:31+01:00
; #@! TF.GenerationSoftware,Kicad,Pcbnew,8.0.8
; #@! TF.FileFunction,Plated,1,2,PTH
FMAT,2
METRIC
; #@! TA.AperFunction,Plated,PTH,ComponentDrill
T1C1.000
; #@! TA.AperFunction,Plated,PTH,ComponentDrill
T2C1.100
; #@! TA.AperFunction,Plated,PTH,ComponentDrill
T3C1.200
; #@! TA.AperFunction,Plated,PTH,ComponentDrill
T4C3.200
%
G90
G05
T1
X39.5Y-84.5
X39.5Y-96.5
X39.5Y-106.5
X39.5Y-116.5
X39.5Y-128.5
X39.5Y-138.5
X39.5Y-148.5
X39.5Y-160.5
X39.5Y-170.5
X39.5Y-180.5
X39.5Y-192.5
X39.5Y-202.5
X39.5Y-212.5
X39.5Y-224.5
X39.5Y-234.5
X39.5Y-244.5
X40.0Y-64.5
X40.0Y-74.5
X48.0Y-84.5
X48.0Y-96.5
X48.0Y-106.5
X48.0Y-116.5
X48.0Y-128.5
X48.0Y-138.5
X48.0Y-148.5
X48.0Y-160.5
X48.0Y-170.5
X48.0Y-180.5
X48.0Y-192.5
X48.0Y-202.5
X48.0Y-212.5
X48.0Y-224.5
X48.0Y-234.5
X48.0Y-244.5
X48.5Y-64.5
X48.5Y-74.5
X134.5Y-51.5
X134.5Y-61.5
X134.5Y-71.5
X134.5Y-83.5
X134.5Y-93.5
X134.5Y-103.5
X134.5Y-115.5
X134.5Y-125.5
X134.5Y-135.5
X134.5Y-147.5
X134.5Y-157.5
X134.5Y-167.5
X134.5Y-179.5
X134.5Y-189.5
X134.5Y-199.5
X134.5Y-211.5
X134.5Y-221.5
X134.5Y-231.5
X143.0Y-51.5
X143.0Y-61.5
X143.0Y-71.5
X143.0Y-83.5
X143.0Y-93.5
X143.0Y-103.5
X143.0Y-115.5
X143.0Y-125.5
X143.0Y-135.5
X143.0Y-147.5
X143.0Y-157.5
X143.0Y-167.5
X143.0Y-179.5
X143.0Y-189.5
X143.0Y-199.5
X143.0Y-211.5
X143.0Y-221.5
X143.0Y-231.5
T2
X63.5Y-69.5
X63.5Y-82.5
X63.5Y-101.5
X63.5Y-114.5
X63.5Y-133.5
X63.5Y-146.5
X63.5Y-165.5
X63.5Y-178.5
X63.5Y-197.5
X63.5Y-210.5
X63.5Y-229.5
X63.5Y-242.5
X78.5Y-53.5
X78.5Y-69.5
X78.5Y-85.5
X78.5Y-101.5
X78.5Y-117.5
X78.5Y-133.5
X78.5Y-149.5
X78.5Y-165.5
X78.5Y-181.5
X78.5Y-197.5
X78.5Y-213.5
X78.5Y-229.5
X104.0Y-53.5
X104.0Y-69.5
X104.0Y-85.5
X104.0Y-101.5
X104.0Y-117.5
X104.0Y-133.5
X104.0Y-149.5
X104.0Y-165.5
X104.0Y-181.5
X104.0Y-197.5
X104.0Y-213.5
X104.0Y-229.5
X119.0Y-53.5
X119.0Y-66.5
X119.0Y-85.5
X119.0Y-98.5
X119.0Y-117.5
X119.0Y-130.5
X119.0Y-149.5
X119.0Y-162.5
X119.0Y-181.5
X119.0Y-194.5
X119.0Y-213.5
X119.0Y-226.5
T3
X69.0Y-40.5
X78.5Y-40.5
X78.5Y-93.5
X79.0Y-244.5
X89.0Y-244.5
X104.0Y-205.5
X119.0Y-244.5
X124.0Y-40.5
X129.0Y-244.5
X134.0Y-40.5
T4
X39.0Y-40.5
X91.0Y-40.5
X100.0Y-244.5
X143.0Y-244.5
M30
