%TF.GenerationSoftware,KiCad,Pcbnew,8.0.8*%
%TF.CreationDate,2025-05-01T13:08:28+01:00*%
%TF.ProjectId,VillardCascadingVoltageMultiplierSubcircuit,56696c6c-6172-4644-9361-73636164696e,rev?*%
%TF.SameCoordinates,Original*%
%TF.FileFunction,Soldermask,Bot*%
%TF.FilePolarity,Negative*%
%FSLAX46Y46*%
G04 Gerber Fmt 4.6, Leading zero omitted, Abs format (unit mm)*
G04 Created by KiCad (PCBNEW 8.0.8) date 2025-05-01 13:08:28*
%MOMM*%
%LPD*%
G01*
G04 APERTURE LIST*
%ADD10C,2.400000*%
%ADD11C,5.000000*%
%ADD12C,2.500000*%
%ADD13C,3.200000*%
G04 APERTURE END LIST*
D10*
%TO.C,R9*%
X39500000Y-192500000D03*
X48000000Y-192500000D03*
%TD*%
D11*
%TO.C,J2*%
X89000000Y-244500000D03*
%TD*%
D10*
%TO.C,R15*%
X39500000Y-160500000D03*
X48000000Y-160500000D03*
%TD*%
D12*
%TO.C,C10*%
X119000000Y-85500000D03*
X119000000Y-98500000D03*
%TD*%
D13*
%TO.C,J11*%
X100000000Y-244500000D03*
%TD*%
D10*
%TO.C,R21*%
X39500000Y-128500000D03*
X48000000Y-128500000D03*
%TD*%
D12*
%TO.C,D11*%
X78500000Y-69500000D03*
X104000000Y-69500000D03*
%TD*%
D11*
%TO.C,J10*%
X69000000Y-40500000D03*
%TD*%
%TO.C,J8*%
X124000000Y-40500000D03*
%TD*%
D10*
%TO.C,R17*%
X143000000Y-157500000D03*
X134500000Y-157500000D03*
%TD*%
D12*
%TO.C,D8*%
X104000000Y-117500000D03*
X78500000Y-117500000D03*
%TD*%
D10*
%TO.C,R16*%
X134500000Y-167500000D03*
X143000000Y-167500000D03*
%TD*%
%TO.C,R1*%
X39500000Y-244500000D03*
X48000000Y-244500000D03*
%TD*%
D11*
%TO.C,J6*%
X78500000Y-93500000D03*
%TD*%
%TO.C,J5*%
X104000000Y-205500000D03*
%TD*%
D12*
%TO.C,C7*%
X63500000Y-133500000D03*
X63500000Y-146500000D03*
%TD*%
D10*
%TO.C,R30*%
X143000000Y-83500000D03*
X134500000Y-83500000D03*
%TD*%
D12*
%TO.C,C8*%
X119000000Y-117500000D03*
X119000000Y-130500000D03*
%TD*%
D10*
%TO.C,R3*%
X39500000Y-224500000D03*
X48000000Y-224500000D03*
%TD*%
D12*
%TO.C,D2*%
X104000000Y-213500000D03*
X78500000Y-213500000D03*
%TD*%
D10*
%TO.C,R36*%
X134500000Y-51500000D03*
X143000000Y-51500000D03*
%TD*%
%TO.C,R18*%
X134500000Y-147500000D03*
X143000000Y-147500000D03*
%TD*%
%TO.C,R33*%
X40000000Y-64500000D03*
X48500000Y-64500000D03*
%TD*%
D13*
%TO.C,J14*%
X143000000Y-244500000D03*
%TD*%
D12*
%TO.C,C2*%
X119000000Y-213500000D03*
X119000000Y-226500000D03*
%TD*%
%TO.C,C12*%
X119000000Y-53500000D03*
X119000000Y-66500000D03*
%TD*%
D10*
%TO.C,R27*%
X39500000Y-96500000D03*
X48000000Y-96500000D03*
%TD*%
D11*
%TO.C,J7*%
X134000000Y-40500000D03*
%TD*%
D10*
%TO.C,R35*%
X143000000Y-61500000D03*
X134500000Y-61500000D03*
%TD*%
%TO.C,R12*%
X134500000Y-179500000D03*
X143000000Y-179500000D03*
%TD*%
%TO.C,R4*%
X134500000Y-231500000D03*
X143000000Y-231500000D03*
%TD*%
D11*
%TO.C,J9*%
X78500000Y-40500000D03*
%TD*%
%TO.C,J1*%
X79000000Y-244500000D03*
%TD*%
D10*
%TO.C,R5*%
X143000000Y-221500000D03*
X134500000Y-221500000D03*
%TD*%
D12*
%TO.C,D12*%
X104000000Y-53500000D03*
X78500000Y-53500000D03*
%TD*%
D10*
%TO.C,R28*%
X134500000Y-103500000D03*
X143000000Y-103500000D03*
%TD*%
D12*
%TO.C,D6*%
X104000000Y-149500000D03*
X78500000Y-149500000D03*
%TD*%
%TO.C,D9*%
X78500000Y-101500000D03*
X104000000Y-101500000D03*
%TD*%
D10*
%TO.C,R6*%
X134500000Y-211500000D03*
X143000000Y-211500000D03*
%TD*%
D13*
%TO.C,J13*%
X91000000Y-40500000D03*
%TD*%
D10*
%TO.C,R20*%
X48000000Y-138500000D03*
X39500000Y-138500000D03*
%TD*%
%TO.C,R10*%
X134500000Y-199500000D03*
X143000000Y-199500000D03*
%TD*%
%TO.C,R7*%
X39500000Y-212500000D03*
X48000000Y-212500000D03*
%TD*%
%TO.C,R14*%
X48000000Y-170500000D03*
X39500000Y-170500000D03*
%TD*%
D12*
%TO.C,D4*%
X104000000Y-181500000D03*
X78500000Y-181500000D03*
%TD*%
%TO.C,D3*%
X78500000Y-197500000D03*
X104000000Y-197500000D03*
%TD*%
D10*
%TO.C,R31*%
X39500000Y-84500000D03*
X48000000Y-84500000D03*
%TD*%
%TO.C,R29*%
X143000000Y-93500000D03*
X134500000Y-93500000D03*
%TD*%
D12*
%TO.C,C1*%
X63500000Y-229500000D03*
X63500000Y-242500000D03*
%TD*%
D10*
%TO.C,R32*%
X48500000Y-74500000D03*
X40000000Y-74500000D03*
%TD*%
%TO.C,R22*%
X134500000Y-135500000D03*
X143000000Y-135500000D03*
%TD*%
D12*
%TO.C,D1*%
X78500000Y-229500000D03*
X104000000Y-229500000D03*
%TD*%
D10*
%TO.C,R11*%
X143000000Y-189500000D03*
X134500000Y-189500000D03*
%TD*%
%TO.C,R25*%
X39500000Y-116500000D03*
X48000000Y-116500000D03*
%TD*%
D12*
%TO.C,D10*%
X104000000Y-85500000D03*
X78500000Y-85500000D03*
%TD*%
D10*
%TO.C,R19*%
X39500000Y-148500000D03*
X48000000Y-148500000D03*
%TD*%
D11*
%TO.C,J4*%
X129000000Y-244500000D03*
%TD*%
D10*
%TO.C,R8*%
X48000000Y-202500000D03*
X39500000Y-202500000D03*
%TD*%
%TO.C,R24*%
X134500000Y-115500000D03*
X143000000Y-115500000D03*
%TD*%
D12*
%TO.C,D5*%
X78500000Y-165500000D03*
X104000000Y-165500000D03*
%TD*%
%TO.C,C4*%
X119000000Y-181500000D03*
X119000000Y-194500000D03*
%TD*%
D11*
%TO.C,J3*%
X119000000Y-244500000D03*
%TD*%
D10*
%TO.C,R34*%
X134500000Y-71500000D03*
X143000000Y-71500000D03*
%TD*%
%TO.C,R26*%
X39500000Y-106500000D03*
X48000000Y-106500000D03*
%TD*%
D12*
%TO.C,C5*%
X63500000Y-165500000D03*
X63500000Y-178500000D03*
%TD*%
D10*
%TO.C,R13*%
X39500000Y-180500000D03*
X48000000Y-180500000D03*
%TD*%
D12*
%TO.C,C6*%
X119000000Y-149500000D03*
X119000000Y-162500000D03*
%TD*%
%TO.C,C9*%
X63500000Y-101500000D03*
X63500000Y-114500000D03*
%TD*%
D10*
%TO.C,R2*%
X48000000Y-234500000D03*
X39500000Y-234500000D03*
%TD*%
%TO.C,R23*%
X134500000Y-125500000D03*
X143000000Y-125500000D03*
%TD*%
D12*
%TO.C,D7*%
X78500000Y-133500000D03*
X104000000Y-133500000D03*
%TD*%
D13*
%TO.C,J12*%
X39000000Y-40500000D03*
%TD*%
D12*
%TO.C,C11*%
X63500000Y-69500000D03*
X63500000Y-82500000D03*
%TD*%
%TO.C,C3*%
X63500000Y-197500000D03*
X63500000Y-210500000D03*
%TD*%
M02*
