%TF.GenerationSoftware,KiCad,Pcbnew,8.0.8*%
%TF.CreationDate,2025-05-01T13:08:28+01:00*%
%TF.ProjectId,VillardCascadingVoltageMultiplierSubcircuit,56696c6c-6172-4644-9361-73636164696e,rev?*%
%TF.SameCoordinates,Original*%
%TF.FileFunction,Copper,L1,Top*%
%TF.FilePolarity,Positive*%
%FSLAX46Y46*%
G04 Gerber Fmt 4.6, Leading zero omitted, Abs format (unit mm)*
G04 Created by KiCad (PCBNEW 8.0.8) date 2025-05-01 13:08:28*
%MOMM*%
%LPD*%
G01*
G04 APERTURE LIST*
%TA.AperFunction,ComponentPad*%
%ADD10C,2.400000*%
%TD*%
%TA.AperFunction,ComponentPad*%
%ADD11C,5.000000*%
%TD*%
%TA.AperFunction,ComponentPad*%
%ADD12C,2.500000*%
%TD*%
%TA.AperFunction,ComponentPad*%
%ADD13C,3.200000*%
%TD*%
G04 APERTURE END LIST*
D10*
%TO.P,R9,1*%
%TO.N,Net-(C3-Pad1)*%
X39500000Y-192500000D03*
%TO.P,R9,2*%
%TO.N,Net-(R8-Pad2)*%
X48000000Y-192500000D03*
%TD*%
D11*
%TO.P,J2,1,Pin_1*%
%TO.N,Net-(J1-Pin_1)*%
X89000000Y-244500000D03*
%TD*%
D10*
%TO.P,R15,1*%
%TO.N,Net-(C5-Pad1)*%
X39500000Y-160500000D03*
%TO.P,R15,2*%
%TO.N,Net-(R14-Pad2)*%
X48000000Y-160500000D03*
%TD*%
D12*
%TO.P,C10,1*%
%TO.N,Net-(C10-Pad1)*%
X119000000Y-85500000D03*
%TO.P,C10,2*%
%TO.N,Net-(C10-Pad2)*%
X119000000Y-98500000D03*
%TD*%
D13*
%TO.P,J11,1,Pin_1*%
%TO.N,unconnected-(J11-Pin_1-Pad1)*%
X100000000Y-244500000D03*
%TD*%
D10*
%TO.P,R21,1*%
%TO.N,Net-(C7-Pad1)*%
X39500000Y-128500000D03*
%TO.P,R21,2*%
%TO.N,Net-(R20-Pad2)*%
X48000000Y-128500000D03*
%TD*%
D12*
%TO.P,D11,1*%
%TO.N,Net-(J10-Pin_1)*%
X78500000Y-69500000D03*
%TO.P,D11,2*%
%TO.N,Net-(C10-Pad1)*%
X104000000Y-69500000D03*
%TD*%
D11*
%TO.P,J10,1,Pin_1*%
%TO.N,Net-(J10-Pin_1)*%
X69000000Y-40500000D03*
%TD*%
%TO.P,J8,1,Pin_1*%
%TO.N,Net-(J7-Pin_1)*%
X124000000Y-40500000D03*
%TD*%
D10*
%TO.P,R17,1*%
%TO.N,Net-(R16-Pad1)*%
X143000000Y-157500000D03*
%TO.P,R17,2*%
%TO.N,Net-(R17-Pad2)*%
X134500000Y-157500000D03*
%TD*%
D12*
%TO.P,D8,1*%
%TO.N,Net-(C10-Pad2)*%
X104000000Y-117500000D03*
%TO.P,D8,2*%
%TO.N,Net-(C7-Pad1)*%
X78500000Y-117500000D03*
%TD*%
D10*
%TO.P,R16,1*%
%TO.N,Net-(R16-Pad1)*%
X134500000Y-167500000D03*
%TO.P,R16,2*%
%TO.N,Net-(C4-Pad1)*%
X143000000Y-167500000D03*
%TD*%
%TO.P,R1,1*%
%TO.N,Net-(R1-Pad1)*%
X39500000Y-244500000D03*
%TO.P,R1,2*%
%TO.N,Net-(J1-Pin_1)*%
X48000000Y-244500000D03*
%TD*%
D11*
%TO.P,J6,1,Pin_1*%
%TO.N,Net-(J6-Pin_1)*%
X78500000Y-93500000D03*
%TD*%
%TO.P,J5,1,Pin_1*%
%TO.N,Net-(J5-Pin_1)*%
X104000000Y-205500000D03*
%TD*%
D12*
%TO.P,C7,1*%
%TO.N,Net-(C7-Pad1)*%
X63500000Y-133500000D03*
%TO.P,C7,2*%
%TO.N,Net-(C5-Pad1)*%
X63500000Y-146500000D03*
%TD*%
D10*
%TO.P,R30,2*%
%TO.N,Net-(R29-Pad2)*%
X143000000Y-83500000D03*
%TO.P,R30,1*%
%TO.N,Net-(C10-Pad1)*%
X134500000Y-83500000D03*
%TD*%
D12*
%TO.P,C8,1*%
%TO.N,Net-(C10-Pad2)*%
X119000000Y-117500000D03*
%TO.P,C8,2*%
%TO.N,Net-(C6-Pad1)*%
X119000000Y-130500000D03*
%TD*%
D10*
%TO.P,R3,1*%
%TO.N,Net-(C1-Pad1)*%
X39500000Y-224500000D03*
%TO.P,R3,2*%
%TO.N,Net-(R2-Pad2)*%
X48000000Y-224500000D03*
%TD*%
D12*
%TO.P,D2,1*%
%TO.N,Net-(J5-Pin_1)*%
X104000000Y-213500000D03*
%TO.P,D2,2*%
%TO.N,Net-(C1-Pad1)*%
X78500000Y-213500000D03*
%TD*%
D10*
%TO.P,R36,1*%
%TO.N,Net-(J7-Pin_1)*%
X134500000Y-51500000D03*
%TO.P,R36,2*%
%TO.N,Net-(R35-Pad2)*%
X143000000Y-51500000D03*
%TD*%
%TO.P,R18,1*%
%TO.N,Net-(C6-Pad1)*%
X134500000Y-147500000D03*
%TO.P,R18,2*%
%TO.N,Net-(R17-Pad2)*%
X143000000Y-147500000D03*
%TD*%
%TO.P,R33,1*%
%TO.N,Net-(J10-Pin_1)*%
X40000000Y-64500000D03*
%TO.P,R33,2*%
%TO.N,Net-(R32-Pad2)*%
X48500000Y-64500000D03*
%TD*%
D13*
%TO.P,J14,1,Pin_1*%
%TO.N,unconnected-(J14-Pin_1-Pad1)*%
X143000000Y-244500000D03*
%TD*%
D12*
%TO.P,C2,1*%
%TO.N,Net-(J5-Pin_1)*%
X119000000Y-213500000D03*
%TO.P,C2,2*%
%TO.N,Net-(J3-Pin_1)*%
X119000000Y-226500000D03*
%TD*%
%TO.P,C12,1*%
%TO.N,Net-(J7-Pin_1)*%
X119000000Y-53500000D03*
%TO.P,C12,2*%
%TO.N,Net-(C10-Pad1)*%
X119000000Y-66500000D03*
%TD*%
D10*
%TO.P,R27,1*%
%TO.N,Net-(J6-Pin_1)*%
X39500000Y-96500000D03*
%TO.P,R27,2*%
%TO.N,Net-(R26-Pad2)*%
X48000000Y-96500000D03*
%TD*%
D11*
%TO.P,J7,1,Pin_1*%
%TO.N,Net-(J7-Pin_1)*%
X134000000Y-40500000D03*
%TD*%
D10*
%TO.P,R35,1*%
%TO.N,Net-(R34-Pad1)*%
X143000000Y-61500000D03*
%TO.P,R35,2*%
%TO.N,Net-(R35-Pad2)*%
X134500000Y-61500000D03*
%TD*%
%TO.P,R12,1*%
%TO.N,Net-(C4-Pad1)*%
X134500000Y-179500000D03*
%TO.P,R12,2*%
%TO.N,Net-(R11-Pad2)*%
X143000000Y-179500000D03*
%TD*%
%TO.P,R4,1*%
%TO.N,Net-(R4-Pad1)*%
X134500000Y-231500000D03*
%TO.P,R4,2*%
%TO.N,Net-(J3-Pin_1)*%
X143000000Y-231500000D03*
%TD*%
D11*
%TO.P,J9,1,Pin_1*%
%TO.N,Net-(J10-Pin_1)*%
X78500000Y-40500000D03*
%TD*%
%TO.P,J1,1,Pin_1*%
%TO.N,Net-(J1-Pin_1)*%
X79000000Y-244500000D03*
%TD*%
D10*
%TO.P,R5,1*%
%TO.N,Net-(R4-Pad1)*%
X143000000Y-221500000D03*
%TO.P,R5,2*%
%TO.N,Net-(R5-Pad2)*%
X134500000Y-221500000D03*
%TD*%
D12*
%TO.P,D12,1*%
%TO.N,Net-(J7-Pin_1)*%
X104000000Y-53500000D03*
%TO.P,D12,2*%
%TO.N,Net-(J10-Pin_1)*%
X78500000Y-53500000D03*
%TD*%
D10*
%TO.P,R28,1*%
%TO.N,Net-(R28-Pad1)*%
X134500000Y-103500000D03*
%TO.P,R28,2*%
%TO.N,Net-(C10-Pad2)*%
X143000000Y-103500000D03*
%TD*%
D12*
%TO.P,D6,1*%
%TO.N,Net-(C6-Pad1)*%
X104000000Y-149500000D03*
%TO.P,D6,2*%
%TO.N,Net-(C5-Pad1)*%
X78500000Y-149500000D03*
%TD*%
%TO.P,D9,1*%
%TO.N,Net-(J6-Pin_1)*%
X78500000Y-101500000D03*
%TO.P,D9,2*%
%TO.N,Net-(C10-Pad2)*%
X104000000Y-101500000D03*
%TD*%
D10*
%TO.P,R6,1*%
%TO.N,Net-(J5-Pin_1)*%
X134500000Y-211500000D03*
%TO.P,R6,2*%
%TO.N,Net-(R5-Pad2)*%
X143000000Y-211500000D03*
%TD*%
D13*
%TO.P,J13,1,Pin_1*%
%TO.N,unconnected-(J13-Pin_1-Pad1)*%
X91000000Y-40500000D03*
%TD*%
D10*
%TO.P,R20,1*%
%TO.N,Net-(R19-Pad1)*%
X48000000Y-138500000D03*
%TO.P,R20,2*%
%TO.N,Net-(R20-Pad2)*%
X39500000Y-138500000D03*
%TD*%
%TO.P,R10,1*%
%TO.N,Net-(R10-Pad1)*%
X134500000Y-199500000D03*
%TO.P,R10,2*%
%TO.N,Net-(J5-Pin_1)*%
X143000000Y-199500000D03*
%TD*%
%TO.P,R7,1*%
%TO.N,Net-(R7-Pad1)*%
X39500000Y-212500000D03*
%TO.P,R7,2*%
%TO.N,Net-(C1-Pad1)*%
X48000000Y-212500000D03*
%TD*%
%TO.P,R14,1*%
%TO.N,Net-(R13-Pad1)*%
X48000000Y-170500000D03*
%TO.P,R14,2*%
%TO.N,Net-(R14-Pad2)*%
X39500000Y-170500000D03*
%TD*%
D12*
%TO.P,D4,1*%
%TO.N,Net-(C4-Pad1)*%
X104000000Y-181500000D03*
%TO.P,D4,2*%
%TO.N,Net-(C3-Pad1)*%
X78500000Y-181500000D03*
%TD*%
%TO.P,D3,1*%
%TO.N,Net-(C3-Pad1)*%
X78500000Y-197500000D03*
%TO.P,D3,2*%
%TO.N,Net-(J5-Pin_1)*%
X104000000Y-197500000D03*
%TD*%
D10*
%TO.P,R31,1*%
%TO.N,Net-(R31-Pad1)*%
X39500000Y-84500000D03*
%TO.P,R31,2*%
%TO.N,Net-(J6-Pin_1)*%
X48000000Y-84500000D03*
%TD*%
%TO.P,R29,1*%
%TO.N,Net-(R28-Pad1)*%
X143000000Y-93500000D03*
%TO.P,R29,2*%
%TO.N,Net-(R29-Pad2)*%
X134500000Y-93500000D03*
%TD*%
D12*
%TO.P,C1,1*%
%TO.N,Net-(C1-Pad1)*%
X63500000Y-229500000D03*
%TO.P,C1,2*%
%TO.N,Net-(J1-Pin_1)*%
X63500000Y-242500000D03*
%TD*%
D10*
%TO.P,R32,1*%
%TO.N,Net-(R31-Pad1)*%
X48500000Y-74500000D03*
%TO.P,R32,2*%
%TO.N,Net-(R32-Pad2)*%
X40000000Y-74500000D03*
%TD*%
%TO.P,R22,1*%
%TO.N,Net-(R22-Pad1)*%
X134500000Y-135500000D03*
%TO.P,R22,2*%
%TO.N,Net-(C6-Pad1)*%
X143000000Y-135500000D03*
%TD*%
D12*
%TO.P,D1,1*%
%TO.N,Net-(C1-Pad1)*%
X78500000Y-229500000D03*
%TO.P,D1,2*%
%TO.N,Net-(J3-Pin_1)*%
X104000000Y-229500000D03*
%TD*%
D10*
%TO.P,R11,1*%
%TO.N,Net-(R10-Pad1)*%
X143000000Y-189500000D03*
%TO.P,R11,2*%
%TO.N,Net-(R11-Pad2)*%
X134500000Y-189500000D03*
%TD*%
%TO.P,R25,1*%
%TO.N,Net-(R25-Pad1)*%
X39500000Y-116500000D03*
%TO.P,R25,2*%
%TO.N,Net-(C7-Pad1)*%
X48000000Y-116500000D03*
%TD*%
D12*
%TO.P,D10,1*%
%TO.N,Net-(C10-Pad1)*%
X104000000Y-85500000D03*
%TO.P,D10,2*%
%TO.N,Net-(J6-Pin_1)*%
X78500000Y-85500000D03*
%TD*%
D10*
%TO.P,R19,1*%
%TO.N,Net-(R19-Pad1)*%
X39500000Y-148500000D03*
%TO.P,R19,2*%
%TO.N,Net-(C5-Pad1)*%
X48000000Y-148500000D03*
%TD*%
D11*
%TO.P,J4,1,Pin_1*%
%TO.N,Net-(J3-Pin_1)*%
X129000000Y-244500000D03*
%TD*%
D10*
%TO.P,R8,1*%
%TO.N,Net-(R7-Pad1)*%
X48000000Y-202500000D03*
%TO.P,R8,2*%
%TO.N,Net-(R8-Pad2)*%
X39500000Y-202500000D03*
%TD*%
%TO.P,R24,1*%
%TO.N,Net-(C10-Pad2)*%
X134500000Y-115500000D03*
%TO.P,R24,2*%
%TO.N,Net-(R23-Pad2)*%
X143000000Y-115500000D03*
%TD*%
D12*
%TO.P,D5,1*%
%TO.N,Net-(C5-Pad1)*%
X78500000Y-165500000D03*
%TO.P,D5,2*%
%TO.N,Net-(C4-Pad1)*%
X104000000Y-165500000D03*
%TD*%
%TO.P,C4,1*%
%TO.N,Net-(C4-Pad1)*%
X119000000Y-181500000D03*
%TO.P,C4,2*%
%TO.N,Net-(J5-Pin_1)*%
X119000000Y-194500000D03*
%TD*%
D11*
%TO.P,J3,1,Pin_1*%
%TO.N,Net-(J3-Pin_1)*%
X119000000Y-244500000D03*
%TD*%
D10*
%TO.P,R34,1*%
%TO.N,Net-(R34-Pad1)*%
X134500000Y-71500000D03*
%TO.P,R34,2*%
%TO.N,Net-(C10-Pad1)*%
X143000000Y-71500000D03*
%TD*%
%TO.P,R26,2*%
%TO.N,Net-(R26-Pad2)*%
X39500000Y-106500000D03*
%TO.P,R26,1*%
%TO.N,Net-(R25-Pad1)*%
X48000000Y-106500000D03*
%TD*%
D12*
%TO.P,C5,1*%
%TO.N,Net-(C5-Pad1)*%
X63500000Y-165500000D03*
%TO.P,C5,2*%
%TO.N,Net-(C3-Pad1)*%
X63500000Y-178500000D03*
%TD*%
D10*
%TO.P,R13,1*%
%TO.N,Net-(R13-Pad1)*%
X39500000Y-180500000D03*
%TO.P,R13,2*%
%TO.N,Net-(C3-Pad1)*%
X48000000Y-180500000D03*
%TD*%
D12*
%TO.P,C6,1*%
%TO.N,Net-(C6-Pad1)*%
X119000000Y-149500000D03*
%TO.P,C6,2*%
%TO.N,Net-(C4-Pad1)*%
X119000000Y-162500000D03*
%TD*%
%TO.P,C9,1*%
%TO.N,Net-(J6-Pin_1)*%
X63500000Y-101500000D03*
%TO.P,C9,2*%
%TO.N,Net-(C7-Pad1)*%
X63500000Y-114500000D03*
%TD*%
D10*
%TO.P,R2,1*%
%TO.N,Net-(R1-Pad1)*%
X48000000Y-234500000D03*
%TO.P,R2,2*%
%TO.N,Net-(R2-Pad2)*%
X39500000Y-234500000D03*
%TD*%
%TO.P,R23,2*%
%TO.N,Net-(R23-Pad2)*%
X134500000Y-125500000D03*
%TO.P,R23,1*%
%TO.N,Net-(R22-Pad1)*%
X143000000Y-125500000D03*
%TD*%
D12*
%TO.P,D7,1*%
%TO.N,Net-(C7-Pad1)*%
X78500000Y-133500000D03*
%TO.P,D7,2*%
%TO.N,Net-(C6-Pad1)*%
X104000000Y-133500000D03*
%TD*%
D13*
%TO.P,J12,1,Pin_1*%
%TO.N,unconnected-(J12-Pin_1-Pad1)*%
X39000000Y-40500000D03*
%TD*%
D12*
%TO.P,C11,1*%
%TO.N,Net-(J10-Pin_1)*%
X63500000Y-69500000D03*
%TO.P,C11,2*%
%TO.N,Net-(J6-Pin_1)*%
X63500000Y-82500000D03*
%TD*%
%TO.P,C3,1*%
%TO.N,Net-(C3-Pad1)*%
X63500000Y-197500000D03*
%TO.P,C3,2*%
%TO.N,Net-(C1-Pad1)*%
X63500000Y-210500000D03*
%TD*%
M02*
