%TF.GenerationSoftware,KiCad,Pcbnew,8.0.8*%
%TF.CreationDate,2025-05-01T12:34:51+01:00*%
%TF.ProjectId,FloatingCurrentFeedbackModule,466c6f61-7469-46e6-9743-757272656e74,rev?*%
%TF.SameCoordinates,Original*%
%TF.FileFunction,Legend,Top*%
%TF.FilePolarity,Positive*%
%FSLAX46Y46*%
G04 Gerber Fmt 4.6, Leading zero omitted, Abs format (unit mm)*
G04 Created by KiCad (PCBNEW 8.0.8) date 2025-05-01 12:34:51*
%MOMM*%
%LPD*%
G01*
G04 APERTURE LIST*
%ADD10C,0.100000*%
%ADD11C,0.150000*%
%ADD12C,0.300000*%
%ADD13C,0.400000*%
%ADD14C,0.250000*%
%ADD15C,0.120000*%
G04 APERTURE END LIST*
D10*
D11*
X177002200Y-166007200D02*
X285002200Y-166007200D01*
X285002200Y-198007200D01*
X177002200Y-198007200D01*
X177002200Y-166007200D01*
D10*
D11*
X10000000Y-10000000D02*
X287002200Y-10000000D01*
X287002200Y-200007200D01*
X10000000Y-200007200D01*
X10000000Y-10000000D01*
D10*
D11*
X12000000Y-12000000D02*
X285002200Y-12000000D01*
X285002200Y-198007200D01*
X12000000Y-198007200D01*
X12000000Y-12000000D01*
D10*
D11*
X60000000Y-12000000D02*
X60000000Y-10000000D01*
D10*
D11*
X110000000Y-12000000D02*
X110000000Y-10000000D01*
D10*
D11*
X160000000Y-12000000D02*
X160000000Y-10000000D01*
D10*
D11*
X210000000Y-12000000D02*
X210000000Y-10000000D01*
D10*
D11*
X260000000Y-12000000D02*
X260000000Y-10000000D01*
D10*
D11*
X36089160Y-11593604D02*
X35346303Y-11593604D01*
X35717731Y-11593604D02*
X35717731Y-10293604D01*
X35717731Y-10293604D02*
X35593922Y-10479319D01*
X35593922Y-10479319D02*
X35470112Y-10603128D01*
X35470112Y-10603128D02*
X35346303Y-10665033D01*
D10*
D11*
X85346303Y-10417414D02*
X85408207Y-10355509D01*
X85408207Y-10355509D02*
X85532017Y-10293604D01*
X85532017Y-10293604D02*
X85841541Y-10293604D01*
X85841541Y-10293604D02*
X85965350Y-10355509D01*
X85965350Y-10355509D02*
X86027255Y-10417414D01*
X86027255Y-10417414D02*
X86089160Y-10541223D01*
X86089160Y-10541223D02*
X86089160Y-10665033D01*
X86089160Y-10665033D02*
X86027255Y-10850747D01*
X86027255Y-10850747D02*
X85284398Y-11593604D01*
X85284398Y-11593604D02*
X86089160Y-11593604D01*
D10*
D11*
X135284398Y-10293604D02*
X136089160Y-10293604D01*
X136089160Y-10293604D02*
X135655826Y-10788842D01*
X135655826Y-10788842D02*
X135841541Y-10788842D01*
X135841541Y-10788842D02*
X135965350Y-10850747D01*
X135965350Y-10850747D02*
X136027255Y-10912652D01*
X136027255Y-10912652D02*
X136089160Y-11036461D01*
X136089160Y-11036461D02*
X136089160Y-11345985D01*
X136089160Y-11345985D02*
X136027255Y-11469795D01*
X136027255Y-11469795D02*
X135965350Y-11531700D01*
X135965350Y-11531700D02*
X135841541Y-11593604D01*
X135841541Y-11593604D02*
X135470112Y-11593604D01*
X135470112Y-11593604D02*
X135346303Y-11531700D01*
X135346303Y-11531700D02*
X135284398Y-11469795D01*
D10*
D11*
X185965350Y-10726938D02*
X185965350Y-11593604D01*
X185655826Y-10231700D02*
X185346303Y-11160271D01*
X185346303Y-11160271D02*
X186151064Y-11160271D01*
D10*
D11*
X236027255Y-10293604D02*
X235408207Y-10293604D01*
X235408207Y-10293604D02*
X235346303Y-10912652D01*
X235346303Y-10912652D02*
X235408207Y-10850747D01*
X235408207Y-10850747D02*
X235532017Y-10788842D01*
X235532017Y-10788842D02*
X235841541Y-10788842D01*
X235841541Y-10788842D02*
X235965350Y-10850747D01*
X235965350Y-10850747D02*
X236027255Y-10912652D01*
X236027255Y-10912652D02*
X236089160Y-11036461D01*
X236089160Y-11036461D02*
X236089160Y-11345985D01*
X236089160Y-11345985D02*
X236027255Y-11469795D01*
X236027255Y-11469795D02*
X235965350Y-11531700D01*
X235965350Y-11531700D02*
X235841541Y-11593604D01*
X235841541Y-11593604D02*
X235532017Y-11593604D01*
X235532017Y-11593604D02*
X235408207Y-11531700D01*
X235408207Y-11531700D02*
X235346303Y-11469795D01*
D10*
D11*
X285965350Y-10293604D02*
X285717731Y-10293604D01*
X285717731Y-10293604D02*
X285593922Y-10355509D01*
X285593922Y-10355509D02*
X285532017Y-10417414D01*
X285532017Y-10417414D02*
X285408207Y-10603128D01*
X285408207Y-10603128D02*
X285346303Y-10850747D01*
X285346303Y-10850747D02*
X285346303Y-11345985D01*
X285346303Y-11345985D02*
X285408207Y-11469795D01*
X285408207Y-11469795D02*
X285470112Y-11531700D01*
X285470112Y-11531700D02*
X285593922Y-11593604D01*
X285593922Y-11593604D02*
X285841541Y-11593604D01*
X285841541Y-11593604D02*
X285965350Y-11531700D01*
X285965350Y-11531700D02*
X286027255Y-11469795D01*
X286027255Y-11469795D02*
X286089160Y-11345985D01*
X286089160Y-11345985D02*
X286089160Y-11036461D01*
X286089160Y-11036461D02*
X286027255Y-10912652D01*
X286027255Y-10912652D02*
X285965350Y-10850747D01*
X285965350Y-10850747D02*
X285841541Y-10788842D01*
X285841541Y-10788842D02*
X285593922Y-10788842D01*
X285593922Y-10788842D02*
X285470112Y-10850747D01*
X285470112Y-10850747D02*
X285408207Y-10912652D01*
X285408207Y-10912652D02*
X285346303Y-11036461D01*
D10*
D11*
X60000000Y-198007200D02*
X60000000Y-200007200D01*
D10*
D11*
X110000000Y-198007200D02*
X110000000Y-200007200D01*
D10*
D11*
X160000000Y-198007200D02*
X160000000Y-200007200D01*
D10*
D11*
X210000000Y-198007200D02*
X210000000Y-200007200D01*
D10*
D11*
X260000000Y-198007200D02*
X260000000Y-200007200D01*
D10*
D11*
X36089160Y-199600804D02*
X35346303Y-199600804D01*
X35717731Y-199600804D02*
X35717731Y-198300804D01*
X35717731Y-198300804D02*
X35593922Y-198486519D01*
X35593922Y-198486519D02*
X35470112Y-198610328D01*
X35470112Y-198610328D02*
X35346303Y-198672233D01*
D10*
D11*
X85346303Y-198424614D02*
X85408207Y-198362709D01*
X85408207Y-198362709D02*
X85532017Y-198300804D01*
X85532017Y-198300804D02*
X85841541Y-198300804D01*
X85841541Y-198300804D02*
X85965350Y-198362709D01*
X85965350Y-198362709D02*
X86027255Y-198424614D01*
X86027255Y-198424614D02*
X86089160Y-198548423D01*
X86089160Y-198548423D02*
X86089160Y-198672233D01*
X86089160Y-198672233D02*
X86027255Y-198857947D01*
X86027255Y-198857947D02*
X85284398Y-199600804D01*
X85284398Y-199600804D02*
X86089160Y-199600804D01*
D10*
D11*
X135284398Y-198300804D02*
X136089160Y-198300804D01*
X136089160Y-198300804D02*
X135655826Y-198796042D01*
X135655826Y-198796042D02*
X135841541Y-198796042D01*
X135841541Y-198796042D02*
X135965350Y-198857947D01*
X135965350Y-198857947D02*
X136027255Y-198919852D01*
X136027255Y-198919852D02*
X136089160Y-199043661D01*
X136089160Y-199043661D02*
X136089160Y-199353185D01*
X136089160Y-199353185D02*
X136027255Y-199476995D01*
X136027255Y-199476995D02*
X135965350Y-199538900D01*
X135965350Y-199538900D02*
X135841541Y-199600804D01*
X135841541Y-199600804D02*
X135470112Y-199600804D01*
X135470112Y-199600804D02*
X135346303Y-199538900D01*
X135346303Y-199538900D02*
X135284398Y-199476995D01*
D10*
D11*
X185965350Y-198734138D02*
X185965350Y-199600804D01*
X185655826Y-198238900D02*
X185346303Y-199167471D01*
X185346303Y-199167471D02*
X186151064Y-199167471D01*
D10*
D11*
X236027255Y-198300804D02*
X235408207Y-198300804D01*
X235408207Y-198300804D02*
X235346303Y-198919852D01*
X235346303Y-198919852D02*
X235408207Y-198857947D01*
X235408207Y-198857947D02*
X235532017Y-198796042D01*
X235532017Y-198796042D02*
X235841541Y-198796042D01*
X235841541Y-198796042D02*
X235965350Y-198857947D01*
X235965350Y-198857947D02*
X236027255Y-198919852D01*
X236027255Y-198919852D02*
X236089160Y-199043661D01*
X236089160Y-199043661D02*
X236089160Y-199353185D01*
X236089160Y-199353185D02*
X236027255Y-199476995D01*
X236027255Y-199476995D02*
X235965350Y-199538900D01*
X235965350Y-199538900D02*
X235841541Y-199600804D01*
X235841541Y-199600804D02*
X235532017Y-199600804D01*
X235532017Y-199600804D02*
X235408207Y-199538900D01*
X235408207Y-199538900D02*
X235346303Y-199476995D01*
D10*
D11*
X285965350Y-198300804D02*
X285717731Y-198300804D01*
X285717731Y-198300804D02*
X285593922Y-198362709D01*
X285593922Y-198362709D02*
X285532017Y-198424614D01*
X285532017Y-198424614D02*
X285408207Y-198610328D01*
X285408207Y-198610328D02*
X285346303Y-198857947D01*
X285346303Y-198857947D02*
X285346303Y-199353185D01*
X285346303Y-199353185D02*
X285408207Y-199476995D01*
X285408207Y-199476995D02*
X285470112Y-199538900D01*
X285470112Y-199538900D02*
X285593922Y-199600804D01*
X285593922Y-199600804D02*
X285841541Y-199600804D01*
X285841541Y-199600804D02*
X285965350Y-199538900D01*
X285965350Y-199538900D02*
X286027255Y-199476995D01*
X286027255Y-199476995D02*
X286089160Y-199353185D01*
X286089160Y-199353185D02*
X286089160Y-199043661D01*
X286089160Y-199043661D02*
X286027255Y-198919852D01*
X286027255Y-198919852D02*
X285965350Y-198857947D01*
X285965350Y-198857947D02*
X285841541Y-198796042D01*
X285841541Y-198796042D02*
X285593922Y-198796042D01*
X285593922Y-198796042D02*
X285470112Y-198857947D01*
X285470112Y-198857947D02*
X285408207Y-198919852D01*
X285408207Y-198919852D02*
X285346303Y-199043661D01*
D10*
D11*
X10000000Y-60000000D02*
X12000000Y-60000000D01*
D10*
D11*
X10000000Y-110000000D02*
X12000000Y-110000000D01*
D10*
D11*
X10000000Y-160000000D02*
X12000000Y-160000000D01*
D10*
D11*
X10690476Y-35222176D02*
X11309523Y-35222176D01*
X10566666Y-35593604D02*
X10999999Y-34293604D01*
X10999999Y-34293604D02*
X11433333Y-35593604D01*
D10*
D11*
X11092857Y-84912652D02*
X11278571Y-84974557D01*
X11278571Y-84974557D02*
X11340476Y-85036461D01*
X11340476Y-85036461D02*
X11402380Y-85160271D01*
X11402380Y-85160271D02*
X11402380Y-85345985D01*
X11402380Y-85345985D02*
X11340476Y-85469795D01*
X11340476Y-85469795D02*
X11278571Y-85531700D01*
X11278571Y-85531700D02*
X11154761Y-85593604D01*
X11154761Y-85593604D02*
X10659523Y-85593604D01*
X10659523Y-85593604D02*
X10659523Y-84293604D01*
X10659523Y-84293604D02*
X11092857Y-84293604D01*
X11092857Y-84293604D02*
X11216666Y-84355509D01*
X11216666Y-84355509D02*
X11278571Y-84417414D01*
X11278571Y-84417414D02*
X11340476Y-84541223D01*
X11340476Y-84541223D02*
X11340476Y-84665033D01*
X11340476Y-84665033D02*
X11278571Y-84788842D01*
X11278571Y-84788842D02*
X11216666Y-84850747D01*
X11216666Y-84850747D02*
X11092857Y-84912652D01*
X11092857Y-84912652D02*
X10659523Y-84912652D01*
D10*
D11*
X11402380Y-135469795D02*
X11340476Y-135531700D01*
X11340476Y-135531700D02*
X11154761Y-135593604D01*
X11154761Y-135593604D02*
X11030952Y-135593604D01*
X11030952Y-135593604D02*
X10845238Y-135531700D01*
X10845238Y-135531700D02*
X10721428Y-135407890D01*
X10721428Y-135407890D02*
X10659523Y-135284080D01*
X10659523Y-135284080D02*
X10597619Y-135036461D01*
X10597619Y-135036461D02*
X10597619Y-134850747D01*
X10597619Y-134850747D02*
X10659523Y-134603128D01*
X10659523Y-134603128D02*
X10721428Y-134479319D01*
X10721428Y-134479319D02*
X10845238Y-134355509D01*
X10845238Y-134355509D02*
X11030952Y-134293604D01*
X11030952Y-134293604D02*
X11154761Y-134293604D01*
X11154761Y-134293604D02*
X11340476Y-134355509D01*
X11340476Y-134355509D02*
X11402380Y-134417414D01*
D10*
D11*
X10659523Y-185593604D02*
X10659523Y-184293604D01*
X10659523Y-184293604D02*
X10969047Y-184293604D01*
X10969047Y-184293604D02*
X11154761Y-184355509D01*
X11154761Y-184355509D02*
X11278571Y-184479319D01*
X11278571Y-184479319D02*
X11340476Y-184603128D01*
X11340476Y-184603128D02*
X11402380Y-184850747D01*
X11402380Y-184850747D02*
X11402380Y-185036461D01*
X11402380Y-185036461D02*
X11340476Y-185284080D01*
X11340476Y-185284080D02*
X11278571Y-185407890D01*
X11278571Y-185407890D02*
X11154761Y-185531700D01*
X11154761Y-185531700D02*
X10969047Y-185593604D01*
X10969047Y-185593604D02*
X10659523Y-185593604D01*
D10*
D11*
X287002200Y-60000000D02*
X285002200Y-60000000D01*
D10*
D11*
X287002200Y-110000000D02*
X285002200Y-110000000D01*
D10*
D11*
X287002200Y-160000000D02*
X285002200Y-160000000D01*
D10*
D11*
X285692676Y-35222176D02*
X286311723Y-35222176D01*
X285568866Y-35593604D02*
X286002199Y-34293604D01*
X286002199Y-34293604D02*
X286435533Y-35593604D01*
D10*
D11*
X286095057Y-84912652D02*
X286280771Y-84974557D01*
X286280771Y-84974557D02*
X286342676Y-85036461D01*
X286342676Y-85036461D02*
X286404580Y-85160271D01*
X286404580Y-85160271D02*
X286404580Y-85345985D01*
X286404580Y-85345985D02*
X286342676Y-85469795D01*
X286342676Y-85469795D02*
X286280771Y-85531700D01*
X286280771Y-85531700D02*
X286156961Y-85593604D01*
X286156961Y-85593604D02*
X285661723Y-85593604D01*
X285661723Y-85593604D02*
X285661723Y-84293604D01*
X285661723Y-84293604D02*
X286095057Y-84293604D01*
X286095057Y-84293604D02*
X286218866Y-84355509D01*
X286218866Y-84355509D02*
X286280771Y-84417414D01*
X286280771Y-84417414D02*
X286342676Y-84541223D01*
X286342676Y-84541223D02*
X286342676Y-84665033D01*
X286342676Y-84665033D02*
X286280771Y-84788842D01*
X286280771Y-84788842D02*
X286218866Y-84850747D01*
X286218866Y-84850747D02*
X286095057Y-84912652D01*
X286095057Y-84912652D02*
X285661723Y-84912652D01*
D10*
D11*
X286404580Y-135469795D02*
X286342676Y-135531700D01*
X286342676Y-135531700D02*
X286156961Y-135593604D01*
X286156961Y-135593604D02*
X286033152Y-135593604D01*
X286033152Y-135593604D02*
X285847438Y-135531700D01*
X285847438Y-135531700D02*
X285723628Y-135407890D01*
X285723628Y-135407890D02*
X285661723Y-135284080D01*
X285661723Y-135284080D02*
X285599819Y-135036461D01*
X285599819Y-135036461D02*
X285599819Y-134850747D01*
X285599819Y-134850747D02*
X285661723Y-134603128D01*
X285661723Y-134603128D02*
X285723628Y-134479319D01*
X285723628Y-134479319D02*
X285847438Y-134355509D01*
X285847438Y-134355509D02*
X286033152Y-134293604D01*
X286033152Y-134293604D02*
X286156961Y-134293604D01*
X286156961Y-134293604D02*
X286342676Y-134355509D01*
X286342676Y-134355509D02*
X286404580Y-134417414D01*
D10*
D11*
X285661723Y-185593604D02*
X285661723Y-184293604D01*
X285661723Y-184293604D02*
X285971247Y-184293604D01*
X285971247Y-184293604D02*
X286156961Y-184355509D01*
X286156961Y-184355509D02*
X286280771Y-184479319D01*
X286280771Y-184479319D02*
X286342676Y-184603128D01*
X286342676Y-184603128D02*
X286404580Y-184850747D01*
X286404580Y-184850747D02*
X286404580Y-185036461D01*
X286404580Y-185036461D02*
X286342676Y-185284080D01*
X286342676Y-185284080D02*
X286280771Y-185407890D01*
X286280771Y-185407890D02*
X286156961Y-185531700D01*
X286156961Y-185531700D02*
X285971247Y-185593604D01*
X285971247Y-185593604D02*
X285661723Y-185593604D01*
D10*
D11*
X200458026Y-193793328D02*
X200458026Y-192293328D01*
X200458026Y-192293328D02*
X200815169Y-192293328D01*
X200815169Y-192293328D02*
X201029455Y-192364757D01*
X201029455Y-192364757D02*
X201172312Y-192507614D01*
X201172312Y-192507614D02*
X201243741Y-192650471D01*
X201243741Y-192650471D02*
X201315169Y-192936185D01*
X201315169Y-192936185D02*
X201315169Y-193150471D01*
X201315169Y-193150471D02*
X201243741Y-193436185D01*
X201243741Y-193436185D02*
X201172312Y-193579042D01*
X201172312Y-193579042D02*
X201029455Y-193721900D01*
X201029455Y-193721900D02*
X200815169Y-193793328D01*
X200815169Y-193793328D02*
X200458026Y-193793328D01*
X202600884Y-193793328D02*
X202600884Y-193007614D01*
X202600884Y-193007614D02*
X202529455Y-192864757D01*
X202529455Y-192864757D02*
X202386598Y-192793328D01*
X202386598Y-192793328D02*
X202100884Y-192793328D01*
X202100884Y-192793328D02*
X201958026Y-192864757D01*
X202600884Y-193721900D02*
X202458026Y-193793328D01*
X202458026Y-193793328D02*
X202100884Y-193793328D01*
X202100884Y-193793328D02*
X201958026Y-193721900D01*
X201958026Y-193721900D02*
X201886598Y-193579042D01*
X201886598Y-193579042D02*
X201886598Y-193436185D01*
X201886598Y-193436185D02*
X201958026Y-193293328D01*
X201958026Y-193293328D02*
X202100884Y-193221900D01*
X202100884Y-193221900D02*
X202458026Y-193221900D01*
X202458026Y-193221900D02*
X202600884Y-193150471D01*
X203100884Y-192793328D02*
X203672312Y-192793328D01*
X203315169Y-192293328D02*
X203315169Y-193579042D01*
X203315169Y-193579042D02*
X203386598Y-193721900D01*
X203386598Y-193721900D02*
X203529455Y-193793328D01*
X203529455Y-193793328D02*
X203672312Y-193793328D01*
X204743741Y-193721900D02*
X204600884Y-193793328D01*
X204600884Y-193793328D02*
X204315170Y-193793328D01*
X204315170Y-193793328D02*
X204172312Y-193721900D01*
X204172312Y-193721900D02*
X204100884Y-193579042D01*
X204100884Y-193579042D02*
X204100884Y-193007614D01*
X204100884Y-193007614D02*
X204172312Y-192864757D01*
X204172312Y-192864757D02*
X204315170Y-192793328D01*
X204315170Y-192793328D02*
X204600884Y-192793328D01*
X204600884Y-192793328D02*
X204743741Y-192864757D01*
X204743741Y-192864757D02*
X204815170Y-193007614D01*
X204815170Y-193007614D02*
X204815170Y-193150471D01*
X204815170Y-193150471D02*
X204100884Y-193293328D01*
X205458026Y-193650471D02*
X205529455Y-193721900D01*
X205529455Y-193721900D02*
X205458026Y-193793328D01*
X205458026Y-193793328D02*
X205386598Y-193721900D01*
X205386598Y-193721900D02*
X205458026Y-193650471D01*
X205458026Y-193650471D02*
X205458026Y-193793328D01*
X205458026Y-192864757D02*
X205529455Y-192936185D01*
X205529455Y-192936185D02*
X205458026Y-193007614D01*
X205458026Y-193007614D02*
X205386598Y-192936185D01*
X205386598Y-192936185D02*
X205458026Y-192864757D01*
X205458026Y-192864757D02*
X205458026Y-193007614D01*
D10*
D11*
X177002200Y-194507200D02*
X285002200Y-194507200D01*
D10*
D11*
X178458026Y-196593328D02*
X178458026Y-195093328D01*
X179315169Y-196593328D02*
X178672312Y-195736185D01*
X179315169Y-195093328D02*
X178458026Y-195950471D01*
X179958026Y-196593328D02*
X179958026Y-195593328D01*
X179958026Y-195093328D02*
X179886598Y-195164757D01*
X179886598Y-195164757D02*
X179958026Y-195236185D01*
X179958026Y-195236185D02*
X180029455Y-195164757D01*
X180029455Y-195164757D02*
X179958026Y-195093328D01*
X179958026Y-195093328D02*
X179958026Y-195236185D01*
X181529455Y-196450471D02*
X181458027Y-196521900D01*
X181458027Y-196521900D02*
X181243741Y-196593328D01*
X181243741Y-196593328D02*
X181100884Y-196593328D01*
X181100884Y-196593328D02*
X180886598Y-196521900D01*
X180886598Y-196521900D02*
X180743741Y-196379042D01*
X180743741Y-196379042D02*
X180672312Y-196236185D01*
X180672312Y-196236185D02*
X180600884Y-195950471D01*
X180600884Y-195950471D02*
X180600884Y-195736185D01*
X180600884Y-195736185D02*
X180672312Y-195450471D01*
X180672312Y-195450471D02*
X180743741Y-195307614D01*
X180743741Y-195307614D02*
X180886598Y-195164757D01*
X180886598Y-195164757D02*
X181100884Y-195093328D01*
X181100884Y-195093328D02*
X181243741Y-195093328D01*
X181243741Y-195093328D02*
X181458027Y-195164757D01*
X181458027Y-195164757D02*
X181529455Y-195236185D01*
X182815170Y-196593328D02*
X182815170Y-195807614D01*
X182815170Y-195807614D02*
X182743741Y-195664757D01*
X182743741Y-195664757D02*
X182600884Y-195593328D01*
X182600884Y-195593328D02*
X182315170Y-195593328D01*
X182315170Y-195593328D02*
X182172312Y-195664757D01*
X182815170Y-196521900D02*
X182672312Y-196593328D01*
X182672312Y-196593328D02*
X182315170Y-196593328D01*
X182315170Y-196593328D02*
X182172312Y-196521900D01*
X182172312Y-196521900D02*
X182100884Y-196379042D01*
X182100884Y-196379042D02*
X182100884Y-196236185D01*
X182100884Y-196236185D02*
X182172312Y-196093328D01*
X182172312Y-196093328D02*
X182315170Y-196021900D01*
X182315170Y-196021900D02*
X182672312Y-196021900D01*
X182672312Y-196021900D02*
X182815170Y-195950471D01*
X184172313Y-196593328D02*
X184172313Y-195093328D01*
X184172313Y-196521900D02*
X184029455Y-196593328D01*
X184029455Y-196593328D02*
X183743741Y-196593328D01*
X183743741Y-196593328D02*
X183600884Y-196521900D01*
X183600884Y-196521900D02*
X183529455Y-196450471D01*
X183529455Y-196450471D02*
X183458027Y-196307614D01*
X183458027Y-196307614D02*
X183458027Y-195879042D01*
X183458027Y-195879042D02*
X183529455Y-195736185D01*
X183529455Y-195736185D02*
X183600884Y-195664757D01*
X183600884Y-195664757D02*
X183743741Y-195593328D01*
X183743741Y-195593328D02*
X184029455Y-195593328D01*
X184029455Y-195593328D02*
X184172313Y-195664757D01*
X186029455Y-195807614D02*
X186529455Y-195807614D01*
X186743741Y-196593328D02*
X186029455Y-196593328D01*
X186029455Y-196593328D02*
X186029455Y-195093328D01*
X186029455Y-195093328D02*
X186743741Y-195093328D01*
X187386598Y-196450471D02*
X187458027Y-196521900D01*
X187458027Y-196521900D02*
X187386598Y-196593328D01*
X187386598Y-196593328D02*
X187315170Y-196521900D01*
X187315170Y-196521900D02*
X187386598Y-196450471D01*
X187386598Y-196450471D02*
X187386598Y-196593328D01*
X188100884Y-196593328D02*
X188100884Y-195093328D01*
X188100884Y-195093328D02*
X188458027Y-195093328D01*
X188458027Y-195093328D02*
X188672313Y-195164757D01*
X188672313Y-195164757D02*
X188815170Y-195307614D01*
X188815170Y-195307614D02*
X188886599Y-195450471D01*
X188886599Y-195450471D02*
X188958027Y-195736185D01*
X188958027Y-195736185D02*
X188958027Y-195950471D01*
X188958027Y-195950471D02*
X188886599Y-196236185D01*
X188886599Y-196236185D02*
X188815170Y-196379042D01*
X188815170Y-196379042D02*
X188672313Y-196521900D01*
X188672313Y-196521900D02*
X188458027Y-196593328D01*
X188458027Y-196593328D02*
X188100884Y-196593328D01*
X189600884Y-196450471D02*
X189672313Y-196521900D01*
X189672313Y-196521900D02*
X189600884Y-196593328D01*
X189600884Y-196593328D02*
X189529456Y-196521900D01*
X189529456Y-196521900D02*
X189600884Y-196450471D01*
X189600884Y-196450471D02*
X189600884Y-196593328D01*
X190243742Y-196164757D02*
X190958028Y-196164757D01*
X190100885Y-196593328D02*
X190600885Y-195093328D01*
X190600885Y-195093328D02*
X191100885Y-196593328D01*
X191600884Y-196450471D02*
X191672313Y-196521900D01*
X191672313Y-196521900D02*
X191600884Y-196593328D01*
X191600884Y-196593328D02*
X191529456Y-196521900D01*
X191529456Y-196521900D02*
X191600884Y-196450471D01*
X191600884Y-196450471D02*
X191600884Y-196593328D01*
X193672313Y-195736185D02*
X193529456Y-195664757D01*
X193529456Y-195664757D02*
X193458027Y-195593328D01*
X193458027Y-195593328D02*
X193386599Y-195450471D01*
X193386599Y-195450471D02*
X193386599Y-195379042D01*
X193386599Y-195379042D02*
X193458027Y-195236185D01*
X193458027Y-195236185D02*
X193529456Y-195164757D01*
X193529456Y-195164757D02*
X193672313Y-195093328D01*
X193672313Y-195093328D02*
X193958027Y-195093328D01*
X193958027Y-195093328D02*
X194100885Y-195164757D01*
X194100885Y-195164757D02*
X194172313Y-195236185D01*
X194172313Y-195236185D02*
X194243742Y-195379042D01*
X194243742Y-195379042D02*
X194243742Y-195450471D01*
X194243742Y-195450471D02*
X194172313Y-195593328D01*
X194172313Y-195593328D02*
X194100885Y-195664757D01*
X194100885Y-195664757D02*
X193958027Y-195736185D01*
X193958027Y-195736185D02*
X193672313Y-195736185D01*
X193672313Y-195736185D02*
X193529456Y-195807614D01*
X193529456Y-195807614D02*
X193458027Y-195879042D01*
X193458027Y-195879042D02*
X193386599Y-196021900D01*
X193386599Y-196021900D02*
X193386599Y-196307614D01*
X193386599Y-196307614D02*
X193458027Y-196450471D01*
X193458027Y-196450471D02*
X193529456Y-196521900D01*
X193529456Y-196521900D02*
X193672313Y-196593328D01*
X193672313Y-196593328D02*
X193958027Y-196593328D01*
X193958027Y-196593328D02*
X194100885Y-196521900D01*
X194100885Y-196521900D02*
X194172313Y-196450471D01*
X194172313Y-196450471D02*
X194243742Y-196307614D01*
X194243742Y-196307614D02*
X194243742Y-196021900D01*
X194243742Y-196021900D02*
X194172313Y-195879042D01*
X194172313Y-195879042D02*
X194100885Y-195807614D01*
X194100885Y-195807614D02*
X193958027Y-195736185D01*
X194886598Y-196450471D02*
X194958027Y-196521900D01*
X194958027Y-196521900D02*
X194886598Y-196593328D01*
X194886598Y-196593328D02*
X194815170Y-196521900D01*
X194815170Y-196521900D02*
X194886598Y-196450471D01*
X194886598Y-196450471D02*
X194886598Y-196593328D01*
X195886599Y-195093328D02*
X196029456Y-195093328D01*
X196029456Y-195093328D02*
X196172313Y-195164757D01*
X196172313Y-195164757D02*
X196243742Y-195236185D01*
X196243742Y-195236185D02*
X196315170Y-195379042D01*
X196315170Y-195379042D02*
X196386599Y-195664757D01*
X196386599Y-195664757D02*
X196386599Y-196021900D01*
X196386599Y-196021900D02*
X196315170Y-196307614D01*
X196315170Y-196307614D02*
X196243742Y-196450471D01*
X196243742Y-196450471D02*
X196172313Y-196521900D01*
X196172313Y-196521900D02*
X196029456Y-196593328D01*
X196029456Y-196593328D02*
X195886599Y-196593328D01*
X195886599Y-196593328D02*
X195743742Y-196521900D01*
X195743742Y-196521900D02*
X195672313Y-196450471D01*
X195672313Y-196450471D02*
X195600884Y-196307614D01*
X195600884Y-196307614D02*
X195529456Y-196021900D01*
X195529456Y-196021900D02*
X195529456Y-195664757D01*
X195529456Y-195664757D02*
X195600884Y-195379042D01*
X195600884Y-195379042D02*
X195672313Y-195236185D01*
X195672313Y-195236185D02*
X195743742Y-195164757D01*
X195743742Y-195164757D02*
X195886599Y-195093328D01*
X197029455Y-196450471D02*
X197100884Y-196521900D01*
X197100884Y-196521900D02*
X197029455Y-196593328D01*
X197029455Y-196593328D02*
X196958027Y-196521900D01*
X196958027Y-196521900D02*
X197029455Y-196450471D01*
X197029455Y-196450471D02*
X197029455Y-196593328D01*
X197958027Y-195736185D02*
X197815170Y-195664757D01*
X197815170Y-195664757D02*
X197743741Y-195593328D01*
X197743741Y-195593328D02*
X197672313Y-195450471D01*
X197672313Y-195450471D02*
X197672313Y-195379042D01*
X197672313Y-195379042D02*
X197743741Y-195236185D01*
X197743741Y-195236185D02*
X197815170Y-195164757D01*
X197815170Y-195164757D02*
X197958027Y-195093328D01*
X197958027Y-195093328D02*
X198243741Y-195093328D01*
X198243741Y-195093328D02*
X198386599Y-195164757D01*
X198386599Y-195164757D02*
X198458027Y-195236185D01*
X198458027Y-195236185D02*
X198529456Y-195379042D01*
X198529456Y-195379042D02*
X198529456Y-195450471D01*
X198529456Y-195450471D02*
X198458027Y-195593328D01*
X198458027Y-195593328D02*
X198386599Y-195664757D01*
X198386599Y-195664757D02*
X198243741Y-195736185D01*
X198243741Y-195736185D02*
X197958027Y-195736185D01*
X197958027Y-195736185D02*
X197815170Y-195807614D01*
X197815170Y-195807614D02*
X197743741Y-195879042D01*
X197743741Y-195879042D02*
X197672313Y-196021900D01*
X197672313Y-196021900D02*
X197672313Y-196307614D01*
X197672313Y-196307614D02*
X197743741Y-196450471D01*
X197743741Y-196450471D02*
X197815170Y-196521900D01*
X197815170Y-196521900D02*
X197958027Y-196593328D01*
X197958027Y-196593328D02*
X198243741Y-196593328D01*
X198243741Y-196593328D02*
X198386599Y-196521900D01*
X198386599Y-196521900D02*
X198458027Y-196450471D01*
X198458027Y-196450471D02*
X198529456Y-196307614D01*
X198529456Y-196307614D02*
X198529456Y-196021900D01*
X198529456Y-196021900D02*
X198458027Y-195879042D01*
X198458027Y-195879042D02*
X198386599Y-195807614D01*
X198386599Y-195807614D02*
X198243741Y-195736185D01*
D10*
D11*
X177002200Y-191507200D02*
X285002200Y-191507200D01*
D10*
D12*
X264413853Y-193785528D02*
X263913853Y-193071242D01*
X263556710Y-193785528D02*
X263556710Y-192285528D01*
X263556710Y-192285528D02*
X264128139Y-192285528D01*
X264128139Y-192285528D02*
X264270996Y-192356957D01*
X264270996Y-192356957D02*
X264342425Y-192428385D01*
X264342425Y-192428385D02*
X264413853Y-192571242D01*
X264413853Y-192571242D02*
X264413853Y-192785528D01*
X264413853Y-192785528D02*
X264342425Y-192928385D01*
X264342425Y-192928385D02*
X264270996Y-192999814D01*
X264270996Y-192999814D02*
X264128139Y-193071242D01*
X264128139Y-193071242D02*
X263556710Y-193071242D01*
X265628139Y-193714100D02*
X265485282Y-193785528D01*
X265485282Y-193785528D02*
X265199568Y-193785528D01*
X265199568Y-193785528D02*
X265056710Y-193714100D01*
X265056710Y-193714100D02*
X264985282Y-193571242D01*
X264985282Y-193571242D02*
X264985282Y-192999814D01*
X264985282Y-192999814D02*
X265056710Y-192856957D01*
X265056710Y-192856957D02*
X265199568Y-192785528D01*
X265199568Y-192785528D02*
X265485282Y-192785528D01*
X265485282Y-192785528D02*
X265628139Y-192856957D01*
X265628139Y-192856957D02*
X265699568Y-192999814D01*
X265699568Y-192999814D02*
X265699568Y-193142671D01*
X265699568Y-193142671D02*
X264985282Y-193285528D01*
X266199567Y-192785528D02*
X266556710Y-193785528D01*
X266556710Y-193785528D02*
X266913853Y-192785528D01*
X267485281Y-193642671D02*
X267556710Y-193714100D01*
X267556710Y-193714100D02*
X267485281Y-193785528D01*
X267485281Y-193785528D02*
X267413853Y-193714100D01*
X267413853Y-193714100D02*
X267485281Y-193642671D01*
X267485281Y-193642671D02*
X267485281Y-193785528D01*
X267485281Y-192856957D02*
X267556710Y-192928385D01*
X267556710Y-192928385D02*
X267485281Y-192999814D01*
X267485281Y-192999814D02*
X267413853Y-192928385D01*
X267413853Y-192928385D02*
X267485281Y-192856957D01*
X267485281Y-192856957D02*
X267485281Y-192999814D01*
D10*
D11*
X178386598Y-193721900D02*
X178600884Y-193793328D01*
X178600884Y-193793328D02*
X178958026Y-193793328D01*
X178958026Y-193793328D02*
X179100884Y-193721900D01*
X179100884Y-193721900D02*
X179172312Y-193650471D01*
X179172312Y-193650471D02*
X179243741Y-193507614D01*
X179243741Y-193507614D02*
X179243741Y-193364757D01*
X179243741Y-193364757D02*
X179172312Y-193221900D01*
X179172312Y-193221900D02*
X179100884Y-193150471D01*
X179100884Y-193150471D02*
X178958026Y-193079042D01*
X178958026Y-193079042D02*
X178672312Y-193007614D01*
X178672312Y-193007614D02*
X178529455Y-192936185D01*
X178529455Y-192936185D02*
X178458026Y-192864757D01*
X178458026Y-192864757D02*
X178386598Y-192721900D01*
X178386598Y-192721900D02*
X178386598Y-192579042D01*
X178386598Y-192579042D02*
X178458026Y-192436185D01*
X178458026Y-192436185D02*
X178529455Y-192364757D01*
X178529455Y-192364757D02*
X178672312Y-192293328D01*
X178672312Y-192293328D02*
X179029455Y-192293328D01*
X179029455Y-192293328D02*
X179243741Y-192364757D01*
X179886597Y-193793328D02*
X179886597Y-192793328D01*
X179886597Y-192293328D02*
X179815169Y-192364757D01*
X179815169Y-192364757D02*
X179886597Y-192436185D01*
X179886597Y-192436185D02*
X179958026Y-192364757D01*
X179958026Y-192364757D02*
X179886597Y-192293328D01*
X179886597Y-192293328D02*
X179886597Y-192436185D01*
X180458026Y-192793328D02*
X181243741Y-192793328D01*
X181243741Y-192793328D02*
X180458026Y-193793328D01*
X180458026Y-193793328D02*
X181243741Y-193793328D01*
X182386598Y-193721900D02*
X182243741Y-193793328D01*
X182243741Y-193793328D02*
X181958027Y-193793328D01*
X181958027Y-193793328D02*
X181815169Y-193721900D01*
X181815169Y-193721900D02*
X181743741Y-193579042D01*
X181743741Y-193579042D02*
X181743741Y-193007614D01*
X181743741Y-193007614D02*
X181815169Y-192864757D01*
X181815169Y-192864757D02*
X181958027Y-192793328D01*
X181958027Y-192793328D02*
X182243741Y-192793328D01*
X182243741Y-192793328D02*
X182386598Y-192864757D01*
X182386598Y-192864757D02*
X182458027Y-193007614D01*
X182458027Y-193007614D02*
X182458027Y-193150471D01*
X182458027Y-193150471D02*
X181743741Y-193293328D01*
X183100883Y-193650471D02*
X183172312Y-193721900D01*
X183172312Y-193721900D02*
X183100883Y-193793328D01*
X183100883Y-193793328D02*
X183029455Y-193721900D01*
X183029455Y-193721900D02*
X183100883Y-193650471D01*
X183100883Y-193650471D02*
X183100883Y-193793328D01*
X183100883Y-192864757D02*
X183172312Y-192936185D01*
X183172312Y-192936185D02*
X183100883Y-193007614D01*
X183100883Y-193007614D02*
X183029455Y-192936185D01*
X183029455Y-192936185D02*
X183100883Y-192864757D01*
X183100883Y-192864757D02*
X183100883Y-193007614D01*
X184886598Y-193364757D02*
X185600884Y-193364757D01*
X184743741Y-193793328D02*
X185243741Y-192293328D01*
X185243741Y-192293328D02*
X185743741Y-193793328D01*
X186886598Y-192793328D02*
X186886598Y-193793328D01*
X186529455Y-192221900D02*
X186172312Y-193293328D01*
X186172312Y-193293328D02*
X187100883Y-193293328D01*
D10*
D11*
X263458026Y-196593328D02*
X263458026Y-195093328D01*
X264815170Y-196593328D02*
X264815170Y-195093328D01*
X264815170Y-196521900D02*
X264672312Y-196593328D01*
X264672312Y-196593328D02*
X264386598Y-196593328D01*
X264386598Y-196593328D02*
X264243741Y-196521900D01*
X264243741Y-196521900D02*
X264172312Y-196450471D01*
X264172312Y-196450471D02*
X264100884Y-196307614D01*
X264100884Y-196307614D02*
X264100884Y-195879042D01*
X264100884Y-195879042D02*
X264172312Y-195736185D01*
X264172312Y-195736185D02*
X264243741Y-195664757D01*
X264243741Y-195664757D02*
X264386598Y-195593328D01*
X264386598Y-195593328D02*
X264672312Y-195593328D01*
X264672312Y-195593328D02*
X264815170Y-195664757D01*
X265529455Y-196450471D02*
X265600884Y-196521900D01*
X265600884Y-196521900D02*
X265529455Y-196593328D01*
X265529455Y-196593328D02*
X265458027Y-196521900D01*
X265458027Y-196521900D02*
X265529455Y-196450471D01*
X265529455Y-196450471D02*
X265529455Y-196593328D01*
X265529455Y-195664757D02*
X265600884Y-195736185D01*
X265600884Y-195736185D02*
X265529455Y-195807614D01*
X265529455Y-195807614D02*
X265458027Y-195736185D01*
X265458027Y-195736185D02*
X265529455Y-195664757D01*
X265529455Y-195664757D02*
X265529455Y-195807614D01*
X268172313Y-196593328D02*
X267315170Y-196593328D01*
X267743741Y-196593328D02*
X267743741Y-195093328D01*
X267743741Y-195093328D02*
X267600884Y-195307614D01*
X267600884Y-195307614D02*
X267458027Y-195450471D01*
X267458027Y-195450471D02*
X267315170Y-195521900D01*
X269886598Y-195021900D02*
X268600884Y-196950471D01*
X271172313Y-196593328D02*
X270315170Y-196593328D01*
X270743741Y-196593328D02*
X270743741Y-195093328D01*
X270743741Y-195093328D02*
X270600884Y-195307614D01*
X270600884Y-195307614D02*
X270458027Y-195450471D01*
X270458027Y-195450471D02*
X270315170Y-195521900D01*
D10*
D11*
X177002200Y-187507200D02*
X285002200Y-187507200D01*
D10*
D13*
X178693928Y-188211638D02*
X179836785Y-188211638D01*
X179015357Y-190211638D02*
X179265357Y-188211638D01*
X180253452Y-190211638D02*
X180420119Y-188878304D01*
X180503452Y-188211638D02*
X180396309Y-188306876D01*
X180396309Y-188306876D02*
X180479643Y-188402114D01*
X180479643Y-188402114D02*
X180586786Y-188306876D01*
X180586786Y-188306876D02*
X180503452Y-188211638D01*
X180503452Y-188211638D02*
X180479643Y-188402114D01*
X181086786Y-188878304D02*
X181848690Y-188878304D01*
X181455833Y-188211638D02*
X181241548Y-189925923D01*
X181241548Y-189925923D02*
X181312976Y-190116400D01*
X181312976Y-190116400D02*
X181491548Y-190211638D01*
X181491548Y-190211638D02*
X181682024Y-190211638D01*
X182634405Y-190211638D02*
X182455833Y-190116400D01*
X182455833Y-190116400D02*
X182384405Y-189925923D01*
X182384405Y-189925923D02*
X182598690Y-188211638D01*
X184170119Y-190116400D02*
X183967738Y-190211638D01*
X183967738Y-190211638D02*
X183586785Y-190211638D01*
X183586785Y-190211638D02*
X183408214Y-190116400D01*
X183408214Y-190116400D02*
X183336785Y-189925923D01*
X183336785Y-189925923D02*
X183432024Y-189164019D01*
X183432024Y-189164019D02*
X183551071Y-188973542D01*
X183551071Y-188973542D02*
X183753452Y-188878304D01*
X183753452Y-188878304D02*
X184134404Y-188878304D01*
X184134404Y-188878304D02*
X184312976Y-188973542D01*
X184312976Y-188973542D02*
X184384404Y-189164019D01*
X184384404Y-189164019D02*
X184360595Y-189354495D01*
X184360595Y-189354495D02*
X183384404Y-189544971D01*
X185134405Y-190021161D02*
X185217738Y-190116400D01*
X185217738Y-190116400D02*
X185110595Y-190211638D01*
X185110595Y-190211638D02*
X185027262Y-190116400D01*
X185027262Y-190116400D02*
X185134405Y-190021161D01*
X185134405Y-190021161D02*
X185110595Y-190211638D01*
X185265357Y-188973542D02*
X185348690Y-189068780D01*
X185348690Y-189068780D02*
X185241548Y-189164019D01*
X185241548Y-189164019D02*
X185158214Y-189068780D01*
X185158214Y-189068780D02*
X185265357Y-188973542D01*
X185265357Y-188973542D02*
X185241548Y-189164019D01*
D10*
D11*
X178958026Y-185607614D02*
X178458026Y-185607614D01*
X178458026Y-186393328D02*
X178458026Y-184893328D01*
X178458026Y-184893328D02*
X179172312Y-184893328D01*
X179743740Y-186393328D02*
X179743740Y-185393328D01*
X179743740Y-184893328D02*
X179672312Y-184964757D01*
X179672312Y-184964757D02*
X179743740Y-185036185D01*
X179743740Y-185036185D02*
X179815169Y-184964757D01*
X179815169Y-184964757D02*
X179743740Y-184893328D01*
X179743740Y-184893328D02*
X179743740Y-185036185D01*
X180672312Y-186393328D02*
X180529455Y-186321900D01*
X180529455Y-186321900D02*
X180458026Y-186179042D01*
X180458026Y-186179042D02*
X180458026Y-184893328D01*
X181815169Y-186321900D02*
X181672312Y-186393328D01*
X181672312Y-186393328D02*
X181386598Y-186393328D01*
X181386598Y-186393328D02*
X181243740Y-186321900D01*
X181243740Y-186321900D02*
X181172312Y-186179042D01*
X181172312Y-186179042D02*
X181172312Y-185607614D01*
X181172312Y-185607614D02*
X181243740Y-185464757D01*
X181243740Y-185464757D02*
X181386598Y-185393328D01*
X181386598Y-185393328D02*
X181672312Y-185393328D01*
X181672312Y-185393328D02*
X181815169Y-185464757D01*
X181815169Y-185464757D02*
X181886598Y-185607614D01*
X181886598Y-185607614D02*
X181886598Y-185750471D01*
X181886598Y-185750471D02*
X181172312Y-185893328D01*
X182529454Y-186250471D02*
X182600883Y-186321900D01*
X182600883Y-186321900D02*
X182529454Y-186393328D01*
X182529454Y-186393328D02*
X182458026Y-186321900D01*
X182458026Y-186321900D02*
X182529454Y-186250471D01*
X182529454Y-186250471D02*
X182529454Y-186393328D01*
X182529454Y-185464757D02*
X182600883Y-185536185D01*
X182600883Y-185536185D02*
X182529454Y-185607614D01*
X182529454Y-185607614D02*
X182458026Y-185536185D01*
X182458026Y-185536185D02*
X182529454Y-185464757D01*
X182529454Y-185464757D02*
X182529454Y-185607614D01*
X184886597Y-185607614D02*
X184386597Y-185607614D01*
X184386597Y-186393328D02*
X184386597Y-184893328D01*
X184386597Y-184893328D02*
X185100883Y-184893328D01*
X185886597Y-186393328D02*
X185743740Y-186321900D01*
X185743740Y-186321900D02*
X185672311Y-186179042D01*
X185672311Y-186179042D02*
X185672311Y-184893328D01*
X186672311Y-186393328D02*
X186529454Y-186321900D01*
X186529454Y-186321900D02*
X186458025Y-186250471D01*
X186458025Y-186250471D02*
X186386597Y-186107614D01*
X186386597Y-186107614D02*
X186386597Y-185679042D01*
X186386597Y-185679042D02*
X186458025Y-185536185D01*
X186458025Y-185536185D02*
X186529454Y-185464757D01*
X186529454Y-185464757D02*
X186672311Y-185393328D01*
X186672311Y-185393328D02*
X186886597Y-185393328D01*
X186886597Y-185393328D02*
X187029454Y-185464757D01*
X187029454Y-185464757D02*
X187100883Y-185536185D01*
X187100883Y-185536185D02*
X187172311Y-185679042D01*
X187172311Y-185679042D02*
X187172311Y-186107614D01*
X187172311Y-186107614D02*
X187100883Y-186250471D01*
X187100883Y-186250471D02*
X187029454Y-186321900D01*
X187029454Y-186321900D02*
X186886597Y-186393328D01*
X186886597Y-186393328D02*
X186672311Y-186393328D01*
X188458026Y-186393328D02*
X188458026Y-185607614D01*
X188458026Y-185607614D02*
X188386597Y-185464757D01*
X188386597Y-185464757D02*
X188243740Y-185393328D01*
X188243740Y-185393328D02*
X187958026Y-185393328D01*
X187958026Y-185393328D02*
X187815168Y-185464757D01*
X188458026Y-186321900D02*
X188315168Y-186393328D01*
X188315168Y-186393328D02*
X187958026Y-186393328D01*
X187958026Y-186393328D02*
X187815168Y-186321900D01*
X187815168Y-186321900D02*
X187743740Y-186179042D01*
X187743740Y-186179042D02*
X187743740Y-186036185D01*
X187743740Y-186036185D02*
X187815168Y-185893328D01*
X187815168Y-185893328D02*
X187958026Y-185821900D01*
X187958026Y-185821900D02*
X188315168Y-185821900D01*
X188315168Y-185821900D02*
X188458026Y-185750471D01*
X188958026Y-185393328D02*
X189529454Y-185393328D01*
X189172311Y-184893328D02*
X189172311Y-186179042D01*
X189172311Y-186179042D02*
X189243740Y-186321900D01*
X189243740Y-186321900D02*
X189386597Y-186393328D01*
X189386597Y-186393328D02*
X189529454Y-186393328D01*
X190029454Y-186393328D02*
X190029454Y-185393328D01*
X190029454Y-184893328D02*
X189958026Y-184964757D01*
X189958026Y-184964757D02*
X190029454Y-185036185D01*
X190029454Y-185036185D02*
X190100883Y-184964757D01*
X190100883Y-184964757D02*
X190029454Y-184893328D01*
X190029454Y-184893328D02*
X190029454Y-185036185D01*
X190743740Y-185393328D02*
X190743740Y-186393328D01*
X190743740Y-185536185D02*
X190815169Y-185464757D01*
X190815169Y-185464757D02*
X190958026Y-185393328D01*
X190958026Y-185393328D02*
X191172312Y-185393328D01*
X191172312Y-185393328D02*
X191315169Y-185464757D01*
X191315169Y-185464757D02*
X191386598Y-185607614D01*
X191386598Y-185607614D02*
X191386598Y-186393328D01*
X192743741Y-185393328D02*
X192743741Y-186607614D01*
X192743741Y-186607614D02*
X192672312Y-186750471D01*
X192672312Y-186750471D02*
X192600883Y-186821900D01*
X192600883Y-186821900D02*
X192458026Y-186893328D01*
X192458026Y-186893328D02*
X192243741Y-186893328D01*
X192243741Y-186893328D02*
X192100883Y-186821900D01*
X192743741Y-186321900D02*
X192600883Y-186393328D01*
X192600883Y-186393328D02*
X192315169Y-186393328D01*
X192315169Y-186393328D02*
X192172312Y-186321900D01*
X192172312Y-186321900D02*
X192100883Y-186250471D01*
X192100883Y-186250471D02*
X192029455Y-186107614D01*
X192029455Y-186107614D02*
X192029455Y-185679042D01*
X192029455Y-185679042D02*
X192100883Y-185536185D01*
X192100883Y-185536185D02*
X192172312Y-185464757D01*
X192172312Y-185464757D02*
X192315169Y-185393328D01*
X192315169Y-185393328D02*
X192600883Y-185393328D01*
X192600883Y-185393328D02*
X192743741Y-185464757D01*
X194315169Y-186250471D02*
X194243741Y-186321900D01*
X194243741Y-186321900D02*
X194029455Y-186393328D01*
X194029455Y-186393328D02*
X193886598Y-186393328D01*
X193886598Y-186393328D02*
X193672312Y-186321900D01*
X193672312Y-186321900D02*
X193529455Y-186179042D01*
X193529455Y-186179042D02*
X193458026Y-186036185D01*
X193458026Y-186036185D02*
X193386598Y-185750471D01*
X193386598Y-185750471D02*
X193386598Y-185536185D01*
X193386598Y-185536185D02*
X193458026Y-185250471D01*
X193458026Y-185250471D02*
X193529455Y-185107614D01*
X193529455Y-185107614D02*
X193672312Y-184964757D01*
X193672312Y-184964757D02*
X193886598Y-184893328D01*
X193886598Y-184893328D02*
X194029455Y-184893328D01*
X194029455Y-184893328D02*
X194243741Y-184964757D01*
X194243741Y-184964757D02*
X194315169Y-185036185D01*
X195600884Y-185393328D02*
X195600884Y-186393328D01*
X194958026Y-185393328D02*
X194958026Y-186179042D01*
X194958026Y-186179042D02*
X195029455Y-186321900D01*
X195029455Y-186321900D02*
X195172312Y-186393328D01*
X195172312Y-186393328D02*
X195386598Y-186393328D01*
X195386598Y-186393328D02*
X195529455Y-186321900D01*
X195529455Y-186321900D02*
X195600884Y-186250471D01*
X196315169Y-186393328D02*
X196315169Y-185393328D01*
X196315169Y-185679042D02*
X196386598Y-185536185D01*
X196386598Y-185536185D02*
X196458027Y-185464757D01*
X196458027Y-185464757D02*
X196600884Y-185393328D01*
X196600884Y-185393328D02*
X196743741Y-185393328D01*
X197243740Y-186393328D02*
X197243740Y-185393328D01*
X197243740Y-185679042D02*
X197315169Y-185536185D01*
X197315169Y-185536185D02*
X197386598Y-185464757D01*
X197386598Y-185464757D02*
X197529455Y-185393328D01*
X197529455Y-185393328D02*
X197672312Y-185393328D01*
X198743740Y-186321900D02*
X198600883Y-186393328D01*
X198600883Y-186393328D02*
X198315169Y-186393328D01*
X198315169Y-186393328D02*
X198172311Y-186321900D01*
X198172311Y-186321900D02*
X198100883Y-186179042D01*
X198100883Y-186179042D02*
X198100883Y-185607614D01*
X198100883Y-185607614D02*
X198172311Y-185464757D01*
X198172311Y-185464757D02*
X198315169Y-185393328D01*
X198315169Y-185393328D02*
X198600883Y-185393328D01*
X198600883Y-185393328D02*
X198743740Y-185464757D01*
X198743740Y-185464757D02*
X198815169Y-185607614D01*
X198815169Y-185607614D02*
X198815169Y-185750471D01*
X198815169Y-185750471D02*
X198100883Y-185893328D01*
X199458025Y-185393328D02*
X199458025Y-186393328D01*
X199458025Y-185536185D02*
X199529454Y-185464757D01*
X199529454Y-185464757D02*
X199672311Y-185393328D01*
X199672311Y-185393328D02*
X199886597Y-185393328D01*
X199886597Y-185393328D02*
X200029454Y-185464757D01*
X200029454Y-185464757D02*
X200100883Y-185607614D01*
X200100883Y-185607614D02*
X200100883Y-186393328D01*
X200600883Y-185393328D02*
X201172311Y-185393328D01*
X200815168Y-184893328D02*
X200815168Y-186179042D01*
X200815168Y-186179042D02*
X200886597Y-186321900D01*
X200886597Y-186321900D02*
X201029454Y-186393328D01*
X201029454Y-186393328D02*
X201172311Y-186393328D01*
X202172311Y-185607614D02*
X201672311Y-185607614D01*
X201672311Y-186393328D02*
X201672311Y-184893328D01*
X201672311Y-184893328D02*
X202386597Y-184893328D01*
X203529454Y-186321900D02*
X203386597Y-186393328D01*
X203386597Y-186393328D02*
X203100883Y-186393328D01*
X203100883Y-186393328D02*
X202958025Y-186321900D01*
X202958025Y-186321900D02*
X202886597Y-186179042D01*
X202886597Y-186179042D02*
X202886597Y-185607614D01*
X202886597Y-185607614D02*
X202958025Y-185464757D01*
X202958025Y-185464757D02*
X203100883Y-185393328D01*
X203100883Y-185393328D02*
X203386597Y-185393328D01*
X203386597Y-185393328D02*
X203529454Y-185464757D01*
X203529454Y-185464757D02*
X203600883Y-185607614D01*
X203600883Y-185607614D02*
X203600883Y-185750471D01*
X203600883Y-185750471D02*
X202886597Y-185893328D01*
X204815168Y-186321900D02*
X204672311Y-186393328D01*
X204672311Y-186393328D02*
X204386597Y-186393328D01*
X204386597Y-186393328D02*
X204243739Y-186321900D01*
X204243739Y-186321900D02*
X204172311Y-186179042D01*
X204172311Y-186179042D02*
X204172311Y-185607614D01*
X204172311Y-185607614D02*
X204243739Y-185464757D01*
X204243739Y-185464757D02*
X204386597Y-185393328D01*
X204386597Y-185393328D02*
X204672311Y-185393328D01*
X204672311Y-185393328D02*
X204815168Y-185464757D01*
X204815168Y-185464757D02*
X204886597Y-185607614D01*
X204886597Y-185607614D02*
X204886597Y-185750471D01*
X204886597Y-185750471D02*
X204172311Y-185893328D01*
X206172311Y-186393328D02*
X206172311Y-184893328D01*
X206172311Y-186321900D02*
X206029453Y-186393328D01*
X206029453Y-186393328D02*
X205743739Y-186393328D01*
X205743739Y-186393328D02*
X205600882Y-186321900D01*
X205600882Y-186321900D02*
X205529453Y-186250471D01*
X205529453Y-186250471D02*
X205458025Y-186107614D01*
X205458025Y-186107614D02*
X205458025Y-185679042D01*
X205458025Y-185679042D02*
X205529453Y-185536185D01*
X205529453Y-185536185D02*
X205600882Y-185464757D01*
X205600882Y-185464757D02*
X205743739Y-185393328D01*
X205743739Y-185393328D02*
X206029453Y-185393328D01*
X206029453Y-185393328D02*
X206172311Y-185464757D01*
X206886596Y-186393328D02*
X206886596Y-184893328D01*
X206886596Y-185464757D02*
X207029454Y-185393328D01*
X207029454Y-185393328D02*
X207315168Y-185393328D01*
X207315168Y-185393328D02*
X207458025Y-185464757D01*
X207458025Y-185464757D02*
X207529454Y-185536185D01*
X207529454Y-185536185D02*
X207600882Y-185679042D01*
X207600882Y-185679042D02*
X207600882Y-186107614D01*
X207600882Y-186107614D02*
X207529454Y-186250471D01*
X207529454Y-186250471D02*
X207458025Y-186321900D01*
X207458025Y-186321900D02*
X207315168Y-186393328D01*
X207315168Y-186393328D02*
X207029454Y-186393328D01*
X207029454Y-186393328D02*
X206886596Y-186321900D01*
X208886597Y-186393328D02*
X208886597Y-185607614D01*
X208886597Y-185607614D02*
X208815168Y-185464757D01*
X208815168Y-185464757D02*
X208672311Y-185393328D01*
X208672311Y-185393328D02*
X208386597Y-185393328D01*
X208386597Y-185393328D02*
X208243739Y-185464757D01*
X208886597Y-186321900D02*
X208743739Y-186393328D01*
X208743739Y-186393328D02*
X208386597Y-186393328D01*
X208386597Y-186393328D02*
X208243739Y-186321900D01*
X208243739Y-186321900D02*
X208172311Y-186179042D01*
X208172311Y-186179042D02*
X208172311Y-186036185D01*
X208172311Y-186036185D02*
X208243739Y-185893328D01*
X208243739Y-185893328D02*
X208386597Y-185821900D01*
X208386597Y-185821900D02*
X208743739Y-185821900D01*
X208743739Y-185821900D02*
X208886597Y-185750471D01*
X210243740Y-186321900D02*
X210100882Y-186393328D01*
X210100882Y-186393328D02*
X209815168Y-186393328D01*
X209815168Y-186393328D02*
X209672311Y-186321900D01*
X209672311Y-186321900D02*
X209600882Y-186250471D01*
X209600882Y-186250471D02*
X209529454Y-186107614D01*
X209529454Y-186107614D02*
X209529454Y-185679042D01*
X209529454Y-185679042D02*
X209600882Y-185536185D01*
X209600882Y-185536185D02*
X209672311Y-185464757D01*
X209672311Y-185464757D02*
X209815168Y-185393328D01*
X209815168Y-185393328D02*
X210100882Y-185393328D01*
X210100882Y-185393328D02*
X210243740Y-185464757D01*
X210886596Y-186393328D02*
X210886596Y-184893328D01*
X211029454Y-185821900D02*
X211458025Y-186393328D01*
X211458025Y-185393328D02*
X210886596Y-185964757D01*
X212100882Y-186393328D02*
X212100882Y-184893328D01*
X212100882Y-184893328D02*
X212600882Y-185964757D01*
X212600882Y-185964757D02*
X213100882Y-184893328D01*
X213100882Y-184893328D02*
X213100882Y-186393328D01*
X214029454Y-186393328D02*
X213886597Y-186321900D01*
X213886597Y-186321900D02*
X213815168Y-186250471D01*
X213815168Y-186250471D02*
X213743740Y-186107614D01*
X213743740Y-186107614D02*
X213743740Y-185679042D01*
X213743740Y-185679042D02*
X213815168Y-185536185D01*
X213815168Y-185536185D02*
X213886597Y-185464757D01*
X213886597Y-185464757D02*
X214029454Y-185393328D01*
X214029454Y-185393328D02*
X214243740Y-185393328D01*
X214243740Y-185393328D02*
X214386597Y-185464757D01*
X214386597Y-185464757D02*
X214458026Y-185536185D01*
X214458026Y-185536185D02*
X214529454Y-185679042D01*
X214529454Y-185679042D02*
X214529454Y-186107614D01*
X214529454Y-186107614D02*
X214458026Y-186250471D01*
X214458026Y-186250471D02*
X214386597Y-186321900D01*
X214386597Y-186321900D02*
X214243740Y-186393328D01*
X214243740Y-186393328D02*
X214029454Y-186393328D01*
X215815169Y-186393328D02*
X215815169Y-184893328D01*
X215815169Y-186321900D02*
X215672311Y-186393328D01*
X215672311Y-186393328D02*
X215386597Y-186393328D01*
X215386597Y-186393328D02*
X215243740Y-186321900D01*
X215243740Y-186321900D02*
X215172311Y-186250471D01*
X215172311Y-186250471D02*
X215100883Y-186107614D01*
X215100883Y-186107614D02*
X215100883Y-185679042D01*
X215100883Y-185679042D02*
X215172311Y-185536185D01*
X215172311Y-185536185D02*
X215243740Y-185464757D01*
X215243740Y-185464757D02*
X215386597Y-185393328D01*
X215386597Y-185393328D02*
X215672311Y-185393328D01*
X215672311Y-185393328D02*
X215815169Y-185464757D01*
X217172312Y-185393328D02*
X217172312Y-186393328D01*
X216529454Y-185393328D02*
X216529454Y-186179042D01*
X216529454Y-186179042D02*
X216600883Y-186321900D01*
X216600883Y-186321900D02*
X216743740Y-186393328D01*
X216743740Y-186393328D02*
X216958026Y-186393328D01*
X216958026Y-186393328D02*
X217100883Y-186321900D01*
X217100883Y-186321900D02*
X217172312Y-186250471D01*
X218100883Y-186393328D02*
X217958026Y-186321900D01*
X217958026Y-186321900D02*
X217886597Y-186179042D01*
X217886597Y-186179042D02*
X217886597Y-184893328D01*
X219243740Y-186321900D02*
X219100883Y-186393328D01*
X219100883Y-186393328D02*
X218815169Y-186393328D01*
X218815169Y-186393328D02*
X218672311Y-186321900D01*
X218672311Y-186321900D02*
X218600883Y-186179042D01*
X218600883Y-186179042D02*
X218600883Y-185607614D01*
X218600883Y-185607614D02*
X218672311Y-185464757D01*
X218672311Y-185464757D02*
X218815169Y-185393328D01*
X218815169Y-185393328D02*
X219100883Y-185393328D01*
X219100883Y-185393328D02*
X219243740Y-185464757D01*
X219243740Y-185464757D02*
X219315169Y-185607614D01*
X219315169Y-185607614D02*
X219315169Y-185750471D01*
X219315169Y-185750471D02*
X218600883Y-185893328D01*
X219958025Y-186250471D02*
X220029454Y-186321900D01*
X220029454Y-186321900D02*
X219958025Y-186393328D01*
X219958025Y-186393328D02*
X219886597Y-186321900D01*
X219886597Y-186321900D02*
X219958025Y-186250471D01*
X219958025Y-186250471D02*
X219958025Y-186393328D01*
X220672311Y-186393328D02*
X220672311Y-184893328D01*
X220815169Y-185821900D02*
X221243740Y-186393328D01*
X221243740Y-185393328D02*
X220672311Y-185964757D01*
X221886597Y-186393328D02*
X221886597Y-185393328D01*
X221886597Y-184893328D02*
X221815169Y-184964757D01*
X221815169Y-184964757D02*
X221886597Y-185036185D01*
X221886597Y-185036185D02*
X221958026Y-184964757D01*
X221958026Y-184964757D02*
X221886597Y-184893328D01*
X221886597Y-184893328D02*
X221886597Y-185036185D01*
X223243741Y-186321900D02*
X223100883Y-186393328D01*
X223100883Y-186393328D02*
X222815169Y-186393328D01*
X222815169Y-186393328D02*
X222672312Y-186321900D01*
X222672312Y-186321900D02*
X222600883Y-186250471D01*
X222600883Y-186250471D02*
X222529455Y-186107614D01*
X222529455Y-186107614D02*
X222529455Y-185679042D01*
X222529455Y-185679042D02*
X222600883Y-185536185D01*
X222600883Y-185536185D02*
X222672312Y-185464757D01*
X222672312Y-185464757D02*
X222815169Y-185393328D01*
X222815169Y-185393328D02*
X223100883Y-185393328D01*
X223100883Y-185393328D02*
X223243741Y-185464757D01*
X224529455Y-186393328D02*
X224529455Y-185607614D01*
X224529455Y-185607614D02*
X224458026Y-185464757D01*
X224458026Y-185464757D02*
X224315169Y-185393328D01*
X224315169Y-185393328D02*
X224029455Y-185393328D01*
X224029455Y-185393328D02*
X223886597Y-185464757D01*
X224529455Y-186321900D02*
X224386597Y-186393328D01*
X224386597Y-186393328D02*
X224029455Y-186393328D01*
X224029455Y-186393328D02*
X223886597Y-186321900D01*
X223886597Y-186321900D02*
X223815169Y-186179042D01*
X223815169Y-186179042D02*
X223815169Y-186036185D01*
X223815169Y-186036185D02*
X223886597Y-185893328D01*
X223886597Y-185893328D02*
X224029455Y-185821900D01*
X224029455Y-185821900D02*
X224386597Y-185821900D01*
X224386597Y-185821900D02*
X224529455Y-185750471D01*
X225886598Y-186393328D02*
X225886598Y-184893328D01*
X225886598Y-186321900D02*
X225743740Y-186393328D01*
X225743740Y-186393328D02*
X225458026Y-186393328D01*
X225458026Y-186393328D02*
X225315169Y-186321900D01*
X225315169Y-186321900D02*
X225243740Y-186250471D01*
X225243740Y-186250471D02*
X225172312Y-186107614D01*
X225172312Y-186107614D02*
X225172312Y-185679042D01*
X225172312Y-185679042D02*
X225243740Y-185536185D01*
X225243740Y-185536185D02*
X225315169Y-185464757D01*
X225315169Y-185464757D02*
X225458026Y-185393328D01*
X225458026Y-185393328D02*
X225743740Y-185393328D01*
X225743740Y-185393328D02*
X225886598Y-185464757D01*
X226243741Y-186536185D02*
X227386598Y-186536185D01*
X227743740Y-185393328D02*
X227743740Y-186893328D01*
X227743740Y-185464757D02*
X227886598Y-185393328D01*
X227886598Y-185393328D02*
X228172312Y-185393328D01*
X228172312Y-185393328D02*
X228315169Y-185464757D01*
X228315169Y-185464757D02*
X228386598Y-185536185D01*
X228386598Y-185536185D02*
X228458026Y-185679042D01*
X228458026Y-185679042D02*
X228458026Y-186107614D01*
X228458026Y-186107614D02*
X228386598Y-186250471D01*
X228386598Y-186250471D02*
X228315169Y-186321900D01*
X228315169Y-186321900D02*
X228172312Y-186393328D01*
X228172312Y-186393328D02*
X227886598Y-186393328D01*
X227886598Y-186393328D02*
X227743740Y-186321900D01*
X229743741Y-186321900D02*
X229600883Y-186393328D01*
X229600883Y-186393328D02*
X229315169Y-186393328D01*
X229315169Y-186393328D02*
X229172312Y-186321900D01*
X229172312Y-186321900D02*
X229100883Y-186250471D01*
X229100883Y-186250471D02*
X229029455Y-186107614D01*
X229029455Y-186107614D02*
X229029455Y-185679042D01*
X229029455Y-185679042D02*
X229100883Y-185536185D01*
X229100883Y-185536185D02*
X229172312Y-185464757D01*
X229172312Y-185464757D02*
X229315169Y-185393328D01*
X229315169Y-185393328D02*
X229600883Y-185393328D01*
X229600883Y-185393328D02*
X229743741Y-185464757D01*
X230386597Y-186393328D02*
X230386597Y-184893328D01*
X230386597Y-185464757D02*
X230529455Y-185393328D01*
X230529455Y-185393328D02*
X230815169Y-185393328D01*
X230815169Y-185393328D02*
X230958026Y-185464757D01*
X230958026Y-185464757D02*
X231029455Y-185536185D01*
X231029455Y-185536185D02*
X231100883Y-185679042D01*
X231100883Y-185679042D02*
X231100883Y-186107614D01*
X231100883Y-186107614D02*
X231029455Y-186250471D01*
X231029455Y-186250471D02*
X230958026Y-186321900D01*
X230958026Y-186321900D02*
X230815169Y-186393328D01*
X230815169Y-186393328D02*
X230529455Y-186393328D01*
X230529455Y-186393328D02*
X230386597Y-186321900D01*
D10*
D11*
X177002200Y-181507200D02*
X285002200Y-181507200D01*
D10*
D11*
X178386598Y-183621900D02*
X178600884Y-183693328D01*
X178600884Y-183693328D02*
X178958026Y-183693328D01*
X178958026Y-183693328D02*
X179100884Y-183621900D01*
X179100884Y-183621900D02*
X179172312Y-183550471D01*
X179172312Y-183550471D02*
X179243741Y-183407614D01*
X179243741Y-183407614D02*
X179243741Y-183264757D01*
X179243741Y-183264757D02*
X179172312Y-183121900D01*
X179172312Y-183121900D02*
X179100884Y-183050471D01*
X179100884Y-183050471D02*
X178958026Y-182979042D01*
X178958026Y-182979042D02*
X178672312Y-182907614D01*
X178672312Y-182907614D02*
X178529455Y-182836185D01*
X178529455Y-182836185D02*
X178458026Y-182764757D01*
X178458026Y-182764757D02*
X178386598Y-182621900D01*
X178386598Y-182621900D02*
X178386598Y-182479042D01*
X178386598Y-182479042D02*
X178458026Y-182336185D01*
X178458026Y-182336185D02*
X178529455Y-182264757D01*
X178529455Y-182264757D02*
X178672312Y-182193328D01*
X178672312Y-182193328D02*
X179029455Y-182193328D01*
X179029455Y-182193328D02*
X179243741Y-182264757D01*
X179886597Y-183693328D02*
X179886597Y-182193328D01*
X180529455Y-183693328D02*
X180529455Y-182907614D01*
X180529455Y-182907614D02*
X180458026Y-182764757D01*
X180458026Y-182764757D02*
X180315169Y-182693328D01*
X180315169Y-182693328D02*
X180100883Y-182693328D01*
X180100883Y-182693328D02*
X179958026Y-182764757D01*
X179958026Y-182764757D02*
X179886597Y-182836185D01*
X181815169Y-183621900D02*
X181672312Y-183693328D01*
X181672312Y-183693328D02*
X181386598Y-183693328D01*
X181386598Y-183693328D02*
X181243740Y-183621900D01*
X181243740Y-183621900D02*
X181172312Y-183479042D01*
X181172312Y-183479042D02*
X181172312Y-182907614D01*
X181172312Y-182907614D02*
X181243740Y-182764757D01*
X181243740Y-182764757D02*
X181386598Y-182693328D01*
X181386598Y-182693328D02*
X181672312Y-182693328D01*
X181672312Y-182693328D02*
X181815169Y-182764757D01*
X181815169Y-182764757D02*
X181886598Y-182907614D01*
X181886598Y-182907614D02*
X181886598Y-183050471D01*
X181886598Y-183050471D02*
X181172312Y-183193328D01*
X183100883Y-183621900D02*
X182958026Y-183693328D01*
X182958026Y-183693328D02*
X182672312Y-183693328D01*
X182672312Y-183693328D02*
X182529454Y-183621900D01*
X182529454Y-183621900D02*
X182458026Y-183479042D01*
X182458026Y-183479042D02*
X182458026Y-182907614D01*
X182458026Y-182907614D02*
X182529454Y-182764757D01*
X182529454Y-182764757D02*
X182672312Y-182693328D01*
X182672312Y-182693328D02*
X182958026Y-182693328D01*
X182958026Y-182693328D02*
X183100883Y-182764757D01*
X183100883Y-182764757D02*
X183172312Y-182907614D01*
X183172312Y-182907614D02*
X183172312Y-183050471D01*
X183172312Y-183050471D02*
X182458026Y-183193328D01*
X183600883Y-182693328D02*
X184172311Y-182693328D01*
X183815168Y-182193328D02*
X183815168Y-183479042D01*
X183815168Y-183479042D02*
X183886597Y-183621900D01*
X183886597Y-183621900D02*
X184029454Y-183693328D01*
X184029454Y-183693328D02*
X184172311Y-183693328D01*
X184672311Y-183550471D02*
X184743740Y-183621900D01*
X184743740Y-183621900D02*
X184672311Y-183693328D01*
X184672311Y-183693328D02*
X184600883Y-183621900D01*
X184600883Y-183621900D02*
X184672311Y-183550471D01*
X184672311Y-183550471D02*
X184672311Y-183693328D01*
X184672311Y-182764757D02*
X184743740Y-182836185D01*
X184743740Y-182836185D02*
X184672311Y-182907614D01*
X184672311Y-182907614D02*
X184600883Y-182836185D01*
X184600883Y-182836185D02*
X184672311Y-182764757D01*
X184672311Y-182764757D02*
X184672311Y-182907614D01*
D10*
D11*
X197002200Y-191507200D02*
X197002200Y-194507200D01*
D10*
D11*
X261002200Y-191507200D02*
X261002200Y-198007200D01*
D14*
X70352288Y-16251380D02*
X69780860Y-16251380D01*
X70066574Y-15251380D02*
X70066574Y-16251380D01*
X69447526Y-15251380D02*
X69447526Y-15918047D01*
X69447526Y-15727571D02*
X69399907Y-15822809D01*
X69399907Y-15822809D02*
X69352288Y-15870428D01*
X69352288Y-15870428D02*
X69257050Y-15918047D01*
X69257050Y-15918047D02*
X69161812Y-15918047D01*
X68399907Y-15251380D02*
X68399907Y-15775190D01*
X68399907Y-15775190D02*
X68447526Y-15870428D01*
X68447526Y-15870428D02*
X68542764Y-15918047D01*
X68542764Y-15918047D02*
X68733240Y-15918047D01*
X68733240Y-15918047D02*
X68828478Y-15870428D01*
X68399907Y-15299000D02*
X68495145Y-15251380D01*
X68495145Y-15251380D02*
X68733240Y-15251380D01*
X68733240Y-15251380D02*
X68828478Y-15299000D01*
X68828478Y-15299000D02*
X68876097Y-15394238D01*
X68876097Y-15394238D02*
X68876097Y-15489476D01*
X68876097Y-15489476D02*
X68828478Y-15584714D01*
X68828478Y-15584714D02*
X68733240Y-15632333D01*
X68733240Y-15632333D02*
X68495145Y-15632333D01*
X68495145Y-15632333D02*
X68399907Y-15679952D01*
X67923716Y-15918047D02*
X67923716Y-15251380D01*
X67923716Y-15822809D02*
X67876097Y-15870428D01*
X67876097Y-15870428D02*
X67780859Y-15918047D01*
X67780859Y-15918047D02*
X67638002Y-15918047D01*
X67638002Y-15918047D02*
X67542764Y-15870428D01*
X67542764Y-15870428D02*
X67495145Y-15775190D01*
X67495145Y-15775190D02*
X67495145Y-15251380D01*
X67066573Y-15299000D02*
X66971335Y-15251380D01*
X66971335Y-15251380D02*
X66780859Y-15251380D01*
X66780859Y-15251380D02*
X66685621Y-15299000D01*
X66685621Y-15299000D02*
X66638002Y-15394238D01*
X66638002Y-15394238D02*
X66638002Y-15441857D01*
X66638002Y-15441857D02*
X66685621Y-15537095D01*
X66685621Y-15537095D02*
X66780859Y-15584714D01*
X66780859Y-15584714D02*
X66923716Y-15584714D01*
X66923716Y-15584714D02*
X67018954Y-15632333D01*
X67018954Y-15632333D02*
X67066573Y-15727571D01*
X67066573Y-15727571D02*
X67066573Y-15775190D01*
X67066573Y-15775190D02*
X67018954Y-15870428D01*
X67018954Y-15870428D02*
X66923716Y-15918047D01*
X66923716Y-15918047D02*
X66780859Y-15918047D01*
X66780859Y-15918047D02*
X66685621Y-15870428D01*
X66209430Y-15251380D02*
X66209430Y-15918047D01*
X66209430Y-15822809D02*
X66161811Y-15870428D01*
X66161811Y-15870428D02*
X66066573Y-15918047D01*
X66066573Y-15918047D02*
X65923716Y-15918047D01*
X65923716Y-15918047D02*
X65828478Y-15870428D01*
X65828478Y-15870428D02*
X65780859Y-15775190D01*
X65780859Y-15775190D02*
X65780859Y-15251380D01*
X65780859Y-15775190D02*
X65733240Y-15870428D01*
X65733240Y-15870428D02*
X65638002Y-15918047D01*
X65638002Y-15918047D02*
X65495145Y-15918047D01*
X65495145Y-15918047D02*
X65399906Y-15870428D01*
X65399906Y-15870428D02*
X65352287Y-15775190D01*
X65352287Y-15775190D02*
X65352287Y-15251380D01*
X64876097Y-15251380D02*
X64876097Y-15918047D01*
X64876097Y-16251380D02*
X64923716Y-16203761D01*
X64923716Y-16203761D02*
X64876097Y-16156142D01*
X64876097Y-16156142D02*
X64828478Y-16203761D01*
X64828478Y-16203761D02*
X64876097Y-16251380D01*
X64876097Y-16251380D02*
X64876097Y-16156142D01*
X64542764Y-15918047D02*
X64161812Y-15918047D01*
X64399907Y-16251380D02*
X64399907Y-15394238D01*
X64399907Y-15394238D02*
X64352288Y-15299000D01*
X64352288Y-15299000D02*
X64257050Y-15251380D01*
X64257050Y-15251380D02*
X64161812Y-15251380D01*
X63971335Y-15918047D02*
X63590383Y-15918047D01*
X63828478Y-16251380D02*
X63828478Y-15394238D01*
X63828478Y-15394238D02*
X63780859Y-15299000D01*
X63780859Y-15299000D02*
X63685621Y-15251380D01*
X63685621Y-15251380D02*
X63590383Y-15251380D01*
X62876097Y-15299000D02*
X62971335Y-15251380D01*
X62971335Y-15251380D02*
X63161811Y-15251380D01*
X63161811Y-15251380D02*
X63257049Y-15299000D01*
X63257049Y-15299000D02*
X63304668Y-15394238D01*
X63304668Y-15394238D02*
X63304668Y-15775190D01*
X63304668Y-15775190D02*
X63257049Y-15870428D01*
X63257049Y-15870428D02*
X63161811Y-15918047D01*
X63161811Y-15918047D02*
X62971335Y-15918047D01*
X62971335Y-15918047D02*
X62876097Y-15870428D01*
X62876097Y-15870428D02*
X62828478Y-15775190D01*
X62828478Y-15775190D02*
X62828478Y-15679952D01*
X62828478Y-15679952D02*
X63304668Y-15584714D01*
X62399906Y-15251380D02*
X62399906Y-15918047D01*
X62399906Y-15727571D02*
X62352287Y-15822809D01*
X62352287Y-15822809D02*
X62304668Y-15870428D01*
X62304668Y-15870428D02*
X62209430Y-15918047D01*
X62209430Y-15918047D02*
X62114192Y-15918047D01*
X60495144Y-15251380D02*
X61066572Y-15251380D01*
X60780858Y-15251380D02*
X60780858Y-16251380D01*
X60780858Y-16251380D02*
X60876096Y-16108523D01*
X60876096Y-16108523D02*
X60971334Y-16013285D01*
X60971334Y-16013285D02*
X61066572Y-15965666D01*
D12*
X42156510Y-91235304D02*
X42404129Y-91235304D01*
X42404129Y-91235304D02*
X42527939Y-91297209D01*
X42527939Y-91297209D02*
X42651748Y-91421019D01*
X42651748Y-91421019D02*
X42713653Y-91668638D01*
X42713653Y-91668638D02*
X42713653Y-92101971D01*
X42713653Y-92101971D02*
X42651748Y-92349590D01*
X42651748Y-92349590D02*
X42527939Y-92473400D01*
X42527939Y-92473400D02*
X42404129Y-92535304D01*
X42404129Y-92535304D02*
X42156510Y-92535304D01*
X42156510Y-92535304D02*
X42032701Y-92473400D01*
X42032701Y-92473400D02*
X41908891Y-92349590D01*
X41908891Y-92349590D02*
X41846987Y-92101971D01*
X41846987Y-92101971D02*
X41846987Y-91668638D01*
X41846987Y-91668638D02*
X41908891Y-91421019D01*
X41908891Y-91421019D02*
X42032701Y-91297209D01*
X42032701Y-91297209D02*
X42156510Y-91235304D01*
X43270796Y-91668638D02*
X43270796Y-92535304D01*
X43270796Y-91792447D02*
X43332701Y-91730542D01*
X43332701Y-91730542D02*
X43456511Y-91668638D01*
X43456511Y-91668638D02*
X43642225Y-91668638D01*
X43642225Y-91668638D02*
X43766034Y-91730542D01*
X43766034Y-91730542D02*
X43827939Y-91854352D01*
X43827939Y-91854352D02*
X43827939Y-92535304D01*
X44942224Y-92473400D02*
X44818415Y-92535304D01*
X44818415Y-92535304D02*
X44570796Y-92535304D01*
X44570796Y-92535304D02*
X44446986Y-92473400D01*
X44446986Y-92473400D02*
X44385082Y-92349590D01*
X44385082Y-92349590D02*
X44385082Y-91854352D01*
X44385082Y-91854352D02*
X44446986Y-91730542D01*
X44446986Y-91730542D02*
X44570796Y-91668638D01*
X44570796Y-91668638D02*
X44818415Y-91668638D01*
X44818415Y-91668638D02*
X44942224Y-91730542D01*
X44942224Y-91730542D02*
X45004129Y-91854352D01*
X45004129Y-91854352D02*
X45004129Y-91978161D01*
X45004129Y-91978161D02*
X44385082Y-92101971D01*
X46489844Y-92473400D02*
X46675558Y-92535304D01*
X46675558Y-92535304D02*
X46985082Y-92535304D01*
X46985082Y-92535304D02*
X47108891Y-92473400D01*
X47108891Y-92473400D02*
X47170796Y-92411495D01*
X47170796Y-92411495D02*
X47232701Y-92287685D01*
X47232701Y-92287685D02*
X47232701Y-92163876D01*
X47232701Y-92163876D02*
X47170796Y-92040066D01*
X47170796Y-92040066D02*
X47108891Y-91978161D01*
X47108891Y-91978161D02*
X46985082Y-91916257D01*
X46985082Y-91916257D02*
X46737463Y-91854352D01*
X46737463Y-91854352D02*
X46613653Y-91792447D01*
X46613653Y-91792447D02*
X46551748Y-91730542D01*
X46551748Y-91730542D02*
X46489844Y-91606733D01*
X46489844Y-91606733D02*
X46489844Y-91482923D01*
X46489844Y-91482923D02*
X46551748Y-91359114D01*
X46551748Y-91359114D02*
X46613653Y-91297209D01*
X46613653Y-91297209D02*
X46737463Y-91235304D01*
X46737463Y-91235304D02*
X47046986Y-91235304D01*
X47046986Y-91235304D02*
X47232701Y-91297209D01*
X47604129Y-91668638D02*
X48099367Y-91668638D01*
X47789843Y-91235304D02*
X47789843Y-92349590D01*
X47789843Y-92349590D02*
X47851748Y-92473400D01*
X47851748Y-92473400D02*
X47975558Y-92535304D01*
X47975558Y-92535304D02*
X48099367Y-92535304D01*
X48718415Y-92535304D02*
X48594605Y-92473400D01*
X48594605Y-92473400D02*
X48532700Y-92411495D01*
X48532700Y-92411495D02*
X48470796Y-92287685D01*
X48470796Y-92287685D02*
X48470796Y-91916257D01*
X48470796Y-91916257D02*
X48532700Y-91792447D01*
X48532700Y-91792447D02*
X48594605Y-91730542D01*
X48594605Y-91730542D02*
X48718415Y-91668638D01*
X48718415Y-91668638D02*
X48904129Y-91668638D01*
X48904129Y-91668638D02*
X49027938Y-91730542D01*
X49027938Y-91730542D02*
X49089843Y-91792447D01*
X49089843Y-91792447D02*
X49151748Y-91916257D01*
X49151748Y-91916257D02*
X49151748Y-92287685D01*
X49151748Y-92287685D02*
X49089843Y-92411495D01*
X49089843Y-92411495D02*
X49027938Y-92473400D01*
X49027938Y-92473400D02*
X48904129Y-92535304D01*
X48904129Y-92535304D02*
X48718415Y-92535304D01*
X49708890Y-91668638D02*
X49708890Y-92535304D01*
X49708890Y-91792447D02*
X49770795Y-91730542D01*
X49770795Y-91730542D02*
X49894605Y-91668638D01*
X49894605Y-91668638D02*
X50080319Y-91668638D01*
X50080319Y-91668638D02*
X50204128Y-91730542D01*
X50204128Y-91730542D02*
X50266033Y-91854352D01*
X50266033Y-91854352D02*
X50266033Y-92535304D01*
X51380318Y-92473400D02*
X51256509Y-92535304D01*
X51256509Y-92535304D02*
X51008890Y-92535304D01*
X51008890Y-92535304D02*
X50885080Y-92473400D01*
X50885080Y-92473400D02*
X50823176Y-92349590D01*
X50823176Y-92349590D02*
X50823176Y-91854352D01*
X50823176Y-91854352D02*
X50885080Y-91730542D01*
X50885080Y-91730542D02*
X51008890Y-91668638D01*
X51008890Y-91668638D02*
X51256509Y-91668638D01*
X51256509Y-91668638D02*
X51380318Y-91730542D01*
X51380318Y-91730542D02*
X51442223Y-91854352D01*
X51442223Y-91854352D02*
X51442223Y-91978161D01*
X51442223Y-91978161D02*
X50823176Y-92101971D01*
X52927938Y-92473400D02*
X53113652Y-92535304D01*
X53113652Y-92535304D02*
X53423176Y-92535304D01*
X53423176Y-92535304D02*
X53546985Y-92473400D01*
X53546985Y-92473400D02*
X53608890Y-92411495D01*
X53608890Y-92411495D02*
X53670795Y-92287685D01*
X53670795Y-92287685D02*
X53670795Y-92163876D01*
X53670795Y-92163876D02*
X53608890Y-92040066D01*
X53608890Y-92040066D02*
X53546985Y-91978161D01*
X53546985Y-91978161D02*
X53423176Y-91916257D01*
X53423176Y-91916257D02*
X53175557Y-91854352D01*
X53175557Y-91854352D02*
X53051747Y-91792447D01*
X53051747Y-91792447D02*
X52989842Y-91730542D01*
X52989842Y-91730542D02*
X52927938Y-91606733D01*
X52927938Y-91606733D02*
X52927938Y-91482923D01*
X52927938Y-91482923D02*
X52989842Y-91359114D01*
X52989842Y-91359114D02*
X53051747Y-91297209D01*
X53051747Y-91297209D02*
X53175557Y-91235304D01*
X53175557Y-91235304D02*
X53485080Y-91235304D01*
X53485080Y-91235304D02*
X53670795Y-91297209D01*
X54413652Y-92535304D02*
X54289842Y-92473400D01*
X54289842Y-92473400D02*
X54227937Y-92411495D01*
X54227937Y-92411495D02*
X54166033Y-92287685D01*
X54166033Y-92287685D02*
X54166033Y-91916257D01*
X54166033Y-91916257D02*
X54227937Y-91792447D01*
X54227937Y-91792447D02*
X54289842Y-91730542D01*
X54289842Y-91730542D02*
X54413652Y-91668638D01*
X54413652Y-91668638D02*
X54599366Y-91668638D01*
X54599366Y-91668638D02*
X54723175Y-91730542D01*
X54723175Y-91730542D02*
X54785080Y-91792447D01*
X54785080Y-91792447D02*
X54846985Y-91916257D01*
X54846985Y-91916257D02*
X54846985Y-92287685D01*
X54846985Y-92287685D02*
X54785080Y-92411495D01*
X54785080Y-92411495D02*
X54723175Y-92473400D01*
X54723175Y-92473400D02*
X54599366Y-92535304D01*
X54599366Y-92535304D02*
X54413652Y-92535304D01*
X55589842Y-92535304D02*
X55466032Y-92473400D01*
X55466032Y-92473400D02*
X55404127Y-92349590D01*
X55404127Y-92349590D02*
X55404127Y-91235304D01*
X56642222Y-91668638D02*
X56642222Y-92535304D01*
X56085079Y-91668638D02*
X56085079Y-92349590D01*
X56085079Y-92349590D02*
X56146984Y-92473400D01*
X56146984Y-92473400D02*
X56270794Y-92535304D01*
X56270794Y-92535304D02*
X56456508Y-92535304D01*
X56456508Y-92535304D02*
X56580317Y-92473400D01*
X56580317Y-92473400D02*
X56642222Y-92411495D01*
X57075555Y-91668638D02*
X57570793Y-91668638D01*
X57261269Y-91235304D02*
X57261269Y-92349590D01*
X57261269Y-92349590D02*
X57323174Y-92473400D01*
X57323174Y-92473400D02*
X57446984Y-92535304D01*
X57446984Y-92535304D02*
X57570793Y-92535304D01*
X58004126Y-92535304D02*
X58004126Y-91668638D01*
X58004126Y-91235304D02*
X57942222Y-91297209D01*
X57942222Y-91297209D02*
X58004126Y-91359114D01*
X58004126Y-91359114D02*
X58066031Y-91297209D01*
X58066031Y-91297209D02*
X58004126Y-91235304D01*
X58004126Y-91235304D02*
X58004126Y-91359114D01*
X58808889Y-92535304D02*
X58685079Y-92473400D01*
X58685079Y-92473400D02*
X58623174Y-92411495D01*
X58623174Y-92411495D02*
X58561270Y-92287685D01*
X58561270Y-92287685D02*
X58561270Y-91916257D01*
X58561270Y-91916257D02*
X58623174Y-91792447D01*
X58623174Y-91792447D02*
X58685079Y-91730542D01*
X58685079Y-91730542D02*
X58808889Y-91668638D01*
X58808889Y-91668638D02*
X58994603Y-91668638D01*
X58994603Y-91668638D02*
X59118412Y-91730542D01*
X59118412Y-91730542D02*
X59180317Y-91792447D01*
X59180317Y-91792447D02*
X59242222Y-91916257D01*
X59242222Y-91916257D02*
X59242222Y-92287685D01*
X59242222Y-92287685D02*
X59180317Y-92411495D01*
X59180317Y-92411495D02*
X59118412Y-92473400D01*
X59118412Y-92473400D02*
X58994603Y-92535304D01*
X58994603Y-92535304D02*
X58808889Y-92535304D01*
X59799364Y-91668638D02*
X59799364Y-92535304D01*
X59799364Y-91792447D02*
X59861269Y-91730542D01*
X59861269Y-91730542D02*
X59985079Y-91668638D01*
X59985079Y-91668638D02*
X60170793Y-91668638D01*
X60170793Y-91668638D02*
X60294602Y-91730542D01*
X60294602Y-91730542D02*
X60356507Y-91854352D01*
X60356507Y-91854352D02*
X60356507Y-92535304D01*
X60913650Y-92473400D02*
X61037459Y-92535304D01*
X61037459Y-92535304D02*
X61285078Y-92535304D01*
X61285078Y-92535304D02*
X61408888Y-92473400D01*
X61408888Y-92473400D02*
X61470792Y-92349590D01*
X61470792Y-92349590D02*
X61470792Y-92287685D01*
X61470792Y-92287685D02*
X61408888Y-92163876D01*
X61408888Y-92163876D02*
X61285078Y-92101971D01*
X61285078Y-92101971D02*
X61099364Y-92101971D01*
X61099364Y-92101971D02*
X60975554Y-92040066D01*
X60975554Y-92040066D02*
X60913650Y-91916257D01*
X60913650Y-91916257D02*
X60913650Y-91854352D01*
X60913650Y-91854352D02*
X60975554Y-91730542D01*
X60975554Y-91730542D02*
X61099364Y-91668638D01*
X61099364Y-91668638D02*
X61285078Y-91668638D01*
X61285078Y-91668638D02*
X61408888Y-91730542D01*
X63637459Y-92535304D02*
X63018411Y-92535304D01*
X63018411Y-92535304D02*
X63018411Y-91235304D01*
X63885078Y-91235304D02*
X64627935Y-91235304D01*
X64256507Y-92535304D02*
X64256507Y-91235304D01*
X65061268Y-92535304D02*
X65061268Y-91235304D01*
X65061268Y-91235304D02*
X65370792Y-91235304D01*
X65370792Y-91235304D02*
X65556506Y-91297209D01*
X65556506Y-91297209D02*
X65680316Y-91421019D01*
X65680316Y-91421019D02*
X65742221Y-91544828D01*
X65742221Y-91544828D02*
X65804125Y-91792447D01*
X65804125Y-91792447D02*
X65804125Y-91978161D01*
X65804125Y-91978161D02*
X65742221Y-92225780D01*
X65742221Y-92225780D02*
X65680316Y-92349590D01*
X65680316Y-92349590D02*
X65556506Y-92473400D01*
X65556506Y-92473400D02*
X65370792Y-92535304D01*
X65370792Y-92535304D02*
X65061268Y-92535304D01*
D14*
X54436003Y-15165980D02*
X54769336Y-15642171D01*
X55007431Y-15165980D02*
X55007431Y-16165980D01*
X55007431Y-16165980D02*
X54626479Y-16165980D01*
X54626479Y-16165980D02*
X54531241Y-16118361D01*
X54531241Y-16118361D02*
X54483622Y-16070742D01*
X54483622Y-16070742D02*
X54436003Y-15975504D01*
X54436003Y-15975504D02*
X54436003Y-15832647D01*
X54436003Y-15832647D02*
X54483622Y-15737409D01*
X54483622Y-15737409D02*
X54531241Y-15689790D01*
X54531241Y-15689790D02*
X54626479Y-15642171D01*
X54626479Y-15642171D02*
X55007431Y-15642171D01*
X53626479Y-15213600D02*
X53721717Y-15165980D01*
X53721717Y-15165980D02*
X53912193Y-15165980D01*
X53912193Y-15165980D02*
X54007431Y-15213600D01*
X54007431Y-15213600D02*
X54055050Y-15308838D01*
X54055050Y-15308838D02*
X54055050Y-15689790D01*
X54055050Y-15689790D02*
X54007431Y-15785028D01*
X54007431Y-15785028D02*
X53912193Y-15832647D01*
X53912193Y-15832647D02*
X53721717Y-15832647D01*
X53721717Y-15832647D02*
X53626479Y-15785028D01*
X53626479Y-15785028D02*
X53578860Y-15689790D01*
X53578860Y-15689790D02*
X53578860Y-15594552D01*
X53578860Y-15594552D02*
X54055050Y-15499314D01*
X52721717Y-15213600D02*
X52816955Y-15165980D01*
X52816955Y-15165980D02*
X53007431Y-15165980D01*
X53007431Y-15165980D02*
X53102669Y-15213600D01*
X53102669Y-15213600D02*
X53150288Y-15261219D01*
X53150288Y-15261219D02*
X53197907Y-15356457D01*
X53197907Y-15356457D02*
X53197907Y-15642171D01*
X53197907Y-15642171D02*
X53150288Y-15737409D01*
X53150288Y-15737409D02*
X53102669Y-15785028D01*
X53102669Y-15785028D02*
X53007431Y-15832647D01*
X53007431Y-15832647D02*
X52816955Y-15832647D01*
X52816955Y-15832647D02*
X52721717Y-15785028D01*
X51912193Y-15213600D02*
X52007431Y-15165980D01*
X52007431Y-15165980D02*
X52197907Y-15165980D01*
X52197907Y-15165980D02*
X52293145Y-15213600D01*
X52293145Y-15213600D02*
X52340764Y-15308838D01*
X52340764Y-15308838D02*
X52340764Y-15689790D01*
X52340764Y-15689790D02*
X52293145Y-15785028D01*
X52293145Y-15785028D02*
X52197907Y-15832647D01*
X52197907Y-15832647D02*
X52007431Y-15832647D01*
X52007431Y-15832647D02*
X51912193Y-15785028D01*
X51912193Y-15785028D02*
X51864574Y-15689790D01*
X51864574Y-15689790D02*
X51864574Y-15594552D01*
X51864574Y-15594552D02*
X52340764Y-15499314D01*
X51436002Y-15165980D02*
X51436002Y-15832647D01*
X51436002Y-16165980D02*
X51483621Y-16118361D01*
X51483621Y-16118361D02*
X51436002Y-16070742D01*
X51436002Y-16070742D02*
X51388383Y-16118361D01*
X51388383Y-16118361D02*
X51436002Y-16165980D01*
X51436002Y-16165980D02*
X51436002Y-16070742D01*
X51055050Y-15832647D02*
X50816955Y-15165980D01*
X50816955Y-15165980D02*
X50578860Y-15832647D01*
X49816955Y-15213600D02*
X49912193Y-15165980D01*
X49912193Y-15165980D02*
X50102669Y-15165980D01*
X50102669Y-15165980D02*
X50197907Y-15213600D01*
X50197907Y-15213600D02*
X50245526Y-15308838D01*
X50245526Y-15308838D02*
X50245526Y-15689790D01*
X50245526Y-15689790D02*
X50197907Y-15785028D01*
X50197907Y-15785028D02*
X50102669Y-15832647D01*
X50102669Y-15832647D02*
X49912193Y-15832647D01*
X49912193Y-15832647D02*
X49816955Y-15785028D01*
X49816955Y-15785028D02*
X49769336Y-15689790D01*
X49769336Y-15689790D02*
X49769336Y-15594552D01*
X49769336Y-15594552D02*
X50245526Y-15499314D01*
X49340764Y-15165980D02*
X49340764Y-15832647D01*
X49340764Y-15642171D02*
X49293145Y-15737409D01*
X49293145Y-15737409D02*
X49245526Y-15785028D01*
X49245526Y-15785028D02*
X49150288Y-15832647D01*
X49150288Y-15832647D02*
X49055050Y-15832647D01*
D12*
X32082828Y-50659774D02*
X32082828Y-49802632D01*
X33582828Y-50231203D02*
X32082828Y-50231203D01*
X33582828Y-48659775D02*
X32797114Y-48659775D01*
X32797114Y-48659775D02*
X32654257Y-48731203D01*
X32654257Y-48731203D02*
X32582828Y-48874060D01*
X32582828Y-48874060D02*
X32582828Y-49159775D01*
X32582828Y-49159775D02*
X32654257Y-49302632D01*
X33511400Y-48659775D02*
X33582828Y-48802632D01*
X33582828Y-48802632D02*
X33582828Y-49159775D01*
X33582828Y-49159775D02*
X33511400Y-49302632D01*
X33511400Y-49302632D02*
X33368542Y-49374060D01*
X33368542Y-49374060D02*
X33225685Y-49374060D01*
X33225685Y-49374060D02*
X33082828Y-49302632D01*
X33082828Y-49302632D02*
X33011400Y-49159775D01*
X33011400Y-49159775D02*
X33011400Y-48802632D01*
X33011400Y-48802632D02*
X32939971Y-48659775D01*
X32582828Y-47945489D02*
X34082828Y-47945489D01*
X32654257Y-47945489D02*
X32582828Y-47802632D01*
X32582828Y-47802632D02*
X32582828Y-47516917D01*
X32582828Y-47516917D02*
X32654257Y-47374060D01*
X32654257Y-47374060D02*
X32725685Y-47302632D01*
X32725685Y-47302632D02*
X32868542Y-47231203D01*
X32868542Y-47231203D02*
X33297114Y-47231203D01*
X33297114Y-47231203D02*
X33439971Y-47302632D01*
X33439971Y-47302632D02*
X33511400Y-47374060D01*
X33511400Y-47374060D02*
X33582828Y-47516917D01*
X33582828Y-47516917D02*
X33582828Y-47802632D01*
X33582828Y-47802632D02*
X33511400Y-47945489D01*
D14*
X32120758Y-75048619D02*
X31644568Y-75048619D01*
X31644568Y-75048619D02*
X31644568Y-74048619D01*
X43656888Y-16351780D02*
X43085460Y-16351780D01*
X43371174Y-15351780D02*
X43371174Y-16351780D01*
X42752126Y-15351780D02*
X42752126Y-16018447D01*
X42752126Y-15827971D02*
X42704507Y-15923209D01*
X42704507Y-15923209D02*
X42656888Y-15970828D01*
X42656888Y-15970828D02*
X42561650Y-16018447D01*
X42561650Y-16018447D02*
X42466412Y-16018447D01*
X41704507Y-15351780D02*
X41704507Y-15875590D01*
X41704507Y-15875590D02*
X41752126Y-15970828D01*
X41752126Y-15970828D02*
X41847364Y-16018447D01*
X41847364Y-16018447D02*
X42037840Y-16018447D01*
X42037840Y-16018447D02*
X42133078Y-15970828D01*
X41704507Y-15399400D02*
X41799745Y-15351780D01*
X41799745Y-15351780D02*
X42037840Y-15351780D01*
X42037840Y-15351780D02*
X42133078Y-15399400D01*
X42133078Y-15399400D02*
X42180697Y-15494638D01*
X42180697Y-15494638D02*
X42180697Y-15589876D01*
X42180697Y-15589876D02*
X42133078Y-15685114D01*
X42133078Y-15685114D02*
X42037840Y-15732733D01*
X42037840Y-15732733D02*
X41799745Y-15732733D01*
X41799745Y-15732733D02*
X41704507Y-15780352D01*
X41228316Y-16018447D02*
X41228316Y-15351780D01*
X41228316Y-15923209D02*
X41180697Y-15970828D01*
X41180697Y-15970828D02*
X41085459Y-16018447D01*
X41085459Y-16018447D02*
X40942602Y-16018447D01*
X40942602Y-16018447D02*
X40847364Y-15970828D01*
X40847364Y-15970828D02*
X40799745Y-15875590D01*
X40799745Y-15875590D02*
X40799745Y-15351780D01*
X40371173Y-15399400D02*
X40275935Y-15351780D01*
X40275935Y-15351780D02*
X40085459Y-15351780D01*
X40085459Y-15351780D02*
X39990221Y-15399400D01*
X39990221Y-15399400D02*
X39942602Y-15494638D01*
X39942602Y-15494638D02*
X39942602Y-15542257D01*
X39942602Y-15542257D02*
X39990221Y-15637495D01*
X39990221Y-15637495D02*
X40085459Y-15685114D01*
X40085459Y-15685114D02*
X40228316Y-15685114D01*
X40228316Y-15685114D02*
X40323554Y-15732733D01*
X40323554Y-15732733D02*
X40371173Y-15827971D01*
X40371173Y-15827971D02*
X40371173Y-15875590D01*
X40371173Y-15875590D02*
X40323554Y-15970828D01*
X40323554Y-15970828D02*
X40228316Y-16018447D01*
X40228316Y-16018447D02*
X40085459Y-16018447D01*
X40085459Y-16018447D02*
X39990221Y-15970828D01*
X39514030Y-15351780D02*
X39514030Y-16018447D01*
X39514030Y-15923209D02*
X39466411Y-15970828D01*
X39466411Y-15970828D02*
X39371173Y-16018447D01*
X39371173Y-16018447D02*
X39228316Y-16018447D01*
X39228316Y-16018447D02*
X39133078Y-15970828D01*
X39133078Y-15970828D02*
X39085459Y-15875590D01*
X39085459Y-15875590D02*
X39085459Y-15351780D01*
X39085459Y-15875590D02*
X39037840Y-15970828D01*
X39037840Y-15970828D02*
X38942602Y-16018447D01*
X38942602Y-16018447D02*
X38799745Y-16018447D01*
X38799745Y-16018447D02*
X38704506Y-15970828D01*
X38704506Y-15970828D02*
X38656887Y-15875590D01*
X38656887Y-15875590D02*
X38656887Y-15351780D01*
X38180697Y-15351780D02*
X38180697Y-16018447D01*
X38180697Y-16351780D02*
X38228316Y-16304161D01*
X38228316Y-16304161D02*
X38180697Y-16256542D01*
X38180697Y-16256542D02*
X38133078Y-16304161D01*
X38133078Y-16304161D02*
X38180697Y-16351780D01*
X38180697Y-16351780D02*
X38180697Y-16256542D01*
X37847364Y-16018447D02*
X37466412Y-16018447D01*
X37704507Y-16351780D02*
X37704507Y-15494638D01*
X37704507Y-15494638D02*
X37656888Y-15399400D01*
X37656888Y-15399400D02*
X37561650Y-15351780D01*
X37561650Y-15351780D02*
X37466412Y-15351780D01*
X37275935Y-16018447D02*
X36894983Y-16018447D01*
X37133078Y-16351780D02*
X37133078Y-15494638D01*
X37133078Y-15494638D02*
X37085459Y-15399400D01*
X37085459Y-15399400D02*
X36990221Y-15351780D01*
X36990221Y-15351780D02*
X36894983Y-15351780D01*
X36180697Y-15399400D02*
X36275935Y-15351780D01*
X36275935Y-15351780D02*
X36466411Y-15351780D01*
X36466411Y-15351780D02*
X36561649Y-15399400D01*
X36561649Y-15399400D02*
X36609268Y-15494638D01*
X36609268Y-15494638D02*
X36609268Y-15875590D01*
X36609268Y-15875590D02*
X36561649Y-15970828D01*
X36561649Y-15970828D02*
X36466411Y-16018447D01*
X36466411Y-16018447D02*
X36275935Y-16018447D01*
X36275935Y-16018447D02*
X36180697Y-15970828D01*
X36180697Y-15970828D02*
X36133078Y-15875590D01*
X36133078Y-15875590D02*
X36133078Y-15780352D01*
X36133078Y-15780352D02*
X36609268Y-15685114D01*
X35704506Y-15351780D02*
X35704506Y-16018447D01*
X35704506Y-15827971D02*
X35656887Y-15923209D01*
X35656887Y-15923209D02*
X35609268Y-15970828D01*
X35609268Y-15970828D02*
X35514030Y-16018447D01*
X35514030Y-16018447D02*
X35418792Y-16018447D01*
X34371172Y-16256542D02*
X34323553Y-16304161D01*
X34323553Y-16304161D02*
X34228315Y-16351780D01*
X34228315Y-16351780D02*
X33990220Y-16351780D01*
X33990220Y-16351780D02*
X33894982Y-16304161D01*
X33894982Y-16304161D02*
X33847363Y-16256542D01*
X33847363Y-16256542D02*
X33799744Y-16161304D01*
X33799744Y-16161304D02*
X33799744Y-16066066D01*
X33799744Y-16066066D02*
X33847363Y-15923209D01*
X33847363Y-15923209D02*
X34418791Y-15351780D01*
X34418791Y-15351780D02*
X33799744Y-15351780D01*
D12*
X32154257Y-42601774D02*
X32082828Y-42744632D01*
X32082828Y-42744632D02*
X32082828Y-42958917D01*
X32082828Y-42958917D02*
X32154257Y-43173203D01*
X32154257Y-43173203D02*
X32297114Y-43316060D01*
X32297114Y-43316060D02*
X32439971Y-43387489D01*
X32439971Y-43387489D02*
X32725685Y-43458917D01*
X32725685Y-43458917D02*
X32939971Y-43458917D01*
X32939971Y-43458917D02*
X33225685Y-43387489D01*
X33225685Y-43387489D02*
X33368542Y-43316060D01*
X33368542Y-43316060D02*
X33511400Y-43173203D01*
X33511400Y-43173203D02*
X33582828Y-42958917D01*
X33582828Y-42958917D02*
X33582828Y-42816060D01*
X33582828Y-42816060D02*
X33511400Y-42601774D01*
X33511400Y-42601774D02*
X33439971Y-42530346D01*
X33439971Y-42530346D02*
X32939971Y-42530346D01*
X32939971Y-42530346D02*
X32939971Y-42816060D01*
X33582828Y-41887489D02*
X32082828Y-41887489D01*
X32082828Y-41887489D02*
X33582828Y-41030346D01*
X33582828Y-41030346D02*
X32082828Y-41030346D01*
X33582828Y-40316060D02*
X32082828Y-40316060D01*
X32082828Y-40316060D02*
X32082828Y-39958917D01*
X32082828Y-39958917D02*
X32154257Y-39744631D01*
X32154257Y-39744631D02*
X32297114Y-39601774D01*
X32297114Y-39601774D02*
X32439971Y-39530345D01*
X32439971Y-39530345D02*
X32725685Y-39458917D01*
X32725685Y-39458917D02*
X32939971Y-39458917D01*
X32939971Y-39458917D02*
X33225685Y-39530345D01*
X33225685Y-39530345D02*
X33368542Y-39601774D01*
X33368542Y-39601774D02*
X33511400Y-39744631D01*
X33511400Y-39744631D02*
X33582828Y-39958917D01*
X33582828Y-39958917D02*
X33582828Y-40316060D01*
D14*
X31501711Y-71508619D02*
X32073139Y-71508619D01*
X31787425Y-72508619D02*
X31787425Y-71508619D01*
D12*
X57689114Y-77931489D02*
X57689114Y-77431489D01*
X58474828Y-77217203D02*
X58474828Y-77931489D01*
X58474828Y-77931489D02*
X56974828Y-77931489D01*
X56974828Y-77931489D02*
X56974828Y-77217203D01*
X58403400Y-76645774D02*
X58474828Y-76431489D01*
X58474828Y-76431489D02*
X58474828Y-76074346D01*
X58474828Y-76074346D02*
X58403400Y-75931489D01*
X58403400Y-75931489D02*
X58331971Y-75860060D01*
X58331971Y-75860060D02*
X58189114Y-75788631D01*
X58189114Y-75788631D02*
X58046257Y-75788631D01*
X58046257Y-75788631D02*
X57903400Y-75860060D01*
X57903400Y-75860060D02*
X57831971Y-75931489D01*
X57831971Y-75931489D02*
X57760542Y-76074346D01*
X57760542Y-76074346D02*
X57689114Y-76360060D01*
X57689114Y-76360060D02*
X57617685Y-76502917D01*
X57617685Y-76502917D02*
X57546257Y-76574346D01*
X57546257Y-76574346D02*
X57403400Y-76645774D01*
X57403400Y-76645774D02*
X57260542Y-76645774D01*
X57260542Y-76645774D02*
X57117685Y-76574346D01*
X57117685Y-76574346D02*
X57046257Y-76502917D01*
X57046257Y-76502917D02*
X56974828Y-76360060D01*
X56974828Y-76360060D02*
X56974828Y-76002917D01*
X56974828Y-76002917D02*
X57046257Y-75788631D01*
X58474828Y-75145775D02*
X56974828Y-75145775D01*
X56974828Y-75145775D02*
X56974828Y-74574346D01*
X56974828Y-74574346D02*
X57046257Y-74431489D01*
X57046257Y-74431489D02*
X57117685Y-74360060D01*
X57117685Y-74360060D02*
X57260542Y-74288632D01*
X57260542Y-74288632D02*
X57474828Y-74288632D01*
X57474828Y-74288632D02*
X57617685Y-74360060D01*
X57617685Y-74360060D02*
X57689114Y-74431489D01*
X57689114Y-74431489D02*
X57760542Y-74574346D01*
X57760542Y-74574346D02*
X57760542Y-75145775D01*
X56974828Y-72645775D02*
X58474828Y-72288632D01*
X58474828Y-72288632D02*
X57403400Y-72002918D01*
X57403400Y-72002918D02*
X58474828Y-71717203D01*
X58474828Y-71717203D02*
X56974828Y-71360061D01*
X58474828Y-69931489D02*
X57760542Y-70431489D01*
X58474828Y-70788632D02*
X56974828Y-70788632D01*
X56974828Y-70788632D02*
X56974828Y-70217203D01*
X56974828Y-70217203D02*
X57046257Y-70074346D01*
X57046257Y-70074346D02*
X57117685Y-70002917D01*
X57117685Y-70002917D02*
X57260542Y-69931489D01*
X57260542Y-69931489D02*
X57474828Y-69931489D01*
X57474828Y-69931489D02*
X57617685Y-70002917D01*
X57617685Y-70002917D02*
X57689114Y-70074346D01*
X57689114Y-70074346D02*
X57760542Y-70217203D01*
X57760542Y-70217203D02*
X57760542Y-70788632D01*
X56974828Y-69002917D02*
X56974828Y-68717203D01*
X56974828Y-68717203D02*
X57046257Y-68574346D01*
X57046257Y-68574346D02*
X57189114Y-68431489D01*
X57189114Y-68431489D02*
X57474828Y-68360060D01*
X57474828Y-68360060D02*
X57974828Y-68360060D01*
X57974828Y-68360060D02*
X58260542Y-68431489D01*
X58260542Y-68431489D02*
X58403400Y-68574346D01*
X58403400Y-68574346D02*
X58474828Y-68717203D01*
X58474828Y-68717203D02*
X58474828Y-69002917D01*
X58474828Y-69002917D02*
X58403400Y-69145775D01*
X58403400Y-69145775D02*
X58260542Y-69288632D01*
X58260542Y-69288632D02*
X57974828Y-69360060D01*
X57974828Y-69360060D02*
X57474828Y-69360060D01*
X57474828Y-69360060D02*
X57189114Y-69288632D01*
X57189114Y-69288632D02*
X57046257Y-69145775D01*
X57046257Y-69145775D02*
X56974828Y-69002917D01*
X56974828Y-67431488D02*
X56974828Y-67145774D01*
X56974828Y-67145774D02*
X57046257Y-67002917D01*
X57046257Y-67002917D02*
X57189114Y-66860060D01*
X57189114Y-66860060D02*
X57474828Y-66788631D01*
X57474828Y-66788631D02*
X57974828Y-66788631D01*
X57974828Y-66788631D02*
X58260542Y-66860060D01*
X58260542Y-66860060D02*
X58403400Y-67002917D01*
X58403400Y-67002917D02*
X58474828Y-67145774D01*
X58474828Y-67145774D02*
X58474828Y-67431488D01*
X58474828Y-67431488D02*
X58403400Y-67574346D01*
X58403400Y-67574346D02*
X58260542Y-67717203D01*
X58260542Y-67717203D02*
X57974828Y-67788631D01*
X57974828Y-67788631D02*
X57474828Y-67788631D01*
X57474828Y-67788631D02*
X57189114Y-67717203D01*
X57189114Y-67717203D02*
X57046257Y-67574346D01*
X57046257Y-67574346D02*
X56974828Y-67431488D01*
X58474828Y-66145774D02*
X56974828Y-66145774D01*
X56974828Y-66145774D02*
X58046257Y-65645774D01*
X58046257Y-65645774D02*
X56974828Y-65145774D01*
X56974828Y-65145774D02*
X58474828Y-65145774D01*
X57903400Y-64431488D02*
X57903400Y-63288631D01*
X56974828Y-62717202D02*
X56974828Y-61788630D01*
X56974828Y-61788630D02*
X57546257Y-62288630D01*
X57546257Y-62288630D02*
X57546257Y-62074345D01*
X57546257Y-62074345D02*
X57617685Y-61931488D01*
X57617685Y-61931488D02*
X57689114Y-61860059D01*
X57689114Y-61860059D02*
X57831971Y-61788630D01*
X57831971Y-61788630D02*
X58189114Y-61788630D01*
X58189114Y-61788630D02*
X58331971Y-61860059D01*
X58331971Y-61860059D02*
X58403400Y-61931488D01*
X58403400Y-61931488D02*
X58474828Y-62074345D01*
X58474828Y-62074345D02*
X58474828Y-62502916D01*
X58474828Y-62502916D02*
X58403400Y-62645773D01*
X58403400Y-62645773D02*
X58331971Y-62717202D01*
X57117685Y-61217202D02*
X57046257Y-61145774D01*
X57046257Y-61145774D02*
X56974828Y-61002917D01*
X56974828Y-61002917D02*
X56974828Y-60645774D01*
X56974828Y-60645774D02*
X57046257Y-60502917D01*
X57046257Y-60502917D02*
X57117685Y-60431488D01*
X57117685Y-60431488D02*
X57260542Y-60360059D01*
X57260542Y-60360059D02*
X57403400Y-60360059D01*
X57403400Y-60360059D02*
X57617685Y-60431488D01*
X57617685Y-60431488D02*
X58474828Y-61288631D01*
X58474828Y-61288631D02*
X58474828Y-60360059D01*
X58474828Y-58574346D02*
X56974828Y-58574346D01*
X56974828Y-58574346D02*
X56974828Y-58217203D01*
X56974828Y-58217203D02*
X57046257Y-58002917D01*
X57046257Y-58002917D02*
X57189114Y-57860060D01*
X57189114Y-57860060D02*
X57331971Y-57788631D01*
X57331971Y-57788631D02*
X57617685Y-57717203D01*
X57617685Y-57717203D02*
X57831971Y-57717203D01*
X57831971Y-57717203D02*
X58117685Y-57788631D01*
X58117685Y-57788631D02*
X58260542Y-57860060D01*
X58260542Y-57860060D02*
X58403400Y-58002917D01*
X58403400Y-58002917D02*
X58474828Y-58217203D01*
X58474828Y-58217203D02*
X58474828Y-58574346D01*
X58403400Y-56502917D02*
X58474828Y-56645774D01*
X58474828Y-56645774D02*
X58474828Y-56931489D01*
X58474828Y-56931489D02*
X58403400Y-57074346D01*
X58403400Y-57074346D02*
X58260542Y-57145774D01*
X58260542Y-57145774D02*
X57689114Y-57145774D01*
X57689114Y-57145774D02*
X57546257Y-57074346D01*
X57546257Y-57074346D02*
X57474828Y-56931489D01*
X57474828Y-56931489D02*
X57474828Y-56645774D01*
X57474828Y-56645774D02*
X57546257Y-56502917D01*
X57546257Y-56502917D02*
X57689114Y-56431489D01*
X57689114Y-56431489D02*
X57831971Y-56431489D01*
X57831971Y-56431489D02*
X57974828Y-57145774D01*
X57474828Y-55931489D02*
X58474828Y-55574346D01*
X58474828Y-55574346D02*
X57474828Y-55217203D01*
X57689114Y-53002918D02*
X57760542Y-52788632D01*
X57760542Y-52788632D02*
X57831971Y-52717203D01*
X57831971Y-52717203D02*
X57974828Y-52645775D01*
X57974828Y-52645775D02*
X58189114Y-52645775D01*
X58189114Y-52645775D02*
X58331971Y-52717203D01*
X58331971Y-52717203D02*
X58403400Y-52788632D01*
X58403400Y-52788632D02*
X58474828Y-52931489D01*
X58474828Y-52931489D02*
X58474828Y-53502918D01*
X58474828Y-53502918D02*
X56974828Y-53502918D01*
X56974828Y-53502918D02*
X56974828Y-53002918D01*
X56974828Y-53002918D02*
X57046257Y-52860061D01*
X57046257Y-52860061D02*
X57117685Y-52788632D01*
X57117685Y-52788632D02*
X57260542Y-52717203D01*
X57260542Y-52717203D02*
X57403400Y-52717203D01*
X57403400Y-52717203D02*
X57546257Y-52788632D01*
X57546257Y-52788632D02*
X57617685Y-52860061D01*
X57617685Y-52860061D02*
X57689114Y-53002918D01*
X57689114Y-53002918D02*
X57689114Y-53502918D01*
X58474828Y-51788632D02*
X58403400Y-51931489D01*
X58403400Y-51931489D02*
X58331971Y-52002918D01*
X58331971Y-52002918D02*
X58189114Y-52074346D01*
X58189114Y-52074346D02*
X57760542Y-52074346D01*
X57760542Y-52074346D02*
X57617685Y-52002918D01*
X57617685Y-52002918D02*
X57546257Y-51931489D01*
X57546257Y-51931489D02*
X57474828Y-51788632D01*
X57474828Y-51788632D02*
X57474828Y-51574346D01*
X57474828Y-51574346D02*
X57546257Y-51431489D01*
X57546257Y-51431489D02*
X57617685Y-51360061D01*
X57617685Y-51360061D02*
X57760542Y-51288632D01*
X57760542Y-51288632D02*
X58189114Y-51288632D01*
X58189114Y-51288632D02*
X58331971Y-51360061D01*
X58331971Y-51360061D02*
X58403400Y-51431489D01*
X58403400Y-51431489D02*
X58474828Y-51574346D01*
X58474828Y-51574346D02*
X58474828Y-51788632D01*
X58474828Y-50002918D02*
X57689114Y-50002918D01*
X57689114Y-50002918D02*
X57546257Y-50074346D01*
X57546257Y-50074346D02*
X57474828Y-50217203D01*
X57474828Y-50217203D02*
X57474828Y-50502918D01*
X57474828Y-50502918D02*
X57546257Y-50645775D01*
X58403400Y-50002918D02*
X58474828Y-50145775D01*
X58474828Y-50145775D02*
X58474828Y-50502918D01*
X58474828Y-50502918D02*
X58403400Y-50645775D01*
X58403400Y-50645775D02*
X58260542Y-50717203D01*
X58260542Y-50717203D02*
X58117685Y-50717203D01*
X58117685Y-50717203D02*
X57974828Y-50645775D01*
X57974828Y-50645775D02*
X57903400Y-50502918D01*
X57903400Y-50502918D02*
X57903400Y-50145775D01*
X57903400Y-50145775D02*
X57831971Y-50002918D01*
X58474828Y-49288632D02*
X57474828Y-49288632D01*
X57760542Y-49288632D02*
X57617685Y-49217203D01*
X57617685Y-49217203D02*
X57546257Y-49145775D01*
X57546257Y-49145775D02*
X57474828Y-49002917D01*
X57474828Y-49002917D02*
X57474828Y-48860060D01*
X58474828Y-47717204D02*
X56974828Y-47717204D01*
X58403400Y-47717204D02*
X58474828Y-47860061D01*
X58474828Y-47860061D02*
X58474828Y-48145775D01*
X58474828Y-48145775D02*
X58403400Y-48288632D01*
X58403400Y-48288632D02*
X58331971Y-48360061D01*
X58331971Y-48360061D02*
X58189114Y-48431489D01*
X58189114Y-48431489D02*
X57760542Y-48431489D01*
X57760542Y-48431489D02*
X57617685Y-48360061D01*
X57617685Y-48360061D02*
X57546257Y-48288632D01*
X57546257Y-48288632D02*
X57474828Y-48145775D01*
X57474828Y-48145775D02*
X57474828Y-47860061D01*
X57474828Y-47860061D02*
X57546257Y-47717204D01*
D14*
X32168377Y-69016238D02*
X32073139Y-68968619D01*
X32073139Y-68968619D02*
X31930282Y-68968619D01*
X31930282Y-68968619D02*
X31787425Y-69016238D01*
X31787425Y-69016238D02*
X31692187Y-69111476D01*
X31692187Y-69111476D02*
X31644568Y-69206714D01*
X31644568Y-69206714D02*
X31596949Y-69397190D01*
X31596949Y-69397190D02*
X31596949Y-69540047D01*
X31596949Y-69540047D02*
X31644568Y-69730523D01*
X31644568Y-69730523D02*
X31692187Y-69825761D01*
X31692187Y-69825761D02*
X31787425Y-69921000D01*
X31787425Y-69921000D02*
X31930282Y-69968619D01*
X31930282Y-69968619D02*
X32025520Y-69968619D01*
X32025520Y-69968619D02*
X32168377Y-69921000D01*
X32168377Y-69921000D02*
X32215996Y-69873380D01*
X32215996Y-69873380D02*
X32215996Y-69540047D01*
X32215996Y-69540047D02*
X32025520Y-69540047D01*
D12*
X34844510Y-93971400D02*
X35987368Y-93971400D01*
X36701653Y-93971400D02*
X37844511Y-93971400D01*
X37273082Y-94542828D02*
X37273082Y-93399971D01*
D11*
X36293333Y-62824819D02*
X35960000Y-62348628D01*
X35721905Y-62824819D02*
X35721905Y-61824819D01*
X35721905Y-61824819D02*
X36102857Y-61824819D01*
X36102857Y-61824819D02*
X36198095Y-61872438D01*
X36198095Y-61872438D02*
X36245714Y-61920057D01*
X36245714Y-61920057D02*
X36293333Y-62015295D01*
X36293333Y-62015295D02*
X36293333Y-62158152D01*
X36293333Y-62158152D02*
X36245714Y-62253390D01*
X36245714Y-62253390D02*
X36198095Y-62301009D01*
X36198095Y-62301009D02*
X36102857Y-62348628D01*
X36102857Y-62348628D02*
X35721905Y-62348628D01*
X37245714Y-62824819D02*
X36674286Y-62824819D01*
X36960000Y-62824819D02*
X36960000Y-61824819D01*
X36960000Y-61824819D02*
X36864762Y-61967676D01*
X36864762Y-61967676D02*
X36769524Y-62062914D01*
X36769524Y-62062914D02*
X36674286Y-62110533D01*
X40569319Y-89397333D02*
X41283604Y-89397333D01*
X41283604Y-89397333D02*
X41426461Y-89444952D01*
X41426461Y-89444952D02*
X41521700Y-89540190D01*
X41521700Y-89540190D02*
X41569319Y-89683047D01*
X41569319Y-89683047D02*
X41569319Y-89778285D01*
X40664557Y-88968761D02*
X40616938Y-88921142D01*
X40616938Y-88921142D02*
X40569319Y-88825904D01*
X40569319Y-88825904D02*
X40569319Y-88587809D01*
X40569319Y-88587809D02*
X40616938Y-88492571D01*
X40616938Y-88492571D02*
X40664557Y-88444952D01*
X40664557Y-88444952D02*
X40759795Y-88397333D01*
X40759795Y-88397333D02*
X40855033Y-88397333D01*
X40855033Y-88397333D02*
X40997890Y-88444952D01*
X40997890Y-88444952D02*
X41569319Y-89016380D01*
X41569319Y-89016380D02*
X41569319Y-88397333D01*
X40727333Y-35879580D02*
X40679714Y-35927200D01*
X40679714Y-35927200D02*
X40536857Y-35974819D01*
X40536857Y-35974819D02*
X40441619Y-35974819D01*
X40441619Y-35974819D02*
X40298762Y-35927200D01*
X40298762Y-35927200D02*
X40203524Y-35831961D01*
X40203524Y-35831961D02*
X40155905Y-35736723D01*
X40155905Y-35736723D02*
X40108286Y-35546247D01*
X40108286Y-35546247D02*
X40108286Y-35403390D01*
X40108286Y-35403390D02*
X40155905Y-35212914D01*
X40155905Y-35212914D02*
X40203524Y-35117676D01*
X40203524Y-35117676D02*
X40298762Y-35022438D01*
X40298762Y-35022438D02*
X40441619Y-34974819D01*
X40441619Y-34974819D02*
X40536857Y-34974819D01*
X40536857Y-34974819D02*
X40679714Y-35022438D01*
X40679714Y-35022438D02*
X40727333Y-35070057D01*
X41632095Y-34974819D02*
X41155905Y-34974819D01*
X41155905Y-34974819D02*
X41108286Y-35451009D01*
X41108286Y-35451009D02*
X41155905Y-35403390D01*
X41155905Y-35403390D02*
X41251143Y-35355771D01*
X41251143Y-35355771D02*
X41489238Y-35355771D01*
X41489238Y-35355771D02*
X41584476Y-35403390D01*
X41584476Y-35403390D02*
X41632095Y-35451009D01*
X41632095Y-35451009D02*
X41679714Y-35546247D01*
X41679714Y-35546247D02*
X41679714Y-35784342D01*
X41679714Y-35784342D02*
X41632095Y-35879580D01*
X41632095Y-35879580D02*
X41584476Y-35927200D01*
X41584476Y-35927200D02*
X41489238Y-35974819D01*
X41489238Y-35974819D02*
X41251143Y-35974819D01*
X41251143Y-35974819D02*
X41155905Y-35927200D01*
X41155905Y-35927200D02*
X41108286Y-35879580D01*
X41333333Y-63859580D02*
X41285714Y-63907200D01*
X41285714Y-63907200D02*
X41142857Y-63954819D01*
X41142857Y-63954819D02*
X41047619Y-63954819D01*
X41047619Y-63954819D02*
X40904762Y-63907200D01*
X40904762Y-63907200D02*
X40809524Y-63811961D01*
X40809524Y-63811961D02*
X40761905Y-63716723D01*
X40761905Y-63716723D02*
X40714286Y-63526247D01*
X40714286Y-63526247D02*
X40714286Y-63383390D01*
X40714286Y-63383390D02*
X40761905Y-63192914D01*
X40761905Y-63192914D02*
X40809524Y-63097676D01*
X40809524Y-63097676D02*
X40904762Y-63002438D01*
X40904762Y-63002438D02*
X41047619Y-62954819D01*
X41047619Y-62954819D02*
X41142857Y-62954819D01*
X41142857Y-62954819D02*
X41285714Y-63002438D01*
X41285714Y-63002438D02*
X41333333Y-63050057D01*
X42285714Y-63954819D02*
X41714286Y-63954819D01*
X42000000Y-63954819D02*
X42000000Y-62954819D01*
X42000000Y-62954819D02*
X41904762Y-63097676D01*
X41904762Y-63097676D02*
X41809524Y-63192914D01*
X41809524Y-63192914D02*
X41714286Y-63240533D01*
D10*
X39036666Y-44415419D02*
X39036666Y-45129704D01*
X39036666Y-45129704D02*
X38989047Y-45272561D01*
X38989047Y-45272561D02*
X38893809Y-45367800D01*
X38893809Y-45367800D02*
X38750952Y-45415419D01*
X38750952Y-45415419D02*
X38655714Y-45415419D01*
X39417619Y-44415419D02*
X40036666Y-44415419D01*
X40036666Y-44415419D02*
X39703333Y-44796371D01*
X39703333Y-44796371D02*
X39846190Y-44796371D01*
X39846190Y-44796371D02*
X39941428Y-44843990D01*
X39941428Y-44843990D02*
X39989047Y-44891609D01*
X39989047Y-44891609D02*
X40036666Y-44986847D01*
X40036666Y-44986847D02*
X40036666Y-45224942D01*
X40036666Y-45224942D02*
X39989047Y-45320180D01*
X39989047Y-45320180D02*
X39941428Y-45367800D01*
X39941428Y-45367800D02*
X39846190Y-45415419D01*
X39846190Y-45415419D02*
X39560476Y-45415419D01*
X39560476Y-45415419D02*
X39465238Y-45367800D01*
X39465238Y-45367800D02*
X39417619Y-45320180D01*
X39166666Y-46457419D02*
X39166666Y-47171704D01*
X39166666Y-47171704D02*
X39119047Y-47314561D01*
X39119047Y-47314561D02*
X39023809Y-47409800D01*
X39023809Y-47409800D02*
X38880952Y-47457419D01*
X38880952Y-47457419D02*
X38785714Y-47457419D01*
X40166666Y-47457419D02*
X39595238Y-47457419D01*
X39880952Y-47457419D02*
X39880952Y-46457419D01*
X39880952Y-46457419D02*
X39785714Y-46600276D01*
X39785714Y-46600276D02*
X39690476Y-46695514D01*
X39690476Y-46695514D02*
X39595238Y-46743133D01*
D11*
X33956666Y-66481819D02*
X33956666Y-67196104D01*
X33956666Y-67196104D02*
X33909047Y-67338961D01*
X33909047Y-67338961D02*
X33813809Y-67434200D01*
X33813809Y-67434200D02*
X33670952Y-67481819D01*
X33670952Y-67481819D02*
X33575714Y-67481819D01*
X34861428Y-66815152D02*
X34861428Y-67481819D01*
X34623333Y-66434200D02*
X34385238Y-67148485D01*
X34385238Y-67148485D02*
X35004285Y-67148485D01*
X32176819Y-91773333D02*
X32891104Y-91773333D01*
X32891104Y-91773333D02*
X33033961Y-91820952D01*
X33033961Y-91820952D02*
X33129200Y-91916190D01*
X33129200Y-91916190D02*
X33176819Y-92059047D01*
X33176819Y-92059047D02*
X33176819Y-92154285D01*
X32176819Y-91392380D02*
X32176819Y-90725714D01*
X32176819Y-90725714D02*
X33176819Y-91154285D01*
D10*
X55990476Y-41183419D02*
X56657142Y-42183419D01*
X56657142Y-41183419D02*
X55990476Y-42183419D01*
X57561904Y-42183419D02*
X56990476Y-42183419D01*
X57276190Y-42183419D02*
X57276190Y-41183419D01*
X57276190Y-41183419D02*
X57180952Y-41326276D01*
X57180952Y-41326276D02*
X57085714Y-41421514D01*
X57085714Y-41421514D02*
X56990476Y-41469133D01*
X39865180Y-22418580D02*
X39674704Y-22418580D01*
X39674704Y-22418580D02*
X39579466Y-22370961D01*
X39579466Y-22370961D02*
X39484228Y-22275723D01*
X39484228Y-22275723D02*
X39436609Y-22085247D01*
X39436609Y-22085247D02*
X39436609Y-21751914D01*
X39436609Y-21751914D02*
X39484228Y-21561438D01*
X39484228Y-21561438D02*
X39579466Y-21466200D01*
X39579466Y-21466200D02*
X39674704Y-21418580D01*
X39674704Y-21418580D02*
X39865180Y-21418580D01*
X39865180Y-21418580D02*
X39960418Y-21466200D01*
X39960418Y-21466200D02*
X40055656Y-21561438D01*
X40055656Y-21561438D02*
X40103275Y-21751914D01*
X40103275Y-21751914D02*
X40103275Y-22085247D01*
X40103275Y-22085247D02*
X40055656Y-22275723D01*
X40055656Y-22275723D02*
X39960418Y-22370961D01*
X39960418Y-22370961D02*
X39865180Y-22418580D01*
X39150894Y-22418580D02*
X38579466Y-22418580D01*
X38865180Y-21418580D02*
X38865180Y-22418580D01*
X38293751Y-22323342D02*
X38246132Y-22370961D01*
X38246132Y-22370961D02*
X38150894Y-22418580D01*
X38150894Y-22418580D02*
X37912799Y-22418580D01*
X37912799Y-22418580D02*
X37817561Y-22370961D01*
X37817561Y-22370961D02*
X37769942Y-22323342D01*
X37769942Y-22323342D02*
X37722323Y-22228104D01*
X37722323Y-22228104D02*
X37722323Y-22132866D01*
X37722323Y-22132866D02*
X37769942Y-21990009D01*
X37769942Y-21990009D02*
X38341370Y-21418580D01*
X38341370Y-21418580D02*
X37722323Y-21418580D01*
X66230380Y-22418580D02*
X66039904Y-22418580D01*
X66039904Y-22418580D02*
X65944666Y-22370961D01*
X65944666Y-22370961D02*
X65849428Y-22275723D01*
X65849428Y-22275723D02*
X65801809Y-22085247D01*
X65801809Y-22085247D02*
X65801809Y-21751914D01*
X65801809Y-21751914D02*
X65849428Y-21561438D01*
X65849428Y-21561438D02*
X65944666Y-21466200D01*
X65944666Y-21466200D02*
X66039904Y-21418580D01*
X66039904Y-21418580D02*
X66230380Y-21418580D01*
X66230380Y-21418580D02*
X66325618Y-21466200D01*
X66325618Y-21466200D02*
X66420856Y-21561438D01*
X66420856Y-21561438D02*
X66468475Y-21751914D01*
X66468475Y-21751914D02*
X66468475Y-22085247D01*
X66468475Y-22085247D02*
X66420856Y-22275723D01*
X66420856Y-22275723D02*
X66325618Y-22370961D01*
X66325618Y-22370961D02*
X66230380Y-22418580D01*
X65516094Y-22418580D02*
X64944666Y-22418580D01*
X65230380Y-21418580D02*
X65230380Y-22418580D01*
X64087523Y-21418580D02*
X64658951Y-21418580D01*
X64373237Y-21418580D02*
X64373237Y-22418580D01*
X64373237Y-22418580D02*
X64468475Y-22275723D01*
X64468475Y-22275723D02*
X64563713Y-22180485D01*
X64563713Y-22180485D02*
X64658951Y-22132866D01*
D11*
X39761905Y-54954819D02*
X39761905Y-53954819D01*
X39761905Y-53954819D02*
X40000000Y-53954819D01*
X40000000Y-53954819D02*
X40142857Y-54002438D01*
X40142857Y-54002438D02*
X40238095Y-54097676D01*
X40238095Y-54097676D02*
X40285714Y-54192914D01*
X40285714Y-54192914D02*
X40333333Y-54383390D01*
X40333333Y-54383390D02*
X40333333Y-54526247D01*
X40333333Y-54526247D02*
X40285714Y-54716723D01*
X40285714Y-54716723D02*
X40238095Y-54811961D01*
X40238095Y-54811961D02*
X40142857Y-54907200D01*
X40142857Y-54907200D02*
X40000000Y-54954819D01*
X40000000Y-54954819D02*
X39761905Y-54954819D01*
X41285714Y-54954819D02*
X40714286Y-54954819D01*
X41000000Y-54954819D02*
X41000000Y-53954819D01*
X41000000Y-53954819D02*
X40904762Y-54097676D01*
X40904762Y-54097676D02*
X40809524Y-54192914D01*
X40809524Y-54192914D02*
X40714286Y-54240533D01*
X41940819Y-71794666D02*
X41464628Y-72127999D01*
X41940819Y-72366094D02*
X40940819Y-72366094D01*
X40940819Y-72366094D02*
X40940819Y-71985142D01*
X40940819Y-71985142D02*
X40988438Y-71889904D01*
X40988438Y-71889904D02*
X41036057Y-71842285D01*
X41036057Y-71842285D02*
X41131295Y-71794666D01*
X41131295Y-71794666D02*
X41274152Y-71794666D01*
X41274152Y-71794666D02*
X41369390Y-71842285D01*
X41369390Y-71842285D02*
X41417009Y-71889904D01*
X41417009Y-71889904D02*
X41464628Y-71985142D01*
X41464628Y-71985142D02*
X41464628Y-72366094D01*
X40940819Y-70889904D02*
X40940819Y-71366094D01*
X40940819Y-71366094D02*
X41417009Y-71413713D01*
X41417009Y-71413713D02*
X41369390Y-71366094D01*
X41369390Y-71366094D02*
X41321771Y-71270856D01*
X41321771Y-71270856D02*
X41321771Y-71032761D01*
X41321771Y-71032761D02*
X41369390Y-70937523D01*
X41369390Y-70937523D02*
X41417009Y-70889904D01*
X41417009Y-70889904D02*
X41512247Y-70842285D01*
X41512247Y-70842285D02*
X41750342Y-70842285D01*
X41750342Y-70842285D02*
X41845580Y-70889904D01*
X41845580Y-70889904D02*
X41893200Y-70937523D01*
X41893200Y-70937523D02*
X41940819Y-71032761D01*
X41940819Y-71032761D02*
X41940819Y-71270856D01*
X41940819Y-71270856D02*
X41893200Y-71366094D01*
X41893200Y-71366094D02*
X41845580Y-71413713D01*
X49067333Y-35939580D02*
X49019714Y-35987200D01*
X49019714Y-35987200D02*
X48876857Y-36034819D01*
X48876857Y-36034819D02*
X48781619Y-36034819D01*
X48781619Y-36034819D02*
X48638762Y-35987200D01*
X48638762Y-35987200D02*
X48543524Y-35891961D01*
X48543524Y-35891961D02*
X48495905Y-35796723D01*
X48495905Y-35796723D02*
X48448286Y-35606247D01*
X48448286Y-35606247D02*
X48448286Y-35463390D01*
X48448286Y-35463390D02*
X48495905Y-35272914D01*
X48495905Y-35272914D02*
X48543524Y-35177676D01*
X48543524Y-35177676D02*
X48638762Y-35082438D01*
X48638762Y-35082438D02*
X48781619Y-35034819D01*
X48781619Y-35034819D02*
X48876857Y-35034819D01*
X48876857Y-35034819D02*
X49019714Y-35082438D01*
X49019714Y-35082438D02*
X49067333Y-35130057D01*
X49400667Y-35034819D02*
X50019714Y-35034819D01*
X50019714Y-35034819D02*
X49686381Y-35415771D01*
X49686381Y-35415771D02*
X49829238Y-35415771D01*
X49829238Y-35415771D02*
X49924476Y-35463390D01*
X49924476Y-35463390D02*
X49972095Y-35511009D01*
X49972095Y-35511009D02*
X50019714Y-35606247D01*
X50019714Y-35606247D02*
X50019714Y-35844342D01*
X50019714Y-35844342D02*
X49972095Y-35939580D01*
X49972095Y-35939580D02*
X49924476Y-35987200D01*
X49924476Y-35987200D02*
X49829238Y-36034819D01*
X49829238Y-36034819D02*
X49543524Y-36034819D01*
X49543524Y-36034819D02*
X49448286Y-35987200D01*
X49448286Y-35987200D02*
X49400667Y-35939580D01*
X64857333Y-35879580D02*
X64809714Y-35927200D01*
X64809714Y-35927200D02*
X64666857Y-35974819D01*
X64666857Y-35974819D02*
X64571619Y-35974819D01*
X64571619Y-35974819D02*
X64428762Y-35927200D01*
X64428762Y-35927200D02*
X64333524Y-35831961D01*
X64333524Y-35831961D02*
X64285905Y-35736723D01*
X64285905Y-35736723D02*
X64238286Y-35546247D01*
X64238286Y-35546247D02*
X64238286Y-35403390D01*
X64238286Y-35403390D02*
X64285905Y-35212914D01*
X64285905Y-35212914D02*
X64333524Y-35117676D01*
X64333524Y-35117676D02*
X64428762Y-35022438D01*
X64428762Y-35022438D02*
X64571619Y-34974819D01*
X64571619Y-34974819D02*
X64666857Y-34974819D01*
X64666857Y-34974819D02*
X64809714Y-35022438D01*
X64809714Y-35022438D02*
X64857333Y-35070057D01*
X65714476Y-35308152D02*
X65714476Y-35974819D01*
X65476381Y-34927200D02*
X65238286Y-35641485D01*
X65238286Y-35641485D02*
X65857333Y-35641485D01*
D10*
X53141428Y-22418580D02*
X52950952Y-22418580D01*
X52950952Y-22418580D02*
X52855714Y-22370961D01*
X52855714Y-22370961D02*
X52760476Y-22275723D01*
X52760476Y-22275723D02*
X52712857Y-22085247D01*
X52712857Y-22085247D02*
X52712857Y-21751914D01*
X52712857Y-21751914D02*
X52760476Y-21561438D01*
X52760476Y-21561438D02*
X52855714Y-21466200D01*
X52855714Y-21466200D02*
X52950952Y-21418580D01*
X52950952Y-21418580D02*
X53141428Y-21418580D01*
X53141428Y-21418580D02*
X53236666Y-21466200D01*
X53236666Y-21466200D02*
X53331904Y-21561438D01*
X53331904Y-21561438D02*
X53379523Y-21751914D01*
X53379523Y-21751914D02*
X53379523Y-22085247D01*
X53379523Y-22085247D02*
X53331904Y-22275723D01*
X53331904Y-22275723D02*
X53236666Y-22370961D01*
X53236666Y-22370961D02*
X53141428Y-22418580D01*
X51712857Y-21418580D02*
X52046190Y-21894771D01*
X52284285Y-21418580D02*
X52284285Y-22418580D01*
X52284285Y-22418580D02*
X51903333Y-22418580D01*
X51903333Y-22418580D02*
X51808095Y-22370961D01*
X51808095Y-22370961D02*
X51760476Y-22323342D01*
X51760476Y-22323342D02*
X51712857Y-22228104D01*
X51712857Y-22228104D02*
X51712857Y-22085247D01*
X51712857Y-22085247D02*
X51760476Y-21990009D01*
X51760476Y-21990009D02*
X51808095Y-21942390D01*
X51808095Y-21942390D02*
X51903333Y-21894771D01*
X51903333Y-21894771D02*
X52284285Y-21894771D01*
X50760476Y-21418580D02*
X51331904Y-21418580D01*
X51046190Y-21418580D02*
X51046190Y-22418580D01*
X51046190Y-22418580D02*
X51141428Y-22275723D01*
X51141428Y-22275723D02*
X51236666Y-22180485D01*
X51236666Y-22180485D02*
X51331904Y-22132866D01*
X69008666Y-90651419D02*
X69008666Y-91365704D01*
X69008666Y-91365704D02*
X68961047Y-91508561D01*
X68961047Y-91508561D02*
X68865809Y-91603800D01*
X68865809Y-91603800D02*
X68722952Y-91651419D01*
X68722952Y-91651419D02*
X68627714Y-91651419D01*
X69913428Y-90651419D02*
X69722952Y-90651419D01*
X69722952Y-90651419D02*
X69627714Y-90699038D01*
X69627714Y-90699038D02*
X69580095Y-90746657D01*
X69580095Y-90746657D02*
X69484857Y-90889514D01*
X69484857Y-90889514D02*
X69437238Y-91079990D01*
X69437238Y-91079990D02*
X69437238Y-91460942D01*
X69437238Y-91460942D02*
X69484857Y-91556180D01*
X69484857Y-91556180D02*
X69532476Y-91603800D01*
X69532476Y-91603800D02*
X69627714Y-91651419D01*
X69627714Y-91651419D02*
X69818190Y-91651419D01*
X69818190Y-91651419D02*
X69913428Y-91603800D01*
X69913428Y-91603800D02*
X69961047Y-91556180D01*
X69961047Y-91556180D02*
X70008666Y-91460942D01*
X70008666Y-91460942D02*
X70008666Y-91222847D01*
X70008666Y-91222847D02*
X69961047Y-91127609D01*
X69961047Y-91127609D02*
X69913428Y-91079990D01*
X69913428Y-91079990D02*
X69818190Y-91032371D01*
X69818190Y-91032371D02*
X69627714Y-91032371D01*
X69627714Y-91032371D02*
X69532476Y-91079990D01*
X69532476Y-91079990D02*
X69484857Y-91127609D01*
X69484857Y-91127609D02*
X69437238Y-91222847D01*
X33194666Y-34009419D02*
X33194666Y-34723704D01*
X33194666Y-34723704D02*
X33147047Y-34866561D01*
X33147047Y-34866561D02*
X33051809Y-34961800D01*
X33051809Y-34961800D02*
X32908952Y-35009419D01*
X32908952Y-35009419D02*
X32813714Y-35009419D01*
X34147047Y-34009419D02*
X33670857Y-34009419D01*
X33670857Y-34009419D02*
X33623238Y-34485609D01*
X33623238Y-34485609D02*
X33670857Y-34437990D01*
X33670857Y-34437990D02*
X33766095Y-34390371D01*
X33766095Y-34390371D02*
X34004190Y-34390371D01*
X34004190Y-34390371D02*
X34099428Y-34437990D01*
X34099428Y-34437990D02*
X34147047Y-34485609D01*
X34147047Y-34485609D02*
X34194666Y-34580847D01*
X34194666Y-34580847D02*
X34194666Y-34818942D01*
X34194666Y-34818942D02*
X34147047Y-34914180D01*
X34147047Y-34914180D02*
X34099428Y-34961800D01*
X34099428Y-34961800D02*
X34004190Y-35009419D01*
X34004190Y-35009419D02*
X33766095Y-35009419D01*
X33766095Y-35009419D02*
X33670857Y-34961800D01*
X33670857Y-34961800D02*
X33623238Y-34914180D01*
D11*
X56983333Y-35879580D02*
X56935714Y-35927200D01*
X56935714Y-35927200D02*
X56792857Y-35974819D01*
X56792857Y-35974819D02*
X56697619Y-35974819D01*
X56697619Y-35974819D02*
X56554762Y-35927200D01*
X56554762Y-35927200D02*
X56459524Y-35831961D01*
X56459524Y-35831961D02*
X56411905Y-35736723D01*
X56411905Y-35736723D02*
X56364286Y-35546247D01*
X56364286Y-35546247D02*
X56364286Y-35403390D01*
X56364286Y-35403390D02*
X56411905Y-35212914D01*
X56411905Y-35212914D02*
X56459524Y-35117676D01*
X56459524Y-35117676D02*
X56554762Y-35022438D01*
X56554762Y-35022438D02*
X56697619Y-34974819D01*
X56697619Y-34974819D02*
X56792857Y-34974819D01*
X56792857Y-34974819D02*
X56935714Y-35022438D01*
X56935714Y-35022438D02*
X56983333Y-35070057D01*
X57364286Y-35070057D02*
X57411905Y-35022438D01*
X57411905Y-35022438D02*
X57507143Y-34974819D01*
X57507143Y-34974819D02*
X57745238Y-34974819D01*
X57745238Y-34974819D02*
X57840476Y-35022438D01*
X57840476Y-35022438D02*
X57888095Y-35070057D01*
X57888095Y-35070057D02*
X57935714Y-35165295D01*
X57935714Y-35165295D02*
X57935714Y-35260533D01*
X57935714Y-35260533D02*
X57888095Y-35403390D01*
X57888095Y-35403390D02*
X57316667Y-35974819D01*
X57316667Y-35974819D02*
X57935714Y-35974819D01*
D15*
%TO.C,R1*%
X40370000Y-60000000D02*
G75*
G02*
X37630000Y-60000000I-1370000J0D01*
G01*
X37630000Y-60000000D02*
G75*
G02*
X40370000Y-60000000I1370000J0D01*
G01*
X37630000Y-60000000D02*
X35020000Y-60000000D01*
%TO.C,J2*%
X30564500Y-80564000D02*
X30564500Y-79514000D01*
X30764500Y-79714000D02*
X33364500Y-79714000D01*
X30764500Y-94414000D02*
X30764500Y-79714000D01*
X31614500Y-79514000D02*
X30564500Y-79514000D01*
X37264500Y-79714000D02*
X39964500Y-79714000D01*
X39964500Y-79714000D02*
X39964500Y-81614000D01*
X39964500Y-85614000D02*
X39964500Y-94414000D01*
X39964500Y-94414000D02*
X30764500Y-94414000D01*
%TO.C,C5*%
X37274000Y-34390000D02*
X37274000Y-31650000D01*
X44514000Y-31650000D02*
X37274000Y-31650000D01*
X44514000Y-34390000D02*
X37274000Y-34390000D01*
X44514000Y-34390000D02*
X44514000Y-31650000D01*
%TO.C,C1*%
X32880000Y-64870000D02*
X40120000Y-64870000D01*
X32880000Y-62130000D02*
X32880000Y-64870000D01*
X32880000Y-62130000D02*
X40120000Y-62130000D01*
X40120000Y-62130000D02*
X40120000Y-64870000D01*
%TO.C,J4*%
X32960000Y-68027000D02*
X34290000Y-68027000D01*
X32960000Y-69357000D02*
X32960000Y-68027000D01*
X32960000Y-70627000D02*
X32960000Y-75767000D01*
X32960000Y-70627000D02*
X35620000Y-70627000D01*
X32960000Y-75767000D02*
X35620000Y-75767000D01*
X35620000Y-70627000D02*
X35620000Y-75767000D01*
%TO.C,J7*%
X33722000Y-92770000D02*
X33722000Y-91440000D01*
X35052000Y-92770000D02*
X33722000Y-92770000D01*
X36322000Y-90110000D02*
X38922000Y-90110000D01*
X36322000Y-92770000D02*
X36322000Y-90110000D01*
X36322000Y-92770000D02*
X38922000Y-92770000D01*
X38922000Y-92770000D02*
X38922000Y-90110000D01*
D10*
%TO.C,X1*%
X52800000Y-83226000D02*
X60800000Y-83226000D01*
X52800000Y-87726000D02*
X52800000Y-83226000D01*
X60800000Y-83226000D02*
X60800000Y-87726000D01*
X42300000Y-36226000D02*
X71300000Y-36226000D01*
X71300000Y-87726000D01*
X42300000Y-87726000D01*
X42300000Y-36226000D01*
%TO.C,OT2*%
X44912800Y-30626000D02*
X32912800Y-30626000D01*
X32912800Y-17100600D01*
X44912800Y-17100600D01*
X44912800Y-30626000D01*
%TO.C,OT1*%
X71278000Y-30626000D02*
X59278000Y-30626000D01*
X59278000Y-17100600D01*
X71278000Y-17100600D01*
X71278000Y-30626000D01*
D15*
%TO.C,D1*%
X38620000Y-55380000D02*
X34380000Y-55380000D01*
X34380000Y-55380000D02*
X34380000Y-57620000D01*
X39270000Y-56500000D02*
X38620000Y-56500000D01*
X33730000Y-56500000D02*
X34380000Y-56500000D01*
X38620000Y-57620000D02*
X38620000Y-55380000D01*
X38020000Y-57620000D02*
X38020000Y-55380000D01*
X37900000Y-57620000D02*
X37900000Y-55380000D01*
X37780000Y-57620000D02*
X37780000Y-55380000D01*
X34380000Y-57620000D02*
X38620000Y-57620000D01*
%TO.C,R5*%
X37746000Y-68358000D02*
X37746000Y-74898000D01*
X37746000Y-74898000D02*
X40486000Y-74898000D01*
X39116000Y-67588000D02*
X39116000Y-68358000D01*
X39116000Y-75668000D02*
X39116000Y-74898000D01*
X40486000Y-68358000D02*
X37746000Y-68358000D01*
X40486000Y-74898000D02*
X40486000Y-68358000D01*
%TO.C,C3*%
X45656000Y-31650000D02*
X45656000Y-34390000D01*
X45656000Y-31650000D02*
X52896000Y-31650000D01*
X45656000Y-34390000D02*
X52896000Y-34390000D01*
X52896000Y-31650000D02*
X52896000Y-34390000D01*
%TO.C,C4*%
X61404000Y-34390000D02*
X61404000Y-31650000D01*
X68644000Y-31650000D02*
X61404000Y-31650000D01*
X68644000Y-34390000D02*
X61404000Y-34390000D01*
X68644000Y-34390000D02*
X68644000Y-31650000D01*
%TO.C,OR1*%
D10*
X58070000Y-30626000D02*
X46070000Y-30626000D01*
X46070000Y-17100600D01*
X58070000Y-17100600D01*
X58070000Y-30626000D01*
D15*
%TO.C,C2*%
X53530000Y-34390000D02*
X53530000Y-31650000D01*
X60770000Y-31650000D02*
X53530000Y-31650000D01*
X60770000Y-34390000D02*
X53530000Y-34390000D01*
X60770000Y-34390000D02*
X60770000Y-31650000D01*
%TD*%
M02*
