M48
; DRILL file {KiCad 8.0.8} date 2025-05-01T12:34:53+0100
; FORMAT={-:-/ absolute / metric / decimal}
; #@! TF.CreationDate,2025-05-01T12:34:53+01:00
; #@! TF.GenerationSoftware,Kicad,Pcbnew,8.0.8
; #@! TF.FileFunction,Plated,1,2,PTH
FMAT,2
METRIC
; #@! TA.AperFunction,Plated,PTH,ViaDrill
T1C0.500
; #@! TA.AperFunction,Plated,PTH,ComponentDrill
T2C0.762
; #@! TA.AperFunction,Plated,PTH,ComponentDrill
T3C0.800
; #@! TA.AperFunction,Plated,PTH,ComponentDrill
T4C1.000
; #@! TA.AperFunction,Plated,PTH,ComponentDrill
T5C1.200
; #@! TA.AperFunction,Plated,PTH,ComponentDrill
T6C2.400
%
G90
G05
T1
X41.656Y-77.978
X43.688Y-80.518
X66.04Y-43.198
X66.04Y-48.768
T2
X44.1Y-42.226
X44.1Y-44.766
X44.1Y-47.306
X44.1Y-49.846
X44.1Y-52.386
X44.1Y-54.926
X44.1Y-57.466
X44.1Y-60.006
X44.1Y-62.546
X44.1Y-65.086
X44.1Y-67.626
X44.1Y-70.166
X44.1Y-72.706
X44.1Y-75.246
X44.1Y-77.786
X69.5Y-42.226
X69.5Y-44.766
X69.5Y-47.306
X69.5Y-49.846
X69.5Y-52.386
X69.5Y-54.926
X69.5Y-57.466
X69.5Y-60.006
X69.5Y-62.546
X69.5Y-65.086
X69.5Y-67.626
X69.5Y-70.166
X69.5Y-72.706
X69.5Y-75.246
X69.5Y-77.786
T3
X32.69Y-56.5
X33.92Y-60.0
X34.0Y-63.5
X36.373Y-27.626
X38.394Y-33.02
X38.913Y-27.626
X39.0Y-60.0
X39.0Y-63.5
X39.116Y-66.548
X39.116Y-76.708
X40.31Y-56.5
X41.453Y-27.626
X43.394Y-33.02
X46.776Y-33.02
X49.53Y-27.626
X51.776Y-33.02
X52.07Y-27.626
X54.61Y-27.626
X54.65Y-33.02
X59.65Y-33.02
X62.524Y-33.02
X62.738Y-27.626
X65.278Y-27.626
X67.524Y-33.02
X67.818Y-27.626
T4
X34.29Y-69.357
X34.29Y-71.897
X34.29Y-74.437
X35.052Y-91.44
X37.592Y-91.44
T5
X37.084Y-41.656
X37.084Y-50.5
T6
X33.528Y-35.052
X69.342Y-91.694
T4
G00X34.364Y-80.614
M15
G01X36.364Y-80.614
M16
G05
G00X34.364Y-86.614
M15
G01X36.364Y-86.614
M16
G05
G00X40.064Y-84.614
M15
G01X40.064Y-82.614
M16
G05
M30
