%TF.GenerationSoftware,KiCad,Pcbnew,8.0.8*%
%TF.CreationDate,2025-05-01T12:34:51+01:00*%
%TF.ProjectId,FloatingCurrentFeedbackModule,466c6f61-7469-46e6-9743-757272656e74,rev?*%
%TF.SameCoordinates,Original*%
%TF.FileFunction,Copper,L2,Bot*%
%TF.FilePolarity,Positive*%
%FSLAX46Y46*%
G04 Gerber Fmt 4.6, Leading zero omitted, Abs format (unit mm)*
G04 Created by KiCad (PCBNEW 8.0.8) date 2025-05-01 12:34:51*
%MOMM*%
%LPD*%
G01*
G04 APERTURE LIST*
G04 Aperture macros list*
%AMRoundRect*
0 Rectangle with rounded corners*
0 $1 Rounding radius*
0 $2 $3 $4 $5 $6 $7 $8 $9 X,Y pos of 4 corners*
0 Add a 4 corners polygon primitive as box body*
4,1,4,$2,$3,$4,$5,$6,$7,$8,$9,$2,$3,0*
0 Add four circle primitives for the rounded corners*
1,1,$1+$1,$2,$3*
1,1,$1+$1,$4,$5*
1,1,$1+$1,$6,$7*
1,1,$1+$1,$8,$9*
0 Add four rect primitives between the rounded corners*
20,1,$1+$1,$2,$3,$4,$5,0*
20,1,$1+$1,$4,$5,$6,$7,0*
20,1,$1+$1,$6,$7,$8,$9,0*
20,1,$1+$1,$8,$9,$2,$3,0*%
G04 Aperture macros list end*
%ADD10C,0.100000*%
%ADD11C,0.150000*%
%ADD12C,0.300000*%
%ADD13C,0.400000*%
%TA.AperFunction,ComponentPad*%
%ADD14O,1.600000X1.600000*%
%TD*%
%TA.AperFunction,ComponentPad*%
%ADD15C,1.600000*%
%TD*%
%TA.AperFunction,ComponentPad*%
%ADD16R,3.500000X3.500000*%
%TD*%
%TA.AperFunction,ComponentPad*%
%ADD17RoundRect,0.750000X1.000000X-0.750000X1.000000X0.750000X-1.000000X0.750000X-1.000000X-0.750000X0*%
%TD*%
%TA.AperFunction,ComponentPad*%
%ADD18RoundRect,0.875000X0.875000X-0.875000X0.875000X0.875000X-0.875000X0.875000X-0.875000X-0.875000X0*%
%TD*%
%TA.AperFunction,ComponentPad*%
%ADD19C,5.000000*%
%TD*%
%TA.AperFunction,ComponentPad*%
%ADD20R,1.700000X1.700000*%
%TD*%
%TA.AperFunction,ComponentPad*%
%ADD21O,1.700000X1.700000*%
%TD*%
%TA.AperFunction,ComponentPad*%
%ADD22C,2.000000*%
%TD*%
%TA.AperFunction,WasherPad*%
%ADD23C,3.000000*%
%TD*%
%TA.AperFunction,ComponentPad*%
%ADD24R,1.600000X1.600000*%
%TD*%
%TA.AperFunction,ComponentPad*%
%ADD25C,4.400000*%
%TD*%
%TA.AperFunction,ViaPad*%
%ADD26C,1.000000*%
%TD*%
%TA.AperFunction,Conductor*%
%ADD27C,0.500000*%
%TD*%
G04 APERTURE END LIST*
D10*
D11*
X177002200Y-166007200D02*
X285002200Y-166007200D01*
X285002200Y-198007200D01*
X177002200Y-198007200D01*
X177002200Y-166007200D01*
D10*
D11*
X10000000Y-10000000D02*
X287002200Y-10000000D01*
X287002200Y-200007200D01*
X10000000Y-200007200D01*
X10000000Y-10000000D01*
D10*
D11*
X12000000Y-12000000D02*
X285002200Y-12000000D01*
X285002200Y-198007200D01*
X12000000Y-198007200D01*
X12000000Y-12000000D01*
D10*
D11*
X60000000Y-12000000D02*
X60000000Y-10000000D01*
D10*
D11*
X110000000Y-12000000D02*
X110000000Y-10000000D01*
D10*
D11*
X160000000Y-12000000D02*
X160000000Y-10000000D01*
D10*
D11*
X210000000Y-12000000D02*
X210000000Y-10000000D01*
D10*
D11*
X260000000Y-12000000D02*
X260000000Y-10000000D01*
D10*
D11*
X36089160Y-11593604D02*
X35346303Y-11593604D01*
X35717731Y-11593604D02*
X35717731Y-10293604D01*
X35717731Y-10293604D02*
X35593922Y-10479319D01*
X35593922Y-10479319D02*
X35470112Y-10603128D01*
X35470112Y-10603128D02*
X35346303Y-10665033D01*
D10*
D11*
X85346303Y-10417414D02*
X85408207Y-10355509D01*
X85408207Y-10355509D02*
X85532017Y-10293604D01*
X85532017Y-10293604D02*
X85841541Y-10293604D01*
X85841541Y-10293604D02*
X85965350Y-10355509D01*
X85965350Y-10355509D02*
X86027255Y-10417414D01*
X86027255Y-10417414D02*
X86089160Y-10541223D01*
X86089160Y-10541223D02*
X86089160Y-10665033D01*
X86089160Y-10665033D02*
X86027255Y-10850747D01*
X86027255Y-10850747D02*
X85284398Y-11593604D01*
X85284398Y-11593604D02*
X86089160Y-11593604D01*
D10*
D11*
X135284398Y-10293604D02*
X136089160Y-10293604D01*
X136089160Y-10293604D02*
X135655826Y-10788842D01*
X135655826Y-10788842D02*
X135841541Y-10788842D01*
X135841541Y-10788842D02*
X135965350Y-10850747D01*
X135965350Y-10850747D02*
X136027255Y-10912652D01*
X136027255Y-10912652D02*
X136089160Y-11036461D01*
X136089160Y-11036461D02*
X136089160Y-11345985D01*
X136089160Y-11345985D02*
X136027255Y-11469795D01*
X136027255Y-11469795D02*
X135965350Y-11531700D01*
X135965350Y-11531700D02*
X135841541Y-11593604D01*
X135841541Y-11593604D02*
X135470112Y-11593604D01*
X135470112Y-11593604D02*
X135346303Y-11531700D01*
X135346303Y-11531700D02*
X135284398Y-11469795D01*
D10*
D11*
X185965350Y-10726938D02*
X185965350Y-11593604D01*
X185655826Y-10231700D02*
X185346303Y-11160271D01*
X185346303Y-11160271D02*
X186151064Y-11160271D01*
D10*
D11*
X236027255Y-10293604D02*
X235408207Y-10293604D01*
X235408207Y-10293604D02*
X235346303Y-10912652D01*
X235346303Y-10912652D02*
X235408207Y-10850747D01*
X235408207Y-10850747D02*
X235532017Y-10788842D01*
X235532017Y-10788842D02*
X235841541Y-10788842D01*
X235841541Y-10788842D02*
X235965350Y-10850747D01*
X235965350Y-10850747D02*
X236027255Y-10912652D01*
X236027255Y-10912652D02*
X236089160Y-11036461D01*
X236089160Y-11036461D02*
X236089160Y-11345985D01*
X236089160Y-11345985D02*
X236027255Y-11469795D01*
X236027255Y-11469795D02*
X235965350Y-11531700D01*
X235965350Y-11531700D02*
X235841541Y-11593604D01*
X235841541Y-11593604D02*
X235532017Y-11593604D01*
X235532017Y-11593604D02*
X235408207Y-11531700D01*
X235408207Y-11531700D02*
X235346303Y-11469795D01*
D10*
D11*
X285965350Y-10293604D02*
X285717731Y-10293604D01*
X285717731Y-10293604D02*
X285593922Y-10355509D01*
X285593922Y-10355509D02*
X285532017Y-10417414D01*
X285532017Y-10417414D02*
X285408207Y-10603128D01*
X285408207Y-10603128D02*
X285346303Y-10850747D01*
X285346303Y-10850747D02*
X285346303Y-11345985D01*
X285346303Y-11345985D02*
X285408207Y-11469795D01*
X285408207Y-11469795D02*
X285470112Y-11531700D01*
X285470112Y-11531700D02*
X285593922Y-11593604D01*
X285593922Y-11593604D02*
X285841541Y-11593604D01*
X285841541Y-11593604D02*
X285965350Y-11531700D01*
X285965350Y-11531700D02*
X286027255Y-11469795D01*
X286027255Y-11469795D02*
X286089160Y-11345985D01*
X286089160Y-11345985D02*
X286089160Y-11036461D01*
X286089160Y-11036461D02*
X286027255Y-10912652D01*
X286027255Y-10912652D02*
X285965350Y-10850747D01*
X285965350Y-10850747D02*
X285841541Y-10788842D01*
X285841541Y-10788842D02*
X285593922Y-10788842D01*
X285593922Y-10788842D02*
X285470112Y-10850747D01*
X285470112Y-10850747D02*
X285408207Y-10912652D01*
X285408207Y-10912652D02*
X285346303Y-11036461D01*
D10*
D11*
X60000000Y-198007200D02*
X60000000Y-200007200D01*
D10*
D11*
X110000000Y-198007200D02*
X110000000Y-200007200D01*
D10*
D11*
X160000000Y-198007200D02*
X160000000Y-200007200D01*
D10*
D11*
X210000000Y-198007200D02*
X210000000Y-200007200D01*
D10*
D11*
X260000000Y-198007200D02*
X260000000Y-200007200D01*
D10*
D11*
X36089160Y-199600804D02*
X35346303Y-199600804D01*
X35717731Y-199600804D02*
X35717731Y-198300804D01*
X35717731Y-198300804D02*
X35593922Y-198486519D01*
X35593922Y-198486519D02*
X35470112Y-198610328D01*
X35470112Y-198610328D02*
X35346303Y-198672233D01*
D10*
D11*
X85346303Y-198424614D02*
X85408207Y-198362709D01*
X85408207Y-198362709D02*
X85532017Y-198300804D01*
X85532017Y-198300804D02*
X85841541Y-198300804D01*
X85841541Y-198300804D02*
X85965350Y-198362709D01*
X85965350Y-198362709D02*
X86027255Y-198424614D01*
X86027255Y-198424614D02*
X86089160Y-198548423D01*
X86089160Y-198548423D02*
X86089160Y-198672233D01*
X86089160Y-198672233D02*
X86027255Y-198857947D01*
X86027255Y-198857947D02*
X85284398Y-199600804D01*
X85284398Y-199600804D02*
X86089160Y-199600804D01*
D10*
D11*
X135284398Y-198300804D02*
X136089160Y-198300804D01*
X136089160Y-198300804D02*
X135655826Y-198796042D01*
X135655826Y-198796042D02*
X135841541Y-198796042D01*
X135841541Y-198796042D02*
X135965350Y-198857947D01*
X135965350Y-198857947D02*
X136027255Y-198919852D01*
X136027255Y-198919852D02*
X136089160Y-199043661D01*
X136089160Y-199043661D02*
X136089160Y-199353185D01*
X136089160Y-199353185D02*
X136027255Y-199476995D01*
X136027255Y-199476995D02*
X135965350Y-199538900D01*
X135965350Y-199538900D02*
X135841541Y-199600804D01*
X135841541Y-199600804D02*
X135470112Y-199600804D01*
X135470112Y-199600804D02*
X135346303Y-199538900D01*
X135346303Y-199538900D02*
X135284398Y-199476995D01*
D10*
D11*
X185965350Y-198734138D02*
X185965350Y-199600804D01*
X185655826Y-198238900D02*
X185346303Y-199167471D01*
X185346303Y-199167471D02*
X186151064Y-199167471D01*
D10*
D11*
X236027255Y-198300804D02*
X235408207Y-198300804D01*
X235408207Y-198300804D02*
X235346303Y-198919852D01*
X235346303Y-198919852D02*
X235408207Y-198857947D01*
X235408207Y-198857947D02*
X235532017Y-198796042D01*
X235532017Y-198796042D02*
X235841541Y-198796042D01*
X235841541Y-198796042D02*
X235965350Y-198857947D01*
X235965350Y-198857947D02*
X236027255Y-198919852D01*
X236027255Y-198919852D02*
X236089160Y-199043661D01*
X236089160Y-199043661D02*
X236089160Y-199353185D01*
X236089160Y-199353185D02*
X236027255Y-199476995D01*
X236027255Y-199476995D02*
X235965350Y-199538900D01*
X235965350Y-199538900D02*
X235841541Y-199600804D01*
X235841541Y-199600804D02*
X235532017Y-199600804D01*
X235532017Y-199600804D02*
X235408207Y-199538900D01*
X235408207Y-199538900D02*
X235346303Y-199476995D01*
D10*
D11*
X285965350Y-198300804D02*
X285717731Y-198300804D01*
X285717731Y-198300804D02*
X285593922Y-198362709D01*
X285593922Y-198362709D02*
X285532017Y-198424614D01*
X285532017Y-198424614D02*
X285408207Y-198610328D01*
X285408207Y-198610328D02*
X285346303Y-198857947D01*
X285346303Y-198857947D02*
X285346303Y-199353185D01*
X285346303Y-199353185D02*
X285408207Y-199476995D01*
X285408207Y-199476995D02*
X285470112Y-199538900D01*
X285470112Y-199538900D02*
X285593922Y-199600804D01*
X285593922Y-199600804D02*
X285841541Y-199600804D01*
X285841541Y-199600804D02*
X285965350Y-199538900D01*
X285965350Y-199538900D02*
X286027255Y-199476995D01*
X286027255Y-199476995D02*
X286089160Y-199353185D01*
X286089160Y-199353185D02*
X286089160Y-199043661D01*
X286089160Y-199043661D02*
X286027255Y-198919852D01*
X286027255Y-198919852D02*
X285965350Y-198857947D01*
X285965350Y-198857947D02*
X285841541Y-198796042D01*
X285841541Y-198796042D02*
X285593922Y-198796042D01*
X285593922Y-198796042D02*
X285470112Y-198857947D01*
X285470112Y-198857947D02*
X285408207Y-198919852D01*
X285408207Y-198919852D02*
X285346303Y-199043661D01*
D10*
D11*
X10000000Y-60000000D02*
X12000000Y-60000000D01*
D10*
D11*
X10000000Y-110000000D02*
X12000000Y-110000000D01*
D10*
D11*
X10000000Y-160000000D02*
X12000000Y-160000000D01*
D10*
D11*
X10690476Y-35222176D02*
X11309523Y-35222176D01*
X10566666Y-35593604D02*
X10999999Y-34293604D01*
X10999999Y-34293604D02*
X11433333Y-35593604D01*
D10*
D11*
X11092857Y-84912652D02*
X11278571Y-84974557D01*
X11278571Y-84974557D02*
X11340476Y-85036461D01*
X11340476Y-85036461D02*
X11402380Y-85160271D01*
X11402380Y-85160271D02*
X11402380Y-85345985D01*
X11402380Y-85345985D02*
X11340476Y-85469795D01*
X11340476Y-85469795D02*
X11278571Y-85531700D01*
X11278571Y-85531700D02*
X11154761Y-85593604D01*
X11154761Y-85593604D02*
X10659523Y-85593604D01*
X10659523Y-85593604D02*
X10659523Y-84293604D01*
X10659523Y-84293604D02*
X11092857Y-84293604D01*
X11092857Y-84293604D02*
X11216666Y-84355509D01*
X11216666Y-84355509D02*
X11278571Y-84417414D01*
X11278571Y-84417414D02*
X11340476Y-84541223D01*
X11340476Y-84541223D02*
X11340476Y-84665033D01*
X11340476Y-84665033D02*
X11278571Y-84788842D01*
X11278571Y-84788842D02*
X11216666Y-84850747D01*
X11216666Y-84850747D02*
X11092857Y-84912652D01*
X11092857Y-84912652D02*
X10659523Y-84912652D01*
D10*
D11*
X11402380Y-135469795D02*
X11340476Y-135531700D01*
X11340476Y-135531700D02*
X11154761Y-135593604D01*
X11154761Y-135593604D02*
X11030952Y-135593604D01*
X11030952Y-135593604D02*
X10845238Y-135531700D01*
X10845238Y-135531700D02*
X10721428Y-135407890D01*
X10721428Y-135407890D02*
X10659523Y-135284080D01*
X10659523Y-135284080D02*
X10597619Y-135036461D01*
X10597619Y-135036461D02*
X10597619Y-134850747D01*
X10597619Y-134850747D02*
X10659523Y-134603128D01*
X10659523Y-134603128D02*
X10721428Y-134479319D01*
X10721428Y-134479319D02*
X10845238Y-134355509D01*
X10845238Y-134355509D02*
X11030952Y-134293604D01*
X11030952Y-134293604D02*
X11154761Y-134293604D01*
X11154761Y-134293604D02*
X11340476Y-134355509D01*
X11340476Y-134355509D02*
X11402380Y-134417414D01*
D10*
D11*
X10659523Y-185593604D02*
X10659523Y-184293604D01*
X10659523Y-184293604D02*
X10969047Y-184293604D01*
X10969047Y-184293604D02*
X11154761Y-184355509D01*
X11154761Y-184355509D02*
X11278571Y-184479319D01*
X11278571Y-184479319D02*
X11340476Y-184603128D01*
X11340476Y-184603128D02*
X11402380Y-184850747D01*
X11402380Y-184850747D02*
X11402380Y-185036461D01*
X11402380Y-185036461D02*
X11340476Y-185284080D01*
X11340476Y-185284080D02*
X11278571Y-185407890D01*
X11278571Y-185407890D02*
X11154761Y-185531700D01*
X11154761Y-185531700D02*
X10969047Y-185593604D01*
X10969047Y-185593604D02*
X10659523Y-185593604D01*
D10*
D11*
X287002200Y-60000000D02*
X285002200Y-60000000D01*
D10*
D11*
X287002200Y-110000000D02*
X285002200Y-110000000D01*
D10*
D11*
X287002200Y-160000000D02*
X285002200Y-160000000D01*
D10*
D11*
X285692676Y-35222176D02*
X286311723Y-35222176D01*
X285568866Y-35593604D02*
X286002199Y-34293604D01*
X286002199Y-34293604D02*
X286435533Y-35593604D01*
D10*
D11*
X286095057Y-84912652D02*
X286280771Y-84974557D01*
X286280771Y-84974557D02*
X286342676Y-85036461D01*
X286342676Y-85036461D02*
X286404580Y-85160271D01*
X286404580Y-85160271D02*
X286404580Y-85345985D01*
X286404580Y-85345985D02*
X286342676Y-85469795D01*
X286342676Y-85469795D02*
X286280771Y-85531700D01*
X286280771Y-85531700D02*
X286156961Y-85593604D01*
X286156961Y-85593604D02*
X285661723Y-85593604D01*
X285661723Y-85593604D02*
X285661723Y-84293604D01*
X285661723Y-84293604D02*
X286095057Y-84293604D01*
X286095057Y-84293604D02*
X286218866Y-84355509D01*
X286218866Y-84355509D02*
X286280771Y-84417414D01*
X286280771Y-84417414D02*
X286342676Y-84541223D01*
X286342676Y-84541223D02*
X286342676Y-84665033D01*
X286342676Y-84665033D02*
X286280771Y-84788842D01*
X286280771Y-84788842D02*
X286218866Y-84850747D01*
X286218866Y-84850747D02*
X286095057Y-84912652D01*
X286095057Y-84912652D02*
X285661723Y-84912652D01*
D10*
D11*
X286404580Y-135469795D02*
X286342676Y-135531700D01*
X286342676Y-135531700D02*
X286156961Y-135593604D01*
X286156961Y-135593604D02*
X286033152Y-135593604D01*
X286033152Y-135593604D02*
X285847438Y-135531700D01*
X285847438Y-135531700D02*
X285723628Y-135407890D01*
X285723628Y-135407890D02*
X285661723Y-135284080D01*
X285661723Y-135284080D02*
X285599819Y-135036461D01*
X285599819Y-135036461D02*
X285599819Y-134850747D01*
X285599819Y-134850747D02*
X285661723Y-134603128D01*
X285661723Y-134603128D02*
X285723628Y-134479319D01*
X285723628Y-134479319D02*
X285847438Y-134355509D01*
X285847438Y-134355509D02*
X286033152Y-134293604D01*
X286033152Y-134293604D02*
X286156961Y-134293604D01*
X286156961Y-134293604D02*
X286342676Y-134355509D01*
X286342676Y-134355509D02*
X286404580Y-134417414D01*
D10*
D11*
X285661723Y-185593604D02*
X285661723Y-184293604D01*
X285661723Y-184293604D02*
X285971247Y-184293604D01*
X285971247Y-184293604D02*
X286156961Y-184355509D01*
X286156961Y-184355509D02*
X286280771Y-184479319D01*
X286280771Y-184479319D02*
X286342676Y-184603128D01*
X286342676Y-184603128D02*
X286404580Y-184850747D01*
X286404580Y-184850747D02*
X286404580Y-185036461D01*
X286404580Y-185036461D02*
X286342676Y-185284080D01*
X286342676Y-185284080D02*
X286280771Y-185407890D01*
X286280771Y-185407890D02*
X286156961Y-185531700D01*
X286156961Y-185531700D02*
X285971247Y-185593604D01*
X285971247Y-185593604D02*
X285661723Y-185593604D01*
D10*
D11*
X200458026Y-193793328D02*
X200458026Y-192293328D01*
X200458026Y-192293328D02*
X200815169Y-192293328D01*
X200815169Y-192293328D02*
X201029455Y-192364757D01*
X201029455Y-192364757D02*
X201172312Y-192507614D01*
X201172312Y-192507614D02*
X201243741Y-192650471D01*
X201243741Y-192650471D02*
X201315169Y-192936185D01*
X201315169Y-192936185D02*
X201315169Y-193150471D01*
X201315169Y-193150471D02*
X201243741Y-193436185D01*
X201243741Y-193436185D02*
X201172312Y-193579042D01*
X201172312Y-193579042D02*
X201029455Y-193721900D01*
X201029455Y-193721900D02*
X200815169Y-193793328D01*
X200815169Y-193793328D02*
X200458026Y-193793328D01*
X202600884Y-193793328D02*
X202600884Y-193007614D01*
X202600884Y-193007614D02*
X202529455Y-192864757D01*
X202529455Y-192864757D02*
X202386598Y-192793328D01*
X202386598Y-192793328D02*
X202100884Y-192793328D01*
X202100884Y-192793328D02*
X201958026Y-192864757D01*
X202600884Y-193721900D02*
X202458026Y-193793328D01*
X202458026Y-193793328D02*
X202100884Y-193793328D01*
X202100884Y-193793328D02*
X201958026Y-193721900D01*
X201958026Y-193721900D02*
X201886598Y-193579042D01*
X201886598Y-193579042D02*
X201886598Y-193436185D01*
X201886598Y-193436185D02*
X201958026Y-193293328D01*
X201958026Y-193293328D02*
X202100884Y-193221900D01*
X202100884Y-193221900D02*
X202458026Y-193221900D01*
X202458026Y-193221900D02*
X202600884Y-193150471D01*
X203100884Y-192793328D02*
X203672312Y-192793328D01*
X203315169Y-192293328D02*
X203315169Y-193579042D01*
X203315169Y-193579042D02*
X203386598Y-193721900D01*
X203386598Y-193721900D02*
X203529455Y-193793328D01*
X203529455Y-193793328D02*
X203672312Y-193793328D01*
X204743741Y-193721900D02*
X204600884Y-193793328D01*
X204600884Y-193793328D02*
X204315170Y-193793328D01*
X204315170Y-193793328D02*
X204172312Y-193721900D01*
X204172312Y-193721900D02*
X204100884Y-193579042D01*
X204100884Y-193579042D02*
X204100884Y-193007614D01*
X204100884Y-193007614D02*
X204172312Y-192864757D01*
X204172312Y-192864757D02*
X204315170Y-192793328D01*
X204315170Y-192793328D02*
X204600884Y-192793328D01*
X204600884Y-192793328D02*
X204743741Y-192864757D01*
X204743741Y-192864757D02*
X204815170Y-193007614D01*
X204815170Y-193007614D02*
X204815170Y-193150471D01*
X204815170Y-193150471D02*
X204100884Y-193293328D01*
X205458026Y-193650471D02*
X205529455Y-193721900D01*
X205529455Y-193721900D02*
X205458026Y-193793328D01*
X205458026Y-193793328D02*
X205386598Y-193721900D01*
X205386598Y-193721900D02*
X205458026Y-193650471D01*
X205458026Y-193650471D02*
X205458026Y-193793328D01*
X205458026Y-192864757D02*
X205529455Y-192936185D01*
X205529455Y-192936185D02*
X205458026Y-193007614D01*
X205458026Y-193007614D02*
X205386598Y-192936185D01*
X205386598Y-192936185D02*
X205458026Y-192864757D01*
X205458026Y-192864757D02*
X205458026Y-193007614D01*
D10*
D11*
X177002200Y-194507200D02*
X285002200Y-194507200D01*
D10*
D11*
X178458026Y-196593328D02*
X178458026Y-195093328D01*
X179315169Y-196593328D02*
X178672312Y-195736185D01*
X179315169Y-195093328D02*
X178458026Y-195950471D01*
X179958026Y-196593328D02*
X179958026Y-195593328D01*
X179958026Y-195093328D02*
X179886598Y-195164757D01*
X179886598Y-195164757D02*
X179958026Y-195236185D01*
X179958026Y-195236185D02*
X180029455Y-195164757D01*
X180029455Y-195164757D02*
X179958026Y-195093328D01*
X179958026Y-195093328D02*
X179958026Y-195236185D01*
X181529455Y-196450471D02*
X181458027Y-196521900D01*
X181458027Y-196521900D02*
X181243741Y-196593328D01*
X181243741Y-196593328D02*
X181100884Y-196593328D01*
X181100884Y-196593328D02*
X180886598Y-196521900D01*
X180886598Y-196521900D02*
X180743741Y-196379042D01*
X180743741Y-196379042D02*
X180672312Y-196236185D01*
X180672312Y-196236185D02*
X180600884Y-195950471D01*
X180600884Y-195950471D02*
X180600884Y-195736185D01*
X180600884Y-195736185D02*
X180672312Y-195450471D01*
X180672312Y-195450471D02*
X180743741Y-195307614D01*
X180743741Y-195307614D02*
X180886598Y-195164757D01*
X180886598Y-195164757D02*
X181100884Y-195093328D01*
X181100884Y-195093328D02*
X181243741Y-195093328D01*
X181243741Y-195093328D02*
X181458027Y-195164757D01*
X181458027Y-195164757D02*
X181529455Y-195236185D01*
X182815170Y-196593328D02*
X182815170Y-195807614D01*
X182815170Y-195807614D02*
X182743741Y-195664757D01*
X182743741Y-195664757D02*
X182600884Y-195593328D01*
X182600884Y-195593328D02*
X182315170Y-195593328D01*
X182315170Y-195593328D02*
X182172312Y-195664757D01*
X182815170Y-196521900D02*
X182672312Y-196593328D01*
X182672312Y-196593328D02*
X182315170Y-196593328D01*
X182315170Y-196593328D02*
X182172312Y-196521900D01*
X182172312Y-196521900D02*
X182100884Y-196379042D01*
X182100884Y-196379042D02*
X182100884Y-196236185D01*
X182100884Y-196236185D02*
X182172312Y-196093328D01*
X182172312Y-196093328D02*
X182315170Y-196021900D01*
X182315170Y-196021900D02*
X182672312Y-196021900D01*
X182672312Y-196021900D02*
X182815170Y-195950471D01*
X184172313Y-196593328D02*
X184172313Y-195093328D01*
X184172313Y-196521900D02*
X184029455Y-196593328D01*
X184029455Y-196593328D02*
X183743741Y-196593328D01*
X183743741Y-196593328D02*
X183600884Y-196521900D01*
X183600884Y-196521900D02*
X183529455Y-196450471D01*
X183529455Y-196450471D02*
X183458027Y-196307614D01*
X183458027Y-196307614D02*
X183458027Y-195879042D01*
X183458027Y-195879042D02*
X183529455Y-195736185D01*
X183529455Y-195736185D02*
X183600884Y-195664757D01*
X183600884Y-195664757D02*
X183743741Y-195593328D01*
X183743741Y-195593328D02*
X184029455Y-195593328D01*
X184029455Y-195593328D02*
X184172313Y-195664757D01*
X186029455Y-195807614D02*
X186529455Y-195807614D01*
X186743741Y-196593328D02*
X186029455Y-196593328D01*
X186029455Y-196593328D02*
X186029455Y-195093328D01*
X186029455Y-195093328D02*
X186743741Y-195093328D01*
X187386598Y-196450471D02*
X187458027Y-196521900D01*
X187458027Y-196521900D02*
X187386598Y-196593328D01*
X187386598Y-196593328D02*
X187315170Y-196521900D01*
X187315170Y-196521900D02*
X187386598Y-196450471D01*
X187386598Y-196450471D02*
X187386598Y-196593328D01*
X188100884Y-196593328D02*
X188100884Y-195093328D01*
X188100884Y-195093328D02*
X188458027Y-195093328D01*
X188458027Y-195093328D02*
X188672313Y-195164757D01*
X188672313Y-195164757D02*
X188815170Y-195307614D01*
X188815170Y-195307614D02*
X188886599Y-195450471D01*
X188886599Y-195450471D02*
X188958027Y-195736185D01*
X188958027Y-195736185D02*
X188958027Y-195950471D01*
X188958027Y-195950471D02*
X188886599Y-196236185D01*
X188886599Y-196236185D02*
X188815170Y-196379042D01*
X188815170Y-196379042D02*
X188672313Y-196521900D01*
X188672313Y-196521900D02*
X188458027Y-196593328D01*
X188458027Y-196593328D02*
X188100884Y-196593328D01*
X189600884Y-196450471D02*
X189672313Y-196521900D01*
X189672313Y-196521900D02*
X189600884Y-196593328D01*
X189600884Y-196593328D02*
X189529456Y-196521900D01*
X189529456Y-196521900D02*
X189600884Y-196450471D01*
X189600884Y-196450471D02*
X189600884Y-196593328D01*
X190243742Y-196164757D02*
X190958028Y-196164757D01*
X190100885Y-196593328D02*
X190600885Y-195093328D01*
X190600885Y-195093328D02*
X191100885Y-196593328D01*
X191600884Y-196450471D02*
X191672313Y-196521900D01*
X191672313Y-196521900D02*
X191600884Y-196593328D01*
X191600884Y-196593328D02*
X191529456Y-196521900D01*
X191529456Y-196521900D02*
X191600884Y-196450471D01*
X191600884Y-196450471D02*
X191600884Y-196593328D01*
X193672313Y-195736185D02*
X193529456Y-195664757D01*
X193529456Y-195664757D02*
X193458027Y-195593328D01*
X193458027Y-195593328D02*
X193386599Y-195450471D01*
X193386599Y-195450471D02*
X193386599Y-195379042D01*
X193386599Y-195379042D02*
X193458027Y-195236185D01*
X193458027Y-195236185D02*
X193529456Y-195164757D01*
X193529456Y-195164757D02*
X193672313Y-195093328D01*
X193672313Y-195093328D02*
X193958027Y-195093328D01*
X193958027Y-195093328D02*
X194100885Y-195164757D01*
X194100885Y-195164757D02*
X194172313Y-195236185D01*
X194172313Y-195236185D02*
X194243742Y-195379042D01*
X194243742Y-195379042D02*
X194243742Y-195450471D01*
X194243742Y-195450471D02*
X194172313Y-195593328D01*
X194172313Y-195593328D02*
X194100885Y-195664757D01*
X194100885Y-195664757D02*
X193958027Y-195736185D01*
X193958027Y-195736185D02*
X193672313Y-195736185D01*
X193672313Y-195736185D02*
X193529456Y-195807614D01*
X193529456Y-195807614D02*
X193458027Y-195879042D01*
X193458027Y-195879042D02*
X193386599Y-196021900D01*
X193386599Y-196021900D02*
X193386599Y-196307614D01*
X193386599Y-196307614D02*
X193458027Y-196450471D01*
X193458027Y-196450471D02*
X193529456Y-196521900D01*
X193529456Y-196521900D02*
X193672313Y-196593328D01*
X193672313Y-196593328D02*
X193958027Y-196593328D01*
X193958027Y-196593328D02*
X194100885Y-196521900D01*
X194100885Y-196521900D02*
X194172313Y-196450471D01*
X194172313Y-196450471D02*
X194243742Y-196307614D01*
X194243742Y-196307614D02*
X194243742Y-196021900D01*
X194243742Y-196021900D02*
X194172313Y-195879042D01*
X194172313Y-195879042D02*
X194100885Y-195807614D01*
X194100885Y-195807614D02*
X193958027Y-195736185D01*
X194886598Y-196450471D02*
X194958027Y-196521900D01*
X194958027Y-196521900D02*
X194886598Y-196593328D01*
X194886598Y-196593328D02*
X194815170Y-196521900D01*
X194815170Y-196521900D02*
X194886598Y-196450471D01*
X194886598Y-196450471D02*
X194886598Y-196593328D01*
X195886599Y-195093328D02*
X196029456Y-195093328D01*
X196029456Y-195093328D02*
X196172313Y-195164757D01*
X196172313Y-195164757D02*
X196243742Y-195236185D01*
X196243742Y-195236185D02*
X196315170Y-195379042D01*
X196315170Y-195379042D02*
X196386599Y-195664757D01*
X196386599Y-195664757D02*
X196386599Y-196021900D01*
X196386599Y-196021900D02*
X196315170Y-196307614D01*
X196315170Y-196307614D02*
X196243742Y-196450471D01*
X196243742Y-196450471D02*
X196172313Y-196521900D01*
X196172313Y-196521900D02*
X196029456Y-196593328D01*
X196029456Y-196593328D02*
X195886599Y-196593328D01*
X195886599Y-196593328D02*
X195743742Y-196521900D01*
X195743742Y-196521900D02*
X195672313Y-196450471D01*
X195672313Y-196450471D02*
X195600884Y-196307614D01*
X195600884Y-196307614D02*
X195529456Y-196021900D01*
X195529456Y-196021900D02*
X195529456Y-195664757D01*
X195529456Y-195664757D02*
X195600884Y-195379042D01*
X195600884Y-195379042D02*
X195672313Y-195236185D01*
X195672313Y-195236185D02*
X195743742Y-195164757D01*
X195743742Y-195164757D02*
X195886599Y-195093328D01*
X197029455Y-196450471D02*
X197100884Y-196521900D01*
X197100884Y-196521900D02*
X197029455Y-196593328D01*
X197029455Y-196593328D02*
X196958027Y-196521900D01*
X196958027Y-196521900D02*
X197029455Y-196450471D01*
X197029455Y-196450471D02*
X197029455Y-196593328D01*
X197958027Y-195736185D02*
X197815170Y-195664757D01*
X197815170Y-195664757D02*
X197743741Y-195593328D01*
X197743741Y-195593328D02*
X197672313Y-195450471D01*
X197672313Y-195450471D02*
X197672313Y-195379042D01*
X197672313Y-195379042D02*
X197743741Y-195236185D01*
X197743741Y-195236185D02*
X197815170Y-195164757D01*
X197815170Y-195164757D02*
X197958027Y-195093328D01*
X197958027Y-195093328D02*
X198243741Y-195093328D01*
X198243741Y-195093328D02*
X198386599Y-195164757D01*
X198386599Y-195164757D02*
X198458027Y-195236185D01*
X198458027Y-195236185D02*
X198529456Y-195379042D01*
X198529456Y-195379042D02*
X198529456Y-195450471D01*
X198529456Y-195450471D02*
X198458027Y-195593328D01*
X198458027Y-195593328D02*
X198386599Y-195664757D01*
X198386599Y-195664757D02*
X198243741Y-195736185D01*
X198243741Y-195736185D02*
X197958027Y-195736185D01*
X197958027Y-195736185D02*
X197815170Y-195807614D01*
X197815170Y-195807614D02*
X197743741Y-195879042D01*
X197743741Y-195879042D02*
X197672313Y-196021900D01*
X197672313Y-196021900D02*
X197672313Y-196307614D01*
X197672313Y-196307614D02*
X197743741Y-196450471D01*
X197743741Y-196450471D02*
X197815170Y-196521900D01*
X197815170Y-196521900D02*
X197958027Y-196593328D01*
X197958027Y-196593328D02*
X198243741Y-196593328D01*
X198243741Y-196593328D02*
X198386599Y-196521900D01*
X198386599Y-196521900D02*
X198458027Y-196450471D01*
X198458027Y-196450471D02*
X198529456Y-196307614D01*
X198529456Y-196307614D02*
X198529456Y-196021900D01*
X198529456Y-196021900D02*
X198458027Y-195879042D01*
X198458027Y-195879042D02*
X198386599Y-195807614D01*
X198386599Y-195807614D02*
X198243741Y-195736185D01*
D10*
D11*
X177002200Y-191507200D02*
X285002200Y-191507200D01*
D10*
D12*
X264413853Y-193785528D02*
X263913853Y-193071242D01*
X263556710Y-193785528D02*
X263556710Y-192285528D01*
X263556710Y-192285528D02*
X264128139Y-192285528D01*
X264128139Y-192285528D02*
X264270996Y-192356957D01*
X264270996Y-192356957D02*
X264342425Y-192428385D01*
X264342425Y-192428385D02*
X264413853Y-192571242D01*
X264413853Y-192571242D02*
X264413853Y-192785528D01*
X264413853Y-192785528D02*
X264342425Y-192928385D01*
X264342425Y-192928385D02*
X264270996Y-192999814D01*
X264270996Y-192999814D02*
X264128139Y-193071242D01*
X264128139Y-193071242D02*
X263556710Y-193071242D01*
X265628139Y-193714100D02*
X265485282Y-193785528D01*
X265485282Y-193785528D02*
X265199568Y-193785528D01*
X265199568Y-193785528D02*
X265056710Y-193714100D01*
X265056710Y-193714100D02*
X264985282Y-193571242D01*
X264985282Y-193571242D02*
X264985282Y-192999814D01*
X264985282Y-192999814D02*
X265056710Y-192856957D01*
X265056710Y-192856957D02*
X265199568Y-192785528D01*
X265199568Y-192785528D02*
X265485282Y-192785528D01*
X265485282Y-192785528D02*
X265628139Y-192856957D01*
X265628139Y-192856957D02*
X265699568Y-192999814D01*
X265699568Y-192999814D02*
X265699568Y-193142671D01*
X265699568Y-193142671D02*
X264985282Y-193285528D01*
X266199567Y-192785528D02*
X266556710Y-193785528D01*
X266556710Y-193785528D02*
X266913853Y-192785528D01*
X267485281Y-193642671D02*
X267556710Y-193714100D01*
X267556710Y-193714100D02*
X267485281Y-193785528D01*
X267485281Y-193785528D02*
X267413853Y-193714100D01*
X267413853Y-193714100D02*
X267485281Y-193642671D01*
X267485281Y-193642671D02*
X267485281Y-193785528D01*
X267485281Y-192856957D02*
X267556710Y-192928385D01*
X267556710Y-192928385D02*
X267485281Y-192999814D01*
X267485281Y-192999814D02*
X267413853Y-192928385D01*
X267413853Y-192928385D02*
X267485281Y-192856957D01*
X267485281Y-192856957D02*
X267485281Y-192999814D01*
D10*
D11*
X178386598Y-193721900D02*
X178600884Y-193793328D01*
X178600884Y-193793328D02*
X178958026Y-193793328D01*
X178958026Y-193793328D02*
X179100884Y-193721900D01*
X179100884Y-193721900D02*
X179172312Y-193650471D01*
X179172312Y-193650471D02*
X179243741Y-193507614D01*
X179243741Y-193507614D02*
X179243741Y-193364757D01*
X179243741Y-193364757D02*
X179172312Y-193221900D01*
X179172312Y-193221900D02*
X179100884Y-193150471D01*
X179100884Y-193150471D02*
X178958026Y-193079042D01*
X178958026Y-193079042D02*
X178672312Y-193007614D01*
X178672312Y-193007614D02*
X178529455Y-192936185D01*
X178529455Y-192936185D02*
X178458026Y-192864757D01*
X178458026Y-192864757D02*
X178386598Y-192721900D01*
X178386598Y-192721900D02*
X178386598Y-192579042D01*
X178386598Y-192579042D02*
X178458026Y-192436185D01*
X178458026Y-192436185D02*
X178529455Y-192364757D01*
X178529455Y-192364757D02*
X178672312Y-192293328D01*
X178672312Y-192293328D02*
X179029455Y-192293328D01*
X179029455Y-192293328D02*
X179243741Y-192364757D01*
X179886597Y-193793328D02*
X179886597Y-192793328D01*
X179886597Y-192293328D02*
X179815169Y-192364757D01*
X179815169Y-192364757D02*
X179886597Y-192436185D01*
X179886597Y-192436185D02*
X179958026Y-192364757D01*
X179958026Y-192364757D02*
X179886597Y-192293328D01*
X179886597Y-192293328D02*
X179886597Y-192436185D01*
X180458026Y-192793328D02*
X181243741Y-192793328D01*
X181243741Y-192793328D02*
X180458026Y-193793328D01*
X180458026Y-193793328D02*
X181243741Y-193793328D01*
X182386598Y-193721900D02*
X182243741Y-193793328D01*
X182243741Y-193793328D02*
X181958027Y-193793328D01*
X181958027Y-193793328D02*
X181815169Y-193721900D01*
X181815169Y-193721900D02*
X181743741Y-193579042D01*
X181743741Y-193579042D02*
X181743741Y-193007614D01*
X181743741Y-193007614D02*
X181815169Y-192864757D01*
X181815169Y-192864757D02*
X181958027Y-192793328D01*
X181958027Y-192793328D02*
X182243741Y-192793328D01*
X182243741Y-192793328D02*
X182386598Y-192864757D01*
X182386598Y-192864757D02*
X182458027Y-193007614D01*
X182458027Y-193007614D02*
X182458027Y-193150471D01*
X182458027Y-193150471D02*
X181743741Y-193293328D01*
X183100883Y-193650471D02*
X183172312Y-193721900D01*
X183172312Y-193721900D02*
X183100883Y-193793328D01*
X183100883Y-193793328D02*
X183029455Y-193721900D01*
X183029455Y-193721900D02*
X183100883Y-193650471D01*
X183100883Y-193650471D02*
X183100883Y-193793328D01*
X183100883Y-192864757D02*
X183172312Y-192936185D01*
X183172312Y-192936185D02*
X183100883Y-193007614D01*
X183100883Y-193007614D02*
X183029455Y-192936185D01*
X183029455Y-192936185D02*
X183100883Y-192864757D01*
X183100883Y-192864757D02*
X183100883Y-193007614D01*
X184886598Y-193364757D02*
X185600884Y-193364757D01*
X184743741Y-193793328D02*
X185243741Y-192293328D01*
X185243741Y-192293328D02*
X185743741Y-193793328D01*
X186886598Y-192793328D02*
X186886598Y-193793328D01*
X186529455Y-192221900D02*
X186172312Y-193293328D01*
X186172312Y-193293328D02*
X187100883Y-193293328D01*
D10*
D11*
X263458026Y-196593328D02*
X263458026Y-195093328D01*
X264815170Y-196593328D02*
X264815170Y-195093328D01*
X264815170Y-196521900D02*
X264672312Y-196593328D01*
X264672312Y-196593328D02*
X264386598Y-196593328D01*
X264386598Y-196593328D02*
X264243741Y-196521900D01*
X264243741Y-196521900D02*
X264172312Y-196450471D01*
X264172312Y-196450471D02*
X264100884Y-196307614D01*
X264100884Y-196307614D02*
X264100884Y-195879042D01*
X264100884Y-195879042D02*
X264172312Y-195736185D01*
X264172312Y-195736185D02*
X264243741Y-195664757D01*
X264243741Y-195664757D02*
X264386598Y-195593328D01*
X264386598Y-195593328D02*
X264672312Y-195593328D01*
X264672312Y-195593328D02*
X264815170Y-195664757D01*
X265529455Y-196450471D02*
X265600884Y-196521900D01*
X265600884Y-196521900D02*
X265529455Y-196593328D01*
X265529455Y-196593328D02*
X265458027Y-196521900D01*
X265458027Y-196521900D02*
X265529455Y-196450471D01*
X265529455Y-196450471D02*
X265529455Y-196593328D01*
X265529455Y-195664757D02*
X265600884Y-195736185D01*
X265600884Y-195736185D02*
X265529455Y-195807614D01*
X265529455Y-195807614D02*
X265458027Y-195736185D01*
X265458027Y-195736185D02*
X265529455Y-195664757D01*
X265529455Y-195664757D02*
X265529455Y-195807614D01*
X268172313Y-196593328D02*
X267315170Y-196593328D01*
X267743741Y-196593328D02*
X267743741Y-195093328D01*
X267743741Y-195093328D02*
X267600884Y-195307614D01*
X267600884Y-195307614D02*
X267458027Y-195450471D01*
X267458027Y-195450471D02*
X267315170Y-195521900D01*
X269886598Y-195021900D02*
X268600884Y-196950471D01*
X271172313Y-196593328D02*
X270315170Y-196593328D01*
X270743741Y-196593328D02*
X270743741Y-195093328D01*
X270743741Y-195093328D02*
X270600884Y-195307614D01*
X270600884Y-195307614D02*
X270458027Y-195450471D01*
X270458027Y-195450471D02*
X270315170Y-195521900D01*
D10*
D11*
X177002200Y-187507200D02*
X285002200Y-187507200D01*
D10*
D13*
X178693928Y-188211638D02*
X179836785Y-188211638D01*
X179015357Y-190211638D02*
X179265357Y-188211638D01*
X180253452Y-190211638D02*
X180420119Y-188878304D01*
X180503452Y-188211638D02*
X180396309Y-188306876D01*
X180396309Y-188306876D02*
X180479643Y-188402114D01*
X180479643Y-188402114D02*
X180586786Y-188306876D01*
X180586786Y-188306876D02*
X180503452Y-188211638D01*
X180503452Y-188211638D02*
X180479643Y-188402114D01*
X181086786Y-188878304D02*
X181848690Y-188878304D01*
X181455833Y-188211638D02*
X181241548Y-189925923D01*
X181241548Y-189925923D02*
X181312976Y-190116400D01*
X181312976Y-190116400D02*
X181491548Y-190211638D01*
X181491548Y-190211638D02*
X181682024Y-190211638D01*
X182634405Y-190211638D02*
X182455833Y-190116400D01*
X182455833Y-190116400D02*
X182384405Y-189925923D01*
X182384405Y-189925923D02*
X182598690Y-188211638D01*
X184170119Y-190116400D02*
X183967738Y-190211638D01*
X183967738Y-190211638D02*
X183586785Y-190211638D01*
X183586785Y-190211638D02*
X183408214Y-190116400D01*
X183408214Y-190116400D02*
X183336785Y-189925923D01*
X183336785Y-189925923D02*
X183432024Y-189164019D01*
X183432024Y-189164019D02*
X183551071Y-188973542D01*
X183551071Y-188973542D02*
X183753452Y-188878304D01*
X183753452Y-188878304D02*
X184134404Y-188878304D01*
X184134404Y-188878304D02*
X184312976Y-188973542D01*
X184312976Y-188973542D02*
X184384404Y-189164019D01*
X184384404Y-189164019D02*
X184360595Y-189354495D01*
X184360595Y-189354495D02*
X183384404Y-189544971D01*
X185134405Y-190021161D02*
X185217738Y-190116400D01*
X185217738Y-190116400D02*
X185110595Y-190211638D01*
X185110595Y-190211638D02*
X185027262Y-190116400D01*
X185027262Y-190116400D02*
X185134405Y-190021161D01*
X185134405Y-190021161D02*
X185110595Y-190211638D01*
X185265357Y-188973542D02*
X185348690Y-189068780D01*
X185348690Y-189068780D02*
X185241548Y-189164019D01*
X185241548Y-189164019D02*
X185158214Y-189068780D01*
X185158214Y-189068780D02*
X185265357Y-188973542D01*
X185265357Y-188973542D02*
X185241548Y-189164019D01*
D10*
D11*
X178958026Y-185607614D02*
X178458026Y-185607614D01*
X178458026Y-186393328D02*
X178458026Y-184893328D01*
X178458026Y-184893328D02*
X179172312Y-184893328D01*
X179743740Y-186393328D02*
X179743740Y-185393328D01*
X179743740Y-184893328D02*
X179672312Y-184964757D01*
X179672312Y-184964757D02*
X179743740Y-185036185D01*
X179743740Y-185036185D02*
X179815169Y-184964757D01*
X179815169Y-184964757D02*
X179743740Y-184893328D01*
X179743740Y-184893328D02*
X179743740Y-185036185D01*
X180672312Y-186393328D02*
X180529455Y-186321900D01*
X180529455Y-186321900D02*
X180458026Y-186179042D01*
X180458026Y-186179042D02*
X180458026Y-184893328D01*
X181815169Y-186321900D02*
X181672312Y-186393328D01*
X181672312Y-186393328D02*
X181386598Y-186393328D01*
X181386598Y-186393328D02*
X181243740Y-186321900D01*
X181243740Y-186321900D02*
X181172312Y-186179042D01*
X181172312Y-186179042D02*
X181172312Y-185607614D01*
X181172312Y-185607614D02*
X181243740Y-185464757D01*
X181243740Y-185464757D02*
X181386598Y-185393328D01*
X181386598Y-185393328D02*
X181672312Y-185393328D01*
X181672312Y-185393328D02*
X181815169Y-185464757D01*
X181815169Y-185464757D02*
X181886598Y-185607614D01*
X181886598Y-185607614D02*
X181886598Y-185750471D01*
X181886598Y-185750471D02*
X181172312Y-185893328D01*
X182529454Y-186250471D02*
X182600883Y-186321900D01*
X182600883Y-186321900D02*
X182529454Y-186393328D01*
X182529454Y-186393328D02*
X182458026Y-186321900D01*
X182458026Y-186321900D02*
X182529454Y-186250471D01*
X182529454Y-186250471D02*
X182529454Y-186393328D01*
X182529454Y-185464757D02*
X182600883Y-185536185D01*
X182600883Y-185536185D02*
X182529454Y-185607614D01*
X182529454Y-185607614D02*
X182458026Y-185536185D01*
X182458026Y-185536185D02*
X182529454Y-185464757D01*
X182529454Y-185464757D02*
X182529454Y-185607614D01*
X184886597Y-185607614D02*
X184386597Y-185607614D01*
X184386597Y-186393328D02*
X184386597Y-184893328D01*
X184386597Y-184893328D02*
X185100883Y-184893328D01*
X185886597Y-186393328D02*
X185743740Y-186321900D01*
X185743740Y-186321900D02*
X185672311Y-186179042D01*
X185672311Y-186179042D02*
X185672311Y-184893328D01*
X186672311Y-186393328D02*
X186529454Y-186321900D01*
X186529454Y-186321900D02*
X186458025Y-186250471D01*
X186458025Y-186250471D02*
X186386597Y-186107614D01*
X186386597Y-186107614D02*
X186386597Y-185679042D01*
X186386597Y-185679042D02*
X186458025Y-185536185D01*
X186458025Y-185536185D02*
X186529454Y-185464757D01*
X186529454Y-185464757D02*
X186672311Y-185393328D01*
X186672311Y-185393328D02*
X186886597Y-185393328D01*
X186886597Y-185393328D02*
X187029454Y-185464757D01*
X187029454Y-185464757D02*
X187100883Y-185536185D01*
X187100883Y-185536185D02*
X187172311Y-185679042D01*
X187172311Y-185679042D02*
X187172311Y-186107614D01*
X187172311Y-186107614D02*
X187100883Y-186250471D01*
X187100883Y-186250471D02*
X187029454Y-186321900D01*
X187029454Y-186321900D02*
X186886597Y-186393328D01*
X186886597Y-186393328D02*
X186672311Y-186393328D01*
X188458026Y-186393328D02*
X188458026Y-185607614D01*
X188458026Y-185607614D02*
X188386597Y-185464757D01*
X188386597Y-185464757D02*
X188243740Y-185393328D01*
X188243740Y-185393328D02*
X187958026Y-185393328D01*
X187958026Y-185393328D02*
X187815168Y-185464757D01*
X188458026Y-186321900D02*
X188315168Y-186393328D01*
X188315168Y-186393328D02*
X187958026Y-186393328D01*
X187958026Y-186393328D02*
X187815168Y-186321900D01*
X187815168Y-186321900D02*
X187743740Y-186179042D01*
X187743740Y-186179042D02*
X187743740Y-186036185D01*
X187743740Y-186036185D02*
X187815168Y-185893328D01*
X187815168Y-185893328D02*
X187958026Y-185821900D01*
X187958026Y-185821900D02*
X188315168Y-185821900D01*
X188315168Y-185821900D02*
X188458026Y-185750471D01*
X188958026Y-185393328D02*
X189529454Y-185393328D01*
X189172311Y-184893328D02*
X189172311Y-186179042D01*
X189172311Y-186179042D02*
X189243740Y-186321900D01*
X189243740Y-186321900D02*
X189386597Y-186393328D01*
X189386597Y-186393328D02*
X189529454Y-186393328D01*
X190029454Y-186393328D02*
X190029454Y-185393328D01*
X190029454Y-184893328D02*
X189958026Y-184964757D01*
X189958026Y-184964757D02*
X190029454Y-185036185D01*
X190029454Y-185036185D02*
X190100883Y-184964757D01*
X190100883Y-184964757D02*
X190029454Y-184893328D01*
X190029454Y-184893328D02*
X190029454Y-185036185D01*
X190743740Y-185393328D02*
X190743740Y-186393328D01*
X190743740Y-185536185D02*
X190815169Y-185464757D01*
X190815169Y-185464757D02*
X190958026Y-185393328D01*
X190958026Y-185393328D02*
X191172312Y-185393328D01*
X191172312Y-185393328D02*
X191315169Y-185464757D01*
X191315169Y-185464757D02*
X191386598Y-185607614D01*
X191386598Y-185607614D02*
X191386598Y-186393328D01*
X192743741Y-185393328D02*
X192743741Y-186607614D01*
X192743741Y-186607614D02*
X192672312Y-186750471D01*
X192672312Y-186750471D02*
X192600883Y-186821900D01*
X192600883Y-186821900D02*
X192458026Y-186893328D01*
X192458026Y-186893328D02*
X192243741Y-186893328D01*
X192243741Y-186893328D02*
X192100883Y-186821900D01*
X192743741Y-186321900D02*
X192600883Y-186393328D01*
X192600883Y-186393328D02*
X192315169Y-186393328D01*
X192315169Y-186393328D02*
X192172312Y-186321900D01*
X192172312Y-186321900D02*
X192100883Y-186250471D01*
X192100883Y-186250471D02*
X192029455Y-186107614D01*
X192029455Y-186107614D02*
X192029455Y-185679042D01*
X192029455Y-185679042D02*
X192100883Y-185536185D01*
X192100883Y-185536185D02*
X192172312Y-185464757D01*
X192172312Y-185464757D02*
X192315169Y-185393328D01*
X192315169Y-185393328D02*
X192600883Y-185393328D01*
X192600883Y-185393328D02*
X192743741Y-185464757D01*
X194315169Y-186250471D02*
X194243741Y-186321900D01*
X194243741Y-186321900D02*
X194029455Y-186393328D01*
X194029455Y-186393328D02*
X193886598Y-186393328D01*
X193886598Y-186393328D02*
X193672312Y-186321900D01*
X193672312Y-186321900D02*
X193529455Y-186179042D01*
X193529455Y-186179042D02*
X193458026Y-186036185D01*
X193458026Y-186036185D02*
X193386598Y-185750471D01*
X193386598Y-185750471D02*
X193386598Y-185536185D01*
X193386598Y-185536185D02*
X193458026Y-185250471D01*
X193458026Y-185250471D02*
X193529455Y-185107614D01*
X193529455Y-185107614D02*
X193672312Y-184964757D01*
X193672312Y-184964757D02*
X193886598Y-184893328D01*
X193886598Y-184893328D02*
X194029455Y-184893328D01*
X194029455Y-184893328D02*
X194243741Y-184964757D01*
X194243741Y-184964757D02*
X194315169Y-185036185D01*
X195600884Y-185393328D02*
X195600884Y-186393328D01*
X194958026Y-185393328D02*
X194958026Y-186179042D01*
X194958026Y-186179042D02*
X195029455Y-186321900D01*
X195029455Y-186321900D02*
X195172312Y-186393328D01*
X195172312Y-186393328D02*
X195386598Y-186393328D01*
X195386598Y-186393328D02*
X195529455Y-186321900D01*
X195529455Y-186321900D02*
X195600884Y-186250471D01*
X196315169Y-186393328D02*
X196315169Y-185393328D01*
X196315169Y-185679042D02*
X196386598Y-185536185D01*
X196386598Y-185536185D02*
X196458027Y-185464757D01*
X196458027Y-185464757D02*
X196600884Y-185393328D01*
X196600884Y-185393328D02*
X196743741Y-185393328D01*
X197243740Y-186393328D02*
X197243740Y-185393328D01*
X197243740Y-185679042D02*
X197315169Y-185536185D01*
X197315169Y-185536185D02*
X197386598Y-185464757D01*
X197386598Y-185464757D02*
X197529455Y-185393328D01*
X197529455Y-185393328D02*
X197672312Y-185393328D01*
X198743740Y-186321900D02*
X198600883Y-186393328D01*
X198600883Y-186393328D02*
X198315169Y-186393328D01*
X198315169Y-186393328D02*
X198172311Y-186321900D01*
X198172311Y-186321900D02*
X198100883Y-186179042D01*
X198100883Y-186179042D02*
X198100883Y-185607614D01*
X198100883Y-185607614D02*
X198172311Y-185464757D01*
X198172311Y-185464757D02*
X198315169Y-185393328D01*
X198315169Y-185393328D02*
X198600883Y-185393328D01*
X198600883Y-185393328D02*
X198743740Y-185464757D01*
X198743740Y-185464757D02*
X198815169Y-185607614D01*
X198815169Y-185607614D02*
X198815169Y-185750471D01*
X198815169Y-185750471D02*
X198100883Y-185893328D01*
X199458025Y-185393328D02*
X199458025Y-186393328D01*
X199458025Y-185536185D02*
X199529454Y-185464757D01*
X199529454Y-185464757D02*
X199672311Y-185393328D01*
X199672311Y-185393328D02*
X199886597Y-185393328D01*
X199886597Y-185393328D02*
X200029454Y-185464757D01*
X200029454Y-185464757D02*
X200100883Y-185607614D01*
X200100883Y-185607614D02*
X200100883Y-186393328D01*
X200600883Y-185393328D02*
X201172311Y-185393328D01*
X200815168Y-184893328D02*
X200815168Y-186179042D01*
X200815168Y-186179042D02*
X200886597Y-186321900D01*
X200886597Y-186321900D02*
X201029454Y-186393328D01*
X201029454Y-186393328D02*
X201172311Y-186393328D01*
X202172311Y-185607614D02*
X201672311Y-185607614D01*
X201672311Y-186393328D02*
X201672311Y-184893328D01*
X201672311Y-184893328D02*
X202386597Y-184893328D01*
X203529454Y-186321900D02*
X203386597Y-186393328D01*
X203386597Y-186393328D02*
X203100883Y-186393328D01*
X203100883Y-186393328D02*
X202958025Y-186321900D01*
X202958025Y-186321900D02*
X202886597Y-186179042D01*
X202886597Y-186179042D02*
X202886597Y-185607614D01*
X202886597Y-185607614D02*
X202958025Y-185464757D01*
X202958025Y-185464757D02*
X203100883Y-185393328D01*
X203100883Y-185393328D02*
X203386597Y-185393328D01*
X203386597Y-185393328D02*
X203529454Y-185464757D01*
X203529454Y-185464757D02*
X203600883Y-185607614D01*
X203600883Y-185607614D02*
X203600883Y-185750471D01*
X203600883Y-185750471D02*
X202886597Y-185893328D01*
X204815168Y-186321900D02*
X204672311Y-186393328D01*
X204672311Y-186393328D02*
X204386597Y-186393328D01*
X204386597Y-186393328D02*
X204243739Y-186321900D01*
X204243739Y-186321900D02*
X204172311Y-186179042D01*
X204172311Y-186179042D02*
X204172311Y-185607614D01*
X204172311Y-185607614D02*
X204243739Y-185464757D01*
X204243739Y-185464757D02*
X204386597Y-185393328D01*
X204386597Y-185393328D02*
X204672311Y-185393328D01*
X204672311Y-185393328D02*
X204815168Y-185464757D01*
X204815168Y-185464757D02*
X204886597Y-185607614D01*
X204886597Y-185607614D02*
X204886597Y-185750471D01*
X204886597Y-185750471D02*
X204172311Y-185893328D01*
X206172311Y-186393328D02*
X206172311Y-184893328D01*
X206172311Y-186321900D02*
X206029453Y-186393328D01*
X206029453Y-186393328D02*
X205743739Y-186393328D01*
X205743739Y-186393328D02*
X205600882Y-186321900D01*
X205600882Y-186321900D02*
X205529453Y-186250471D01*
X205529453Y-186250471D02*
X205458025Y-186107614D01*
X205458025Y-186107614D02*
X205458025Y-185679042D01*
X205458025Y-185679042D02*
X205529453Y-185536185D01*
X205529453Y-185536185D02*
X205600882Y-185464757D01*
X205600882Y-185464757D02*
X205743739Y-185393328D01*
X205743739Y-185393328D02*
X206029453Y-185393328D01*
X206029453Y-185393328D02*
X206172311Y-185464757D01*
X206886596Y-186393328D02*
X206886596Y-184893328D01*
X206886596Y-185464757D02*
X207029454Y-185393328D01*
X207029454Y-185393328D02*
X207315168Y-185393328D01*
X207315168Y-185393328D02*
X207458025Y-185464757D01*
X207458025Y-185464757D02*
X207529454Y-185536185D01*
X207529454Y-185536185D02*
X207600882Y-185679042D01*
X207600882Y-185679042D02*
X207600882Y-186107614D01*
X207600882Y-186107614D02*
X207529454Y-186250471D01*
X207529454Y-186250471D02*
X207458025Y-186321900D01*
X207458025Y-186321900D02*
X207315168Y-186393328D01*
X207315168Y-186393328D02*
X207029454Y-186393328D01*
X207029454Y-186393328D02*
X206886596Y-186321900D01*
X208886597Y-186393328D02*
X208886597Y-185607614D01*
X208886597Y-185607614D02*
X208815168Y-185464757D01*
X208815168Y-185464757D02*
X208672311Y-185393328D01*
X208672311Y-185393328D02*
X208386597Y-185393328D01*
X208386597Y-185393328D02*
X208243739Y-185464757D01*
X208886597Y-186321900D02*
X208743739Y-186393328D01*
X208743739Y-186393328D02*
X208386597Y-186393328D01*
X208386597Y-186393328D02*
X208243739Y-186321900D01*
X208243739Y-186321900D02*
X208172311Y-186179042D01*
X208172311Y-186179042D02*
X208172311Y-186036185D01*
X208172311Y-186036185D02*
X208243739Y-185893328D01*
X208243739Y-185893328D02*
X208386597Y-185821900D01*
X208386597Y-185821900D02*
X208743739Y-185821900D01*
X208743739Y-185821900D02*
X208886597Y-185750471D01*
X210243740Y-186321900D02*
X210100882Y-186393328D01*
X210100882Y-186393328D02*
X209815168Y-186393328D01*
X209815168Y-186393328D02*
X209672311Y-186321900D01*
X209672311Y-186321900D02*
X209600882Y-186250471D01*
X209600882Y-186250471D02*
X209529454Y-186107614D01*
X209529454Y-186107614D02*
X209529454Y-185679042D01*
X209529454Y-185679042D02*
X209600882Y-185536185D01*
X209600882Y-185536185D02*
X209672311Y-185464757D01*
X209672311Y-185464757D02*
X209815168Y-185393328D01*
X209815168Y-185393328D02*
X210100882Y-185393328D01*
X210100882Y-185393328D02*
X210243740Y-185464757D01*
X210886596Y-186393328D02*
X210886596Y-184893328D01*
X211029454Y-185821900D02*
X211458025Y-186393328D01*
X211458025Y-185393328D02*
X210886596Y-185964757D01*
X212100882Y-186393328D02*
X212100882Y-184893328D01*
X212100882Y-184893328D02*
X212600882Y-185964757D01*
X212600882Y-185964757D02*
X213100882Y-184893328D01*
X213100882Y-184893328D02*
X213100882Y-186393328D01*
X214029454Y-186393328D02*
X213886597Y-186321900D01*
X213886597Y-186321900D02*
X213815168Y-186250471D01*
X213815168Y-186250471D02*
X213743740Y-186107614D01*
X213743740Y-186107614D02*
X213743740Y-185679042D01*
X213743740Y-185679042D02*
X213815168Y-185536185D01*
X213815168Y-185536185D02*
X213886597Y-185464757D01*
X213886597Y-185464757D02*
X214029454Y-185393328D01*
X214029454Y-185393328D02*
X214243740Y-185393328D01*
X214243740Y-185393328D02*
X214386597Y-185464757D01*
X214386597Y-185464757D02*
X214458026Y-185536185D01*
X214458026Y-185536185D02*
X214529454Y-185679042D01*
X214529454Y-185679042D02*
X214529454Y-186107614D01*
X214529454Y-186107614D02*
X214458026Y-186250471D01*
X214458026Y-186250471D02*
X214386597Y-186321900D01*
X214386597Y-186321900D02*
X214243740Y-186393328D01*
X214243740Y-186393328D02*
X214029454Y-186393328D01*
X215815169Y-186393328D02*
X215815169Y-184893328D01*
X215815169Y-186321900D02*
X215672311Y-186393328D01*
X215672311Y-186393328D02*
X215386597Y-186393328D01*
X215386597Y-186393328D02*
X215243740Y-186321900D01*
X215243740Y-186321900D02*
X215172311Y-186250471D01*
X215172311Y-186250471D02*
X215100883Y-186107614D01*
X215100883Y-186107614D02*
X215100883Y-185679042D01*
X215100883Y-185679042D02*
X215172311Y-185536185D01*
X215172311Y-185536185D02*
X215243740Y-185464757D01*
X215243740Y-185464757D02*
X215386597Y-185393328D01*
X215386597Y-185393328D02*
X215672311Y-185393328D01*
X215672311Y-185393328D02*
X215815169Y-185464757D01*
X217172312Y-185393328D02*
X217172312Y-186393328D01*
X216529454Y-185393328D02*
X216529454Y-186179042D01*
X216529454Y-186179042D02*
X216600883Y-186321900D01*
X216600883Y-186321900D02*
X216743740Y-186393328D01*
X216743740Y-186393328D02*
X216958026Y-186393328D01*
X216958026Y-186393328D02*
X217100883Y-186321900D01*
X217100883Y-186321900D02*
X217172312Y-186250471D01*
X218100883Y-186393328D02*
X217958026Y-186321900D01*
X217958026Y-186321900D02*
X217886597Y-186179042D01*
X217886597Y-186179042D02*
X217886597Y-184893328D01*
X219243740Y-186321900D02*
X219100883Y-186393328D01*
X219100883Y-186393328D02*
X218815169Y-186393328D01*
X218815169Y-186393328D02*
X218672311Y-186321900D01*
X218672311Y-186321900D02*
X218600883Y-186179042D01*
X218600883Y-186179042D02*
X218600883Y-185607614D01*
X218600883Y-185607614D02*
X218672311Y-185464757D01*
X218672311Y-185464757D02*
X218815169Y-185393328D01*
X218815169Y-185393328D02*
X219100883Y-185393328D01*
X219100883Y-185393328D02*
X219243740Y-185464757D01*
X219243740Y-185464757D02*
X219315169Y-185607614D01*
X219315169Y-185607614D02*
X219315169Y-185750471D01*
X219315169Y-185750471D02*
X218600883Y-185893328D01*
X219958025Y-186250471D02*
X220029454Y-186321900D01*
X220029454Y-186321900D02*
X219958025Y-186393328D01*
X219958025Y-186393328D02*
X219886597Y-186321900D01*
X219886597Y-186321900D02*
X219958025Y-186250471D01*
X219958025Y-186250471D02*
X219958025Y-186393328D01*
X220672311Y-186393328D02*
X220672311Y-184893328D01*
X220815169Y-185821900D02*
X221243740Y-186393328D01*
X221243740Y-185393328D02*
X220672311Y-185964757D01*
X221886597Y-186393328D02*
X221886597Y-185393328D01*
X221886597Y-184893328D02*
X221815169Y-184964757D01*
X221815169Y-184964757D02*
X221886597Y-185036185D01*
X221886597Y-185036185D02*
X221958026Y-184964757D01*
X221958026Y-184964757D02*
X221886597Y-184893328D01*
X221886597Y-184893328D02*
X221886597Y-185036185D01*
X223243741Y-186321900D02*
X223100883Y-186393328D01*
X223100883Y-186393328D02*
X222815169Y-186393328D01*
X222815169Y-186393328D02*
X222672312Y-186321900D01*
X222672312Y-186321900D02*
X222600883Y-186250471D01*
X222600883Y-186250471D02*
X222529455Y-186107614D01*
X222529455Y-186107614D02*
X222529455Y-185679042D01*
X222529455Y-185679042D02*
X222600883Y-185536185D01*
X222600883Y-185536185D02*
X222672312Y-185464757D01*
X222672312Y-185464757D02*
X222815169Y-185393328D01*
X222815169Y-185393328D02*
X223100883Y-185393328D01*
X223100883Y-185393328D02*
X223243741Y-185464757D01*
X224529455Y-186393328D02*
X224529455Y-185607614D01*
X224529455Y-185607614D02*
X224458026Y-185464757D01*
X224458026Y-185464757D02*
X224315169Y-185393328D01*
X224315169Y-185393328D02*
X224029455Y-185393328D01*
X224029455Y-185393328D02*
X223886597Y-185464757D01*
X224529455Y-186321900D02*
X224386597Y-186393328D01*
X224386597Y-186393328D02*
X224029455Y-186393328D01*
X224029455Y-186393328D02*
X223886597Y-186321900D01*
X223886597Y-186321900D02*
X223815169Y-186179042D01*
X223815169Y-186179042D02*
X223815169Y-186036185D01*
X223815169Y-186036185D02*
X223886597Y-185893328D01*
X223886597Y-185893328D02*
X224029455Y-185821900D01*
X224029455Y-185821900D02*
X224386597Y-185821900D01*
X224386597Y-185821900D02*
X224529455Y-185750471D01*
X225886598Y-186393328D02*
X225886598Y-184893328D01*
X225886598Y-186321900D02*
X225743740Y-186393328D01*
X225743740Y-186393328D02*
X225458026Y-186393328D01*
X225458026Y-186393328D02*
X225315169Y-186321900D01*
X225315169Y-186321900D02*
X225243740Y-186250471D01*
X225243740Y-186250471D02*
X225172312Y-186107614D01*
X225172312Y-186107614D02*
X225172312Y-185679042D01*
X225172312Y-185679042D02*
X225243740Y-185536185D01*
X225243740Y-185536185D02*
X225315169Y-185464757D01*
X225315169Y-185464757D02*
X225458026Y-185393328D01*
X225458026Y-185393328D02*
X225743740Y-185393328D01*
X225743740Y-185393328D02*
X225886598Y-185464757D01*
X226243741Y-186536185D02*
X227386598Y-186536185D01*
X227743740Y-185393328D02*
X227743740Y-186893328D01*
X227743740Y-185464757D02*
X227886598Y-185393328D01*
X227886598Y-185393328D02*
X228172312Y-185393328D01*
X228172312Y-185393328D02*
X228315169Y-185464757D01*
X228315169Y-185464757D02*
X228386598Y-185536185D01*
X228386598Y-185536185D02*
X228458026Y-185679042D01*
X228458026Y-185679042D02*
X228458026Y-186107614D01*
X228458026Y-186107614D02*
X228386598Y-186250471D01*
X228386598Y-186250471D02*
X228315169Y-186321900D01*
X228315169Y-186321900D02*
X228172312Y-186393328D01*
X228172312Y-186393328D02*
X227886598Y-186393328D01*
X227886598Y-186393328D02*
X227743740Y-186321900D01*
X229743741Y-186321900D02*
X229600883Y-186393328D01*
X229600883Y-186393328D02*
X229315169Y-186393328D01*
X229315169Y-186393328D02*
X229172312Y-186321900D01*
X229172312Y-186321900D02*
X229100883Y-186250471D01*
X229100883Y-186250471D02*
X229029455Y-186107614D01*
X229029455Y-186107614D02*
X229029455Y-185679042D01*
X229029455Y-185679042D02*
X229100883Y-185536185D01*
X229100883Y-185536185D02*
X229172312Y-185464757D01*
X229172312Y-185464757D02*
X229315169Y-185393328D01*
X229315169Y-185393328D02*
X229600883Y-185393328D01*
X229600883Y-185393328D02*
X229743741Y-185464757D01*
X230386597Y-186393328D02*
X230386597Y-184893328D01*
X230386597Y-185464757D02*
X230529455Y-185393328D01*
X230529455Y-185393328D02*
X230815169Y-185393328D01*
X230815169Y-185393328D02*
X230958026Y-185464757D01*
X230958026Y-185464757D02*
X231029455Y-185536185D01*
X231029455Y-185536185D02*
X231100883Y-185679042D01*
X231100883Y-185679042D02*
X231100883Y-186107614D01*
X231100883Y-186107614D02*
X231029455Y-186250471D01*
X231029455Y-186250471D02*
X230958026Y-186321900D01*
X230958026Y-186321900D02*
X230815169Y-186393328D01*
X230815169Y-186393328D02*
X230529455Y-186393328D01*
X230529455Y-186393328D02*
X230386597Y-186321900D01*
D10*
D11*
X177002200Y-181507200D02*
X285002200Y-181507200D01*
D10*
D11*
X178386598Y-183621900D02*
X178600884Y-183693328D01*
X178600884Y-183693328D02*
X178958026Y-183693328D01*
X178958026Y-183693328D02*
X179100884Y-183621900D01*
X179100884Y-183621900D02*
X179172312Y-183550471D01*
X179172312Y-183550471D02*
X179243741Y-183407614D01*
X179243741Y-183407614D02*
X179243741Y-183264757D01*
X179243741Y-183264757D02*
X179172312Y-183121900D01*
X179172312Y-183121900D02*
X179100884Y-183050471D01*
X179100884Y-183050471D02*
X178958026Y-182979042D01*
X178958026Y-182979042D02*
X178672312Y-182907614D01*
X178672312Y-182907614D02*
X178529455Y-182836185D01*
X178529455Y-182836185D02*
X178458026Y-182764757D01*
X178458026Y-182764757D02*
X178386598Y-182621900D01*
X178386598Y-182621900D02*
X178386598Y-182479042D01*
X178386598Y-182479042D02*
X178458026Y-182336185D01*
X178458026Y-182336185D02*
X178529455Y-182264757D01*
X178529455Y-182264757D02*
X178672312Y-182193328D01*
X178672312Y-182193328D02*
X179029455Y-182193328D01*
X179029455Y-182193328D02*
X179243741Y-182264757D01*
X179886597Y-183693328D02*
X179886597Y-182193328D01*
X180529455Y-183693328D02*
X180529455Y-182907614D01*
X180529455Y-182907614D02*
X180458026Y-182764757D01*
X180458026Y-182764757D02*
X180315169Y-182693328D01*
X180315169Y-182693328D02*
X180100883Y-182693328D01*
X180100883Y-182693328D02*
X179958026Y-182764757D01*
X179958026Y-182764757D02*
X179886597Y-182836185D01*
X181815169Y-183621900D02*
X181672312Y-183693328D01*
X181672312Y-183693328D02*
X181386598Y-183693328D01*
X181386598Y-183693328D02*
X181243740Y-183621900D01*
X181243740Y-183621900D02*
X181172312Y-183479042D01*
X181172312Y-183479042D02*
X181172312Y-182907614D01*
X181172312Y-182907614D02*
X181243740Y-182764757D01*
X181243740Y-182764757D02*
X181386598Y-182693328D01*
X181386598Y-182693328D02*
X181672312Y-182693328D01*
X181672312Y-182693328D02*
X181815169Y-182764757D01*
X181815169Y-182764757D02*
X181886598Y-182907614D01*
X181886598Y-182907614D02*
X181886598Y-183050471D01*
X181886598Y-183050471D02*
X181172312Y-183193328D01*
X183100883Y-183621900D02*
X182958026Y-183693328D01*
X182958026Y-183693328D02*
X182672312Y-183693328D01*
X182672312Y-183693328D02*
X182529454Y-183621900D01*
X182529454Y-183621900D02*
X182458026Y-183479042D01*
X182458026Y-183479042D02*
X182458026Y-182907614D01*
X182458026Y-182907614D02*
X182529454Y-182764757D01*
X182529454Y-182764757D02*
X182672312Y-182693328D01*
X182672312Y-182693328D02*
X182958026Y-182693328D01*
X182958026Y-182693328D02*
X183100883Y-182764757D01*
X183100883Y-182764757D02*
X183172312Y-182907614D01*
X183172312Y-182907614D02*
X183172312Y-183050471D01*
X183172312Y-183050471D02*
X182458026Y-183193328D01*
X183600883Y-182693328D02*
X184172311Y-182693328D01*
X183815168Y-182193328D02*
X183815168Y-183479042D01*
X183815168Y-183479042D02*
X183886597Y-183621900D01*
X183886597Y-183621900D02*
X184029454Y-183693328D01*
X184029454Y-183693328D02*
X184172311Y-183693328D01*
X184672311Y-183550471D02*
X184743740Y-183621900D01*
X184743740Y-183621900D02*
X184672311Y-183693328D01*
X184672311Y-183693328D02*
X184600883Y-183621900D01*
X184600883Y-183621900D02*
X184672311Y-183550471D01*
X184672311Y-183550471D02*
X184672311Y-183693328D01*
X184672311Y-182764757D02*
X184743740Y-182836185D01*
X184743740Y-182836185D02*
X184672311Y-182907614D01*
X184672311Y-182907614D02*
X184600883Y-182836185D01*
X184600883Y-182836185D02*
X184672311Y-182764757D01*
X184672311Y-182764757D02*
X184672311Y-182907614D01*
D10*
D11*
X197002200Y-191507200D02*
X197002200Y-194507200D01*
D10*
D11*
X261002200Y-191507200D02*
X261002200Y-198007200D01*
D14*
%TO.P,R1,2*%
%TO.N,Net-(J1-Pin_1)*%
X33920000Y-60000000D03*
D15*
%TO.P,R1,1*%
%TO.N,Net-(X1-D33)*%
X39000000Y-60000000D03*
%TD*%
D16*
%TO.P,J2,1*%
%TO.N,Net-(J7-Pin_2)*%
X35364500Y-80614000D03*
D17*
%TO.P,J2,2*%
%TO.N,GND*%
X35364500Y-86614000D03*
D18*
%TO.P,J2,3*%
%TO.N,N/C*%
X40064500Y-83614000D03*
%TD*%
D15*
%TO.P,C5,1*%
%TO.N,Net-(J4-Pin_3)*%
X43394000Y-33020000D03*
%TO.P,C5,2*%
%TO.N,GND*%
X38394000Y-33020000D03*
%TD*%
%TO.P,C1,1*%
%TO.N,Net-(J1-Pin_1)*%
X34000000Y-63500000D03*
%TO.P,C1,2*%
%TO.N,GND*%
X39000000Y-63500000D03*
%TD*%
D19*
%TO.P,J3,1,Pin_1*%
%TO.N,GND*%
X37084000Y-41656000D03*
%TD*%
%TO.P,J1,1,Pin_1*%
%TO.N,Net-(J1-Pin_1)*%
X37084000Y-50500000D03*
%TD*%
D20*
%TO.P,J4,1,Pin_1*%
%TO.N,GND*%
X34290000Y-69357000D03*
D21*
%TO.P,J4,2,Pin_2*%
%TO.N,Net-(J1-Pin_1)*%
X34290000Y-71897000D03*
%TO.P,J4,3,Pin_3*%
%TO.N,Net-(J4-Pin_3)*%
X34290000Y-74437000D03*
%TD*%
D20*
%TO.P,J7,1,Pin_1*%
%TO.N,GND*%
X35052000Y-91440000D03*
D21*
%TO.P,J7,2,Pin_2*%
%TO.N,Net-(J7-Pin_2)*%
X37592000Y-91440000D03*
%TD*%
D22*
%TO.P,X1,1,EN*%
%TO.N,unconnected-(X1-EN-Pad1)*%
X44100000Y-42226000D03*
%TO.P,X1,2,VP*%
%TO.N,unconnected-(X1-VP-Pad2)*%
X44100000Y-44766000D03*
%TO.P,X1,3,VN*%
%TO.N,unconnected-(X1-VN-Pad3)*%
X44100000Y-47306000D03*
%TO.P,X1,4,D34*%
%TO.N,unconnected-(X1-D34-Pad4)*%
X44100000Y-49846000D03*
%TO.P,X1,5,D35*%
%TO.N,unconnected-(X1-D35-Pad5)*%
X44100000Y-52386000D03*
%TO.P,X1,6,D32*%
%TO.N,unconnected-(X1-D32-Pad6)*%
X44100000Y-54926000D03*
%TO.P,X1,7,D33*%
%TO.N,Net-(X1-D33)*%
X44100000Y-57466000D03*
%TO.P,X1,8,D25*%
%TO.N,unconnected-(X1-D25-Pad8)*%
X44100000Y-60006000D03*
%TO.P,X1,9,D26*%
%TO.N,unconnected-(X1-D26-Pad9)*%
X44100000Y-62546000D03*
%TO.P,X1,10,D27*%
%TO.N,unconnected-(X1-D27-Pad10)*%
X44100000Y-65086000D03*
%TO.P,X1,11,D14*%
%TO.N,unconnected-(X1-D14-Pad11)*%
X44100000Y-67626000D03*
%TO.P,X1,12,D12*%
%TO.N,unconnected-(X1-D12-Pad12)*%
X44100000Y-70166000D03*
%TO.P,X1,13,D13*%
%TO.N,unconnected-(X1-D13-Pad13)*%
X44100000Y-72706000D03*
%TO.P,X1,14,GND*%
%TO.N,GND*%
X44100000Y-75246000D03*
%TO.P,X1,15,VIN*%
%TO.N,Net-(J7-Pin_2)*%
X44100000Y-77786000D03*
%TO.P,X1,16,3V3*%
%TO.N,Net-(J4-Pin_3)*%
X69500000Y-77786000D03*
%TO.P,X1,17,GND*%
%TO.N,GND*%
X69500000Y-75246000D03*
%TO.P,X1,18,D15*%
%TO.N,unconnected-(X1-D15-Pad18)*%
X69500000Y-72706000D03*
%TO.P,X1,19,D2*%
%TO.N,unconnected-(X1-D2-Pad19)*%
X69500000Y-70166000D03*
%TO.P,X1,20,D4*%
%TO.N,unconnected-(X1-D4-Pad20)*%
X69500000Y-67626000D03*
%TO.P,X1,21,RX2*%
%TO.N,unconnected-(X1-RX2-Pad21)*%
X69500000Y-65086000D03*
%TO.P,X1,22,TX2*%
%TO.N,unconnected-(X1-TX2-Pad22)*%
X69500000Y-62546000D03*
%TO.P,X1,23,D5*%
%TO.N,unconnected-(X1-D5-Pad23)*%
X69500000Y-60006000D03*
%TO.P,X1,24,D18*%
%TO.N,unconnected-(X1-D18-Pad24)*%
X69500000Y-57466000D03*
%TO.P,X1,25,D19*%
%TO.N,unconnected-(X1-D19-Pad25)*%
X69500000Y-54926000D03*
%TO.P,X1,26,D21*%
%TO.N,Net-(OT2-Vin)*%
X69500000Y-52386000D03*
%TO.P,X1,27,RX0*%
%TO.N,unconnected-(X1-RX0-Pad27)*%
X69500000Y-49846000D03*
%TO.P,X1,28,TX0*%
%TO.N,unconnected-(X1-TX0-Pad28)*%
X69500000Y-47306000D03*
%TO.P,X1,29,D22*%
%TO.N,Net-(OR1-Vout)*%
X69500000Y-44766000D03*
%TO.P,X1,30,D23*%
%TO.N,Net-(OT1-Vin)*%
X69500000Y-42226000D03*
%TD*%
D23*
%TO.P,OT2,*%
%TO.N,*%
X42722800Y-23876000D03*
X35102800Y-23876000D03*
D22*
%TO.P,OT2,1,GND*%
%TO.N,GND*%
X36372800Y-27626000D03*
%TO.P,OT2,2,Vcc*%
%TO.N,Net-(J4-Pin_3)*%
X38912800Y-27626000D03*
%TO.P,OT2,3,Vin*%
%TO.N,Net-(OT2-Vin)*%
X41452800Y-27626000D03*
%TD*%
D23*
%TO.P,OT1,*%
%TO.N,*%
X69088000Y-23876000D03*
X61468000Y-23876000D03*
D22*
%TO.P,OT1,1,GND*%
%TO.N,GND*%
X62738000Y-27626000D03*
%TO.P,OT1,2,Vcc*%
%TO.N,Net-(J4-Pin_3)*%
X65278000Y-27626000D03*
%TO.P,OT1,3,Vin*%
%TO.N,Net-(OT1-Vin)*%
X67818000Y-27626000D03*
%TD*%
D24*
%TO.P,D1,1*%
%TO.N,Net-(X1-D33)*%
X40310000Y-56500000D03*
D14*
%TO.P,D1,2*%
%TO.N,GND*%
X32690000Y-56500000D03*
%TD*%
D15*
%TO.P,R5,1*%
%TO.N,Net-(J1-Pin_1)*%
X39116000Y-66548000D03*
D14*
%TO.P,R5,2*%
%TO.N,GND*%
X39116000Y-76708000D03*
%TD*%
D15*
%TO.P,C3,1*%
%TO.N,Net-(OR1-Vout)*%
X46776000Y-33020000D03*
%TO.P,C3,2*%
%TO.N,GND*%
X51776000Y-33020000D03*
%TD*%
%TO.P,C4,1*%
%TO.N,Net-(J4-Pin_3)*%
X67524000Y-33020000D03*
%TO.P,C4,2*%
%TO.N,GND*%
X62524000Y-33020000D03*
%TD*%
D23*
%TO.P,OR1,*%
%TO.N,*%
X55880000Y-23876000D03*
X48260000Y-23876000D03*
D22*
%TO.P,OR1,1,Vout*%
%TO.N,Net-(OR1-Vout)*%
X49530000Y-27626000D03*
%TO.P,OR1,2,GND*%
%TO.N,GND*%
X52070000Y-27626000D03*
%TO.P,OR1,3,Vcc*%
%TO.N,Net-(J4-Pin_3)*%
X54610000Y-27626000D03*
%TD*%
D25*
%TO.P,J6,1,Pin_1*%
%TO.N,GND*%
X69342000Y-91694000D03*
%TD*%
%TO.P,J5,1,Pin_1*%
%TO.N,GND*%
X33528000Y-35052000D03*
%TD*%
D15*
%TO.P,C2,1*%
%TO.N,Net-(J4-Pin_3)*%
X59650000Y-33020000D03*
%TO.P,C2,2*%
%TO.N,GND*%
X54650000Y-33020000D03*
%TD*%
D26*
%TO.N,Net-(J4-Pin_3)*%
X43688000Y-80518000D03*
X41656000Y-77978000D03*
X66040000Y-43198376D03*
X66040000Y-48768000D03*
%TD*%
D27*
%TO.N,Net-(J4-Pin_3)*%
X41656000Y-78486000D02*
X41656000Y-77978000D01*
X43688000Y-80518000D02*
X41656000Y-78486000D01*
X66040000Y-43198376D02*
X66040000Y-48241624D01*
%TD*%
%TA.AperFunction,Conductor*%
%TO.N,GND*%
G36*
X72333039Y-14243685D02*
G01*
X72378794Y-14296489D01*
X72390000Y-14348000D01*
X72390000Y-94872000D01*
X72370315Y-94939039D01*
X72317511Y-94984794D01*
X72266000Y-94996000D01*
X30604000Y-94996000D01*
X30536961Y-94976315D01*
X30491206Y-94923511D01*
X30480000Y-94872000D01*
X30480000Y-90542155D01*
X33702000Y-90542155D01*
X33702000Y-91190000D01*
X34618988Y-91190000D01*
X34586075Y-91247007D01*
X34552000Y-91374174D01*
X34552000Y-91505826D01*
X34586075Y-91632993D01*
X34618988Y-91690000D01*
X33702000Y-91690000D01*
X33702000Y-92337844D01*
X33708401Y-92397372D01*
X33708403Y-92397379D01*
X33758645Y-92532086D01*
X33758649Y-92532093D01*
X33844809Y-92647187D01*
X33844812Y-92647190D01*
X33959906Y-92733350D01*
X33959913Y-92733354D01*
X34094620Y-92783596D01*
X34094627Y-92783598D01*
X34154155Y-92789999D01*
X34154172Y-92790000D01*
X34802000Y-92790000D01*
X34802000Y-91873012D01*
X34859007Y-91905925D01*
X34986174Y-91940000D01*
X35117826Y-91940000D01*
X35244993Y-91905925D01*
X35302000Y-91873012D01*
X35302000Y-92790000D01*
X35949828Y-92790000D01*
X35949844Y-92789999D01*
X36009372Y-92783598D01*
X36009379Y-92783596D01*
X36144086Y-92733354D01*
X36144093Y-92733350D01*
X36259187Y-92647190D01*
X36259190Y-92647187D01*
X36345350Y-92532093D01*
X36345354Y-92532086D01*
X36394422Y-92400529D01*
X36436293Y-92344595D01*
X36501757Y-92320178D01*
X36570030Y-92335030D01*
X36598285Y-92356181D01*
X36720599Y-92478495D01*
X36797135Y-92532086D01*
X36914165Y-92614032D01*
X36914167Y-92614033D01*
X36914170Y-92614035D01*
X37128337Y-92713903D01*
X37356592Y-92775063D01*
X37527319Y-92790000D01*
X37591999Y-92795659D01*
X37592000Y-92795659D01*
X37592001Y-92795659D01*
X37656681Y-92790000D01*
X37827408Y-92775063D01*
X38055663Y-92713903D01*
X38269830Y-92614035D01*
X38463401Y-92478495D01*
X38630495Y-92311401D01*
X38766035Y-92117830D01*
X38865903Y-91903663D01*
X38927063Y-91675408D01*
X38947659Y-91440000D01*
X38927063Y-91204592D01*
X38865903Y-90976337D01*
X38766035Y-90762171D01*
X38630495Y-90568599D01*
X38630494Y-90568597D01*
X38463402Y-90401506D01*
X38463395Y-90401501D01*
X38269834Y-90265967D01*
X38269830Y-90265965D01*
X38198727Y-90232809D01*
X38055663Y-90166097D01*
X38055659Y-90166096D01*
X38055655Y-90166094D01*
X37827413Y-90104938D01*
X37827403Y-90104936D01*
X37592001Y-90084341D01*
X37591999Y-90084341D01*
X37356596Y-90104936D01*
X37356586Y-90104938D01*
X37128344Y-90166094D01*
X37128335Y-90166098D01*
X36914171Y-90265964D01*
X36914169Y-90265965D01*
X36720600Y-90401503D01*
X36598284Y-90523819D01*
X36536961Y-90557303D01*
X36467269Y-90552319D01*
X36411336Y-90510447D01*
X36394421Y-90479470D01*
X36345354Y-90347913D01*
X36345350Y-90347906D01*
X36259190Y-90232812D01*
X36259187Y-90232809D01*
X36144093Y-90146649D01*
X36144086Y-90146645D01*
X36009379Y-90096403D01*
X36009372Y-90096401D01*
X35949844Y-90090000D01*
X35302000Y-90090000D01*
X35302000Y-91006988D01*
X35244993Y-90974075D01*
X35117826Y-90940000D01*
X34986174Y-90940000D01*
X34859007Y-90974075D01*
X34802000Y-91006988D01*
X34802000Y-90090000D01*
X34154155Y-90090000D01*
X34094627Y-90096401D01*
X34094620Y-90096403D01*
X33959913Y-90146645D01*
X33959906Y-90146649D01*
X33844812Y-90232809D01*
X33844809Y-90232812D01*
X33758649Y-90347906D01*
X33758645Y-90347913D01*
X33708403Y-90482620D01*
X33708401Y-90482627D01*
X33702000Y-90542155D01*
X30480000Y-90542155D01*
X30480000Y-85799803D01*
X33114500Y-85799803D01*
X33114500Y-86364000D01*
X33931488Y-86364000D01*
X33898575Y-86421007D01*
X33864500Y-86548174D01*
X33864500Y-86679826D01*
X33898575Y-86806993D01*
X33931488Y-86864000D01*
X33114501Y-86864000D01*
X33114501Y-87428197D01*
X33124900Y-87560332D01*
X33179877Y-87778519D01*
X33272928Y-87983374D01*
X33272931Y-87983380D01*
X33401059Y-88168323D01*
X33401069Y-88168335D01*
X33560164Y-88327430D01*
X33560176Y-88327440D01*
X33745119Y-88455568D01*
X33745125Y-88455571D01*
X33949980Y-88548622D01*
X34168167Y-88603599D01*
X34300310Y-88613999D01*
X35114499Y-88613999D01*
X35114500Y-88613998D01*
X35114500Y-87114000D01*
X35614500Y-87114000D01*
X35614500Y-88613999D01*
X36428682Y-88613999D01*
X36428697Y-88613998D01*
X36560832Y-88603599D01*
X36779019Y-88548622D01*
X36983874Y-88455571D01*
X36983880Y-88455568D01*
X37168823Y-88327440D01*
X37168835Y-88327430D01*
X37327930Y-88168335D01*
X37327940Y-88168323D01*
X37456068Y-87983380D01*
X37456071Y-87983374D01*
X37549122Y-87778519D01*
X37604099Y-87560332D01*
X37614499Y-87428196D01*
X37614500Y-87428184D01*
X37614500Y-86864000D01*
X36797512Y-86864000D01*
X36830425Y-86806993D01*
X36864500Y-86679826D01*
X36864500Y-86548174D01*
X36830425Y-86421007D01*
X36797512Y-86364000D01*
X37614499Y-86364000D01*
X37614499Y-85799817D01*
X37614498Y-85799802D01*
X37604099Y-85667667D01*
X37549122Y-85449480D01*
X37456071Y-85244625D01*
X37456068Y-85244619D01*
X37327940Y-85059676D01*
X37327930Y-85059664D01*
X37168835Y-84900569D01*
X37168823Y-84900559D01*
X36983880Y-84772431D01*
X36983874Y-84772428D01*
X36779019Y-84679377D01*
X36560832Y-84624400D01*
X36428696Y-84614000D01*
X35614500Y-84614000D01*
X35614500Y-86114000D01*
X35114500Y-86114000D01*
X35114500Y-84614000D01*
X34300317Y-84614000D01*
X34300302Y-84614001D01*
X34168167Y-84624400D01*
X33949980Y-84679377D01*
X33745125Y-84772428D01*
X33745119Y-84772431D01*
X33560176Y-84900559D01*
X33560164Y-84900569D01*
X33401069Y-85059664D01*
X33401059Y-85059676D01*
X33272931Y-85244619D01*
X33272928Y-85244625D01*
X33179877Y-85449480D01*
X33124900Y-85667667D01*
X33114500Y-85799803D01*
X30480000Y-85799803D01*
X30480000Y-78816135D01*
X33114000Y-78816135D01*
X33114000Y-82411870D01*
X33114001Y-82411876D01*
X33120408Y-82471483D01*
X33170702Y-82606328D01*
X33170706Y-82606335D01*
X33256952Y-82721544D01*
X33256955Y-82721547D01*
X33372164Y-82807793D01*
X33372171Y-82807797D01*
X33507017Y-82858091D01*
X33507016Y-82858091D01*
X33513944Y-82858835D01*
X33566627Y-82864500D01*
X37162372Y-82864499D01*
X37221983Y-82858091D01*
X37356831Y-82807796D01*
X37472046Y-82721546D01*
X37558296Y-82606331D01*
X37575926Y-82559060D01*
X37617796Y-82503128D01*
X37683259Y-82478710D01*
X37751533Y-82493561D01*
X37800939Y-82542965D01*
X37815933Y-82608971D01*
X37814001Y-82645342D01*
X37814000Y-82645386D01*
X37814000Y-84582613D01*
X37814001Y-84582652D01*
X37816795Y-84635243D01*
X37816795Y-84635244D01*
X37861254Y-84865121D01*
X37861255Y-84865126D01*
X37874627Y-84900559D01*
X37943925Y-85084189D01*
X38062429Y-85286131D01*
X38062434Y-85286138D01*
X38213356Y-85465141D01*
X38213358Y-85465143D01*
X38392361Y-85616065D01*
X38392368Y-85616070D01*
X38594310Y-85734574D01*
X38813374Y-85817245D01*
X39043259Y-85861705D01*
X39095878Y-85864500D01*
X39095886Y-85864500D01*
X41033114Y-85864500D01*
X41033122Y-85864500D01*
X41085741Y-85861705D01*
X41315626Y-85817245D01*
X41534690Y-85734574D01*
X41736632Y-85616070D01*
X41915642Y-85465142D01*
X42066570Y-85286132D01*
X42185074Y-85084190D01*
X42267745Y-84865126D01*
X42312205Y-84635241D01*
X42315000Y-84582622D01*
X42315000Y-82645378D01*
X42312205Y-82592759D01*
X42267745Y-82362874D01*
X42185074Y-82143810D01*
X42066570Y-81941868D01*
X42066565Y-81941861D01*
X41915643Y-81762858D01*
X41915641Y-81762856D01*
X41736638Y-81611934D01*
X41736631Y-81611929D01*
X41534689Y-81493425D01*
X41411168Y-81446811D01*
X41315626Y-81410755D01*
X41315621Y-81410754D01*
X41085743Y-81366295D01*
X41033152Y-81363501D01*
X41033129Y-81363500D01*
X41033122Y-81363500D01*
X39095878Y-81363500D01*
X39095870Y-81363500D01*
X39095847Y-81363501D01*
X39043256Y-81366295D01*
X39043255Y-81366295D01*
X38813378Y-81410754D01*
X38813376Y-81410754D01*
X38813374Y-81410755D01*
X38739433Y-81438659D01*
X38594310Y-81493425D01*
X38392368Y-81611929D01*
X38392361Y-81611934D01*
X38213358Y-81762856D01*
X38213356Y-81762858D01*
X38062434Y-81941861D01*
X38062429Y-81941868D01*
X37943925Y-82143810D01*
X37861253Y-82362880D01*
X37860740Y-82365532D01*
X37860212Y-82366552D01*
X37859817Y-82367950D01*
X37859532Y-82367869D01*
X37828675Y-82427609D01*
X37768139Y-82462497D01*
X37698351Y-82459117D01*
X37641468Y-82418544D01*
X37615551Y-82353659D01*
X37614999Y-82341989D01*
X37614999Y-78816128D01*
X37608591Y-78756517D01*
X37589345Y-78704917D01*
X37558297Y-78621671D01*
X37558293Y-78621664D01*
X37472047Y-78506455D01*
X37472044Y-78506452D01*
X37356835Y-78420206D01*
X37356828Y-78420202D01*
X37221982Y-78369908D01*
X37221983Y-78369908D01*
X37162383Y-78363501D01*
X37162381Y-78363500D01*
X37162373Y-78363500D01*
X37162364Y-78363500D01*
X33566629Y-78363500D01*
X33566623Y-78363501D01*
X33507016Y-78369908D01*
X33372171Y-78420202D01*
X33372164Y-78420206D01*
X33256955Y-78506452D01*
X33256952Y-78506455D01*
X33170706Y-78621664D01*
X33170702Y-78621671D01*
X33120408Y-78756517D01*
X33114001Y-78816116D01*
X33114001Y-78816123D01*
X33114000Y-78816135D01*
X30480000Y-78816135D01*
X30480000Y-76457999D01*
X37837127Y-76457999D01*
X37837128Y-76458000D01*
X38800314Y-76458000D01*
X38795920Y-76462394D01*
X38743259Y-76553606D01*
X38716000Y-76655339D01*
X38716000Y-76760661D01*
X38743259Y-76862394D01*
X38795920Y-76953606D01*
X38800314Y-76958000D01*
X37837128Y-76958000D01*
X37889730Y-77154317D01*
X37889734Y-77154326D01*
X37985865Y-77360482D01*
X38116342Y-77546820D01*
X38277179Y-77707657D01*
X38463517Y-77838134D01*
X38669673Y-77934265D01*
X38669682Y-77934269D01*
X38865999Y-77986872D01*
X38866000Y-77986871D01*
X38866000Y-77023686D01*
X38870394Y-77028080D01*
X38961606Y-77080741D01*
X39063339Y-77108000D01*
X39168661Y-77108000D01*
X39270394Y-77080741D01*
X39361606Y-77028080D01*
X39366000Y-77023686D01*
X39366000Y-77986872D01*
X39399111Y-77978000D01*
X40650659Y-77978000D01*
X40669975Y-78174129D01*
X40727188Y-78362733D01*
X40820086Y-78536532D01*
X40820090Y-78536539D01*
X40906981Y-78642414D01*
X40932745Y-78696886D01*
X40934340Y-78704908D01*
X40934343Y-78704917D01*
X40990914Y-78841492D01*
X41023812Y-78890727D01*
X41023813Y-78890730D01*
X41073046Y-78964414D01*
X41073052Y-78964421D01*
X42657405Y-80548773D01*
X42690890Y-80610096D01*
X42693127Y-80624298D01*
X42701975Y-80714129D01*
X42759188Y-80902733D01*
X42852086Y-81076532D01*
X42852090Y-81076539D01*
X42977116Y-81228883D01*
X43129460Y-81353909D01*
X43129467Y-81353913D01*
X43303266Y-81446811D01*
X43303269Y-81446811D01*
X43303273Y-81446814D01*
X43491868Y-81504024D01*
X43688000Y-81523341D01*
X43884132Y-81504024D01*
X44072727Y-81446814D01*
X44140191Y-81410754D01*
X44223367Y-81366295D01*
X44246538Y-81353910D01*
X44398883Y-81228883D01*
X44523910Y-81076538D01*
X44616814Y-80902727D01*
X44674024Y-80714132D01*
X44693341Y-80518000D01*
X44674024Y-80321868D01*
X44616814Y-80133273D01*
X44616811Y-80133269D01*
X44616811Y-80133266D01*
X44523913Y-79959467D01*
X44523909Y-79959460D01*
X44398883Y-79807116D01*
X44246539Y-79682090D01*
X44246532Y-79682086D01*
X44072733Y-79589188D01*
X44072727Y-79589186D01*
X43884132Y-79531976D01*
X43884129Y-79531975D01*
X43794298Y-79523127D01*
X43729511Y-79496965D01*
X43718773Y-79487405D01*
X43699874Y-79468506D01*
X43666389Y-79407183D01*
X43671373Y-79337491D01*
X43713245Y-79281558D01*
X43778709Y-79257141D01*
X43807962Y-79258515D01*
X43975665Y-79286500D01*
X44224335Y-79286500D01*
X44469614Y-79245571D01*
X44704810Y-79164828D01*
X44923509Y-79046474D01*
X45119744Y-78893738D01*
X45288164Y-78710785D01*
X45424173Y-78502607D01*
X45524063Y-78274881D01*
X45585108Y-78033821D01*
X45585109Y-78033812D01*
X45605643Y-77786005D01*
X45605643Y-77785994D01*
X45585109Y-77538187D01*
X45585107Y-77538175D01*
X45524063Y-77297118D01*
X45424173Y-77069393D01*
X45288166Y-76861217D01*
X45267860Y-76839159D01*
X45119744Y-76678262D01*
X45073255Y-76642078D01*
X45016254Y-76597712D01*
X44975441Y-76541002D01*
X44968655Y-76492176D01*
X44970055Y-76469608D01*
X44127446Y-75627000D01*
X44150160Y-75627000D01*
X44247061Y-75601036D01*
X44333940Y-75550876D01*
X44404876Y-75479940D01*
X44455036Y-75393061D01*
X44481000Y-75296160D01*
X44481000Y-75273446D01*
X45323435Y-76115882D01*
X45423733Y-75962364D01*
X45523587Y-75734717D01*
X45584612Y-75493738D01*
X45584614Y-75493729D01*
X45605141Y-75246005D01*
X45605141Y-75245994D01*
X45584614Y-74998270D01*
X45584612Y-74998261D01*
X45523587Y-74757282D01*
X45423732Y-74529632D01*
X45323435Y-74376116D01*
X44481000Y-75218552D01*
X44481000Y-75195840D01*
X44455036Y-75098939D01*
X44404876Y-75012060D01*
X44333940Y-74941124D01*
X44247061Y-74890964D01*
X44150160Y-74865000D01*
X44127447Y-74865000D01*
X44970055Y-74022389D01*
X44968654Y-73999825D01*
X44984146Y-73931694D01*
X45016249Y-73894290D01*
X45119744Y-73813738D01*
X45288164Y-73630785D01*
X45424173Y-73422607D01*
X45524063Y-73194881D01*
X45585108Y-72953821D01*
X45585109Y-72953812D01*
X45605643Y-72706005D01*
X45605643Y-72705994D01*
X45585109Y-72458187D01*
X45585107Y-72458175D01*
X45524063Y-72217118D01*
X45424173Y-71989393D01*
X45288166Y-71781217D01*
X45266557Y-71757744D01*
X45119744Y-71598262D01*
X45036991Y-71533852D01*
X44996179Y-71477143D01*
X44992504Y-71407370D01*
X45027136Y-71346687D01*
X45036985Y-71338151D01*
X45119744Y-71273738D01*
X45288164Y-71090785D01*
X45424173Y-70882607D01*
X45524063Y-70654881D01*
X45585108Y-70413821D01*
X45593349Y-70314372D01*
X45605643Y-70166005D01*
X45605643Y-70165994D01*
X45585109Y-69918187D01*
X45585107Y-69918175D01*
X45524063Y-69677118D01*
X45424173Y-69449393D01*
X45288166Y-69241217D01*
X45164610Y-69107000D01*
X45119744Y-69058262D01*
X45036991Y-68993852D01*
X44996179Y-68937143D01*
X44992504Y-68867370D01*
X45027136Y-68806687D01*
X45036985Y-68798151D01*
X45119744Y-68733738D01*
X45288164Y-68550785D01*
X45424173Y-68342607D01*
X45524063Y-68114881D01*
X45585108Y-67873821D01*
X45585109Y-67873812D01*
X45605643Y-67626005D01*
X45605643Y-67625994D01*
X45585109Y-67378187D01*
X45585107Y-67378175D01*
X45524063Y-67137118D01*
X45424173Y-66909393D01*
X45288166Y-66701217D01*
X45266557Y-66677744D01*
X45119744Y-66518262D01*
X45036991Y-66453852D01*
X44996179Y-66397143D01*
X44992504Y-66327370D01*
X45027136Y-66266687D01*
X45036985Y-66258151D01*
X45119744Y-66193738D01*
X45288164Y-66010785D01*
X45424173Y-65802607D01*
X45524063Y-65574881D01*
X45585108Y-65333821D01*
X45591029Y-65262364D01*
X45605643Y-65086005D01*
X45605643Y-65085994D01*
X45585109Y-64838187D01*
X45585107Y-64838175D01*
X45524063Y-64597118D01*
X45424173Y-64369393D01*
X45288166Y-64161217D01*
X45266557Y-64137744D01*
X45119744Y-63978262D01*
X45036991Y-63913852D01*
X44996179Y-63857143D01*
X44992504Y-63787370D01*
X45027136Y-63726687D01*
X45036985Y-63718151D01*
X45119744Y-63653738D01*
X45288164Y-63470785D01*
X45424173Y-63262607D01*
X45524063Y-63034881D01*
X45585108Y-62793821D01*
X45586707Y-62774526D01*
X45605643Y-62546005D01*
X45605643Y-62545994D01*
X45585109Y-62298187D01*
X45585107Y-62298175D01*
X45524063Y-62057118D01*
X45424173Y-61829393D01*
X45288166Y-61621217D01*
X45266557Y-61597744D01*
X45119744Y-61438262D01*
X45036991Y-61373852D01*
X44996179Y-61317143D01*
X44992504Y-61247370D01*
X45027136Y-61186687D01*
X45036985Y-61178151D01*
X45119744Y-61113738D01*
X45288164Y-60930785D01*
X45424173Y-60722607D01*
X45524063Y-60494881D01*
X45585108Y-60253821D01*
X45587356Y-60226692D01*
X45605643Y-60006005D01*
X45605643Y-60005994D01*
X45585109Y-59758187D01*
X45585107Y-59758175D01*
X45524063Y-59517118D01*
X45424173Y-59289393D01*
X45288166Y-59081217D01*
X45213357Y-58999953D01*
X45119744Y-58898262D01*
X45036991Y-58833852D01*
X44996179Y-58777143D01*
X44992504Y-58707370D01*
X45027136Y-58646687D01*
X45036985Y-58638151D01*
X45119744Y-58573738D01*
X45288164Y-58390785D01*
X45424173Y-58182607D01*
X45524063Y-57954881D01*
X45585108Y-57713821D01*
X45589771Y-57657546D01*
X45605643Y-57466005D01*
X45605643Y-57465994D01*
X45585109Y-57218187D01*
X45585107Y-57218175D01*
X45524063Y-56977118D01*
X45424173Y-56749393D01*
X45288166Y-56541217D01*
X45201745Y-56447339D01*
X45119744Y-56358262D01*
X45036991Y-56293852D01*
X44996179Y-56237143D01*
X44992504Y-56167370D01*
X45027136Y-56106687D01*
X45036985Y-56098151D01*
X45119744Y-56033738D01*
X45288164Y-55850785D01*
X45424173Y-55642607D01*
X45524063Y-55414881D01*
X45585108Y-55173821D01*
X45605643Y-54926000D01*
X45585108Y-54678179D01*
X45524063Y-54437119D01*
X45424173Y-54209393D01*
X45288166Y-54001217D01*
X45266557Y-53977744D01*
X45119744Y-53818262D01*
X45036991Y-53753852D01*
X44996179Y-53697143D01*
X44992504Y-53627370D01*
X45027136Y-53566687D01*
X45036985Y-53558151D01*
X45119744Y-53493738D01*
X45288164Y-53310785D01*
X45424173Y-53102607D01*
X45524063Y-52874881D01*
X45585108Y-52633821D01*
X45601835Y-52431955D01*
X45605643Y-52386005D01*
X45605643Y-52385994D01*
X45585109Y-52138187D01*
X45585107Y-52138175D01*
X45524063Y-51897118D01*
X45424173Y-51669393D01*
X45288166Y-51461217D01*
X45266557Y-51437744D01*
X45119744Y-51278262D01*
X45036991Y-51213852D01*
X44996179Y-51157143D01*
X44992504Y-51087370D01*
X45027136Y-51026687D01*
X45036985Y-51018151D01*
X45119744Y-50953738D01*
X45288164Y-50770785D01*
X45424173Y-50562607D01*
X45524063Y-50334881D01*
X45585108Y-50093821D01*
X45605643Y-49846000D01*
X45602400Y-49806865D01*
X45585109Y-49598187D01*
X45585107Y-49598175D01*
X45524063Y-49357118D01*
X45424173Y-49129393D01*
X45288166Y-48921217D01*
X45266557Y-48897744D01*
X45119744Y-48738262D01*
X45036991Y-48673852D01*
X44996179Y-48617143D01*
X44992504Y-48547370D01*
X45027136Y-48486687D01*
X45036985Y-48478151D01*
X45119744Y-48413738D01*
X45288164Y-48230785D01*
X45424173Y-48022607D01*
X45524063Y-47794881D01*
X45585108Y-47553821D01*
X45605643Y-47306000D01*
X45585108Y-47058179D01*
X45524063Y-46817119D01*
X45424173Y-46589393D01*
X45288166Y-46381217D01*
X45266557Y-46357744D01*
X45119744Y-46198262D01*
X45036991Y-46133852D01*
X44996179Y-46077143D01*
X44992504Y-46007370D01*
X45027136Y-45946687D01*
X45036985Y-45938151D01*
X45119744Y-45873738D01*
X45288164Y-45690785D01*
X45424173Y-45482607D01*
X45524063Y-45254881D01*
X45585108Y-45013821D01*
X45605643Y-44766000D01*
X45596528Y-44656000D01*
X45585109Y-44518187D01*
X45585107Y-44518175D01*
X45524063Y-44277118D01*
X45424173Y-44049393D01*
X45288166Y-43841217D01*
X45266557Y-43817744D01*
X45119744Y-43658262D01*
X45036991Y-43593852D01*
X44996179Y-43537143D01*
X44992504Y-43467370D01*
X45027136Y-43406687D01*
X45036985Y-43398151D01*
X45119744Y-43333738D01*
X45244353Y-43198376D01*
X65034659Y-43198376D01*
X65053975Y-43394505D01*
X65111188Y-43583109D01*
X65204084Y-43756905D01*
X65204087Y-43756909D01*
X65204090Y-43756914D01*
X65261354Y-43826690D01*
X65288666Y-43890996D01*
X65289500Y-43905352D01*
X65289500Y-48061021D01*
X65269815Y-48128060D01*
X65261353Y-48139686D01*
X65204091Y-48209460D01*
X65204086Y-48209467D01*
X65111188Y-48383266D01*
X65053975Y-48571870D01*
X65034659Y-48768000D01*
X65053975Y-48964129D01*
X65111188Y-49152733D01*
X65204086Y-49326532D01*
X65204090Y-49326539D01*
X65329116Y-49478883D01*
X65481460Y-49603909D01*
X65481467Y-49603913D01*
X65655266Y-49696811D01*
X65655269Y-49696811D01*
X65655273Y-49696814D01*
X65843868Y-49754024D01*
X66040000Y-49773341D01*
X66236132Y-49754024D01*
X66424727Y-49696814D01*
X66598538Y-49603910D01*
X66750883Y-49478883D01*
X66875910Y-49326538D01*
X66968814Y-49152727D01*
X67026024Y-48964132D01*
X67045341Y-48768000D01*
X67026024Y-48571868D01*
X66968814Y-48383273D01*
X66968811Y-48383269D01*
X66968811Y-48383266D01*
X66875913Y-48209467D01*
X66875911Y-48209465D01*
X66875910Y-48209462D01*
X66859536Y-48189511D01*
X66818647Y-48139686D01*
X66791334Y-48075376D01*
X66790500Y-48061021D01*
X66790500Y-43905352D01*
X66810185Y-43838313D01*
X66818632Y-43826705D01*
X66875910Y-43756914D01*
X66961762Y-43596297D01*
X66968811Y-43583109D01*
X66968811Y-43583108D01*
X66968814Y-43583103D01*
X67026024Y-43394508D01*
X67045341Y-43198376D01*
X67026024Y-43002244D01*
X66968814Y-42813649D01*
X66968811Y-42813645D01*
X66968811Y-42813642D01*
X66875913Y-42639843D01*
X66875909Y-42639836D01*
X66750883Y-42487492D01*
X66598539Y-42362466D01*
X66598532Y-42362462D01*
X66424733Y-42269564D01*
X66424727Y-42269562D01*
X66281103Y-42225994D01*
X67994357Y-42225994D01*
X67994357Y-42226005D01*
X68014890Y-42473812D01*
X68014892Y-42473824D01*
X68075936Y-42714881D01*
X68175826Y-42942606D01*
X68311833Y-43150782D01*
X68311836Y-43150785D01*
X68480256Y-43333738D01*
X68563008Y-43398147D01*
X68603821Y-43454857D01*
X68607496Y-43524630D01*
X68572864Y-43585313D01*
X68563014Y-43593848D01*
X68504400Y-43639469D01*
X68480257Y-43658261D01*
X68311833Y-43841217D01*
X68175826Y-44049393D01*
X68075936Y-44277118D01*
X68014892Y-44518175D01*
X68014890Y-44518187D01*
X67994357Y-44765994D01*
X67994357Y-44766005D01*
X68014890Y-45013812D01*
X68014892Y-45013824D01*
X68075936Y-45254881D01*
X68175826Y-45482606D01*
X68311833Y-45690782D01*
X68311836Y-45690785D01*
X68480256Y-45873738D01*
X68563008Y-45938147D01*
X68603821Y-45994857D01*
X68607496Y-46064630D01*
X68572864Y-46125313D01*
X68563014Y-46133848D01*
X68504400Y-46179469D01*
X68480257Y-46198261D01*
X68311833Y-46381217D01*
X68175826Y-46589393D01*
X68075936Y-46817118D01*
X68014892Y-47058175D01*
X68014890Y-47058187D01*
X67994357Y-47305994D01*
X67994357Y-47306005D01*
X68014890Y-47553812D01*
X68014892Y-47553824D01*
X68075936Y-47794881D01*
X68175826Y-48022606D01*
X68311833Y-48230782D01*
X68311836Y-48230785D01*
X68480256Y-48413738D01*
X68563008Y-48478147D01*
X68603821Y-48534857D01*
X68607496Y-48604630D01*
X68572864Y-48665313D01*
X68563014Y-48673848D01*
X68504400Y-48719469D01*
X68480257Y-48738261D01*
X68311833Y-48921217D01*
X68175826Y-49129393D01*
X68075936Y-49357118D01*
X68014892Y-49598175D01*
X68014890Y-49598187D01*
X67994357Y-49845994D01*
X67994357Y-49846005D01*
X68014890Y-50093812D01*
X68014892Y-50093824D01*
X68075936Y-50334881D01*
X68175826Y-50562606D01*
X68311833Y-50770782D01*
X68311836Y-50770785D01*
X68480256Y-50953738D01*
X68563008Y-51018147D01*
X68603821Y-51074857D01*
X68607496Y-51144630D01*
X68572864Y-51205313D01*
X68563014Y-51213848D01*
X68504400Y-51259469D01*
X68480257Y-51278261D01*
X68311833Y-51461217D01*
X68175826Y-51669393D01*
X68075936Y-51897118D01*
X68014892Y-52138175D01*
X68014890Y-52138187D01*
X67994357Y-52385994D01*
X67994357Y-52386005D01*
X68014890Y-52633812D01*
X68014892Y-52633824D01*
X68075936Y-52874881D01*
X68175826Y-53102606D01*
X68311833Y-53310782D01*
X68311836Y-53310785D01*
X68480256Y-53493738D01*
X68563008Y-53558147D01*
X68603821Y-53614857D01*
X68607496Y-53684630D01*
X68572864Y-53745313D01*
X68563014Y-53753848D01*
X68504400Y-53799469D01*
X68480257Y-53818261D01*
X68311833Y-54001217D01*
X68175826Y-54209393D01*
X68075936Y-54437118D01*
X68014892Y-54678175D01*
X68014890Y-54678187D01*
X67994357Y-54925994D01*
X67994357Y-54926005D01*
X68014890Y-55173812D01*
X68014892Y-55173824D01*
X68075936Y-55414881D01*
X68175826Y-55642606D01*
X68311833Y-55850782D01*
X68311836Y-55850785D01*
X68480256Y-56033738D01*
X68563008Y-56098147D01*
X68603821Y-56154857D01*
X68607496Y-56224630D01*
X68572864Y-56285313D01*
X68563014Y-56293848D01*
X68504400Y-56339469D01*
X68480257Y-56358261D01*
X68311833Y-56541217D01*
X68175826Y-56749393D01*
X68075936Y-56977118D01*
X68014892Y-57218175D01*
X68014890Y-57218187D01*
X67994357Y-57465994D01*
X67994357Y-57466005D01*
X68014890Y-57713812D01*
X68014892Y-57713824D01*
X68075936Y-57954881D01*
X68175826Y-58182606D01*
X68311833Y-58390782D01*
X68311836Y-58390785D01*
X68480256Y-58573738D01*
X68563008Y-58638147D01*
X68603821Y-58694857D01*
X68607496Y-58764630D01*
X68572864Y-58825313D01*
X68563014Y-58833848D01*
X68517298Y-58869431D01*
X68480257Y-58898261D01*
X68311833Y-59081217D01*
X68175826Y-59289393D01*
X68075936Y-59517118D01*
X68014892Y-59758175D01*
X68014890Y-59758187D01*
X67994357Y-60005994D01*
X67994357Y-60006005D01*
X68014890Y-60253812D01*
X68014892Y-60253824D01*
X68075936Y-60494881D01*
X68175826Y-60722606D01*
X68311833Y-60930782D01*
X68311836Y-60930785D01*
X68480256Y-61113738D01*
X68563008Y-61178147D01*
X68603821Y-61234857D01*
X68607496Y-61304630D01*
X68572864Y-61365313D01*
X68563014Y-61373848D01*
X68504400Y-61419469D01*
X68480257Y-61438261D01*
X68311833Y-61621217D01*
X68175826Y-61829393D01*
X68075936Y-62057118D01*
X68014892Y-62298175D01*
X68014890Y-62298187D01*
X67994357Y-62545994D01*
X67994357Y-62546005D01*
X68014890Y-62793812D01*
X68014892Y-62793824D01*
X68075936Y-63034881D01*
X68175826Y-63262606D01*
X68311833Y-63470782D01*
X68338728Y-63499998D01*
X68480256Y-63653738D01*
X68563008Y-63718147D01*
X68603821Y-63774857D01*
X68607496Y-63844630D01*
X68572864Y-63905313D01*
X68563014Y-63913848D01*
X68521299Y-63946317D01*
X68480257Y-63978261D01*
X68311833Y-64161217D01*
X68175826Y-64369393D01*
X68075936Y-64597118D01*
X68014892Y-64838175D01*
X68014890Y-64838187D01*
X67994357Y-65085994D01*
X67994357Y-65086005D01*
X68014890Y-65333812D01*
X68014892Y-65333824D01*
X68075936Y-65574881D01*
X68175826Y-65802606D01*
X68311833Y-66010782D01*
X68311836Y-66010785D01*
X68480256Y-66193738D01*
X68563008Y-66258147D01*
X68603821Y-66314857D01*
X68607496Y-66384630D01*
X68572864Y-66445313D01*
X68563014Y-66453848D01*
X68504400Y-66499469D01*
X68480257Y-66518261D01*
X68311833Y-66701217D01*
X68175826Y-66909393D01*
X68075936Y-67137118D01*
X68014892Y-67378175D01*
X68014890Y-67378187D01*
X67994357Y-67625994D01*
X67994357Y-67626005D01*
X68014890Y-67873812D01*
X68014892Y-67873824D01*
X68075936Y-68114881D01*
X68175826Y-68342606D01*
X68311833Y-68550782D01*
X68311836Y-68550785D01*
X68480256Y-68733738D01*
X68563008Y-68798147D01*
X68603821Y-68854857D01*
X68607496Y-68924630D01*
X68572864Y-68985313D01*
X68563014Y-68993848D01*
X68504400Y-69039469D01*
X68480257Y-69058261D01*
X68311833Y-69241217D01*
X68175826Y-69449393D01*
X68075936Y-69677118D01*
X68014892Y-69918175D01*
X68014890Y-69918187D01*
X67994357Y-70165994D01*
X67994357Y-70166005D01*
X68014890Y-70413812D01*
X68014892Y-70413824D01*
X68075936Y-70654881D01*
X68175826Y-70882606D01*
X68311833Y-71090782D01*
X68311836Y-71090785D01*
X68480256Y-71273738D01*
X68563008Y-71338147D01*
X68603821Y-71394857D01*
X68607496Y-71464630D01*
X68572864Y-71525313D01*
X68563014Y-71533848D01*
X68504400Y-71579469D01*
X68480257Y-71598261D01*
X68311833Y-71781217D01*
X68175826Y-71989393D01*
X68075936Y-72217118D01*
X68014892Y-72458175D01*
X68014890Y-72458187D01*
X67994357Y-72705994D01*
X67994357Y-72706005D01*
X68014890Y-72953812D01*
X68014892Y-72953824D01*
X68075936Y-73194881D01*
X68175826Y-73422606D01*
X68311833Y-73630782D01*
X68311836Y-73630785D01*
X68480256Y-73813738D01*
X68557502Y-73873861D01*
X68583745Y-73894287D01*
X68624558Y-73950997D01*
X68631344Y-73999823D01*
X68629943Y-74022389D01*
X69472554Y-74865000D01*
X69449840Y-74865000D01*
X69352939Y-74890964D01*
X69266060Y-74941124D01*
X69195124Y-75012060D01*
X69144964Y-75098939D01*
X69119000Y-75195840D01*
X69119000Y-75218554D01*
X68276563Y-74376117D01*
X68176267Y-74529633D01*
X68176265Y-74529637D01*
X68076412Y-74757282D01*
X68015387Y-74998261D01*
X68015385Y-74998270D01*
X67994859Y-75245994D01*
X67994859Y-75246005D01*
X68015385Y-75493729D01*
X68015387Y-75493738D01*
X68076412Y-75734717D01*
X68176267Y-75962367D01*
X68276562Y-76115881D01*
X69119000Y-75273445D01*
X69119000Y-75296160D01*
X69144964Y-75393061D01*
X69195124Y-75479940D01*
X69266060Y-75550876D01*
X69352939Y-75601036D01*
X69449840Y-75627000D01*
X69472554Y-75627000D01*
X68629943Y-76469609D01*
X68631344Y-76492176D01*
X68615851Y-76560306D01*
X68583745Y-76597712D01*
X68480258Y-76678260D01*
X68311833Y-76861217D01*
X68175826Y-77069393D01*
X68075936Y-77297118D01*
X68014892Y-77538175D01*
X68014890Y-77538187D01*
X67994357Y-77785994D01*
X67994357Y-77786005D01*
X68014890Y-78033812D01*
X68014892Y-78033824D01*
X68075936Y-78274881D01*
X68175826Y-78502606D01*
X68311833Y-78710782D01*
X68311836Y-78710785D01*
X68480256Y-78893738D01*
X68676491Y-79046474D01*
X68895190Y-79164828D01*
X69130386Y-79245571D01*
X69375665Y-79286500D01*
X69624335Y-79286500D01*
X69869614Y-79245571D01*
X70104810Y-79164828D01*
X70323509Y-79046474D01*
X70519744Y-78893738D01*
X70688164Y-78710785D01*
X70824173Y-78502607D01*
X70924063Y-78274881D01*
X70985108Y-78033821D01*
X70985109Y-78033812D01*
X71005643Y-77786005D01*
X71005643Y-77785994D01*
X70985109Y-77538187D01*
X70985107Y-77538175D01*
X70924063Y-77297118D01*
X70824173Y-77069393D01*
X70688166Y-76861217D01*
X70667860Y-76839159D01*
X70519744Y-76678262D01*
X70473255Y-76642078D01*
X70416254Y-76597712D01*
X70375441Y-76541002D01*
X70368655Y-76492176D01*
X70370055Y-76469608D01*
X69527446Y-75627000D01*
X69550160Y-75627000D01*
X69647061Y-75601036D01*
X69733940Y-75550876D01*
X69804876Y-75479940D01*
X69855036Y-75393061D01*
X69881000Y-75296160D01*
X69881000Y-75273447D01*
X70723435Y-76115882D01*
X70823733Y-75962364D01*
X70923587Y-75734717D01*
X70984612Y-75493738D01*
X70984614Y-75493729D01*
X71005141Y-75246005D01*
X71005141Y-75245994D01*
X70984614Y-74998270D01*
X70984612Y-74998261D01*
X70923587Y-74757282D01*
X70823732Y-74529632D01*
X70723435Y-74376116D01*
X69881000Y-75218552D01*
X69881000Y-75195840D01*
X69855036Y-75098939D01*
X69804876Y-75012060D01*
X69733940Y-74941124D01*
X69647061Y-74890964D01*
X69550160Y-74865000D01*
X69527447Y-74865000D01*
X70370055Y-74022389D01*
X70368654Y-73999825D01*
X70384146Y-73931694D01*
X70416249Y-73894290D01*
X70519744Y-73813738D01*
X70688164Y-73630785D01*
X70824173Y-73422607D01*
X70924063Y-73194881D01*
X70985108Y-72953821D01*
X70985109Y-72953812D01*
X71005643Y-72706005D01*
X71005643Y-72705994D01*
X70985109Y-72458187D01*
X70985107Y-72458175D01*
X70924063Y-72217118D01*
X70824173Y-71989393D01*
X70688166Y-71781217D01*
X70666557Y-71757744D01*
X70519744Y-71598262D01*
X70436991Y-71533852D01*
X70396179Y-71477143D01*
X70392504Y-71407370D01*
X70427136Y-71346687D01*
X70436985Y-71338151D01*
X70519744Y-71273738D01*
X70688164Y-71090785D01*
X70824173Y-70882607D01*
X70924063Y-70654881D01*
X70985108Y-70413821D01*
X70993349Y-70314372D01*
X71005643Y-70166005D01*
X71005643Y-70165994D01*
X70985109Y-69918187D01*
X70985107Y-69918175D01*
X70924063Y-69677118D01*
X70824173Y-69449393D01*
X70688166Y-69241217D01*
X70564610Y-69107000D01*
X70519744Y-69058262D01*
X70436991Y-68993852D01*
X70396179Y-68937143D01*
X70392504Y-68867370D01*
X70427136Y-68806687D01*
X70436985Y-68798151D01*
X70519744Y-68733738D01*
X70688164Y-68550785D01*
X70824173Y-68342607D01*
X70924063Y-68114881D01*
X70985108Y-67873821D01*
X70985109Y-67873812D01*
X71005643Y-67626005D01*
X71005643Y-67625994D01*
X70985109Y-67378187D01*
X70985107Y-67378175D01*
X70924063Y-67137118D01*
X70824173Y-66909393D01*
X70688166Y-66701217D01*
X70666557Y-66677744D01*
X70519744Y-66518262D01*
X70436991Y-66453852D01*
X70396179Y-66397143D01*
X70392504Y-66327370D01*
X70427136Y-66266687D01*
X70436985Y-66258151D01*
X70519744Y-66193738D01*
X70688164Y-66010785D01*
X70824173Y-65802607D01*
X70924063Y-65574881D01*
X70985108Y-65333821D01*
X70991029Y-65262364D01*
X71005643Y-65086005D01*
X71005643Y-65085994D01*
X70985109Y-64838187D01*
X70985107Y-64838175D01*
X70924063Y-64597118D01*
X70824173Y-64369393D01*
X70688166Y-64161217D01*
X70666557Y-64137744D01*
X70519744Y-63978262D01*
X70436991Y-63913852D01*
X70396179Y-63857143D01*
X70392504Y-63787370D01*
X70427136Y-63726687D01*
X70436985Y-63718151D01*
X70519744Y-63653738D01*
X70688164Y-63470785D01*
X70824173Y-63262607D01*
X70924063Y-63034881D01*
X70985108Y-62793821D01*
X70986707Y-62774526D01*
X71005643Y-62546005D01*
X71005643Y-62545994D01*
X70985109Y-62298187D01*
X70985107Y-62298175D01*
X70924063Y-62057118D01*
X70824173Y-61829393D01*
X70688166Y-61621217D01*
X70666557Y-61597744D01*
X70519744Y-61438262D01*
X70436991Y-61373852D01*
X70396179Y-61317143D01*
X70392504Y-61247370D01*
X70427136Y-61186687D01*
X70436985Y-61178151D01*
X70519744Y-61113738D01*
X70688164Y-60930785D01*
X70824173Y-60722607D01*
X70924063Y-60494881D01*
X70985108Y-60253821D01*
X70987356Y-60226692D01*
X71005643Y-60006005D01*
X71005643Y-60005994D01*
X70985109Y-59758187D01*
X70985107Y-59758175D01*
X70924063Y-59517118D01*
X70824173Y-59289393D01*
X70688166Y-59081217D01*
X70613357Y-58999953D01*
X70519744Y-58898262D01*
X70436991Y-58833852D01*
X70396179Y-58777143D01*
X70392504Y-58707370D01*
X70427136Y-58646687D01*
X70436985Y-58638151D01*
X70519744Y-58573738D01*
X70688164Y-58390785D01*
X70824173Y-58182607D01*
X70924063Y-57954881D01*
X70985108Y-57713821D01*
X70989771Y-57657546D01*
X71005643Y-57466005D01*
X71005643Y-57465994D01*
X70985109Y-57218187D01*
X70985107Y-57218175D01*
X70924063Y-56977118D01*
X70824173Y-56749393D01*
X70688166Y-56541217D01*
X70601745Y-56447339D01*
X70519744Y-56358262D01*
X70436991Y-56293852D01*
X70396179Y-56237143D01*
X70392504Y-56167370D01*
X70427136Y-56106687D01*
X70436985Y-56098151D01*
X70519744Y-56033738D01*
X70688164Y-55850785D01*
X70824173Y-55642607D01*
X70924063Y-55414881D01*
X70985108Y-55173821D01*
X71005643Y-54926000D01*
X70985108Y-54678179D01*
X70924063Y-54437119D01*
X70824173Y-54209393D01*
X70688166Y-54001217D01*
X70666557Y-53977744D01*
X70519744Y-53818262D01*
X70436991Y-53753852D01*
X70396179Y-53697143D01*
X70392504Y-53627370D01*
X70427136Y-53566687D01*
X70436985Y-53558151D01*
X70519744Y-53493738D01*
X70688164Y-53310785D01*
X70824173Y-53102607D01*
X70924063Y-52874881D01*
X70985108Y-52633821D01*
X71001835Y-52431955D01*
X71005643Y-52386005D01*
X71005643Y-52385994D01*
X70985109Y-52138187D01*
X70985107Y-52138175D01*
X70924063Y-51897118D01*
X70824173Y-51669393D01*
X70688166Y-51461217D01*
X70666557Y-51437744D01*
X70519744Y-51278262D01*
X70436991Y-51213852D01*
X70396179Y-51157143D01*
X70392504Y-51087370D01*
X70427136Y-51026687D01*
X70436985Y-51018151D01*
X70519744Y-50953738D01*
X70688164Y-50770785D01*
X70824173Y-50562607D01*
X70924063Y-50334881D01*
X70985108Y-50093821D01*
X71005643Y-49846000D01*
X71002400Y-49806865D01*
X70985109Y-49598187D01*
X70985107Y-49598175D01*
X70924063Y-49357118D01*
X70824173Y-49129393D01*
X70688166Y-48921217D01*
X70666557Y-48897744D01*
X70519744Y-48738262D01*
X70436991Y-48673852D01*
X70396179Y-48617143D01*
X70392504Y-48547370D01*
X70427136Y-48486687D01*
X70436985Y-48478151D01*
X70519744Y-48413738D01*
X70688164Y-48230785D01*
X70824173Y-48022607D01*
X70924063Y-47794881D01*
X70985108Y-47553821D01*
X71005643Y-47306000D01*
X70985108Y-47058179D01*
X70924063Y-46817119D01*
X70824173Y-46589393D01*
X70688166Y-46381217D01*
X70666557Y-46357744D01*
X70519744Y-46198262D01*
X70436991Y-46133852D01*
X70396179Y-46077143D01*
X70392504Y-46007370D01*
X70427136Y-45946687D01*
X70436985Y-45938151D01*
X70519744Y-45873738D01*
X70688164Y-45690785D01*
X70824173Y-45482607D01*
X70924063Y-45254881D01*
X70985108Y-45013821D01*
X71005643Y-44766000D01*
X70996528Y-44656000D01*
X70985109Y-44518187D01*
X70985107Y-44518175D01*
X70924063Y-44277118D01*
X70824173Y-44049393D01*
X70688166Y-43841217D01*
X70666557Y-43817744D01*
X70519744Y-43658262D01*
X70436991Y-43593852D01*
X70396179Y-43537143D01*
X70392504Y-43467370D01*
X70427136Y-43406687D01*
X70436985Y-43398151D01*
X70519744Y-43333738D01*
X70688164Y-43150785D01*
X70824173Y-42942607D01*
X70924063Y-42714881D01*
X70985108Y-42473821D01*
X70994335Y-42362466D01*
X71005643Y-42226005D01*
X71005643Y-42225994D01*
X70985109Y-41978187D01*
X70985107Y-41978175D01*
X70924063Y-41737118D01*
X70824173Y-41509393D01*
X70688166Y-41301217D01*
X70666557Y-41277744D01*
X70519744Y-41118262D01*
X70323509Y-40965526D01*
X70323507Y-40965525D01*
X70323506Y-40965524D01*
X70104811Y-40847172D01*
X70104802Y-40847169D01*
X69869616Y-40766429D01*
X69624335Y-40725500D01*
X69375665Y-40725500D01*
X69130383Y-40766429D01*
X68895197Y-40847169D01*
X68895188Y-40847172D01*
X68676493Y-40965524D01*
X68480257Y-41118261D01*
X68311833Y-41301217D01*
X68175826Y-41509393D01*
X68075936Y-41737118D01*
X68014892Y-41978175D01*
X68014890Y-41978187D01*
X67994357Y-42225994D01*
X66281103Y-42225994D01*
X66236132Y-42212352D01*
X66236129Y-42212351D01*
X66040000Y-42193035D01*
X65843870Y-42212351D01*
X65655266Y-42269564D01*
X65481467Y-42362462D01*
X65481460Y-42362466D01*
X65329116Y-42487492D01*
X65204090Y-42639836D01*
X65204086Y-42639843D01*
X65111188Y-42813642D01*
X65053975Y-43002246D01*
X65034659Y-43198376D01*
X45244353Y-43198376D01*
X45288164Y-43150785D01*
X45424173Y-42942607D01*
X45524063Y-42714881D01*
X45585108Y-42473821D01*
X45594335Y-42362466D01*
X45605643Y-42226005D01*
X45605643Y-42225994D01*
X45585109Y-41978187D01*
X45585107Y-41978175D01*
X45524063Y-41737118D01*
X45424173Y-41509393D01*
X45288166Y-41301217D01*
X45266557Y-41277744D01*
X45119744Y-41118262D01*
X44923509Y-40965526D01*
X44923507Y-40965525D01*
X44923506Y-40965524D01*
X44704811Y-40847172D01*
X44704802Y-40847169D01*
X44469616Y-40766429D01*
X44224335Y-40725500D01*
X43975665Y-40725500D01*
X43730383Y-40766429D01*
X43495197Y-40847169D01*
X43495188Y-40847172D01*
X43276493Y-40965524D01*
X43080257Y-41118261D01*
X42911833Y-41301217D01*
X42775826Y-41509393D01*
X42675936Y-41737118D01*
X42614892Y-41978175D01*
X42614890Y-41978187D01*
X42594357Y-42225994D01*
X42594357Y-42226005D01*
X42614890Y-42473812D01*
X42614892Y-42473824D01*
X42675936Y-42714881D01*
X42775826Y-42942606D01*
X42911833Y-43150782D01*
X42911836Y-43150785D01*
X43080256Y-43333738D01*
X43163008Y-43398147D01*
X43203821Y-43454857D01*
X43207496Y-43524630D01*
X43172864Y-43585313D01*
X43163014Y-43593848D01*
X43104400Y-43639469D01*
X43080257Y-43658261D01*
X42911833Y-43841217D01*
X42775826Y-44049393D01*
X42675936Y-44277118D01*
X42614892Y-44518175D01*
X42614890Y-44518187D01*
X42594357Y-44765994D01*
X42594357Y-44766005D01*
X42614890Y-45013812D01*
X42614892Y-45013824D01*
X42675936Y-45254881D01*
X42775826Y-45482606D01*
X42911833Y-45690782D01*
X42911836Y-45690785D01*
X43080256Y-45873738D01*
X43163008Y-45938147D01*
X43203821Y-45994857D01*
X43207496Y-46064630D01*
X43172864Y-46125313D01*
X43163014Y-46133848D01*
X43104400Y-46179469D01*
X43080257Y-46198261D01*
X42911833Y-46381217D01*
X42775826Y-46589393D01*
X42675936Y-46817118D01*
X42614892Y-47058175D01*
X42614890Y-47058187D01*
X42594357Y-47305994D01*
X42594357Y-47306005D01*
X42614890Y-47553812D01*
X42614892Y-47553824D01*
X42675936Y-47794881D01*
X42775826Y-48022606D01*
X42911833Y-48230782D01*
X42911836Y-48230785D01*
X43080256Y-48413738D01*
X43163008Y-48478147D01*
X43203821Y-48534857D01*
X43207496Y-48604630D01*
X43172864Y-48665313D01*
X43163014Y-48673848D01*
X43104400Y-48719469D01*
X43080257Y-48738261D01*
X42911833Y-48921217D01*
X42775826Y-49129393D01*
X42675936Y-49357118D01*
X42614892Y-49598175D01*
X42614890Y-49598187D01*
X42594357Y-49845994D01*
X42594357Y-49846005D01*
X42614890Y-50093812D01*
X42614892Y-50093824D01*
X42675936Y-50334881D01*
X42775826Y-50562606D01*
X42911833Y-50770782D01*
X42911836Y-50770785D01*
X43080256Y-50953738D01*
X43163008Y-51018147D01*
X43203821Y-51074857D01*
X43207496Y-51144630D01*
X43172864Y-51205313D01*
X43163014Y-51213848D01*
X43104400Y-51259469D01*
X43080257Y-51278261D01*
X42911833Y-51461217D01*
X42775826Y-51669393D01*
X42675936Y-51897118D01*
X42614892Y-52138175D01*
X42614890Y-52138187D01*
X42594357Y-52385994D01*
X42594357Y-52386005D01*
X42614890Y-52633812D01*
X42614892Y-52633824D01*
X42675936Y-52874881D01*
X42775826Y-53102606D01*
X42911833Y-53310782D01*
X42911836Y-53310785D01*
X43080256Y-53493738D01*
X43163008Y-53558147D01*
X43203821Y-53614857D01*
X43207496Y-53684630D01*
X43172864Y-53745313D01*
X43163014Y-53753848D01*
X43104400Y-53799469D01*
X43080257Y-53818261D01*
X42911833Y-54001217D01*
X42775826Y-54209393D01*
X42675936Y-54437118D01*
X42614892Y-54678175D01*
X42614890Y-54678187D01*
X42594357Y-54925994D01*
X42594357Y-54926005D01*
X42614890Y-55173812D01*
X42614892Y-55173824D01*
X42675936Y-55414881D01*
X42775826Y-55642606D01*
X42911833Y-55850782D01*
X42911836Y-55850785D01*
X43080256Y-56033738D01*
X43163008Y-56098147D01*
X43203821Y-56154857D01*
X43207496Y-56224630D01*
X43172864Y-56285313D01*
X43163014Y-56293848D01*
X43104400Y-56339469D01*
X43080257Y-56358261D01*
X42911833Y-56541217D01*
X42775826Y-56749393D01*
X42675936Y-56977118D01*
X42614892Y-57218175D01*
X42614890Y-57218187D01*
X42594357Y-57465994D01*
X42594357Y-57466005D01*
X42614890Y-57713812D01*
X42614892Y-57713824D01*
X42675936Y-57954881D01*
X42775826Y-58182606D01*
X42911833Y-58390782D01*
X42911836Y-58390785D01*
X43080256Y-58573738D01*
X43163008Y-58638147D01*
X43203821Y-58694857D01*
X43207496Y-58764630D01*
X43172864Y-58825313D01*
X43163014Y-58833848D01*
X43117298Y-58869431D01*
X43080257Y-58898261D01*
X42911833Y-59081217D01*
X42775826Y-59289393D01*
X42675936Y-59517118D01*
X42614892Y-59758175D01*
X42614890Y-59758187D01*
X42594357Y-60005994D01*
X42594357Y-60006005D01*
X42614890Y-60253812D01*
X42614892Y-60253824D01*
X42675936Y-60494881D01*
X42775826Y-60722606D01*
X42911833Y-60930782D01*
X42911836Y-60930785D01*
X43080256Y-61113738D01*
X43163008Y-61178147D01*
X43203821Y-61234857D01*
X43207496Y-61304630D01*
X43172864Y-61365313D01*
X43163014Y-61373848D01*
X43104400Y-61419469D01*
X43080257Y-61438261D01*
X42911833Y-61621217D01*
X42775826Y-61829393D01*
X42675936Y-62057118D01*
X42614892Y-62298175D01*
X42614890Y-62298187D01*
X42594357Y-62545994D01*
X42594357Y-62546005D01*
X42614890Y-62793812D01*
X42614892Y-62793824D01*
X42675936Y-63034881D01*
X42775826Y-63262606D01*
X42911833Y-63470782D01*
X42938728Y-63499998D01*
X43080256Y-63653738D01*
X43163008Y-63718147D01*
X43203821Y-63774857D01*
X43207496Y-63844630D01*
X43172864Y-63905313D01*
X43163014Y-63913848D01*
X43121299Y-63946317D01*
X43080257Y-63978261D01*
X42911833Y-64161217D01*
X42775826Y-64369393D01*
X42675936Y-64597118D01*
X42614892Y-64838175D01*
X42614890Y-64838187D01*
X42594357Y-65085994D01*
X42594357Y-65086005D01*
X42614890Y-65333812D01*
X42614892Y-65333824D01*
X42675936Y-65574881D01*
X42775826Y-65802606D01*
X42911833Y-66010782D01*
X42911836Y-66010785D01*
X43080256Y-66193738D01*
X43163008Y-66258147D01*
X43203821Y-66314857D01*
X43207496Y-66384630D01*
X43172864Y-66445313D01*
X43163014Y-66453848D01*
X43104400Y-66499469D01*
X43080257Y-66518261D01*
X42911833Y-66701217D01*
X42775826Y-66909393D01*
X42675936Y-67137118D01*
X42614892Y-67378175D01*
X42614890Y-67378187D01*
X42594357Y-67625994D01*
X42594357Y-67626005D01*
X42614890Y-67873812D01*
X42614892Y-67873824D01*
X42675936Y-68114881D01*
X42775826Y-68342606D01*
X42911833Y-68550782D01*
X42911836Y-68550785D01*
X43080256Y-68733738D01*
X43163008Y-68798147D01*
X43203821Y-68854857D01*
X43207496Y-68924630D01*
X43172864Y-68985313D01*
X43163014Y-68993848D01*
X43104400Y-69039469D01*
X43080257Y-69058261D01*
X42911833Y-69241217D01*
X42775826Y-69449393D01*
X42675936Y-69677118D01*
X42614892Y-69918175D01*
X42614890Y-69918187D01*
X42594357Y-70165994D01*
X42594357Y-70166005D01*
X42614890Y-70413812D01*
X42614892Y-70413824D01*
X42675936Y-70654881D01*
X42775826Y-70882606D01*
X42911833Y-71090782D01*
X42911836Y-71090785D01*
X43080256Y-71273738D01*
X43163008Y-71338147D01*
X43203821Y-71394857D01*
X43207496Y-71464630D01*
X43172864Y-71525313D01*
X43163014Y-71533848D01*
X43104400Y-71579469D01*
X43080257Y-71598261D01*
X42911833Y-71781217D01*
X42775826Y-71989393D01*
X42675936Y-72217118D01*
X42614892Y-72458175D01*
X42614890Y-72458187D01*
X42594357Y-72705994D01*
X42594357Y-72706005D01*
X42614890Y-72953812D01*
X42614892Y-72953824D01*
X42675936Y-73194881D01*
X42775826Y-73422606D01*
X42911833Y-73630782D01*
X42911836Y-73630785D01*
X43080256Y-73813738D01*
X43157502Y-73873861D01*
X43183745Y-73894287D01*
X43224558Y-73950997D01*
X43231344Y-73999823D01*
X43229943Y-74022389D01*
X44072554Y-74865000D01*
X44049840Y-74865000D01*
X43952939Y-74890964D01*
X43866060Y-74941124D01*
X43795124Y-75012060D01*
X43744964Y-75098939D01*
X43719000Y-75195840D01*
X43719000Y-75218554D01*
X42876563Y-74376117D01*
X42776267Y-74529633D01*
X42776265Y-74529637D01*
X42676412Y-74757282D01*
X42615387Y-74998261D01*
X42615385Y-74998270D01*
X42594859Y-75245994D01*
X42594859Y-75246005D01*
X42615385Y-75493729D01*
X42615387Y-75493738D01*
X42676412Y-75734717D01*
X42776267Y-75962367D01*
X42876562Y-76115881D01*
X43719000Y-75273445D01*
X43719000Y-75296160D01*
X43744964Y-75393061D01*
X43795124Y-75479940D01*
X43866060Y-75550876D01*
X43952939Y-75601036D01*
X44049840Y-75627000D01*
X44072554Y-75627000D01*
X43229943Y-76469609D01*
X43231344Y-76492176D01*
X43215851Y-76560306D01*
X43183745Y-76597712D01*
X43080258Y-76678260D01*
X42911833Y-76861217D01*
X42775826Y-77069393D01*
X42675936Y-77297119D01*
X42669145Y-77323935D01*
X42633603Y-77384090D01*
X42571182Y-77415480D01*
X42501699Y-77408139D01*
X42453087Y-77372156D01*
X42366883Y-77267116D01*
X42214539Y-77142090D01*
X42214532Y-77142086D01*
X42040733Y-77049188D01*
X42040727Y-77049186D01*
X41852132Y-76991976D01*
X41852129Y-76991975D01*
X41656000Y-76972659D01*
X41459870Y-76991975D01*
X41271266Y-77049188D01*
X41097467Y-77142086D01*
X41097460Y-77142090D01*
X40945116Y-77267116D01*
X40820090Y-77419460D01*
X40820086Y-77419467D01*
X40727188Y-77593266D01*
X40669975Y-77781870D01*
X40650659Y-77978000D01*
X39399111Y-77978000D01*
X39562317Y-77934269D01*
X39562326Y-77934265D01*
X39768482Y-77838134D01*
X39954820Y-77707657D01*
X40115657Y-77546820D01*
X40246134Y-77360482D01*
X40342265Y-77154326D01*
X40342269Y-77154317D01*
X40394872Y-76958000D01*
X39431686Y-76958000D01*
X39436080Y-76953606D01*
X39488741Y-76862394D01*
X39516000Y-76760661D01*
X39516000Y-76655339D01*
X39488741Y-76553606D01*
X39436080Y-76462394D01*
X39431686Y-76458000D01*
X40394872Y-76458000D01*
X40394872Y-76457999D01*
X40342269Y-76261682D01*
X40342265Y-76261673D01*
X40246134Y-76055517D01*
X40115657Y-75869179D01*
X39954820Y-75708342D01*
X39768482Y-75577865D01*
X39562328Y-75481734D01*
X39366000Y-75429127D01*
X39366000Y-76392314D01*
X39361606Y-76387920D01*
X39270394Y-76335259D01*
X39168661Y-76308000D01*
X39063339Y-76308000D01*
X38961606Y-76335259D01*
X38870394Y-76387920D01*
X38866000Y-76392314D01*
X38866000Y-75429127D01*
X38669671Y-75481734D01*
X38463517Y-75577865D01*
X38277179Y-75708342D01*
X38116342Y-75869179D01*
X37985865Y-76055517D01*
X37889734Y-76261673D01*
X37889730Y-76261682D01*
X37837127Y-76457999D01*
X30480000Y-76457999D01*
X30480000Y-71896999D01*
X32934341Y-71896999D01*
X32934341Y-71897000D01*
X32954936Y-72132403D01*
X32954938Y-72132413D01*
X33016094Y-72360655D01*
X33016096Y-72360659D01*
X33016097Y-72360663D01*
X33115965Y-72574830D01*
X33115967Y-72574834D01*
X33251501Y-72768395D01*
X33251506Y-72768402D01*
X33418597Y-72935493D01*
X33418603Y-72935498D01*
X33604158Y-73065425D01*
X33647783Y-73120002D01*
X33654977Y-73189500D01*
X33623454Y-73251855D01*
X33604158Y-73268575D01*
X33418597Y-73398505D01*
X33251505Y-73565597D01*
X33115965Y-73759169D01*
X33115964Y-73759171D01*
X33016098Y-73973335D01*
X33016094Y-73973344D01*
X32954938Y-74201586D01*
X32954936Y-74201596D01*
X32934341Y-74436999D01*
X32934341Y-74437000D01*
X32954936Y-74672403D01*
X32954938Y-74672413D01*
X33016094Y-74900655D01*
X33016096Y-74900659D01*
X33016097Y-74900663D01*
X33108555Y-75098939D01*
X33115965Y-75114830D01*
X33115967Y-75114834D01*
X33207811Y-75246000D01*
X33251505Y-75308401D01*
X33418599Y-75475495D01*
X33444640Y-75493729D01*
X33612165Y-75611032D01*
X33612167Y-75611033D01*
X33612170Y-75611035D01*
X33826337Y-75710903D01*
X34054592Y-75772063D01*
X34242918Y-75788539D01*
X34289999Y-75792659D01*
X34290000Y-75792659D01*
X34290001Y-75792659D01*
X34329234Y-75789226D01*
X34525408Y-75772063D01*
X34753663Y-75710903D01*
X34967830Y-75611035D01*
X35161401Y-75475495D01*
X35328495Y-75308401D01*
X35464035Y-75114830D01*
X35563903Y-74900663D01*
X35625063Y-74672408D01*
X35645659Y-74437000D01*
X35625063Y-74201592D01*
X35563903Y-73973337D01*
X35464035Y-73759171D01*
X35374137Y-73630782D01*
X35328494Y-73565597D01*
X35161402Y-73398506D01*
X35161396Y-73398501D01*
X34975842Y-73268575D01*
X34932217Y-73213998D01*
X34925023Y-73144500D01*
X34956546Y-73082145D01*
X34975842Y-73065425D01*
X35135224Y-72953824D01*
X35161401Y-72935495D01*
X35328495Y-72768401D01*
X35464035Y-72574830D01*
X35563903Y-72360663D01*
X35625063Y-72132408D01*
X35645659Y-71897000D01*
X35625063Y-71661592D01*
X35563903Y-71433337D01*
X35464035Y-71219171D01*
X35374136Y-71090782D01*
X35328496Y-71025600D01*
X35328495Y-71025599D01*
X35206179Y-70903283D01*
X35172696Y-70841963D01*
X35177680Y-70772271D01*
X35219551Y-70716337D01*
X35250529Y-70699422D01*
X35382086Y-70650354D01*
X35382093Y-70650350D01*
X35497187Y-70564190D01*
X35497190Y-70564187D01*
X35583350Y-70449093D01*
X35583354Y-70449086D01*
X35633596Y-70314379D01*
X35633598Y-70314372D01*
X35639999Y-70254844D01*
X35640000Y-70254827D01*
X35640000Y-69607000D01*
X34723012Y-69607000D01*
X34755925Y-69549993D01*
X34790000Y-69422826D01*
X34790000Y-69291174D01*
X34755925Y-69164007D01*
X34723012Y-69107000D01*
X35640000Y-69107000D01*
X35640000Y-68459172D01*
X35639999Y-68459155D01*
X35633598Y-68399627D01*
X35633596Y-68399620D01*
X35583354Y-68264913D01*
X35583350Y-68264906D01*
X35497190Y-68149812D01*
X35497187Y-68149809D01*
X35382093Y-68063649D01*
X35382086Y-68063645D01*
X35247379Y-68013403D01*
X35247372Y-68013401D01*
X35187844Y-68007000D01*
X34540000Y-68007000D01*
X34540000Y-68923988D01*
X34482993Y-68891075D01*
X34355826Y-68857000D01*
X34224174Y-68857000D01*
X34097007Y-68891075D01*
X34040000Y-68923988D01*
X34040000Y-68007000D01*
X33392155Y-68007000D01*
X33332627Y-68013401D01*
X33332620Y-68013403D01*
X33197913Y-68063645D01*
X33197906Y-68063649D01*
X33082812Y-68149809D01*
X33082809Y-68149812D01*
X32996649Y-68264906D01*
X32996645Y-68264913D01*
X32946403Y-68399620D01*
X32946401Y-68399627D01*
X32940000Y-68459155D01*
X32940000Y-69107000D01*
X33856988Y-69107000D01*
X33824075Y-69164007D01*
X33790000Y-69291174D01*
X33790000Y-69422826D01*
X33824075Y-69549993D01*
X33856988Y-69607000D01*
X32940000Y-69607000D01*
X32940000Y-70254844D01*
X32946401Y-70314372D01*
X32946403Y-70314379D01*
X32996645Y-70449086D01*
X32996649Y-70449093D01*
X33082809Y-70564187D01*
X33082812Y-70564190D01*
X33197906Y-70650350D01*
X33197913Y-70650354D01*
X33329470Y-70699421D01*
X33385403Y-70741292D01*
X33409821Y-70806756D01*
X33394970Y-70875029D01*
X33373819Y-70903284D01*
X33251503Y-71025600D01*
X33115965Y-71219169D01*
X33115964Y-71219171D01*
X33016098Y-71433335D01*
X33016094Y-71433344D01*
X32954938Y-71661586D01*
X32954936Y-71661596D01*
X32934341Y-71896999D01*
X30480000Y-71896999D01*
X30480000Y-66547998D01*
X37810532Y-66547998D01*
X37810532Y-66548001D01*
X37830364Y-66774686D01*
X37830366Y-66774697D01*
X37889258Y-66994488D01*
X37889261Y-66994497D01*
X37985431Y-67200732D01*
X37985432Y-67200734D01*
X38115954Y-67387141D01*
X38276858Y-67548045D01*
X38276861Y-67548047D01*
X38463266Y-67678568D01*
X38669504Y-67774739D01*
X38889308Y-67833635D01*
X39051230Y-67847801D01*
X39115998Y-67853468D01*
X39116000Y-67853468D01*
X39116002Y-67853468D01*
X39172673Y-67848509D01*
X39342692Y-67833635D01*
X39562496Y-67774739D01*
X39768734Y-67678568D01*
X39955139Y-67548047D01*
X40116047Y-67387139D01*
X40246568Y-67200734D01*
X40342739Y-66994496D01*
X40401635Y-66774692D01*
X40421468Y-66548000D01*
X40401635Y-66321308D01*
X40342739Y-66101504D01*
X40246568Y-65895266D01*
X40116047Y-65708861D01*
X40116045Y-65708858D01*
X39955141Y-65547954D01*
X39768734Y-65417432D01*
X39768732Y-65417431D01*
X39562497Y-65321261D01*
X39562488Y-65321258D01*
X39342697Y-65262366D01*
X39342693Y-65262365D01*
X39342692Y-65262365D01*
X39342691Y-65262364D01*
X39342686Y-65262364D01*
X39116002Y-65242532D01*
X39115998Y-65242532D01*
X38889313Y-65262364D01*
X38889302Y-65262366D01*
X38669511Y-65321258D01*
X38669502Y-65321261D01*
X38463267Y-65417431D01*
X38463265Y-65417432D01*
X38276858Y-65547954D01*
X38115954Y-65708858D01*
X37985432Y-65895265D01*
X37985431Y-65895267D01*
X37889261Y-66101502D01*
X37889258Y-66101511D01*
X37830366Y-66321302D01*
X37830364Y-66321313D01*
X37810532Y-66547998D01*
X30480000Y-66547998D01*
X30480000Y-63499998D01*
X32694532Y-63499998D01*
X32694532Y-63500001D01*
X32714364Y-63726686D01*
X32714366Y-63726697D01*
X32773258Y-63946488D01*
X32773261Y-63946497D01*
X32869431Y-64152732D01*
X32869432Y-64152734D01*
X32999954Y-64339141D01*
X33160858Y-64500045D01*
X33160861Y-64500047D01*
X33347266Y-64630568D01*
X33553504Y-64726739D01*
X33773308Y-64785635D01*
X33935230Y-64799801D01*
X33999998Y-64805468D01*
X34000000Y-64805468D01*
X34000002Y-64805468D01*
X34056673Y-64800509D01*
X34226692Y-64785635D01*
X34446496Y-64726739D01*
X34652734Y-64630568D01*
X34839139Y-64500047D01*
X35000047Y-64339139D01*
X35130568Y-64152734D01*
X35226739Y-63946496D01*
X35285635Y-63726692D01*
X35305468Y-63500000D01*
X35305468Y-63499997D01*
X37695034Y-63499997D01*
X37695034Y-63500002D01*
X37714858Y-63726599D01*
X37714860Y-63726610D01*
X37773730Y-63946317D01*
X37773735Y-63946331D01*
X37869863Y-64152478D01*
X37920974Y-64225472D01*
X38600000Y-63546446D01*
X38600000Y-63552661D01*
X38627259Y-63654394D01*
X38679920Y-63745606D01*
X38754394Y-63820080D01*
X38845606Y-63872741D01*
X38947339Y-63900000D01*
X38953553Y-63900000D01*
X38274526Y-64579025D01*
X38347513Y-64630132D01*
X38347521Y-64630136D01*
X38553668Y-64726264D01*
X38553682Y-64726269D01*
X38773389Y-64785139D01*
X38773400Y-64785141D01*
X38999998Y-64804966D01*
X39000002Y-64804966D01*
X39226599Y-64785141D01*
X39226610Y-64785139D01*
X39446317Y-64726269D01*
X39446331Y-64726264D01*
X39652478Y-64630136D01*
X39725471Y-64579024D01*
X39046447Y-63900000D01*
X39052661Y-63900000D01*
X39154394Y-63872741D01*
X39245606Y-63820080D01*
X39320080Y-63745606D01*
X39372741Y-63654394D01*
X39400000Y-63552661D01*
X39400000Y-63546447D01*
X40079024Y-64225471D01*
X40130136Y-64152478D01*
X40226264Y-63946331D01*
X40226269Y-63946317D01*
X40285139Y-63726610D01*
X40285141Y-63726599D01*
X40304966Y-63500002D01*
X40304966Y-63499997D01*
X40285141Y-63273400D01*
X40285139Y-63273389D01*
X40226269Y-63053682D01*
X40226264Y-63053668D01*
X40130136Y-62847521D01*
X40130132Y-62847513D01*
X40079025Y-62774526D01*
X39400000Y-63453551D01*
X39400000Y-63447339D01*
X39372741Y-63345606D01*
X39320080Y-63254394D01*
X39245606Y-63179920D01*
X39154394Y-63127259D01*
X39052661Y-63100000D01*
X39046445Y-63100000D01*
X39725472Y-62420974D01*
X39652478Y-62369863D01*
X39446331Y-62273735D01*
X39446317Y-62273730D01*
X39226610Y-62214860D01*
X39226599Y-62214858D01*
X39000002Y-62195034D01*
X38999998Y-62195034D01*
X38773400Y-62214858D01*
X38773389Y-62214860D01*
X38553682Y-62273730D01*
X38553673Y-62273734D01*
X38347516Y-62369866D01*
X38347512Y-62369868D01*
X38274526Y-62420973D01*
X38274526Y-62420974D01*
X38953553Y-63100000D01*
X38947339Y-63100000D01*
X38845606Y-63127259D01*
X38754394Y-63179920D01*
X38679920Y-63254394D01*
X38627259Y-63345606D01*
X38600000Y-63447339D01*
X38600000Y-63453552D01*
X37920974Y-62774526D01*
X37920973Y-62774526D01*
X37869868Y-62847512D01*
X37869866Y-62847516D01*
X37773734Y-63053673D01*
X37773730Y-63053682D01*
X37714860Y-63273389D01*
X37714858Y-63273400D01*
X37695034Y-63499997D01*
X35305468Y-63499997D01*
X35285635Y-63273308D01*
X35226739Y-63053504D01*
X35130568Y-62847266D01*
X35000047Y-62660861D01*
X35000045Y-62660858D01*
X34839141Y-62499954D01*
X34652734Y-62369432D01*
X34652732Y-62369431D01*
X34446497Y-62273261D01*
X34446488Y-62273258D01*
X34226697Y-62214366D01*
X34226693Y-62214365D01*
X34226692Y-62214365D01*
X34226691Y-62214364D01*
X34226686Y-62214364D01*
X34000002Y-62194532D01*
X33999998Y-62194532D01*
X33773313Y-62214364D01*
X33773302Y-62214366D01*
X33553511Y-62273258D01*
X33553502Y-62273261D01*
X33347267Y-62369431D01*
X33347265Y-62369432D01*
X33160858Y-62499954D01*
X32999954Y-62660858D01*
X32869432Y-62847265D01*
X32869431Y-62847267D01*
X32773261Y-63053502D01*
X32773258Y-63053511D01*
X32714366Y-63273302D01*
X32714364Y-63273313D01*
X32694532Y-63499998D01*
X30480000Y-63499998D01*
X30480000Y-59999998D01*
X32614532Y-59999998D01*
X32614532Y-60000001D01*
X32634364Y-60226686D01*
X32634366Y-60226697D01*
X32693258Y-60446488D01*
X32693261Y-60446497D01*
X32789431Y-60652732D01*
X32789432Y-60652734D01*
X32919954Y-60839141D01*
X33080858Y-61000045D01*
X33080861Y-61000047D01*
X33267266Y-61130568D01*
X33473504Y-61226739D01*
X33693308Y-61285635D01*
X33855230Y-61299801D01*
X33919998Y-61305468D01*
X33920000Y-61305468D01*
X33920002Y-61305468D01*
X33976673Y-61300509D01*
X34146692Y-61285635D01*
X34366496Y-61226739D01*
X34572734Y-61130568D01*
X34759139Y-61000047D01*
X34920047Y-60839139D01*
X35050568Y-60652734D01*
X35146739Y-60446496D01*
X35205635Y-60226692D01*
X35225468Y-60000000D01*
X35225468Y-59999998D01*
X37694532Y-59999998D01*
X37694532Y-60000001D01*
X37714364Y-60226686D01*
X37714366Y-60226697D01*
X37773258Y-60446488D01*
X37773261Y-60446497D01*
X37869431Y-60652732D01*
X37869432Y-60652734D01*
X37999954Y-60839141D01*
X38160858Y-61000045D01*
X38160861Y-61000047D01*
X38347266Y-61130568D01*
X38553504Y-61226739D01*
X38773308Y-61285635D01*
X38935230Y-61299801D01*
X38999998Y-61305468D01*
X39000000Y-61305468D01*
X39000002Y-61305468D01*
X39056673Y-61300509D01*
X39226692Y-61285635D01*
X39446496Y-61226739D01*
X39652734Y-61130568D01*
X39839139Y-61000047D01*
X40000047Y-60839139D01*
X40130568Y-60652734D01*
X40226739Y-60446496D01*
X40285635Y-60226692D01*
X40305468Y-60000000D01*
X40285635Y-59773308D01*
X40226739Y-59553504D01*
X40130568Y-59347266D01*
X40000047Y-59160861D01*
X40000045Y-59160858D01*
X39839141Y-58999954D01*
X39652734Y-58869432D01*
X39652732Y-58869431D01*
X39446497Y-58773261D01*
X39446488Y-58773258D01*
X39226697Y-58714366D01*
X39226693Y-58714365D01*
X39226692Y-58714365D01*
X39226691Y-58714364D01*
X39226686Y-58714364D01*
X39000002Y-58694532D01*
X38999998Y-58694532D01*
X38773313Y-58714364D01*
X38773302Y-58714366D01*
X38553511Y-58773258D01*
X38553502Y-58773261D01*
X38347267Y-58869431D01*
X38347265Y-58869432D01*
X38160858Y-58999954D01*
X37999954Y-59160858D01*
X37869432Y-59347265D01*
X37869431Y-59347267D01*
X37773261Y-59553502D01*
X37773258Y-59553511D01*
X37714366Y-59773302D01*
X37714364Y-59773313D01*
X37694532Y-59999998D01*
X35225468Y-59999998D01*
X35205635Y-59773308D01*
X35146739Y-59553504D01*
X35050568Y-59347266D01*
X34920047Y-59160861D01*
X34920045Y-59160858D01*
X34759141Y-58999954D01*
X34572734Y-58869432D01*
X34572732Y-58869431D01*
X34366497Y-58773261D01*
X34366488Y-58773258D01*
X34146697Y-58714366D01*
X34146693Y-58714365D01*
X34146692Y-58714365D01*
X34146691Y-58714364D01*
X34146686Y-58714364D01*
X33920002Y-58694532D01*
X33919998Y-58694532D01*
X33693313Y-58714364D01*
X33693302Y-58714366D01*
X33473511Y-58773258D01*
X33473502Y-58773261D01*
X33267267Y-58869431D01*
X33267265Y-58869432D01*
X33080858Y-58999954D01*
X32919954Y-59160858D01*
X32789432Y-59347265D01*
X32789431Y-59347267D01*
X32693261Y-59553502D01*
X32693258Y-59553511D01*
X32634366Y-59773302D01*
X32634364Y-59773313D01*
X32614532Y-59999998D01*
X30480000Y-59999998D01*
X30480000Y-56249999D01*
X31411127Y-56249999D01*
X31411128Y-56250000D01*
X32374314Y-56250000D01*
X32369920Y-56254394D01*
X32317259Y-56345606D01*
X32290000Y-56447339D01*
X32290000Y-56552661D01*
X32317259Y-56654394D01*
X32369920Y-56745606D01*
X32374314Y-56750000D01*
X31411128Y-56750000D01*
X31463730Y-56946317D01*
X31463734Y-56946326D01*
X31559865Y-57152482D01*
X31690342Y-57338820D01*
X31851179Y-57499657D01*
X32037517Y-57630134D01*
X32243673Y-57726265D01*
X32243682Y-57726269D01*
X32439999Y-57778872D01*
X32440000Y-57778871D01*
X32440000Y-56815686D01*
X32444394Y-56820080D01*
X32535606Y-56872741D01*
X32637339Y-56900000D01*
X32742661Y-56900000D01*
X32844394Y-56872741D01*
X32935606Y-56820080D01*
X32940000Y-56815686D01*
X32940000Y-57778872D01*
X33136317Y-57726269D01*
X33136326Y-57726265D01*
X33342482Y-57630134D01*
X33528820Y-57499657D01*
X33689657Y-57338820D01*
X33820134Y-57152482D01*
X33916265Y-56946326D01*
X33916269Y-56946317D01*
X33968872Y-56750000D01*
X33005686Y-56750000D01*
X33010080Y-56745606D01*
X33062741Y-56654394D01*
X33090000Y-56552661D01*
X33090000Y-56447339D01*
X33062741Y-56345606D01*
X33010080Y-56254394D01*
X33005686Y-56250000D01*
X33968872Y-56250000D01*
X33968872Y-56249999D01*
X33916269Y-56053682D01*
X33916265Y-56053673D01*
X33820134Y-55847517D01*
X33689657Y-55661179D01*
X33680613Y-55652135D01*
X39009500Y-55652135D01*
X39009500Y-57347870D01*
X39009501Y-57347876D01*
X39015908Y-57407483D01*
X39066202Y-57542328D01*
X39066206Y-57542335D01*
X39152452Y-57657544D01*
X39152455Y-57657547D01*
X39267664Y-57743793D01*
X39267671Y-57743797D01*
X39402517Y-57794091D01*
X39402516Y-57794091D01*
X39409444Y-57794835D01*
X39462127Y-57800500D01*
X41157872Y-57800499D01*
X41217483Y-57794091D01*
X41352331Y-57743796D01*
X41467546Y-57657546D01*
X41553796Y-57542331D01*
X41604091Y-57407483D01*
X41610500Y-57347873D01*
X41610499Y-55652128D01*
X41604091Y-55592517D01*
X41553796Y-55457669D01*
X41553795Y-55457668D01*
X41553793Y-55457664D01*
X41467547Y-55342455D01*
X41467544Y-55342452D01*
X41352335Y-55256206D01*
X41352328Y-55256202D01*
X41217482Y-55205908D01*
X41217483Y-55205908D01*
X41157883Y-55199501D01*
X41157881Y-55199500D01*
X41157873Y-55199500D01*
X41157864Y-55199500D01*
X39462129Y-55199500D01*
X39462123Y-55199501D01*
X39402516Y-55205908D01*
X39267671Y-55256202D01*
X39267664Y-55256206D01*
X39152455Y-55342452D01*
X39152452Y-55342455D01*
X39066206Y-55457664D01*
X39066202Y-55457671D01*
X39015908Y-55592517D01*
X39009501Y-55652116D01*
X39009501Y-55652123D01*
X39009500Y-55652135D01*
X33680613Y-55652135D01*
X33528820Y-55500342D01*
X33342482Y-55369865D01*
X33136328Y-55273734D01*
X32940000Y-55221127D01*
X32940000Y-56184314D01*
X32935606Y-56179920D01*
X32844394Y-56127259D01*
X32742661Y-56100000D01*
X32637339Y-56100000D01*
X32535606Y-56127259D01*
X32444394Y-56179920D01*
X32440000Y-56184314D01*
X32440000Y-55221127D01*
X32243671Y-55273734D01*
X32037517Y-55369865D01*
X31851179Y-55500342D01*
X31690342Y-55661179D01*
X31559865Y-55847517D01*
X31463734Y-56053673D01*
X31463730Y-56053682D01*
X31411127Y-56249999D01*
X30480000Y-56249999D01*
X30480000Y-50499996D01*
X34078415Y-50499996D01*
X34078415Y-50500003D01*
X34098738Y-50848927D01*
X34098739Y-50848938D01*
X34159428Y-51193127D01*
X34159430Y-51193134D01*
X34259674Y-51527972D01*
X34398107Y-51848895D01*
X34398113Y-51848908D01*
X34572870Y-52151597D01*
X34781584Y-52431949D01*
X34781589Y-52431955D01*
X34905463Y-52563253D01*
X35021442Y-52686183D01*
X35197903Y-52834251D01*
X35289186Y-52910847D01*
X35289194Y-52910853D01*
X35581203Y-53102911D01*
X35581207Y-53102913D01*
X35893549Y-53259777D01*
X36221989Y-53379319D01*
X36562086Y-53459923D01*
X36909241Y-53500500D01*
X36909248Y-53500500D01*
X37258752Y-53500500D01*
X37258759Y-53500500D01*
X37605914Y-53459923D01*
X37946011Y-53379319D01*
X38274451Y-53259777D01*
X38586793Y-53102913D01*
X38878811Y-52910849D01*
X39146558Y-52686183D01*
X39386412Y-52431953D01*
X39595130Y-52151596D01*
X39769889Y-51848904D01*
X39908326Y-51527971D01*
X40008569Y-51193136D01*
X40020491Y-51125526D01*
X40069260Y-50848938D01*
X40069259Y-50848938D01*
X40069262Y-50848927D01*
X40089585Y-50500000D01*
X40069262Y-50151073D01*
X40059167Y-50093821D01*
X40008571Y-49806872D01*
X40008569Y-49806865D01*
X39998533Y-49773341D01*
X39908326Y-49472029D01*
X39769889Y-49151096D01*
X39696022Y-49023155D01*
X39595129Y-48848402D01*
X39386415Y-48568050D01*
X39386410Y-48568044D01*
X39212086Y-48383273D01*
X39146558Y-48313817D01*
X38998488Y-48189572D01*
X38878813Y-48089152D01*
X38878805Y-48089146D01*
X38586796Y-47897088D01*
X38274458Y-47740226D01*
X38274452Y-47740223D01*
X37946012Y-47620681D01*
X37946009Y-47620680D01*
X37605915Y-47540077D01*
X37562519Y-47535004D01*
X37258759Y-47499500D01*
X36909241Y-47499500D01*
X36605480Y-47535004D01*
X36562085Y-47540077D01*
X36562083Y-47540077D01*
X36221990Y-47620680D01*
X36221987Y-47620681D01*
X35893547Y-47740223D01*
X35893541Y-47740226D01*
X35581203Y-47897088D01*
X35289194Y-48089146D01*
X35289186Y-48089152D01*
X35021442Y-48313817D01*
X35021440Y-48313819D01*
X34781589Y-48568044D01*
X34781584Y-48568050D01*
X34572870Y-48848402D01*
X34398113Y-49151091D01*
X34398107Y-49151104D01*
X34259674Y-49472027D01*
X34159430Y-49806865D01*
X34159428Y-49806872D01*
X34098739Y-50151061D01*
X34098738Y-50151072D01*
X34078415Y-50499996D01*
X30480000Y-50499996D01*
X30480000Y-41655996D01*
X34078916Y-41655996D01*
X34078916Y-41656003D01*
X34099235Y-42004869D01*
X34099236Y-42004880D01*
X34159914Y-42349002D01*
X34159916Y-42349011D01*
X34260145Y-42683800D01*
X34398555Y-43004670D01*
X34398561Y-43004683D01*
X34573289Y-43307322D01*
X34781972Y-43587631D01*
X34781976Y-43587636D01*
X34790147Y-43596297D01*
X34790148Y-43596298D01*
X36519387Y-41867059D01*
X36524889Y-41887591D01*
X36603881Y-42024408D01*
X36715592Y-42136119D01*
X36852409Y-42215111D01*
X36872940Y-42220612D01*
X35146817Y-43946733D01*
X35146818Y-43946734D01*
X35289480Y-44066442D01*
X35581461Y-44258480D01*
X35893739Y-44415314D01*
X35893745Y-44415316D01*
X36222130Y-44534838D01*
X36222133Y-44534839D01*
X36562171Y-44615429D01*
X36909276Y-44655999D01*
X36909277Y-44656000D01*
X37258723Y-44656000D01*
X37258723Y-44655999D01*
X37605827Y-44615429D01*
X37605829Y-44615429D01*
X37945866Y-44534839D01*
X37945869Y-44534838D01*
X38274254Y-44415316D01*
X38274260Y-44415314D01*
X38586538Y-44258480D01*
X38878515Y-44066445D01*
X39021180Y-43946734D01*
X39021181Y-43946733D01*
X37295059Y-42220612D01*
X37315591Y-42215111D01*
X37452408Y-42136119D01*
X37564119Y-42024408D01*
X37643111Y-41887591D01*
X37648612Y-41867059D01*
X39377850Y-43596297D01*
X39386032Y-43587625D01*
X39594710Y-43307322D01*
X39769438Y-43004683D01*
X39769444Y-43004670D01*
X39907854Y-42683800D01*
X40008083Y-42349011D01*
X40008085Y-42349002D01*
X40068763Y-42004880D01*
X40068764Y-42004869D01*
X40089084Y-41656003D01*
X40089084Y-41655996D01*
X40068764Y-41307130D01*
X40068763Y-41307119D01*
X40008085Y-40962997D01*
X40008083Y-40962988D01*
X39907854Y-40628199D01*
X39769444Y-40307329D01*
X39769438Y-40307316D01*
X39594710Y-40004677D01*
X39386029Y-39724371D01*
X39377850Y-39715701D01*
X39377850Y-39715700D01*
X37648612Y-41444939D01*
X37643111Y-41424409D01*
X37564119Y-41287592D01*
X37452408Y-41175881D01*
X37315591Y-41096889D01*
X37295058Y-41091387D01*
X39021181Y-39365265D01*
X39021180Y-39365264D01*
X38878519Y-39245557D01*
X38586538Y-39053519D01*
X38274260Y-38896685D01*
X38274254Y-38896683D01*
X37945869Y-38777161D01*
X37945866Y-38777160D01*
X37605828Y-38696570D01*
X37258723Y-38656000D01*
X36909277Y-38656000D01*
X36562172Y-38696570D01*
X36562170Y-38696570D01*
X36222133Y-38777160D01*
X36222130Y-38777161D01*
X35893745Y-38896683D01*
X35893739Y-38896685D01*
X35581461Y-39053519D01*
X35289485Y-39245554D01*
X35146817Y-39365264D01*
X36872941Y-41091387D01*
X36852409Y-41096889D01*
X36715592Y-41175881D01*
X36603881Y-41287592D01*
X36524889Y-41424409D01*
X36519387Y-41444940D01*
X34790148Y-39715701D01*
X34790146Y-39715701D01*
X34781973Y-39724366D01*
X34573289Y-40004677D01*
X34398561Y-40307316D01*
X34398555Y-40307329D01*
X34260145Y-40628199D01*
X34159916Y-40962988D01*
X34159914Y-40962997D01*
X34099236Y-41307119D01*
X34099235Y-41307130D01*
X34078916Y-41655996D01*
X30480000Y-41655996D01*
X30480000Y-33019997D01*
X37089034Y-33019997D01*
X37089034Y-33020002D01*
X37108858Y-33246599D01*
X37108860Y-33246610D01*
X37167730Y-33466317D01*
X37167735Y-33466331D01*
X37263863Y-33672478D01*
X37314974Y-33745472D01*
X37994000Y-33066446D01*
X37994000Y-33072661D01*
X38021259Y-33174394D01*
X38073920Y-33265606D01*
X38148394Y-33340080D01*
X38239606Y-33392741D01*
X38341339Y-33420000D01*
X38347553Y-33420000D01*
X37668526Y-34099025D01*
X37741513Y-34150132D01*
X37741521Y-34150136D01*
X37947668Y-34246264D01*
X37947682Y-34246269D01*
X38167389Y-34305139D01*
X38167400Y-34305141D01*
X38393998Y-34324966D01*
X38394002Y-34324966D01*
X38620599Y-34305141D01*
X38620610Y-34305139D01*
X38840317Y-34246269D01*
X38840331Y-34246264D01*
X39046478Y-34150136D01*
X39119471Y-34099024D01*
X38440447Y-33420000D01*
X38446661Y-33420000D01*
X38548394Y-33392741D01*
X38639606Y-33340080D01*
X38714080Y-33265606D01*
X38766741Y-33174394D01*
X38794000Y-33072661D01*
X38794000Y-33066447D01*
X39473024Y-33745471D01*
X39524136Y-33672478D01*
X39620264Y-33466331D01*
X39620269Y-33466317D01*
X39679139Y-33246610D01*
X39679141Y-33246599D01*
X39698966Y-33020002D01*
X39698966Y-33019998D01*
X42088532Y-33019998D01*
X42088532Y-33020001D01*
X42108364Y-33246686D01*
X42108366Y-33246697D01*
X42167258Y-33466488D01*
X42167261Y-33466497D01*
X42263431Y-33672732D01*
X42263432Y-33672734D01*
X42393954Y-33859141D01*
X42554858Y-34020045D01*
X42554861Y-34020047D01*
X42741266Y-34150568D01*
X42947504Y-34246739D01*
X43167308Y-34305635D01*
X43329230Y-34319801D01*
X43393998Y-34325468D01*
X43394000Y-34325468D01*
X43394002Y-34325468D01*
X43450673Y-34320509D01*
X43620692Y-34305635D01*
X43840496Y-34246739D01*
X44046734Y-34150568D01*
X44233139Y-34020047D01*
X44394047Y-33859139D01*
X44524568Y-33672734D01*
X44620739Y-33466496D01*
X44679635Y-33246692D01*
X44699468Y-33020000D01*
X44699468Y-33019998D01*
X45470532Y-33019998D01*
X45470532Y-33020001D01*
X45490364Y-33246686D01*
X45490366Y-33246697D01*
X45549258Y-33466488D01*
X45549261Y-33466497D01*
X45645431Y-33672732D01*
X45645432Y-33672734D01*
X45775954Y-33859141D01*
X45936858Y-34020045D01*
X45936861Y-34020047D01*
X46123266Y-34150568D01*
X46329504Y-34246739D01*
X46549308Y-34305635D01*
X46711230Y-34319801D01*
X46775998Y-34325468D01*
X46776000Y-34325468D01*
X46776002Y-34325468D01*
X46832673Y-34320509D01*
X47002692Y-34305635D01*
X47222496Y-34246739D01*
X47428734Y-34150568D01*
X47615139Y-34020047D01*
X47776047Y-33859139D01*
X47906568Y-33672734D01*
X48002739Y-33466496D01*
X48061635Y-33246692D01*
X48081468Y-33020000D01*
X48081468Y-33019997D01*
X50471034Y-33019997D01*
X50471034Y-33020002D01*
X50490858Y-33246599D01*
X50490860Y-33246610D01*
X50549730Y-33466317D01*
X50549735Y-33466331D01*
X50645863Y-33672478D01*
X50696974Y-33745472D01*
X51376000Y-33066446D01*
X51376000Y-33072661D01*
X51403259Y-33174394D01*
X51455920Y-33265606D01*
X51530394Y-33340080D01*
X51621606Y-33392741D01*
X51723339Y-33420000D01*
X51729553Y-33420000D01*
X51050526Y-34099025D01*
X51123513Y-34150132D01*
X51123521Y-34150136D01*
X51329668Y-34246264D01*
X51329682Y-34246269D01*
X51549389Y-34305139D01*
X51549400Y-34305141D01*
X51775998Y-34324966D01*
X51776002Y-34324966D01*
X52002599Y-34305141D01*
X52002610Y-34305139D01*
X52222317Y-34246269D01*
X52222331Y-34246264D01*
X52428478Y-34150136D01*
X52501471Y-34099024D01*
X51822447Y-33420000D01*
X51828661Y-33420000D01*
X51930394Y-33392741D01*
X52021606Y-33340080D01*
X52096080Y-33265606D01*
X52148741Y-33174394D01*
X52176000Y-33072661D01*
X52176000Y-33066447D01*
X52855024Y-33745471D01*
X52906136Y-33672478D01*
X53002264Y-33466331D01*
X53002269Y-33466317D01*
X53061139Y-33246610D01*
X53061141Y-33246599D01*
X53080966Y-33020002D01*
X53080966Y-33019997D01*
X53345034Y-33019997D01*
X53345034Y-33020002D01*
X53364858Y-33246599D01*
X53364860Y-33246610D01*
X53423730Y-33466317D01*
X53423735Y-33466331D01*
X53519863Y-33672478D01*
X53570974Y-33745472D01*
X54250000Y-33066446D01*
X54250000Y-33072661D01*
X54277259Y-33174394D01*
X54329920Y-33265606D01*
X54404394Y-33340080D01*
X54495606Y-33392741D01*
X54597339Y-33420000D01*
X54603553Y-33420000D01*
X53924526Y-34099025D01*
X53997513Y-34150132D01*
X53997521Y-34150136D01*
X54203668Y-34246264D01*
X54203682Y-34246269D01*
X54423389Y-34305139D01*
X54423400Y-34305141D01*
X54649998Y-34324966D01*
X54650002Y-34324966D01*
X54876599Y-34305141D01*
X54876610Y-34305139D01*
X55096317Y-34246269D01*
X55096331Y-34246264D01*
X55302478Y-34150136D01*
X55375471Y-34099024D01*
X54696447Y-33420000D01*
X54702661Y-33420000D01*
X54804394Y-33392741D01*
X54895606Y-33340080D01*
X54970080Y-33265606D01*
X55022741Y-33174394D01*
X55050000Y-33072661D01*
X55050000Y-33066447D01*
X55729024Y-33745471D01*
X55780136Y-33672478D01*
X55876264Y-33466331D01*
X55876269Y-33466317D01*
X55935139Y-33246610D01*
X55935141Y-33246599D01*
X55954966Y-33020002D01*
X55954966Y-33019998D01*
X58344532Y-33019998D01*
X58344532Y-33020001D01*
X58364364Y-33246686D01*
X58364366Y-33246697D01*
X58423258Y-33466488D01*
X58423261Y-33466497D01*
X58519431Y-33672732D01*
X58519432Y-33672734D01*
X58649954Y-33859141D01*
X58810858Y-34020045D01*
X58810861Y-34020047D01*
X58997266Y-34150568D01*
X59203504Y-34246739D01*
X59423308Y-34305635D01*
X59585230Y-34319801D01*
X59649998Y-34325468D01*
X59650000Y-34325468D01*
X59650002Y-34325468D01*
X59706673Y-34320509D01*
X59876692Y-34305635D01*
X60096496Y-34246739D01*
X60302734Y-34150568D01*
X60489139Y-34020047D01*
X60650047Y-33859139D01*
X60780568Y-33672734D01*
X60876739Y-33466496D01*
X60935635Y-33246692D01*
X60955468Y-33020000D01*
X60955468Y-33019997D01*
X61219034Y-33019997D01*
X61219034Y-33020002D01*
X61238858Y-33246599D01*
X61238860Y-33246610D01*
X61297730Y-33466317D01*
X61297735Y-33466331D01*
X61393863Y-33672478D01*
X61444974Y-33745472D01*
X62124000Y-33066446D01*
X62124000Y-33072661D01*
X62151259Y-33174394D01*
X62203920Y-33265606D01*
X62278394Y-33340080D01*
X62369606Y-33392741D01*
X62471339Y-33420000D01*
X62477553Y-33420000D01*
X61798526Y-34099025D01*
X61871513Y-34150132D01*
X61871521Y-34150136D01*
X62077668Y-34246264D01*
X62077682Y-34246269D01*
X62297389Y-34305139D01*
X62297400Y-34305141D01*
X62523998Y-34324966D01*
X62524002Y-34324966D01*
X62750599Y-34305141D01*
X62750610Y-34305139D01*
X62970317Y-34246269D01*
X62970331Y-34246264D01*
X63176478Y-34150136D01*
X63249471Y-34099024D01*
X62570447Y-33420000D01*
X62576661Y-33420000D01*
X62678394Y-33392741D01*
X62769606Y-33340080D01*
X62844080Y-33265606D01*
X62896741Y-33174394D01*
X62924000Y-33072661D01*
X62924000Y-33066447D01*
X63603024Y-33745471D01*
X63654136Y-33672478D01*
X63750264Y-33466331D01*
X63750269Y-33466317D01*
X63809139Y-33246610D01*
X63809141Y-33246599D01*
X63828966Y-33020002D01*
X63828966Y-33019998D01*
X66218532Y-33019998D01*
X66218532Y-33020001D01*
X66238364Y-33246686D01*
X66238366Y-33246697D01*
X66297258Y-33466488D01*
X66297261Y-33466497D01*
X66393431Y-33672732D01*
X66393432Y-33672734D01*
X66523954Y-33859141D01*
X66684858Y-34020045D01*
X66684861Y-34020047D01*
X66871266Y-34150568D01*
X67077504Y-34246739D01*
X67297308Y-34305635D01*
X67459230Y-34319801D01*
X67523998Y-34325468D01*
X67524000Y-34325468D01*
X67524002Y-34325468D01*
X67580673Y-34320509D01*
X67750692Y-34305635D01*
X67970496Y-34246739D01*
X68176734Y-34150568D01*
X68363139Y-34020047D01*
X68524047Y-33859139D01*
X68654568Y-33672734D01*
X68750739Y-33466496D01*
X68809635Y-33246692D01*
X68829468Y-33020000D01*
X68809635Y-32793308D01*
X68750739Y-32573504D01*
X68654568Y-32367266D01*
X68524047Y-32180861D01*
X68524045Y-32180858D01*
X68363141Y-32019954D01*
X68176734Y-31889432D01*
X68176732Y-31889431D01*
X67970497Y-31793261D01*
X67970488Y-31793258D01*
X67750697Y-31734366D01*
X67750693Y-31734365D01*
X67750692Y-31734365D01*
X67750691Y-31734364D01*
X67750686Y-31734364D01*
X67524002Y-31714532D01*
X67523998Y-31714532D01*
X67297313Y-31734364D01*
X67297302Y-31734366D01*
X67077511Y-31793258D01*
X67077502Y-31793261D01*
X66871267Y-31889431D01*
X66871265Y-31889432D01*
X66684858Y-32019954D01*
X66523954Y-32180858D01*
X66393432Y-32367265D01*
X66393431Y-32367267D01*
X66297261Y-32573502D01*
X66297258Y-32573511D01*
X66238366Y-32793302D01*
X66238364Y-32793313D01*
X66218532Y-33019998D01*
X63828966Y-33019998D01*
X63828966Y-33019997D01*
X63809141Y-32793400D01*
X63809139Y-32793389D01*
X63750269Y-32573682D01*
X63750264Y-32573668D01*
X63654136Y-32367521D01*
X63654132Y-32367513D01*
X63603025Y-32294526D01*
X62924000Y-32973551D01*
X62924000Y-32967339D01*
X62896741Y-32865606D01*
X62844080Y-32774394D01*
X62769606Y-32699920D01*
X62678394Y-32647259D01*
X62576661Y-32620000D01*
X62570445Y-32620000D01*
X63249472Y-31940974D01*
X63176478Y-31889863D01*
X62970331Y-31793735D01*
X62970317Y-31793730D01*
X62750610Y-31734860D01*
X62750599Y-31734858D01*
X62524002Y-31715034D01*
X62523998Y-31715034D01*
X62297400Y-31734858D01*
X62297389Y-31734860D01*
X62077682Y-31793730D01*
X62077673Y-31793734D01*
X61871516Y-31889866D01*
X61871512Y-31889868D01*
X61798526Y-31940973D01*
X61798526Y-31940974D01*
X62477553Y-32620000D01*
X62471339Y-32620000D01*
X62369606Y-32647259D01*
X62278394Y-32699920D01*
X62203920Y-32774394D01*
X62151259Y-32865606D01*
X62124000Y-32967339D01*
X62124000Y-32973552D01*
X61444974Y-32294526D01*
X61444973Y-32294526D01*
X61393868Y-32367512D01*
X61393866Y-32367516D01*
X61297734Y-32573673D01*
X61297730Y-32573682D01*
X61238860Y-32793389D01*
X61238858Y-32793400D01*
X61219034Y-33019997D01*
X60955468Y-33019997D01*
X60935635Y-32793308D01*
X60876739Y-32573504D01*
X60780568Y-32367266D01*
X60650047Y-32180861D01*
X60650045Y-32180858D01*
X60489141Y-32019954D01*
X60302734Y-31889432D01*
X60302732Y-31889431D01*
X60096497Y-31793261D01*
X60096488Y-31793258D01*
X59876697Y-31734366D01*
X59876693Y-31734365D01*
X59876692Y-31734365D01*
X59876691Y-31734364D01*
X59876686Y-31734364D01*
X59650002Y-31714532D01*
X59649998Y-31714532D01*
X59423313Y-31734364D01*
X59423302Y-31734366D01*
X59203511Y-31793258D01*
X59203502Y-31793261D01*
X58997267Y-31889431D01*
X58997265Y-31889432D01*
X58810858Y-32019954D01*
X58649954Y-32180858D01*
X58519432Y-32367265D01*
X58519431Y-32367267D01*
X58423261Y-32573502D01*
X58423258Y-32573511D01*
X58364366Y-32793302D01*
X58364364Y-32793313D01*
X58344532Y-33019998D01*
X55954966Y-33019998D01*
X55954966Y-33019997D01*
X55935141Y-32793400D01*
X55935139Y-32793389D01*
X55876269Y-32573682D01*
X55876264Y-32573668D01*
X55780136Y-32367521D01*
X55780132Y-32367513D01*
X55729025Y-32294526D01*
X55050000Y-32973551D01*
X55050000Y-32967339D01*
X55022741Y-32865606D01*
X54970080Y-32774394D01*
X54895606Y-32699920D01*
X54804394Y-32647259D01*
X54702661Y-32620000D01*
X54696445Y-32620000D01*
X55375472Y-31940974D01*
X55302478Y-31889863D01*
X55096331Y-31793735D01*
X55096317Y-31793730D01*
X54876610Y-31734860D01*
X54876599Y-31734858D01*
X54650002Y-31715034D01*
X54649998Y-31715034D01*
X54423400Y-31734858D01*
X54423389Y-31734860D01*
X54203682Y-31793730D01*
X54203673Y-31793734D01*
X53997516Y-31889866D01*
X53997512Y-31889868D01*
X53924526Y-31940973D01*
X53924526Y-31940974D01*
X54603553Y-32620000D01*
X54597339Y-32620000D01*
X54495606Y-32647259D01*
X54404394Y-32699920D01*
X54329920Y-32774394D01*
X54277259Y-32865606D01*
X54250000Y-32967339D01*
X54250000Y-32973552D01*
X53570974Y-32294526D01*
X53570973Y-32294526D01*
X53519868Y-32367512D01*
X53519866Y-32367516D01*
X53423734Y-32573673D01*
X53423730Y-32573682D01*
X53364860Y-32793389D01*
X53364858Y-32793400D01*
X53345034Y-33019997D01*
X53080966Y-33019997D01*
X53061141Y-32793400D01*
X53061139Y-32793389D01*
X53002269Y-32573682D01*
X53002264Y-32573668D01*
X52906136Y-32367521D01*
X52906132Y-32367513D01*
X52855025Y-32294526D01*
X52176000Y-32973551D01*
X52176000Y-32967339D01*
X52148741Y-32865606D01*
X52096080Y-32774394D01*
X52021606Y-32699920D01*
X51930394Y-32647259D01*
X51828661Y-32620000D01*
X51822445Y-32620000D01*
X52501472Y-31940974D01*
X52428478Y-31889863D01*
X52222331Y-31793735D01*
X52222317Y-31793730D01*
X52002610Y-31734860D01*
X52002599Y-31734858D01*
X51776002Y-31715034D01*
X51775998Y-31715034D01*
X51549400Y-31734858D01*
X51549389Y-31734860D01*
X51329682Y-31793730D01*
X51329673Y-31793734D01*
X51123516Y-31889866D01*
X51123512Y-31889868D01*
X51050526Y-31940973D01*
X51050526Y-31940974D01*
X51729553Y-32620000D01*
X51723339Y-32620000D01*
X51621606Y-32647259D01*
X51530394Y-32699920D01*
X51455920Y-32774394D01*
X51403259Y-32865606D01*
X51376000Y-32967339D01*
X51376000Y-32973552D01*
X50696974Y-32294526D01*
X50696973Y-32294526D01*
X50645868Y-32367512D01*
X50645866Y-32367516D01*
X50549734Y-32573673D01*
X50549730Y-32573682D01*
X50490860Y-32793389D01*
X50490858Y-32793400D01*
X50471034Y-33019997D01*
X48081468Y-33019997D01*
X48061635Y-32793308D01*
X48002739Y-32573504D01*
X47906568Y-32367266D01*
X47776047Y-32180861D01*
X47776045Y-32180858D01*
X47615141Y-32019954D01*
X47428734Y-31889432D01*
X47428732Y-31889431D01*
X47222497Y-31793261D01*
X47222488Y-31793258D01*
X47002697Y-31734366D01*
X47002693Y-31734365D01*
X47002692Y-31734365D01*
X47002691Y-31734364D01*
X47002686Y-31734364D01*
X46776002Y-31714532D01*
X46775998Y-31714532D01*
X46549313Y-31734364D01*
X46549302Y-31734366D01*
X46329511Y-31793258D01*
X46329502Y-31793261D01*
X46123267Y-31889431D01*
X46123265Y-31889432D01*
X45936858Y-32019954D01*
X45775954Y-32180858D01*
X45645432Y-32367265D01*
X45645431Y-32367267D01*
X45549261Y-32573502D01*
X45549258Y-32573511D01*
X45490366Y-32793302D01*
X45490364Y-32793313D01*
X45470532Y-33019998D01*
X44699468Y-33019998D01*
X44679635Y-32793308D01*
X44620739Y-32573504D01*
X44524568Y-32367266D01*
X44394047Y-32180861D01*
X44394045Y-32180858D01*
X44233141Y-32019954D01*
X44046734Y-31889432D01*
X44046732Y-31889431D01*
X43840497Y-31793261D01*
X43840488Y-31793258D01*
X43620697Y-31734366D01*
X43620693Y-31734365D01*
X43620692Y-31734365D01*
X43620691Y-31734364D01*
X43620686Y-31734364D01*
X43394002Y-31714532D01*
X43393998Y-31714532D01*
X43167313Y-31734364D01*
X43167302Y-31734366D01*
X42947511Y-31793258D01*
X42947502Y-31793261D01*
X42741267Y-31889431D01*
X42741265Y-31889432D01*
X42554858Y-32019954D01*
X42393954Y-32180858D01*
X42263432Y-32367265D01*
X42263431Y-32367267D01*
X42167261Y-32573502D01*
X42167258Y-32573511D01*
X42108366Y-32793302D01*
X42108364Y-32793313D01*
X42088532Y-33019998D01*
X39698966Y-33019998D01*
X39698966Y-33019997D01*
X39679141Y-32793400D01*
X39679139Y-32793389D01*
X39620269Y-32573682D01*
X39620264Y-32573668D01*
X39524136Y-32367521D01*
X39524132Y-32367513D01*
X39473025Y-32294526D01*
X38794000Y-32973551D01*
X38794000Y-32967339D01*
X38766741Y-32865606D01*
X38714080Y-32774394D01*
X38639606Y-32699920D01*
X38548394Y-32647259D01*
X38446661Y-32620000D01*
X38440445Y-32620000D01*
X39119472Y-31940974D01*
X39046478Y-31889863D01*
X38840331Y-31793735D01*
X38840317Y-31793730D01*
X38620610Y-31734860D01*
X38620599Y-31734858D01*
X38394002Y-31715034D01*
X38393998Y-31715034D01*
X38167400Y-31734858D01*
X38167389Y-31734860D01*
X37947682Y-31793730D01*
X37947673Y-31793734D01*
X37741516Y-31889866D01*
X37741512Y-31889868D01*
X37668526Y-31940973D01*
X37668526Y-31940974D01*
X38347553Y-32620000D01*
X38341339Y-32620000D01*
X38239606Y-32647259D01*
X38148394Y-32699920D01*
X38073920Y-32774394D01*
X38021259Y-32865606D01*
X37994000Y-32967339D01*
X37994000Y-32973552D01*
X37314974Y-32294526D01*
X37314973Y-32294526D01*
X37263868Y-32367512D01*
X37263866Y-32367516D01*
X37167734Y-32573673D01*
X37167730Y-32573682D01*
X37108860Y-32793389D01*
X37108858Y-32793400D01*
X37089034Y-33019997D01*
X30480000Y-33019997D01*
X30480000Y-27625994D01*
X34867659Y-27625994D01*
X34867659Y-27626005D01*
X34888185Y-27873729D01*
X34888187Y-27873738D01*
X34949212Y-28114717D01*
X35049067Y-28342367D01*
X35149362Y-28495881D01*
X35972800Y-27672445D01*
X35972800Y-27678661D01*
X36000059Y-27780394D01*
X36052720Y-27871606D01*
X36127194Y-27946080D01*
X36218406Y-27998741D01*
X36320139Y-28026000D01*
X36326354Y-28026000D01*
X35502743Y-28849609D01*
X35549568Y-28886055D01*
X35549571Y-28886057D01*
X35768185Y-29004364D01*
X35768196Y-29004369D01*
X36003306Y-29085083D01*
X36248507Y-29126000D01*
X36497093Y-29126000D01*
X36742293Y-29085083D01*
X36977403Y-29004369D01*
X36977414Y-29004364D01*
X37196030Y-28886056D01*
X37196036Y-28886051D01*
X37242855Y-28849610D01*
X37242856Y-28849609D01*
X36419246Y-28026000D01*
X36425461Y-28026000D01*
X36527194Y-27998741D01*
X36618406Y-27946080D01*
X36692880Y-27871606D01*
X36745541Y-27780394D01*
X36772800Y-27678661D01*
X36772800Y-27672446D01*
X37596235Y-28495881D01*
X37607660Y-28494697D01*
X37676373Y-28507360D01*
X37720892Y-28547194D01*
X37721483Y-28546735D01*
X37724018Y-28549992D01*
X37724256Y-28550205D01*
X37724631Y-28550780D01*
X37724636Y-28550785D01*
X37893056Y-28733738D01*
X38089291Y-28886474D01*
X38089293Y-28886475D01*
X38307132Y-29004364D01*
X38307990Y-29004828D01*
X38526941Y-29079994D01*
X38541764Y-29085083D01*
X38543186Y-29085571D01*
X38788465Y-29126500D01*
X39037135Y-29126500D01*
X39282414Y-29085571D01*
X39517610Y-29004828D01*
X39736309Y-28886474D01*
X39932544Y-28733738D01*
X40091571Y-28560988D01*
X40151457Y-28524999D01*
X40221295Y-28527099D01*
X40274028Y-28560988D01*
X40433056Y-28733738D01*
X40629291Y-28886474D01*
X40629293Y-28886475D01*
X40847132Y-29004364D01*
X40847990Y-29004828D01*
X41066941Y-29079994D01*
X41081764Y-29085083D01*
X41083186Y-29085571D01*
X41328465Y-29126500D01*
X41577135Y-29126500D01*
X41822414Y-29085571D01*
X42057610Y-29004828D01*
X42276309Y-28886474D01*
X42472544Y-28733738D01*
X42640964Y-28550785D01*
X42776973Y-28342607D01*
X42876863Y-28114881D01*
X42937908Y-27873821D01*
X42945650Y-27780394D01*
X42958443Y-27626005D01*
X42958443Y-27625994D01*
X48024357Y-27625994D01*
X48024357Y-27626005D01*
X48044890Y-27873812D01*
X48044892Y-27873824D01*
X48105936Y-28114881D01*
X48205826Y-28342606D01*
X48341833Y-28550782D01*
X48341836Y-28550785D01*
X48510256Y-28733738D01*
X48706491Y-28886474D01*
X48706493Y-28886475D01*
X48924332Y-29004364D01*
X48925190Y-29004828D01*
X49144141Y-29079994D01*
X49158964Y-29085083D01*
X49160386Y-29085571D01*
X49405665Y-29126500D01*
X49654335Y-29126500D01*
X49899614Y-29085571D01*
X50134810Y-29004828D01*
X50353509Y-28886474D01*
X50549744Y-28733738D01*
X50718164Y-28550785D01*
X50718533Y-28550219D01*
X50718745Y-28550038D01*
X50721322Y-28546729D01*
X50722002Y-28547258D01*
X50771676Y-28504860D01*
X50835139Y-28494697D01*
X50846563Y-28495881D01*
X51670000Y-27672445D01*
X51670000Y-27678661D01*
X51697259Y-27780394D01*
X51749920Y-27871606D01*
X51824394Y-27946080D01*
X51915606Y-27998741D01*
X52017339Y-28026000D01*
X52023554Y-28026000D01*
X51199943Y-28849609D01*
X51246768Y-28886055D01*
X51246771Y-28886057D01*
X51465385Y-29004364D01*
X51465396Y-29004369D01*
X51700506Y-29085083D01*
X51945707Y-29126000D01*
X52194293Y-29126000D01*
X52439493Y-29085083D01*
X52674603Y-29004369D01*
X52674614Y-29004364D01*
X52893230Y-28886056D01*
X52893236Y-28886051D01*
X52940055Y-28849610D01*
X52940056Y-28849609D01*
X52116446Y-28026000D01*
X52122661Y-28026000D01*
X52224394Y-27998741D01*
X52315606Y-27946080D01*
X52390080Y-27871606D01*
X52442741Y-27780394D01*
X52470000Y-27678661D01*
X52470000Y-27672447D01*
X53293434Y-28495881D01*
X53304860Y-28494697D01*
X53373573Y-28507360D01*
X53418092Y-28547194D01*
X53418683Y-28546735D01*
X53421218Y-28549992D01*
X53421456Y-28550205D01*
X53421831Y-28550780D01*
X53421836Y-28550785D01*
X53590256Y-28733738D01*
X53786491Y-28886474D01*
X53786493Y-28886475D01*
X54004332Y-29004364D01*
X54005190Y-29004828D01*
X54224141Y-29079994D01*
X54238964Y-29085083D01*
X54240386Y-29085571D01*
X54485665Y-29126500D01*
X54734335Y-29126500D01*
X54979614Y-29085571D01*
X55214810Y-29004828D01*
X55433509Y-28886474D01*
X55629744Y-28733738D01*
X55798164Y-28550785D01*
X55934173Y-28342607D01*
X56034063Y-28114881D01*
X56095108Y-27873821D01*
X56102850Y-27780394D01*
X56115643Y-27626005D01*
X56115643Y-27625994D01*
X61232859Y-27625994D01*
X61232859Y-27626005D01*
X61253385Y-27873729D01*
X61253387Y-27873738D01*
X61314412Y-28114717D01*
X61414267Y-28342367D01*
X61514562Y-28495881D01*
X62338000Y-27672445D01*
X62338000Y-27678661D01*
X62365259Y-27780394D01*
X62417920Y-27871606D01*
X62492394Y-27946080D01*
X62583606Y-27998741D01*
X62685339Y-28026000D01*
X62691554Y-28026000D01*
X61867943Y-28849609D01*
X61914768Y-28886055D01*
X61914771Y-28886057D01*
X62133385Y-29004364D01*
X62133396Y-29004369D01*
X62368506Y-29085083D01*
X62613707Y-29126000D01*
X62862293Y-29126000D01*
X63107493Y-29085083D01*
X63342603Y-29004369D01*
X63342614Y-29004364D01*
X63561230Y-28886056D01*
X63561236Y-28886051D01*
X63608055Y-28849610D01*
X63608056Y-28849609D01*
X62784446Y-28026000D01*
X62790661Y-28026000D01*
X62892394Y-27998741D01*
X62983606Y-27946080D01*
X63058080Y-27871606D01*
X63110741Y-27780394D01*
X63138000Y-27678661D01*
X63138000Y-27672447D01*
X63961434Y-28495881D01*
X63972860Y-28494697D01*
X64041573Y-28507360D01*
X64086092Y-28547194D01*
X64086683Y-28546735D01*
X64089218Y-28549992D01*
X64089456Y-28550205D01*
X64089831Y-28550780D01*
X64089836Y-28550785D01*
X64258256Y-28733738D01*
X64454491Y-28886474D01*
X64454493Y-28886475D01*
X64672332Y-29004364D01*
X64673190Y-29004828D01*
X64892141Y-29079994D01*
X64906964Y-29085083D01*
X64908386Y-29085571D01*
X65153665Y-29126500D01*
X65402335Y-29126500D01*
X65647614Y-29085571D01*
X65882810Y-29004828D01*
X66101509Y-28886474D01*
X66297744Y-28733738D01*
X66456771Y-28560988D01*
X66516657Y-28524999D01*
X66586495Y-28527099D01*
X66639228Y-28560988D01*
X66798256Y-28733738D01*
X66994491Y-28886474D01*
X66994493Y-28886475D01*
X67212332Y-29004364D01*
X67213190Y-29004828D01*
X67432141Y-29079994D01*
X67446964Y-29085083D01*
X67448386Y-29085571D01*
X67693665Y-29126500D01*
X67942335Y-29126500D01*
X68187614Y-29085571D01*
X68422810Y-29004828D01*
X68641509Y-28886474D01*
X68837744Y-28733738D01*
X69006164Y-28550785D01*
X69142173Y-28342607D01*
X69242063Y-28114881D01*
X69303108Y-27873821D01*
X69310850Y-27780394D01*
X69323643Y-27626005D01*
X69323643Y-27625994D01*
X69303109Y-27378187D01*
X69303107Y-27378175D01*
X69242063Y-27137118D01*
X69142173Y-26909393D01*
X69006166Y-26701217D01*
X68984557Y-26677744D01*
X68837744Y-26518262D01*
X68641509Y-26365526D01*
X68641507Y-26365525D01*
X68641506Y-26365524D01*
X68422811Y-26247172D01*
X68422802Y-26247169D01*
X68187616Y-26166429D01*
X67942335Y-26125500D01*
X67693665Y-26125500D01*
X67448383Y-26166429D01*
X67213197Y-26247169D01*
X67213188Y-26247172D01*
X66994493Y-26365524D01*
X66798257Y-26518261D01*
X66639230Y-26691010D01*
X66579342Y-26727001D01*
X66509504Y-26724900D01*
X66456770Y-26691010D01*
X66417108Y-26647926D01*
X66297744Y-26518262D01*
X66101509Y-26365526D01*
X66101507Y-26365525D01*
X66101506Y-26365524D01*
X65882811Y-26247172D01*
X65882802Y-26247169D01*
X65647616Y-26166429D01*
X65402335Y-26125500D01*
X65153665Y-26125500D01*
X64908383Y-26166429D01*
X64673197Y-26247169D01*
X64673188Y-26247172D01*
X64454493Y-26365524D01*
X64258257Y-26518261D01*
X64089837Y-26701213D01*
X64089829Y-26701224D01*
X64089455Y-26701797D01*
X64089242Y-26701978D01*
X64086690Y-26705258D01*
X64086014Y-26704732D01*
X64036304Y-26747147D01*
X63972865Y-26757302D01*
X63961435Y-26756116D01*
X63138000Y-27579552D01*
X63138000Y-27573339D01*
X63110741Y-27471606D01*
X63058080Y-27380394D01*
X62983606Y-27305920D01*
X62892394Y-27253259D01*
X62790661Y-27226000D01*
X62784447Y-27226000D01*
X63608055Y-26402389D01*
X63608055Y-26402388D01*
X63561236Y-26365947D01*
X63561231Y-26365944D01*
X63342614Y-26247635D01*
X63342603Y-26247630D01*
X63107493Y-26166916D01*
X62862293Y-26126000D01*
X62613707Y-26126000D01*
X62368506Y-26166916D01*
X62133396Y-26247630D01*
X62133385Y-26247635D01*
X61914770Y-26365943D01*
X61867943Y-26402389D01*
X62691554Y-27226000D01*
X62685339Y-27226000D01*
X62583606Y-27253259D01*
X62492394Y-27305920D01*
X62417920Y-27380394D01*
X62365259Y-27471606D01*
X62338000Y-27573339D01*
X62338000Y-27579554D01*
X61514563Y-26756117D01*
X61414267Y-26909633D01*
X61414265Y-26909637D01*
X61314412Y-27137282D01*
X61253387Y-27378261D01*
X61253385Y-27378270D01*
X61232859Y-27625994D01*
X56115643Y-27625994D01*
X56095109Y-27378187D01*
X56095107Y-27378175D01*
X56034063Y-27137118D01*
X55934173Y-26909393D01*
X55798166Y-26701217D01*
X55776557Y-26677744D01*
X55629744Y-26518262D01*
X55433509Y-26365526D01*
X55433507Y-26365525D01*
X55433506Y-26365524D01*
X55214811Y-26247172D01*
X55214802Y-26247169D01*
X54979616Y-26166429D01*
X54734335Y-26125500D01*
X54485665Y-26125500D01*
X54240383Y-26166429D01*
X54005197Y-26247169D01*
X54005188Y-26247172D01*
X53786493Y-26365524D01*
X53590257Y-26518261D01*
X53421837Y-26701213D01*
X53421829Y-26701224D01*
X53421455Y-26701797D01*
X53421242Y-26701978D01*
X53418690Y-26705258D01*
X53418014Y-26704732D01*
X53368304Y-26747147D01*
X53304865Y-26757302D01*
X53293435Y-26756116D01*
X52470000Y-27579552D01*
X52470000Y-27573339D01*
X52442741Y-27471606D01*
X52390080Y-27380394D01*
X52315606Y-27305920D01*
X52224394Y-27253259D01*
X52122661Y-27226000D01*
X52116447Y-27226000D01*
X52940055Y-26402389D01*
X52940055Y-26402388D01*
X52893236Y-26365947D01*
X52893231Y-26365944D01*
X52674614Y-26247635D01*
X52674603Y-26247630D01*
X52439493Y-26166916D01*
X52194293Y-26126000D01*
X51945707Y-26126000D01*
X51700506Y-26166916D01*
X51465396Y-26247630D01*
X51465385Y-26247635D01*
X51246770Y-26365943D01*
X51199943Y-26402389D01*
X52023554Y-27226000D01*
X52017339Y-27226000D01*
X51915606Y-27253259D01*
X51824394Y-27305920D01*
X51749920Y-27380394D01*
X51697259Y-27471606D01*
X51670000Y-27573339D01*
X51670000Y-27579553D01*
X50846563Y-26756116D01*
X50835136Y-26757302D01*
X50766423Y-26744637D01*
X50721910Y-26704802D01*
X50721317Y-26705265D01*
X50718768Y-26701991D01*
X50718535Y-26701782D01*
X50718166Y-26701218D01*
X50718165Y-26701217D01*
X50718164Y-26701215D01*
X50549744Y-26518262D01*
X50353509Y-26365526D01*
X50353507Y-26365525D01*
X50353506Y-26365524D01*
X50134811Y-26247172D01*
X50134802Y-26247169D01*
X49899616Y-26166429D01*
X49654335Y-26125500D01*
X49405665Y-26125500D01*
X49160383Y-26166429D01*
X48925197Y-26247169D01*
X48925188Y-26247172D01*
X48706493Y-26365524D01*
X48510257Y-26518261D01*
X48341833Y-26701217D01*
X48205826Y-26909393D01*
X48105936Y-27137118D01*
X48044892Y-27378175D01*
X48044890Y-27378187D01*
X48024357Y-27625994D01*
X42958443Y-27625994D01*
X42937909Y-27378187D01*
X42937907Y-27378175D01*
X42876863Y-27137118D01*
X42776973Y-26909393D01*
X42640966Y-26701217D01*
X42619357Y-26677744D01*
X42472544Y-26518262D01*
X42276309Y-26365526D01*
X42276307Y-26365525D01*
X42276306Y-26365524D01*
X42057611Y-26247172D01*
X42057602Y-26247169D01*
X41822416Y-26166429D01*
X41577135Y-26125500D01*
X41328465Y-26125500D01*
X41083183Y-26166429D01*
X40847997Y-26247169D01*
X40847988Y-26247172D01*
X40629293Y-26365524D01*
X40433057Y-26518261D01*
X40274030Y-26691010D01*
X40214142Y-26727001D01*
X40144304Y-26724900D01*
X40091570Y-26691010D01*
X40051908Y-26647926D01*
X39932544Y-26518262D01*
X39736309Y-26365526D01*
X39736307Y-26365525D01*
X39736306Y-26365524D01*
X39517611Y-26247172D01*
X39517602Y-26247169D01*
X39282416Y-26166429D01*
X39037135Y-26125500D01*
X38788465Y-26125500D01*
X38543183Y-26166429D01*
X38307997Y-26247169D01*
X38307988Y-26247172D01*
X38089293Y-26365524D01*
X37893057Y-26518261D01*
X37724637Y-26701213D01*
X37724629Y-26701224D01*
X37724255Y-26701797D01*
X37724042Y-26701978D01*
X37721490Y-26705258D01*
X37720814Y-26704732D01*
X37671104Y-26747147D01*
X37607665Y-26757302D01*
X37596235Y-26756116D01*
X36772800Y-27579552D01*
X36772800Y-27573339D01*
X36745541Y-27471606D01*
X36692880Y-27380394D01*
X36618406Y-27305920D01*
X36527194Y-27253259D01*
X36425461Y-27226000D01*
X36419247Y-27226000D01*
X37242855Y-26402389D01*
X37242855Y-26402388D01*
X37196036Y-26365947D01*
X37196031Y-26365944D01*
X36977414Y-26247635D01*
X36977403Y-26247630D01*
X36742293Y-26166916D01*
X36497093Y-26126000D01*
X36248507Y-26126000D01*
X36003306Y-26166916D01*
X35768196Y-26247630D01*
X35768185Y-26247635D01*
X35549570Y-26365943D01*
X35502743Y-26402389D01*
X36326354Y-27226000D01*
X36320139Y-27226000D01*
X36218406Y-27253259D01*
X36127194Y-27305920D01*
X36052720Y-27380394D01*
X36000059Y-27471606D01*
X35972800Y-27573339D01*
X35972800Y-27579554D01*
X35149363Y-26756117D01*
X35049067Y-26909633D01*
X35049065Y-26909637D01*
X34949212Y-27137282D01*
X34888187Y-27378261D01*
X34888185Y-27378270D01*
X34867659Y-27625994D01*
X30480000Y-27625994D01*
X30480000Y-23875998D01*
X33097190Y-23875998D01*
X33097190Y-23876001D01*
X33117604Y-24161433D01*
X33178428Y-24441037D01*
X33278435Y-24709166D01*
X33415570Y-24960309D01*
X33415575Y-24960317D01*
X33587054Y-25189387D01*
X33587070Y-25189405D01*
X33789394Y-25391729D01*
X33789412Y-25391745D01*
X34018482Y-25563224D01*
X34018490Y-25563229D01*
X34269633Y-25700364D01*
X34269632Y-25700364D01*
X34269636Y-25700365D01*
X34269639Y-25700367D01*
X34537754Y-25800369D01*
X34537760Y-25800370D01*
X34537762Y-25800371D01*
X34817366Y-25861195D01*
X34817368Y-25861195D01*
X34817372Y-25861196D01*
X35071020Y-25879337D01*
X35102799Y-25881610D01*
X35102800Y-25881610D01*
X35102801Y-25881610D01*
X35131395Y-25879564D01*
X35388228Y-25861196D01*
X35667846Y-25800369D01*
X35935961Y-25700367D01*
X36187115Y-25563226D01*
X36416195Y-25391739D01*
X36618539Y-25189395D01*
X36790026Y-24960315D01*
X36927167Y-24709161D01*
X37027169Y-24441046D01*
X37087996Y-24161428D01*
X37108410Y-23876000D01*
X37108410Y-23875998D01*
X40717190Y-23875998D01*
X40717190Y-23876001D01*
X40737604Y-24161433D01*
X40798428Y-24441037D01*
X40898435Y-24709166D01*
X41035570Y-24960309D01*
X41035575Y-24960317D01*
X41207054Y-25189387D01*
X41207070Y-25189405D01*
X41409394Y-25391729D01*
X41409412Y-25391745D01*
X41638482Y-25563224D01*
X41638490Y-25563229D01*
X41889633Y-25700364D01*
X41889632Y-25700364D01*
X41889636Y-25700365D01*
X41889639Y-25700367D01*
X42157754Y-25800369D01*
X42157760Y-25800370D01*
X42157762Y-25800371D01*
X42437366Y-25861195D01*
X42437368Y-25861195D01*
X42437372Y-25861196D01*
X42691020Y-25879337D01*
X42722799Y-25881610D01*
X42722800Y-25881610D01*
X42722801Y-25881610D01*
X42751395Y-25879564D01*
X43008228Y-25861196D01*
X43287846Y-25800369D01*
X43555961Y-25700367D01*
X43807115Y-25563226D01*
X44036195Y-25391739D01*
X44238539Y-25189395D01*
X44410026Y-24960315D01*
X44547167Y-24709161D01*
X44647169Y-24441046D01*
X44707996Y-24161428D01*
X44728410Y-23876000D01*
X44728410Y-23875998D01*
X46254390Y-23875998D01*
X46254390Y-23876001D01*
X46274804Y-24161433D01*
X46335628Y-24441037D01*
X46435635Y-24709166D01*
X46572770Y-24960309D01*
X46572775Y-24960317D01*
X46744254Y-25189387D01*
X46744270Y-25189405D01*
X46946594Y-25391729D01*
X46946612Y-25391745D01*
X47175682Y-25563224D01*
X47175690Y-25563229D01*
X47426833Y-25700364D01*
X47426832Y-25700364D01*
X47426836Y-25700365D01*
X47426839Y-25700367D01*
X47694954Y-25800369D01*
X47694960Y-25800370D01*
X47694962Y-25800371D01*
X47974566Y-25861195D01*
X47974568Y-25861195D01*
X47974572Y-25861196D01*
X48228220Y-25879337D01*
X48259999Y-25881610D01*
X48260000Y-25881610D01*
X48260001Y-25881610D01*
X48288595Y-25879564D01*
X48545428Y-25861196D01*
X48825046Y-25800369D01*
X49093161Y-25700367D01*
X49344315Y-25563226D01*
X49573395Y-25391739D01*
X49775739Y-25189395D01*
X49947226Y-24960315D01*
X50084367Y-24709161D01*
X50184369Y-24441046D01*
X50245196Y-24161428D01*
X50265610Y-23876000D01*
X50265610Y-23875998D01*
X53874390Y-23875998D01*
X53874390Y-23876001D01*
X53894804Y-24161433D01*
X53955628Y-24441037D01*
X54055635Y-24709166D01*
X54192770Y-24960309D01*
X54192775Y-24960317D01*
X54364254Y-25189387D01*
X54364270Y-25189405D01*
X54566594Y-25391729D01*
X54566612Y-25391745D01*
X54795682Y-25563224D01*
X54795690Y-25563229D01*
X55046833Y-25700364D01*
X55046832Y-25700364D01*
X55046836Y-25700365D01*
X55046839Y-25700367D01*
X55314954Y-25800369D01*
X55314960Y-25800370D01*
X55314962Y-25800371D01*
X55594566Y-25861195D01*
X55594568Y-25861195D01*
X55594572Y-25861196D01*
X55848220Y-25879337D01*
X55879999Y-25881610D01*
X55880000Y-25881610D01*
X55880001Y-25881610D01*
X55908595Y-25879564D01*
X56165428Y-25861196D01*
X56445046Y-25800369D01*
X56713161Y-25700367D01*
X56964315Y-25563226D01*
X57193395Y-25391739D01*
X57395739Y-25189395D01*
X57567226Y-24960315D01*
X57704367Y-24709161D01*
X57804369Y-24441046D01*
X57865196Y-24161428D01*
X57885610Y-23876000D01*
X57885610Y-23875998D01*
X59462390Y-23875998D01*
X59462390Y-23876001D01*
X59482804Y-24161433D01*
X59543628Y-24441037D01*
X59643635Y-24709166D01*
X59780770Y-24960309D01*
X59780775Y-24960317D01*
X59952254Y-25189387D01*
X59952270Y-25189405D01*
X60154594Y-25391729D01*
X60154612Y-25391745D01*
X60383682Y-25563224D01*
X60383690Y-25563229D01*
X60634833Y-25700364D01*
X60634832Y-25700364D01*
X60634836Y-25700365D01*
X60634839Y-25700367D01*
X60902954Y-25800369D01*
X60902960Y-25800370D01*
X60902962Y-25800371D01*
X61182566Y-25861195D01*
X61182568Y-25861195D01*
X61182572Y-25861196D01*
X61436220Y-25879337D01*
X61467999Y-25881610D01*
X61468000Y-25881610D01*
X61468001Y-25881610D01*
X61496595Y-25879564D01*
X61753428Y-25861196D01*
X62033046Y-25800369D01*
X62301161Y-25700367D01*
X62552315Y-25563226D01*
X62781395Y-25391739D01*
X62983739Y-25189395D01*
X63155226Y-24960315D01*
X63292367Y-24709161D01*
X63392369Y-24441046D01*
X63453196Y-24161428D01*
X63473610Y-23876000D01*
X63473610Y-23875998D01*
X67082390Y-23875998D01*
X67082390Y-23876001D01*
X67102804Y-24161433D01*
X67163628Y-24441037D01*
X67263635Y-24709166D01*
X67400770Y-24960309D01*
X67400775Y-24960317D01*
X67572254Y-25189387D01*
X67572270Y-25189405D01*
X67774594Y-25391729D01*
X67774612Y-25391745D01*
X68003682Y-25563224D01*
X68003690Y-25563229D01*
X68254833Y-25700364D01*
X68254832Y-25700364D01*
X68254836Y-25700365D01*
X68254839Y-25700367D01*
X68522954Y-25800369D01*
X68522960Y-25800370D01*
X68522962Y-25800371D01*
X68802566Y-25861195D01*
X68802568Y-25861195D01*
X68802572Y-25861196D01*
X69056220Y-25879337D01*
X69087999Y-25881610D01*
X69088000Y-25881610D01*
X69088001Y-25881610D01*
X69116595Y-25879564D01*
X69373428Y-25861196D01*
X69653046Y-25800369D01*
X69921161Y-25700367D01*
X70172315Y-25563226D01*
X70401395Y-25391739D01*
X70603739Y-25189395D01*
X70775226Y-24960315D01*
X70912367Y-24709161D01*
X71012369Y-24441046D01*
X71073196Y-24161428D01*
X71093610Y-23876000D01*
X71073196Y-23590572D01*
X71012369Y-23310954D01*
X70912367Y-23042839D01*
X70775226Y-22791685D01*
X70775224Y-22791682D01*
X70603745Y-22562612D01*
X70603729Y-22562594D01*
X70401405Y-22360270D01*
X70401387Y-22360254D01*
X70172317Y-22188775D01*
X70172309Y-22188770D01*
X69921166Y-22051635D01*
X69921167Y-22051635D01*
X69813915Y-22011632D01*
X69653046Y-21951631D01*
X69653043Y-21951630D01*
X69653037Y-21951628D01*
X69373433Y-21890804D01*
X69088001Y-21870390D01*
X69087999Y-21870390D01*
X68802566Y-21890804D01*
X68522962Y-21951628D01*
X68254833Y-22051635D01*
X68003690Y-22188770D01*
X68003682Y-22188775D01*
X67774612Y-22360254D01*
X67774594Y-22360270D01*
X67572270Y-22562594D01*
X67572254Y-22562612D01*
X67400775Y-22791682D01*
X67400770Y-22791690D01*
X67263635Y-23042833D01*
X67163628Y-23310962D01*
X67102804Y-23590566D01*
X67082390Y-23875998D01*
X63473610Y-23875998D01*
X63453196Y-23590572D01*
X63392369Y-23310954D01*
X63292367Y-23042839D01*
X63155226Y-22791685D01*
X63155224Y-22791682D01*
X62983745Y-22562612D01*
X62983729Y-22562594D01*
X62781405Y-22360270D01*
X62781387Y-22360254D01*
X62552317Y-22188775D01*
X62552309Y-22188770D01*
X62301166Y-22051635D01*
X62301167Y-22051635D01*
X62193915Y-22011632D01*
X62033046Y-21951631D01*
X62033043Y-21951630D01*
X62033037Y-21951628D01*
X61753433Y-21890804D01*
X61468001Y-21870390D01*
X61467999Y-21870390D01*
X61182566Y-21890804D01*
X60902962Y-21951628D01*
X60634833Y-22051635D01*
X60383690Y-22188770D01*
X60383682Y-22188775D01*
X60154612Y-22360254D01*
X60154594Y-22360270D01*
X59952270Y-22562594D01*
X59952254Y-22562612D01*
X59780775Y-22791682D01*
X59780770Y-22791690D01*
X59643635Y-23042833D01*
X59543628Y-23310962D01*
X59482804Y-23590566D01*
X59462390Y-23875998D01*
X57885610Y-23875998D01*
X57865196Y-23590572D01*
X57804369Y-23310954D01*
X57704367Y-23042839D01*
X57567226Y-22791685D01*
X57567224Y-22791682D01*
X57395745Y-22562612D01*
X57395729Y-22562594D01*
X57193405Y-22360270D01*
X57193387Y-22360254D01*
X56964317Y-22188775D01*
X56964309Y-22188770D01*
X56713166Y-22051635D01*
X56713167Y-22051635D01*
X56605915Y-22011632D01*
X56445046Y-21951631D01*
X56445043Y-21951630D01*
X56445037Y-21951628D01*
X56165433Y-21890804D01*
X55880001Y-21870390D01*
X55879999Y-21870390D01*
X55594566Y-21890804D01*
X55314962Y-21951628D01*
X55046833Y-22051635D01*
X54795690Y-22188770D01*
X54795682Y-22188775D01*
X54566612Y-22360254D01*
X54566594Y-22360270D01*
X54364270Y-22562594D01*
X54364254Y-22562612D01*
X54192775Y-22791682D01*
X54192770Y-22791690D01*
X54055635Y-23042833D01*
X53955628Y-23310962D01*
X53894804Y-23590566D01*
X53874390Y-23875998D01*
X50265610Y-23875998D01*
X50245196Y-23590572D01*
X50184369Y-23310954D01*
X50084367Y-23042839D01*
X49947226Y-22791685D01*
X49947224Y-22791682D01*
X49775745Y-22562612D01*
X49775729Y-22562594D01*
X49573405Y-22360270D01*
X49573387Y-22360254D01*
X49344317Y-22188775D01*
X49344309Y-22188770D01*
X49093166Y-22051635D01*
X49093167Y-22051635D01*
X48985915Y-22011632D01*
X48825046Y-21951631D01*
X48825043Y-21951630D01*
X48825037Y-21951628D01*
X48545433Y-21890804D01*
X48260001Y-21870390D01*
X48259999Y-21870390D01*
X47974566Y-21890804D01*
X47694962Y-21951628D01*
X47426833Y-22051635D01*
X47175690Y-22188770D01*
X47175682Y-22188775D01*
X46946612Y-22360254D01*
X46946594Y-22360270D01*
X46744270Y-22562594D01*
X46744254Y-22562612D01*
X46572775Y-22791682D01*
X46572770Y-22791690D01*
X46435635Y-23042833D01*
X46335628Y-23310962D01*
X46274804Y-23590566D01*
X46254390Y-23875998D01*
X44728410Y-23875998D01*
X44707996Y-23590572D01*
X44647169Y-23310954D01*
X44547167Y-23042839D01*
X44410026Y-22791685D01*
X44410024Y-22791682D01*
X44238545Y-22562612D01*
X44238529Y-22562594D01*
X44036205Y-22360270D01*
X44036187Y-22360254D01*
X43807117Y-22188775D01*
X43807109Y-22188770D01*
X43555966Y-22051635D01*
X43555967Y-22051635D01*
X43448715Y-22011632D01*
X43287846Y-21951631D01*
X43287843Y-21951630D01*
X43287837Y-21951628D01*
X43008233Y-21890804D01*
X42722801Y-21870390D01*
X42722799Y-21870390D01*
X42437366Y-21890804D01*
X42157762Y-21951628D01*
X41889633Y-22051635D01*
X41638490Y-22188770D01*
X41638482Y-22188775D01*
X41409412Y-22360254D01*
X41409394Y-22360270D01*
X41207070Y-22562594D01*
X41207054Y-22562612D01*
X41035575Y-22791682D01*
X41035570Y-22791690D01*
X40898435Y-23042833D01*
X40798428Y-23310962D01*
X40737604Y-23590566D01*
X40717190Y-23875998D01*
X37108410Y-23875998D01*
X37087996Y-23590572D01*
X37027169Y-23310954D01*
X36927167Y-23042839D01*
X36790026Y-22791685D01*
X36790024Y-22791682D01*
X36618545Y-22562612D01*
X36618529Y-22562594D01*
X36416205Y-22360270D01*
X36416187Y-22360254D01*
X36187117Y-22188775D01*
X36187109Y-22188770D01*
X35935966Y-22051635D01*
X35935967Y-22051635D01*
X35828715Y-22011632D01*
X35667846Y-21951631D01*
X35667843Y-21951630D01*
X35667837Y-21951628D01*
X35388233Y-21890804D01*
X35102801Y-21870390D01*
X35102799Y-21870390D01*
X34817366Y-21890804D01*
X34537762Y-21951628D01*
X34269633Y-22051635D01*
X34018490Y-22188770D01*
X34018482Y-22188775D01*
X33789412Y-22360254D01*
X33789394Y-22360270D01*
X33587070Y-22562594D01*
X33587054Y-22562612D01*
X33415575Y-22791682D01*
X33415570Y-22791690D01*
X33278435Y-23042833D01*
X33178428Y-23310962D01*
X33117604Y-23590566D01*
X33097190Y-23875998D01*
X30480000Y-23875998D01*
X30480000Y-14348000D01*
X30499685Y-14280961D01*
X30552489Y-14235206D01*
X30604000Y-14224000D01*
X72266000Y-14224000D01*
X72333039Y-14243685D01*
G37*
%TD.AperFunction*%
%TD*%
M02*
